<?xml version="1.0" standalone="no"?>
<!DOCTYPE svg PUBLIC "-//W3C//DTD SVG 1.1//EN" "http://www.w3.org/Graphics/SVG/1.1/DTD/svg11.dtd">
<svg version="1.1" width="1200" height="678" onload="init(evt)" viewBox="0 0 1200 678" xmlns="http://www.w3.org/2000/svg" xmlns:xlink="http://www.w3.org/1999/xlink">
<style type="text/css">
	text { font-family:Verdana; font-size:12px; fill:rgb(0,0,0); }
	#search { opacity:0.1; cursor:pointer; }
	#search:hover, #search.show { opacity:1; }
	#subtitle { text-anchor:middle; font-color:rgb(160,160,160); }
	#title { text-anchor:middle; font-size:17px}
	#unzoom { cursor:pointer; }
	#frames > *:hover { stroke:black; stroke-width:0.5; cursor:pointer; }
	.hide { display:none; }
	.parent { opacity:0.5; }
</style>
<script type="text/ecmascript">
<![CDATA[
	"use strict";
	var details, searchbtn, unzoombtn, matchedtxt, svg, searching;
	function init(evt) {
		details = document.getElementById("details").firstChild;
		searchbtn = document.getElementById("search");
		unzoombtn = document.getElementById("unzoom");
		matchedtxt = document.getElementById("matched");
		svg = document.getElementsByTagName("svg")[0];
		searching = 0;
	}

	window.addEventListener("click", function(e) {
		var target = find_group(e.target);
		if (target) {
			if (target.nodeName == "a") {
				if (e.ctrlKey === false) return;
				e.preventDefault();
			}
			if (target.classList.contains("parent")) unzoom();
			zoom(target);
		}
		else if (e.target.id == "unzoom") unzoom();
		else if (e.target.id == "search") search_prompt();
	}, false)

	// mouse-over for info
	// show
	window.addEventListener("mouseover", function(e) {
		var target = find_group(e.target);
		if (target) details.nodeValue = "Function: " + g_to_text(target);
	}, false)

	// clear
	window.addEventListener("mouseout", function(e) {
		var target = find_group(e.target);
		if (target) details.nodeValue = ' ';
	}, false)

	// ctrl-F for search
	window.addEventListener("keydown",function (e) {
		if (e.keyCode === 114 || (e.ctrlKey && e.keyCode === 70)) {
			e.preventDefault();
			search_prompt();
		}
	}, false)

	// functions
	function find_child(node, selector) {
		var children = node.querySelectorAll(selector);
		if (children.length) return children[0];
		return;
	}
	function find_group(node) {
		var parent = node.parentElement;
		if (!parent) return;
		if (parent.id == "frames") return node;
		return find_group(parent);
	}
	function orig_save(e, attr, val) {
		if (e.attributes["_orig_" + attr] != undefined) return;
		if (e.attributes[attr] == undefined) return;
		if (val == undefined) val = e.attributes[attr].value;
		e.setAttribute("_orig_" + attr, val);
	}
	function orig_load(e, attr) {
		if (e.attributes["_orig_"+attr] == undefined) return;
		e.attributes[attr].value = e.attributes["_orig_" + attr].value;
		e.removeAttribute("_orig_"+attr);
	}
	function g_to_text(e) {
		var text = find_child(e, "title").firstChild.nodeValue;
		return (text)
	}
	function g_to_func(e) {
		var func = g_to_text(e);
		// if there's any manipulation we want to do to the function
		// name before it's searched, do it here before returning.
		return (func);
	}
	function update_text(e) {
		var r = find_child(e, "rect");
		var t = find_child(e, "text");
		var w = parseFloat(r.attributes.width.value) -3;
		var txt = find_child(e, "title").textContent.replace(/\([^(]*\)$/,"");
		t.attributes.x.value = parseFloat(r.attributes.x.value) + 3;

		// Smaller than this size won't fit anything
		if (w < 2 * 12 * 0.59) {
			t.textContent = "";
			return;
		}

		t.textContent = txt;
		// Fit in full text width
		if (/^ *$/.test(txt) || t.getSubStringLength(0, txt.length) < w)
			return;

		for (var x = txt.length - 2; x > 0; x--) {
			if (t.getSubStringLength(0, x + 2) <= w) {
				t.textContent = txt.substring(0, x) + "..";
				return;
			}
		}
		t.textContent = "";
	}

	// zoom
	function zoom_reset(e) {
		if (e.attributes != undefined) {
			orig_load(e, "x");
			orig_load(e, "width");
		}
		if (e.childNodes == undefined) return;
		for (var i = 0, c = e.childNodes; i < c.length; i++) {
			zoom_reset(c[i]);
		}
	}
	function zoom_child(e, x, ratio) {
		if (e.attributes != undefined) {
			if (e.attributes.x != undefined) {
				orig_save(e, "x");
				e.attributes.x.value = (parseFloat(e.attributes.x.value) - x - 10) * ratio + 10;
				if (e.tagName == "text")
					e.attributes.x.value = find_child(e.parentNode, "rect[x]").attributes.x.value + 3;
			}
			if (e.attributes.width != undefined) {
				orig_save(e, "width");
				e.attributes.width.value = parseFloat(e.attributes.width.value) * ratio;
			}
		}

		if (e.childNodes == undefined) return;
		for (var i = 0, c = e.childNodes; i < c.length; i++) {
			zoom_child(c[i], x - 10, ratio);
		}
	}
	function zoom_parent(e) {
		if (e.attributes) {
			if (e.attributes.x != undefined) {
				orig_save(e, "x");
				e.attributes.x.value = 10;
			}
			if (e.attributes.width != undefined) {
				orig_save(e, "width");
				e.attributes.width.value = parseInt(svg.width.baseVal.value) - (10 * 2);
			}
		}
		if (e.childNodes == undefined) return;
		for (var i = 0, c = e.childNodes; i < c.length; i++) {
			zoom_parent(c[i]);
		}
	}
	function zoom(node) {
		var attr = find_child(node, "rect").attributes;
		var width = parseFloat(attr.width.value);
		var xmin = parseFloat(attr.x.value);
		var xmax = parseFloat(xmin + width);
		var ymin = parseFloat(attr.y.value);
		var ratio = (svg.width.baseVal.value - 2 * 10) / width;

		// XXX: Workaround for JavaScript float issues (fix me)
		var fudge = 0.0001;

		unzoombtn.classList.remove("hide");

		var el = document.getElementById("frames").children;
		for (var i = 0; i < el.length; i++) {
			var e = el[i];
			var a = find_child(e, "rect").attributes;
			var ex = parseFloat(a.x.value);
			var ew = parseFloat(a.width.value);
			var upstack;
			// Is it an ancestor
			if (0 == 0) {
				upstack = parseFloat(a.y.value) > ymin;
			} else {
				upstack = parseFloat(a.y.value) < ymin;
			}
			if (upstack) {
				// Direct ancestor
				if (ex <= xmin && (ex+ew+fudge) >= xmax) {
					e.classList.add("parent");
					zoom_parent(e);
					update_text(e);
				}
				// not in current path
				else
					e.classList.add("hide");
			}
			// Children maybe
			else {
				// no common path
				if (ex < xmin || ex + fudge >= xmax) {
					e.classList.add("hide");
				}
				else {
					zoom_child(e, xmin, ratio);
					update_text(e);
				}
			}
		}
	}
	function unzoom() {
		unzoombtn.classList.add("hide");
		var el = document.getElementById("frames").children;
		for(var i = 0; i < el.length; i++) {
			el[i].classList.remove("parent");
			el[i].classList.remove("hide");
			zoom_reset(el[i]);
			update_text(el[i]);
		}
	}

	// search
	function reset_search() {
		var el = document.querySelectorAll("#frames rect");
		for (var i = 0; i < el.length; i++) {
			orig_load(el[i], "fill")
		}
	}
	function search_prompt() {
		if (!searching) {
			var term = prompt("Enter a search term (regexp " +
			    "allowed, eg: ^ext4_)", "");
			if (term != null) {
				search(term)
			}
		} else {
			reset_search();
			searching = 0;
			searchbtn.classList.remove("show");
			searchbtn.firstChild.nodeValue = "Search"
			matchedtxt.classList.add("hide");
			matchedtxt.firstChild.nodeValue = ""
		}
	}
	function search(term) {
		var re = new RegExp(term);
		var el = document.getElementById("frames").children;
		var matches = new Object();
		var maxwidth = 0;
		for (var i = 0; i < el.length; i++) {
			var e = el[i];
			var func = g_to_func(e);
			var rect = find_child(e, "rect");
			if (func == null || rect == null)
				continue;

			// Save max width. Only works as we have a root frame
			var w = parseFloat(rect.attributes.width.value);
			if (w > maxwidth)
				maxwidth = w;

			if (func.match(re)) {
				// highlight
				var x = parseFloat(rect.attributes.x.value);
				orig_save(rect, "fill");
				rect.attributes.fill.value = "rgb(230,0,230)";

				// remember matches
				if (matches[x] == undefined) {
					matches[x] = w;
				} else {
					if (w > matches[x]) {
						// overwrite with parent
						matches[x] = w;
					}
				}
				searching = 1;
			}
		}
		if (!searching)
			return;

		searchbtn.classList.add("show");
		searchbtn.firstChild.nodeValue = "Reset Search";

		// calculate percent matched, excluding vertical overlap
		var count = 0;
		var lastx = -1;
		var lastw = 0;
		var keys = Array();
		for (k in matches) {
			if (matches.hasOwnProperty(k))
				keys.push(k);
		}
		// sort the matched frames by their x location
		// ascending, then width descending
		keys.sort(function(a, b){
			return a - b;
		});
		// Step through frames saving only the biggest bottom-up frames
		// thanks to the sort order. This relies on the tree property
		// where children are always smaller than their parents.
		var fudge = 0.0001;	// JavaScript floating point
		for (var k in keys) {
			var x = parseFloat(keys[k]);
			var w = matches[keys[k]];
			if (x >= lastx + lastw - fudge) {
				count += w;
				lastx = x;
				lastw = w;
			}
		}
		// display matched percent
		matchedtxt.classList.remove("hide");
		var pct = 100 * count / maxwidth;
		if (pct != 100) pct = pct.toFixed(1)
		matchedtxt.firstChild.nodeValue = "Matched: " + pct + "%";
	}
]]>
</script>
<rect x="0" y="0" width="100%" height="100%" fill="rgb(240,240,220)"/>
<text id="title" x="600" y="24">Flame Graph</text>
<text id="details" x="10" y="661"> </text>
<text id="unzoom" x="10" y="24" class="hide">Reset Zoom</text>
<text id="search" x="1090" y="24">Search</text>
<text id="matched" x="1090" y="661"> </text>
<g id="frames">
<g>
<title>all (23 samples, 100.00%)</title><rect x="10.0" y="627.0" width="1180.0" height="15" fill="#fa7b7b" rx="2" ry="2"/>
<text x="13.0" y="638.0">all</text>
</g>
<g>
<title>[deoptimization] (1 samples, 4.35%)</title><rect x="10.0" y="611.0" width="51.3" height="15" fill="#ec6969" rx="2" ry="2"/>
<text x="13.0" y="622.0">[deop..</text>
</g>
<g>
<title>[unknown] (1 samples, 4.35%)</title><rect x="10.0" y="595.0" width="51.3" height="15" fill="#f87979" rx="2" ry="2"/>
<text x="13.0" y="606.0">[unkn..</text>
</g>
<g>
<title>malloc_consolidate (1 samples, 4.35%)</title><rect x="10.0" y="579.0" width="51.3" height="15" fill="#f87979" rx="2" ry="2"/>
<text x="13.0" y="590.0">mallo..</text>
</g>
<g>
<title>com/linecorp/decaton/processor/runtime/ProcessorSubscription.run (2 samples, 8.70%)</title><rect x="61.3" y="611.0" width="102.6" height="15" fill="#6bfc6b" rx="2" ry="2"/>
<text x="64.3" y="622.0">com/linecorp..</text>
</g>
<g>
<title>com/linecorp/decaton/processor/runtime/ProcessorSubscription.pollOnce (2 samples, 8.70%)</title><rect x="61.3" y="595.0" width="102.6" height="15" fill="#55e655" rx="2" ry="2"/>
<text x="64.3" y="606.0">com/linecorp..</text>
</g>
<g>
<title>org/apache/kafka/clients/consumer/KafkaConsumer.poll (2 samples, 8.70%)</title><rect x="61.3" y="579.0" width="102.6" height="15" fill="#5aeb5a" rx="2" ry="2"/>
<text x="64.3" y="590.0">org/apache/k..</text>
</g>
<g>
<title>org/apache/kafka/clients/consumer/KafkaConsumer.poll (2 samples, 8.70%)</title><rect x="61.3" y="563.0" width="102.6" height="15" fill="#67f867" rx="2" ry="2"/>
<text x="64.3" y="574.0">org/apache/k..</text>
</g>
<g>
<title>org/apache/kafka/clients/consumer/KafkaConsumer.pollForFetches (1 samples, 4.35%)</title><rect x="61.3" y="547.0" width="51.3" height="15" fill="#58e958" rx="2" ry="2"/>
<text x="64.3" y="558.0">org/a..</text>
</g>
<g>
<title>org/apache/kafka/clients/consumer/internals/Fetcher.fetchedRecords (1 samples, 4.35%)</title><rect x="61.3" y="531.0" width="51.3" height="15" fill="#60f160" rx="2" ry="2"/>
<text x="64.3" y="542.0">org/a..</text>
</g>
<g>
<title>org/apache/kafka/clients/consumer/internals/Fetcher.fetchRecords (1 samples, 4.35%)</title><rect x="61.3" y="515.0" width="51.3" height="15" fill="#5eef5e" rx="2" ry="2"/>
<text x="64.3" y="526.0">org/a..</text>
</g>
<g>
<title>org/apache/kafka/clients/consumer/internals/Fetcher$CompletedFetch.access$1700 (1 samples, 4.35%)</title><rect x="61.3" y="499.0" width="51.3" height="15" fill="#62f362" rx="2" ry="2"/>
<text x="64.3" y="510.0">org/a..</text>
</g>
<g>
<title>org/apache/kafka/clients/consumer/internals/Fetcher$CompletedFetch.fetchRecords (1 samples, 4.35%)</title><rect x="61.3" y="483.0" width="51.3" height="15" fill="#5aeb5a" rx="2" ry="2"/>
<text x="64.3" y="494.0">org/a..</text>
</g>
<g>
<title>org/apache/kafka/clients/consumer/internals/Fetcher.access$3500 (1 samples, 4.35%)</title><rect x="61.3" y="467.0" width="51.3" height="15" fill="#5ff05f" rx="2" ry="2"/>
<text x="64.3" y="478.0">org/a..</text>
</g>
<g>
<title>org/apache/kafka/clients/consumer/internals/Fetcher.parseRecord (1 samples, 4.35%)</title><rect x="61.3" y="451.0" width="51.3" height="15" fill="#6cfd6c" rx="2" ry="2"/>
<text x="64.3" y="462.0">org/a..</text>
</g>
<g>
<title>org/apache/kafka/clients/consumer/internals/Fetcher.maybeLeaderEpoch (1 samples, 4.35%)</title><rect x="61.3" y="435.0" width="51.3" height="15" fill="#6bfc6b" rx="2" ry="2"/>
<text x="64.3" y="446.0">org/a..</text>
</g>
<g>
<title>java/util/Optional.of (1 samples, 4.35%)</title><rect x="61.3" y="419.0" width="51.3" height="15" fill="#63f463" rx="2" ry="2"/>
<text x="64.3" y="430.0">java/..</text>
</g>
<g>
<title>org/apache/kafka/clients/consumer/internals/ConsumerNetworkClient.transmitSends (1 samples, 4.35%)</title><rect x="112.6" y="547.0" width="51.3" height="15" fill="#65f665" rx="2" ry="2"/>
<text x="115.6" y="558.0">org/a..</text>
</g>
<g>
<title>org/apache/kafka/clients/consumer/internals/ConsumerNetworkClient.trySend (1 samples, 4.35%)</title><rect x="112.6" y="531.0" width="51.3" height="15" fill="#54e554" rx="2" ry="2"/>
<text x="115.6" y="542.0">org/a..</text>
</g>
<g>
<title>org/apache/kafka/clients/NetworkClient.send (1 samples, 4.35%)</title><rect x="112.6" y="515.0" width="51.3" height="15" fill="#62f362" rx="2" ry="2"/>
<text x="115.6" y="526.0">org/a..</text>
</g>
<g>
<title>org/apache/kafka/clients/NetworkClient.doSend (1 samples, 4.35%)</title><rect x="112.6" y="499.0" width="51.3" height="15" fill="#50e150" rx="2" ry="2"/>
<text x="115.6" y="510.0">org/a..</text>
</g>
<g>
<title>org/apache/kafka/clients/NetworkClient.doSend (1 samples, 4.35%)</title><rect x="112.6" y="483.0" width="51.3" height="15" fill="#57e857" rx="2" ry="2"/>
<text x="115.6" y="494.0">org/a..</text>
</g>
<g>
<title>org/apache/kafka/common/requests/AbstractRequest.toSend (1 samples, 4.35%)</title><rect x="112.6" y="467.0" width="51.3" height="15" fill="#54e554" rx="2" ry="2"/>
<text x="115.6" y="478.0">org/a..</text>
</g>
<g>
<title>org/apache/kafka/common/requests/AbstractRequest.serialize (1 samples, 4.35%)</title><rect x="112.6" y="451.0" width="51.3" height="15" fill="#68f968" rx="2" ry="2"/>
<text x="115.6" y="462.0">org/a..</text>
</g>
<g>
<title>org/apache/kafka/common/requests/FetchRequest.toStruct (1 samples, 4.35%)</title><rect x="112.6" y="435.0" width="51.3" height="15" fill="#54e554" rx="2" ry="2"/>
<text x="115.6" y="446.0">org/a..</text>
</g>
<g>
<title>org/apache/kafka/common/protocol/ApiKeys.requestSchema (1 samples, 4.35%)</title><rect x="112.6" y="419.0" width="51.3" height="15" fill="#5ced5c" rx="2" ry="2"/>
<text x="115.6" y="430.0">org/a..</text>
</g>
<g>
<title>java/lang/Thread.run (1 samples, 4.35%)</title><rect x="163.9" y="611.0" width="51.3" height="15" fill="#53e453" rx="2" ry="2"/>
<text x="166.9" y="622.0">java/..</text>
</g>
<g>
<title>java/util/concurrent/ThreadPoolExecutor$Worker.run (1 samples, 4.35%)</title><rect x="163.9" y="595.0" width="51.3" height="15" fill="#53e453" rx="2" ry="2"/>
<text x="166.9" y="606.0">java/..</text>
</g>
<g>
<title>java/util/concurrent/ThreadPoolExecutor.runWorker (1 samples, 4.35%)</title><rect x="163.9" y="579.0" width="51.3" height="15" fill="#6dfe6d" rx="2" ry="2"/>
<text x="166.9" y="590.0">java/..</text>
</g>
<g>
<title>java/util/concurrent/ThreadPoolExecutor.getTask (1 samples, 4.35%)</title><rect x="163.9" y="563.0" width="51.3" height="15" fill="#56e756" rx="2" ry="2"/>
<text x="166.9" y="574.0">java/..</text>
</g>
<g>
<title>java/util/concurrent/LinkedBlockingQueue.take (1 samples, 4.35%)</title><rect x="163.9" y="547.0" width="51.3" height="15" fill="#5ff05f" rx="2" ry="2"/>
<text x="166.9" y="558.0">java/..</text>
</g>
<g>
<title>java/util/concurrent/locks/ReentrantLock.unlock (1 samples, 4.35%)</title><rect x="163.9" y="531.0" width="51.3" height="15" fill="#69fa69" rx="2" ry="2"/>
<text x="166.9" y="542.0">java/..</text>
</g>
<g>
<title>java/util/concurrent/locks/AbstractQueuedSynchronizer.release (1 samples, 4.35%)</title><rect x="163.9" y="515.0" width="51.3" height="15" fill="#62f362" rx="2" ry="2"/>
<text x="166.9" y="526.0">java/..</text>
</g>
<g>
<title>java/util/concurrent/locks/AbstractQueuedSynchronizer.unparkSuccessor (1 samples, 4.35%)</title><rect x="163.9" y="499.0" width="51.3" height="15" fill="#58e958" rx="2" ry="2"/>
<text x="166.9" y="510.0">java/..</text>
</g>
<g>
<title>malloc (1 samples, 4.35%)</title><rect x="215.2" y="611.0" width="51.3" height="15" fill="#f47373" rx="2" ry="2"/>
<text x="218.2" y="622.0">malloc</text>
</g>
<g>
<title>start_thread (18 samples, 78.26%)</title><rect x="266.5" y="611.0" width="923.5" height="15" fill="#f06e6e" rx="2" ry="2"/>
<text x="269.5" y="622.0">start_thread</text>
</g>
<g>
<title>java_start(Thread*) (18 samples, 78.26%)</title><rect x="266.5" y="595.0" width="923.5" height="15" fill="#ef6d6d" rx="2" ry="2"/>
<text x="269.5" y="606.0">java_start(Thread*)</text>
</g>
<g>
<title>GangWorker::loop() (3 samples, 13.04%)</title><rect x="266.5" y="579.0" width="153.9" height="15" fill="#e5e545" rx="2" ry="2"/>
<text x="269.5" y="590.0">GangWorker::loop()</text>
</g>
<g>
<title>G1ParTask::work(unsigned int) [clone .part.431] (3 samples, 13.04%)</title><rect x="266.5" y="563.0" width="153.9" height="15" fill="#d0d03e" rx="2" ry="2"/>
<text x="269.5" y="574.0">G1ParTask::work(uns..</text>
</g>
<g>
<title>G1ParEvacuateFollowersClosure::do_void() (3 samples, 13.04%)</title><rect x="266.5" y="547.0" width="153.9" height="15" fill="#dfdf43" rx="2" ry="2"/>
<text x="269.5" y="558.0">G1ParEvacuateFollow..</text>
</g>
<g>
<title>G1ParScanThreadState::trim_queue() (1 samples, 4.35%)</title><rect x="266.5" y="531.0" width="51.3" height="15" fill="#d7d741" rx="2" ry="2"/>
<text x="269.5" y="542.0">G1Par..</text>
</g>
<g>
<title>GenericTaskQueueSet&lt;OverflowTaskQueue&lt;StarTask, (MemoryType)5, 131072u&gt;, (MemoryType)5&gt;::steal_best_of_2(unsigned int, int*, StarTask&amp;) (1 samples, 4.35%)</title><rect x="317.8" y="531.0" width="51.3" height="15" fill="#dfdf43" rx="2" ry="2"/>
<text x="320.8" y="542.0">Gener..</text>
</g>
<g>
<title>TaskQueueSetSuper::randomParkAndMiller(int*) (1 samples, 4.35%)</title><rect x="369.1" y="531.0" width="51.3" height="15" fill="#d4d440" rx="2" ry="2"/>
<text x="372.1" y="542.0">TaskQ..</text>
</g>
<g>
<title>JavaThread::thread_main_inner() (15 samples, 65.22%)</title><rect x="420.4" y="579.0" width="769.6" height="15" fill="#e2e244" rx="2" ry="2"/>
<text x="423.4" y="590.0">JavaThread::thread_main_inner()</text>
</g>
<g>
<title>CompileBroker::compiler_thread_loop() (15 samples, 65.22%)</title><rect x="420.4" y="563.0" width="769.6" height="15" fill="#d0d03e" rx="2" ry="2"/>
<text x="423.4" y="574.0">CompileBroker::compiler_thread_loop()</text>
</g>
<g>
<title>CompileBroker::invoke_compiler_on_method(CompileTask*) (15 samples, 65.22%)</title><rect x="420.4" y="547.0" width="769.6" height="15" fill="#d2d23f" rx="2" ry="2"/>
<text x="423.4" y="558.0">CompileBroker::invoke_compiler_on_method(CompileTask*)</text>
</g>
<g>
<title>C2Compiler::compile_method(ciEnv*, ciMethod*, int) (13 samples, 56.52%)</title><rect x="420.4" y="531.0" width="667.0" height="15" fill="#e0e044" rx="2" ry="2"/>
<text x="423.4" y="542.0">C2Compiler::compile_method(ciEnv*, ciMethod*, int)</text>
</g>
<g>
<title>Compile::Compile(ciEnv*, C2Compiler*, ciMethod*, int, bool, bool, bool) (13 samples, 56.52%)</title><rect x="420.4" y="515.0" width="667.0" height="15" fill="#e3e345" rx="2" ry="2"/>
<text x="423.4" y="526.0">Compile::Compile(ciEnv*, C2Compiler*, ciMethod*, int, bool, bool, bool)</text>
</g>
<g>
<title>Compile::Code_Gen() (8 samples, 34.78%)</title><rect x="420.4" y="499.0" width="410.5" height="15" fill="#caca3c" rx="2" ry="2"/>
<text x="423.4" y="510.0">Compile::Code_Gen()</text>
</g>
<g>
<title>Matcher::match() (2 samples, 8.70%)</title><rect x="420.4" y="483.0" width="102.6" height="15" fill="#e4e445" rx="2" ry="2"/>
<text x="423.4" y="494.0">Matcher::mat..</text>
</g>
<g>
<title>CmpINode::Opcode() const (1 samples, 4.35%)</title><rect x="420.4" y="467.0" width="51.3" height="15" fill="#d7d741" rx="2" ry="2"/>
<text x="423.4" y="478.0">CmpIN..</text>
</g>
<g>
<title>Matcher::xform(Node*, int) (1 samples, 4.35%)</title><rect x="471.7" y="467.0" width="51.3" height="15" fill="#caca3c" rx="2" ry="2"/>
<text x="474.7" y="478.0">Match..</text>
</g>
<g>
<title>Matcher::match_tree(Node const*) (1 samples, 4.35%)</title><rect x="471.7" y="451.0" width="51.3" height="15" fill="#cdcd3d" rx="2" ry="2"/>
<text x="474.7" y="462.0">Match..</text>
</g>
<g>
<title>Matcher::Label_Root(Node const*, State*, Node*, Node const*) (1 samples, 4.35%)</title><rect x="471.7" y="435.0" width="51.3" height="15" fill="#dbdb42" rx="2" ry="2"/>
<text x="474.7" y="446.0">Match..</text>
</g>
<g>
<title>Matcher::Label_Root(Node const*, State*, Node*, Node const*) (1 samples, 4.35%)</title><rect x="471.7" y="419.0" width="51.3" height="15" fill="#e2e244" rx="2" ry="2"/>
<text x="474.7" y="430.0">Match..</text>
</g>
<g>
<title>Matcher::Label_Root(Node const*, State*, Node*, Node const*) (1 samples, 4.35%)</title><rect x="471.7" y="403.0" width="51.3" height="15" fill="#d2d23f" rx="2" ry="2"/>
<text x="474.7" y="414.0">Match..</text>
</g>
<g>
<title>Matcher::Label_Root(Node const*, State*, Node*, Node const*) (1 samples, 4.35%)</title><rect x="471.7" y="387.0" width="51.3" height="15" fill="#c9c93c" rx="2" ry="2"/>
<text x="474.7" y="398.0">Match..</text>
</g>
<g>
<title>PhaseChaitin::Register_Allocate() (6 samples, 26.09%)</title><rect x="523.0" y="483.0" width="307.9" height="15" fill="#c8c83c" rx="2" ry="2"/>
<text x="526.0" y="494.0">PhaseChaitin::Register_Allocate()</text>
</g>
<g>
<title>PhaseChaitin::Select() (2 samples, 8.70%)</title><rect x="523.0" y="467.0" width="102.7" height="15" fill="#d5d540" rx="2" ry="2"/>
<text x="526.0" y="478.0">PhaseChaitin..</text>
</g>
<g>
<title>PhaseChaitin::bias_color(LRG&amp;, int) (2 samples, 8.70%)</title><rect x="523.0" y="451.0" width="102.7" height="15" fill="#c9c93c" rx="2" ry="2"/>
<text x="526.0" y="462.0">PhaseChaitin..</text>
</g>
<g>
<title>RegMask::find_first_set(int) const (1 samples, 4.35%)</title><rect x="574.3" y="435.0" width="51.4" height="15" fill="#cfcf3e" rx="2" ry="2"/>
<text x="577.3" y="446.0">RegMa..</text>
</g>
<g>
<title>PhaseChaitin::Simplify() (1 samples, 4.35%)</title><rect x="625.7" y="467.0" width="51.3" height="15" fill="#e5e545" rx="2" ry="2"/>
<text x="628.7" y="478.0">Phase..</text>
</g>
<g>
<title>IndexSetIterator::advance_and_next() (1 samples, 4.35%)</title><rect x="625.7" y="451.0" width="51.3" height="15" fill="#e3e345" rx="2" ry="2"/>
<text x="628.7" y="462.0">Index..</text>
</g>
<g>
<title>PhaseChaitin::build_ifg_physical(ResourceArea*) (1 samples, 4.35%)</title><rect x="677.0" y="467.0" width="51.3" height="15" fill="#e1e144" rx="2" ry="2"/>
<text x="680.0" y="478.0">Phase..</text>
</g>
<g>
<title>PhaseChaitin::interfere_with_live(unsigned int, IndexSet*) (1 samples, 4.35%)</title><rect x="677.0" y="451.0" width="51.3" height="15" fill="#cfcf3e" rx="2" ry="2"/>
<text x="680.0" y="462.0">Phase..</text>
</g>
<g>
<title>IndexSetIterator::advance_and_next() (1 samples, 4.35%)</title><rect x="677.0" y="435.0" width="51.3" height="15" fill="#d8d841" rx="2" ry="2"/>
<text x="680.0" y="446.0">Index..</text>
</g>
<g>
<title>PhaseChaitin::build_ifg_virtual() (2 samples, 8.70%)</title><rect x="728.3" y="467.0" width="102.6" height="15" fill="#d3d33f" rx="2" ry="2"/>
<text x="731.3" y="478.0">PhaseChaitin..</text>
</g>
<g>
<title>PhaseChaitin::interfere_with_live(unsigned int, IndexSet*) (2 samples, 8.70%)</title><rect x="728.3" y="451.0" width="102.6" height="15" fill="#dede43" rx="2" ry="2"/>
<text x="731.3" y="462.0">PhaseChaitin..</text>
</g>
<g>
<title>Compile::Optimize() (3 samples, 13.04%)</title><rect x="830.9" y="499.0" width="153.9" height="15" fill="#d7d741" rx="2" ry="2"/>
<text x="833.9" y="510.0">Compile::Optimize()</text>
</g>
<g>
<title>PhaseIdealLoop::build_and_optimize(bool, bool) (3 samples, 13.04%)</title><rect x="830.9" y="483.0" width="153.9" height="15" fill="#dcdc42" rx="2" ry="2"/>
<text x="833.9" y="494.0">PhaseIdealLoop::bui..</text>
</g>
<g>
<title>PhaseIdealLoop::Dominators() (1 samples, 4.35%)</title><rect x="830.9" y="467.0" width="51.3" height="15" fill="#d7d741" rx="2" ry="2"/>
<text x="833.9" y="478.0">Phase..</text>
</g>
<g>
<title>PhaseIdealLoop::build_loop_late(VectorSet&amp;, Node_List&amp;, Node_Stack&amp;) (2 samples, 8.70%)</title><rect x="882.2" y="467.0" width="102.6" height="15" fill="#c9c93c" rx="2" ry="2"/>
<text x="885.2" y="478.0">PhaseIdealLo..</text>
</g>
<g>
<title>PhaseIdealLoop::build_loop_late_post(Node*) (1 samples, 4.35%)</title><rect x="933.5" y="451.0" width="51.3" height="15" fill="#d5d540" rx="2" ry="2"/>
<text x="936.5" y="462.0">Phase..</text>
</g>
<g>
<title>PhaseIdealLoop::get_late_ctrl(Node*, Node*) (1 samples, 4.35%)</title><rect x="933.5" y="435.0" width="51.3" height="15" fill="#e3e345" rx="2" ry="2"/>
<text x="936.5" y="446.0">Phase..</text>
</g>
<g>
<title>PhaseIdealLoop::is_dominator(Node*, Node*) (1 samples, 4.35%)</title><rect x="933.5" y="419.0" width="51.3" height="15" fill="#e3e345" rx="2" ry="2"/>
<text x="936.5" y="430.0">Phase..</text>
</g>
<g>
<title>ParseGenerator::generate(JVMState*) (2 samples, 8.70%)</title><rect x="984.8" y="499.0" width="102.6" height="15" fill="#dddd43" rx="2" ry="2"/>
<text x="987.8" y="510.0">ParseGenerat..</text>
</g>
<g>
<title>Parse::Parse(JVMState*, ciMethod*, float) (2 samples, 8.70%)</title><rect x="984.8" y="483.0" width="102.6" height="15" fill="#d0d03e" rx="2" ry="2"/>
<text x="987.8" y="494.0">Parse::Parse..</text>
</g>
<g>
<title>Parse::do_all_blocks() (2 samples, 8.70%)</title><rect x="984.8" y="467.0" width="102.6" height="15" fill="#dede43" rx="2" ry="2"/>
<text x="987.8" y="478.0">Parse::do_al..</text>
</g>
<g>
<title>Parse::do_one_block() (2 samples, 8.70%)</title><rect x="984.8" y="451.0" width="102.6" height="15" fill="#dbdb42" rx="2" ry="2"/>
<text x="987.8" y="462.0">Parse::do_on..</text>
</g>
<g>
<title>Parse::do_one_bytecode() (2 samples, 8.70%)</title><rect x="984.8" y="435.0" width="102.6" height="15" fill="#d2d23f" rx="2" ry="2"/>
<text x="987.8" y="446.0">Parse::do_on..</text>
</g>
<g>
<title>Parse::do_call() (2 samples, 8.70%)</title><rect x="984.8" y="419.0" width="102.6" height="15" fill="#dcdc42" rx="2" ry="2"/>
<text x="987.8" y="430.0">Parse::do_ca..</text>
</g>
<g>
<title>ParseGenerator::generate(JVMState*) (2 samples, 8.70%)</title><rect x="984.8" y="403.0" width="102.6" height="15" fill="#cccc3d" rx="2" ry="2"/>
<text x="987.8" y="414.0">ParseGenerat..</text>
</g>
<g>
<title>Parse::Parse(JVMState*, ciMethod*, float) (2 samples, 8.70%)</title><rect x="984.8" y="387.0" width="102.6" height="15" fill="#d5d540" rx="2" ry="2"/>
<text x="987.8" y="398.0">Parse::Parse..</text>
</g>
<g>
<title>Parse::do_all_blocks() (2 samples, 8.70%)</title><rect x="984.8" y="371.0" width="102.6" height="15" fill="#e2e244" rx="2" ry="2"/>
<text x="987.8" y="382.0">Parse::do_al..</text>
</g>
<g>
<title>Parse::do_one_block() (2 samples, 8.70%)</title><rect x="984.8" y="355.0" width="102.6" height="15" fill="#e0e044" rx="2" ry="2"/>
<text x="987.8" y="366.0">Parse::do_on..</text>
</g>
<g>
<title>Parse::do_one_bytecode() (2 samples, 8.70%)</title><rect x="984.8" y="339.0" width="102.6" height="15" fill="#d1d13f" rx="2" ry="2"/>
<text x="987.8" y="350.0">Parse::do_on..</text>
</g>
<g>
<title>Parse::do_call() (2 samples, 8.70%)</title><rect x="984.8" y="323.0" width="102.6" height="15" fill="#cece3e" rx="2" ry="2"/>
<text x="987.8" y="334.0">Parse::do_ca..</text>
</g>
<g>
<title>ParseGenerator::generate(JVMState*) (2 samples, 8.70%)</title><rect x="984.8" y="307.0" width="102.6" height="15" fill="#e2e244" rx="2" ry="2"/>
<text x="987.8" y="318.0">ParseGenerat..</text>
</g>
<g>
<title>Parse::Parse(JVMState*, ciMethod*, float) (2 samples, 8.70%)</title><rect x="984.8" y="291.0" width="102.6" height="15" fill="#d2d23f" rx="2" ry="2"/>
<text x="987.8" y="302.0">Parse::Parse..</text>
</g>
<g>
<title>Parse::do_all_blocks() (2 samples, 8.70%)</title><rect x="984.8" y="275.0" width="102.6" height="15" fill="#dcdc42" rx="2" ry="2"/>
<text x="987.8" y="286.0">Parse::do_al..</text>
</g>
<g>
<title>Parse::do_one_block() (2 samples, 8.70%)</title><rect x="984.8" y="259.0" width="102.6" height="15" fill="#e4e445" rx="2" ry="2"/>
<text x="987.8" y="270.0">Parse::do_on..</text>
</g>
<g>
<title>Parse::do_one_bytecode() (2 samples, 8.70%)</title><rect x="984.8" y="243.0" width="102.6" height="15" fill="#d9d941" rx="2" ry="2"/>
<text x="987.8" y="254.0">Parse::do_on..</text>
</g>
<g>
<title>Parse::do_call() (2 samples, 8.70%)</title><rect x="984.8" y="227.0" width="102.6" height="15" fill="#dbdb42" rx="2" ry="2"/>
<text x="987.8" y="238.0">Parse::do_ca..</text>
</g>
<g>
<title>Compile::call_generator(ciMethod*, int, bool, JVMState*, bool, float, ciKlass*, bool, bool) (1 samples, 4.35%)</title><rect x="984.8" y="211.0" width="51.3" height="15" fill="#e1e144" rx="2" ry="2"/>
<text x="987.8" y="222.0">Compi..</text>
</g>
<g>
<title>CallGenerator::for_method_handle_call(JVMState*, ciMethod*, ciMethod*, bool) (1 samples, 4.35%)</title><rect x="984.8" y="195.0" width="51.3" height="15" fill="#d5d540" rx="2" ry="2"/>
<text x="987.8" y="206.0">CallG..</text>
</g>
<g>
<title>CallGenerator::for_method_handle_inline(JVMState*, ciMethod*, ciMethod*, bool&amp;) (1 samples, 4.35%)</title><rect x="984.8" y="179.0" width="51.3" height="15" fill="#e3e345" rx="2" ry="2"/>
<text x="987.8" y="190.0">CallG..</text>
</g>
<g>
<title>ciMemberName::get_vmtarget() const (1 samples, 4.35%)</title><rect x="984.8" y="163.0" width="51.3" height="15" fill="#d3d33f" rx="2" ry="2"/>
<text x="987.8" y="174.0">ciMem..</text>
</g>
<g>
<title>ciObjectFactory::get_metadata(Metadata*) (1 samples, 4.35%)</title><rect x="984.8" y="147.0" width="51.3" height="15" fill="#e0e044" rx="2" ry="2"/>
<text x="987.8" y="158.0">ciObj..</text>
</g>
<g>
<title>ciObjectFactory::create_new_metadata(Metadata*) (1 samples, 4.35%)</title><rect x="984.8" y="131.0" width="51.3" height="15" fill="#dcdc42" rx="2" ry="2"/>
<text x="987.8" y="142.0">ciObj..</text>
</g>
<g>
<title>ciMethod::ciMethod(methodHandle, ciInstanceKlass*) (1 samples, 4.35%)</title><rect x="984.8" y="115.0" width="51.3" height="15" fill="#e3e345" rx="2" ry="2"/>
<text x="987.8" y="126.0">ciMet..</text>
</g>
<g>
<title>ciSignature::ciSignature(ciKlass*, constantPoolHandle, ciSymbol*) (1 samples, 4.35%)</title><rect x="984.8" y="99.0" width="51.3" height="15" fill="#d6d640" rx="2" ry="2"/>
<text x="987.8" y="110.0">ciSig..</text>
</g>
<g>
<title>ciEnv::get_klass_by_name_impl(ciKlass*, constantPoolHandle, ciSymbol*, bool) (1 samples, 4.35%)</title><rect x="984.8" y="83.0" width="51.3" height="15" fill="#cece3e" rx="2" ry="2"/>
<text x="987.8" y="94.0">ciEnv..</text>
</g>
<g>
<title>SystemDictionary::find_constrained_instance_or_array_klass(Symbol*, Handle, Thread*) (1 samples, 4.35%)</title><rect x="984.8" y="67.0" width="51.3" height="15" fill="#e4e445" rx="2" ry="2"/>
<text x="987.8" y="78.0">Syste..</text>
</g>
<g>
<title>SystemDictionary::find(Symbol*, Handle, Handle, Thread*) (1 samples, 4.35%)</title><rect x="984.8" y="51.0" width="51.3" height="15" fill="#e3e345" rx="2" ry="2"/>
<text x="987.8" y="62.0">Syste..</text>
</g>
<g>
<title>java_lang_ClassLoader::non_reflection_class_loader(oopDesc*) (1 samples, 4.35%)</title><rect x="984.8" y="35.0" width="51.3" height="15" fill="#cccc3d" rx="2" ry="2"/>
<text x="987.8" y="46.0">java_..</text>
</g>
<g>
<title>ParseGenerator::generate(JVMState*) (1 samples, 4.35%)</title><rect x="1036.1" y="211.0" width="51.3" height="15" fill="#e2e244" rx="2" ry="2"/>
<text x="1039.1" y="222.0">Parse..</text>
</g>
<g>
<title>Parse::Parse(JVMState*, ciMethod*, float) (1 samples, 4.35%)</title><rect x="1036.1" y="195.0" width="51.3" height="15" fill="#dbdb42" rx="2" ry="2"/>
<text x="1039.1" y="206.0">Parse..</text>
</g>
<g>
<title>Parse::do_all_blocks() (1 samples, 4.35%)</title><rect x="1036.1" y="179.0" width="51.3" height="15" fill="#d4d440" rx="2" ry="2"/>
<text x="1039.1" y="190.0">Parse..</text>
</g>
<g>
<title>Parse::do_one_block() (1 samples, 4.35%)</title><rect x="1036.1" y="163.0" width="51.3" height="15" fill="#dada42" rx="2" ry="2"/>
<text x="1039.1" y="174.0">Parse..</text>
</g>
<g>
<title>Parse::do_one_bytecode() (1 samples, 4.35%)</title><rect x="1036.1" y="147.0" width="51.3" height="15" fill="#d0d03e" rx="2" ry="2"/>
<text x="1039.1" y="158.0">Parse..</text>
</g>
<g>
<title>Parse::do_field_access(bool, bool) (1 samples, 4.35%)</title><rect x="1036.1" y="131.0" width="51.3" height="15" fill="#dfdf43" rx="2" ry="2"/>
<text x="1039.1" y="142.0">Parse..</text>
</g>
<g>
<title>Parse::do_get_xxx(Node*, ciField*, bool) (1 samples, 4.35%)</title><rect x="1036.1" y="115.0" width="51.3" height="15" fill="#d1d13f" rx="2" ry="2"/>
<text x="1039.1" y="126.0">Parse..</text>
</g>
<g>
<title>GraphKit::make_load(Node*, Node*, Type const*, BasicType, int, MemNode::MemOrd, LoadNode::ControlDependency, bool, bool, bool) (1 samples, 4.35%)</title><rect x="1036.1" y="99.0" width="51.3" height="15" fill="#d5d540" rx="2" ry="2"/>
<text x="1039.1" y="110.0">Graph..</text>
</g>
<g>
<title>LoadNode::make(PhaseGVN&amp;, Node*, Node*, Node*, TypePtr const*, Type const*, BasicType, MemNode::MemOrd, LoadNode::ControlDependency) (1 samples, 4.35%)</title><rect x="1036.1" y="83.0" width="51.3" height="15" fill="#cece3e" rx="2" ry="2"/>
<text x="1039.1" y="94.0">LoadN..</text>
</g>
<g>
<title>PhaseGVN::transform_no_reclaim(Node*) (1 samples, 4.35%)</title><rect x="1036.1" y="67.0" width="51.3" height="15" fill="#cdcd3d" rx="2" ry="2"/>
<text x="1039.1" y="78.0">Phase..</text>
</g>
<g>
<title>Compiler::compile_method(ciEnv*, ciMethod*, int) (2 samples, 8.70%)</title><rect x="1087.4" y="531.0" width="102.6" height="15" fill="#d0d03e" rx="2" ry="2"/>
<text x="1090.4" y="542.0">Compiler::co..</text>
</g>
<g>
<title>Compilation::Compilation(AbstractCompiler*, ciEnv*, ciMethod*, int, BufferBlob*) (2 samples, 8.70%)</title><rect x="1087.4" y="515.0" width="102.6" height="15" fill="#d8d841" rx="2" ry="2"/>
<text x="1090.4" y="526.0">Compilation:..</text>
</g>
<g>
<title>Compilation::compile_method() (2 samples, 8.70%)</title><rect x="1087.4" y="499.0" width="102.6" height="15" fill="#d4d440" rx="2" ry="2"/>
<text x="1090.4" y="510.0">Compilation:..</text>
</g>
<g>
<title>Compilation::compile_java_method() (1 samples, 4.35%)</title><rect x="1087.4" y="483.0" width="51.3" height="15" fill="#cdcd3d" rx="2" ry="2"/>
<text x="1090.4" y="494.0">Compi..</text>
</g>
<g>
<title>Compilation::build_hir() (1 samples, 4.35%)</title><rect x="1087.4" y="467.0" width="51.3" height="15" fill="#e3e345" rx="2" ry="2"/>
<text x="1090.4" y="478.0">Compi..</text>
</g>
<g>
<title>IR::compute_use_counts() (1 samples, 4.35%)</title><rect x="1087.4" y="451.0" width="51.3" height="15" fill="#cbcb3d" rx="2" ry="2"/>
<text x="1090.4" y="462.0">IR::c..</text>
</g>
<g>
<title>BlockList::iterate_backward(BlockClosure*) (1 samples, 4.35%)</title><rect x="1087.4" y="435.0" width="51.3" height="15" fill="#cbcb3d" rx="2" ry="2"/>
<text x="1090.4" y="446.0">Block..</text>
</g>
<g>
<title>UseCountComputer::block_do(BlockBegin*) (1 samples, 4.35%)</title><rect x="1087.4" y="419.0" width="51.3" height="15" fill="#d6d640" rx="2" ry="2"/>
<text x="1090.4" y="430.0">UseCo..</text>
</g>
<g>
<title>ValueStack::values_do(ValueVisitor*) (1 samples, 4.35%)</title><rect x="1087.4" y="403.0" width="51.3" height="15" fill="#dede43" rx="2" ry="2"/>
<text x="1090.4" y="414.0">Value..</text>
</g>
<g>
<title>ciEnv::register_method(ciMethod*, int, CodeOffsets*, int, CodeBuffer*, int, OopMapSet*, ExceptionHandlerTable*, ImplicitExceptionTable*, AbstractCompiler*, int, bool, bool, RTMState) (1 samples, 4.35%)</title><rect x="1138.7" y="483.0" width="51.3" height="15" fill="#e5e545" rx="2" ry="2"/>
<text x="1141.7" y="494.0">ciEnv..</text>
</g>
<g>
<title>nmethod::new_nmethod(methodHandle, int, int, CodeOffsets*, int, DebugInformationRecorder*, Dependencies*, CodeBuffer*, int, OopMapSet*, ExceptionHandlerTable*, ImplicitExceptionTable*, AbstractCompiler*, int) (1 samples, 4.35%)</title><rect x="1138.7" y="467.0" width="51.3" height="15" fill="#e4e445" rx="2" ry="2"/>
<text x="1141.7" y="478.0">nmeth..</text>
</g>
<g>
<title>CodeCache::allocate(int, bool) (1 samples, 4.35%)</title><rect x="1138.7" y="451.0" width="51.3" height="15" fill="#dcdc42" rx="2" ry="2"/>
<text x="1141.7" y="462.0">CodeC..</text>
</g>
<g>
<title>CodeHeap::allocate(unsigned long, bool) (1 samples, 4.35%)</title><rect x="1138.7" y="435.0" width="51.3" height="15" fill="#d3d33f" rx="2" ry="2"/>
<text x="1141.7" y="446.0">CodeH..</text>
</g>
<g>
<title>CodeHeap::search_freelist(unsigned long, bool) (1 samples, 4.35%)</title><rect x="1138.7" y="419.0" width="51.3" height="15" fill="#dede43" rx="2" ry="2"/>
<text x="1141.7" y="430.0">CodeH..</text>
</g>
</g>
</svg>
