<?xml version="1.0" standalone="no"?>
<!DOCTYPE svg PUBLIC "-//W3C//DTD SVG 1.1//EN" "http://www.w3.org/Graphics/SVG/1.1/DTD/svg11.dtd">
<svg version="1.1" width="1200" height="966" onload="init(evt)" viewBox="0 0 1200 966" xmlns="http://www.w3.org/2000/svg" xmlns:xlink="http://www.w3.org/1999/xlink">
<style type="text/css">
	text { font-family:Verdana; font-size:12px; fill:rgb(0,0,0); }
	#search { opacity:0.1; cursor:pointer; }
	#search:hover, #search.show { opacity:1; }
	#subtitle { text-anchor:middle; font-color:rgb(160,160,160); }
	#title { text-anchor:middle; font-size:17px}
	#unzoom { cursor:pointer; }
	#frames > *:hover { stroke:black; stroke-width:0.5; cursor:pointer; }
	.hide { display:none; }
	.parent { opacity:0.5; }
</style>
<script type="text/ecmascript">
<![CDATA[
	"use strict";
	var details, searchbtn, unzoombtn, matchedtxt, svg, searching;
	function init(evt) {
		details = document.getElementById("details").firstChild;
		searchbtn = document.getElementById("search");
		unzoombtn = document.getElementById("unzoom");
		matchedtxt = document.getElementById("matched");
		svg = document.getElementsByTagName("svg")[0];
		searching = 0;
	}

	window.addEventListener("click", function(e) {
		var target = find_group(e.target);
		if (target) {
			if (target.nodeName == "a") {
				if (e.ctrlKey === false) return;
				e.preventDefault();
			}
			if (target.classList.contains("parent")) unzoom();
			zoom(target);
		}
		else if (e.target.id == "unzoom") unzoom();
		else if (e.target.id == "search") search_prompt();
	}, false)

	// mouse-over for info
	// show
	window.addEventListener("mouseover", function(e) {
		var target = find_group(e.target);
		if (target) details.nodeValue = "Function: " + g_to_text(target);
	}, false)

	// clear
	window.addEventListener("mouseout", function(e) {
		var target = find_group(e.target);
		if (target) details.nodeValue = ' ';
	}, false)

	// ctrl-F for search
	window.addEventListener("keydown",function (e) {
		if (e.keyCode === 114 || (e.ctrlKey && e.keyCode === 70)) {
			e.preventDefault();
			search_prompt();
		}
	}, false)

	// functions
	function find_child(node, selector) {
		var children = node.querySelectorAll(selector);
		if (children.length) return children[0];
		return;
	}
	function find_group(node) {
		var parent = node.parentElement;
		if (!parent) return;
		if (parent.id == "frames") return node;
		return find_group(parent);
	}
	function orig_save(e, attr, val) {
		if (e.attributes["_orig_" + attr] != undefined) return;
		if (e.attributes[attr] == undefined) return;
		if (val == undefined) val = e.attributes[attr].value;
		e.setAttribute("_orig_" + attr, val);
	}
	function orig_load(e, attr) {
		if (e.attributes["_orig_"+attr] == undefined) return;
		e.attributes[attr].value = e.attributes["_orig_" + attr].value;
		e.removeAttribute("_orig_"+attr);
	}
	function g_to_text(e) {
		var text = find_child(e, "title").firstChild.nodeValue;
		return (text)
	}
	function g_to_func(e) {
		var func = g_to_text(e);
		// if there's any manipulation we want to do to the function
		// name before it's searched, do it here before returning.
		return (func);
	}
	function update_text(e) {
		var r = find_child(e, "rect");
		var t = find_child(e, "text");
		var w = parseFloat(r.attributes.width.value) -3;
		var txt = find_child(e, "title").textContent.replace(/\([^(]*\)$/,"");
		t.attributes.x.value = parseFloat(r.attributes.x.value) + 3;

		// Smaller than this size won't fit anything
		if (w < 2 * 12 * 0.59) {
			t.textContent = "";
			return;
		}

		t.textContent = txt;
		// Fit in full text width
		if (/^ *$/.test(txt) || t.getSubStringLength(0, txt.length) < w)
			return;

		for (var x = txt.length - 2; x > 0; x--) {
			if (t.getSubStringLength(0, x + 2) <= w) {
				t.textContent = txt.substring(0, x) + "..";
				return;
			}
		}
		t.textContent = "";
	}

	// zoom
	function zoom_reset(e) {
		if (e.attributes != undefined) {
			orig_load(e, "x");
			orig_load(e, "width");
		}
		if (e.childNodes == undefined) return;
		for (var i = 0, c = e.childNodes; i < c.length; i++) {
			zoom_reset(c[i]);
		}
	}
	function zoom_child(e, x, ratio) {
		if (e.attributes != undefined) {
			if (e.attributes.x != undefined) {
				orig_save(e, "x");
				e.attributes.x.value = (parseFloat(e.attributes.x.value) - x - 10) * ratio + 10;
				if (e.tagName == "text")
					e.attributes.x.value = find_child(e.parentNode, "rect[x]").attributes.x.value + 3;
			}
			if (e.attributes.width != undefined) {
				orig_save(e, "width");
				e.attributes.width.value = parseFloat(e.attributes.width.value) * ratio;
			}
		}

		if (e.childNodes == undefined) return;
		for (var i = 0, c = e.childNodes; i < c.length; i++) {
			zoom_child(c[i], x - 10, ratio);
		}
	}
	function zoom_parent(e) {
		if (e.attributes) {
			if (e.attributes.x != undefined) {
				orig_save(e, "x");
				e.attributes.x.value = 10;
			}
			if (e.attributes.width != undefined) {
				orig_save(e, "width");
				e.attributes.width.value = parseInt(svg.width.baseVal.value) - (10 * 2);
			}
		}
		if (e.childNodes == undefined) return;
		for (var i = 0, c = e.childNodes; i < c.length; i++) {
			zoom_parent(c[i]);
		}
	}
	function zoom(node) {
		var attr = find_child(node, "rect").attributes;
		var width = parseFloat(attr.width.value);
		var xmin = parseFloat(attr.x.value);
		var xmax = parseFloat(xmin + width);
		var ymin = parseFloat(attr.y.value);
		var ratio = (svg.width.baseVal.value - 2 * 10) / width;

		// XXX: Workaround for JavaScript float issues (fix me)
		var fudge = 0.0001;

		unzoombtn.classList.remove("hide");

		var el = document.getElementById("frames").children;
		for (var i = 0; i < el.length; i++) {
			var e = el[i];
			var a = find_child(e, "rect").attributes;
			var ex = parseFloat(a.x.value);
			var ew = parseFloat(a.width.value);
			var upstack;
			// Is it an ancestor
			if (0 == 0) {
				upstack = parseFloat(a.y.value) > ymin;
			} else {
				upstack = parseFloat(a.y.value) < ymin;
			}
			if (upstack) {
				// Direct ancestor
				if (ex <= xmin && (ex+ew+fudge) >= xmax) {
					e.classList.add("parent");
					zoom_parent(e);
					update_text(e);
				}
				// not in current path
				else
					e.classList.add("hide");
			}
			// Children maybe
			else {
				// no common path
				if (ex < xmin || ex + fudge >= xmax) {
					e.classList.add("hide");
				}
				else {
					zoom_child(e, xmin, ratio);
					update_text(e);
				}
			}
		}
	}
	function unzoom() {
		unzoombtn.classList.add("hide");
		var el = document.getElementById("frames").children;
		for(var i = 0; i < el.length; i++) {
			el[i].classList.remove("parent");
			el[i].classList.remove("hide");
			zoom_reset(el[i]);
			update_text(el[i]);
		}
	}

	// search
	function reset_search() {
		var el = document.querySelectorAll("#frames rect");
		for (var i = 0; i < el.length; i++) {
			orig_load(el[i], "fill")
		}
	}
	function search_prompt() {
		if (!searching) {
			var term = prompt("Enter a search term (regexp " +
			    "allowed, eg: ^ext4_)", "");
			if (term != null) {
				search(term)
			}
		} else {
			reset_search();
			searching = 0;
			searchbtn.classList.remove("show");
			searchbtn.firstChild.nodeValue = "Search"
			matchedtxt.classList.add("hide");
			matchedtxt.firstChild.nodeValue = ""
		}
	}
	function search(term) {
		var re = new RegExp(term);
		var el = document.getElementById("frames").children;
		var matches = new Object();
		var maxwidth = 0;
		for (var i = 0; i < el.length; i++) {
			var e = el[i];
			var func = g_to_func(e);
			var rect = find_child(e, "rect");
			if (func == null || rect == null)
				continue;

			// Save max width. Only works as we have a root frame
			var w = parseFloat(rect.attributes.width.value);
			if (w > maxwidth)
				maxwidth = w;

			if (func.match(re)) {
				// highlight
				var x = parseFloat(rect.attributes.x.value);
				orig_save(rect, "fill");
				rect.attributes.fill.value = "rgb(230,0,230)";

				// remember matches
				if (matches[x] == undefined) {
					matches[x] = w;
				} else {
					if (w > matches[x]) {
						// overwrite with parent
						matches[x] = w;
					}
				}
				searching = 1;
			}
		}
		if (!searching)
			return;

		searchbtn.classList.add("show");
		searchbtn.firstChild.nodeValue = "Reset Search";

		// calculate percent matched, excluding vertical overlap
		var count = 0;
		var lastx = -1;
		var lastw = 0;
		var keys = Array();
		for (k in matches) {
			if (matches.hasOwnProperty(k))
				keys.push(k);
		}
		// sort the matched frames by their x location
		// ascending, then width descending
		keys.sort(function(a, b){
			return a - b;
		});
		// Step through frames saving only the biggest bottom-up frames
		// thanks to the sort order. This relies on the tree property
		// where children are always smaller than their parents.
		var fudge = 0.0001;	// JavaScript floating point
		for (var k in keys) {
			var x = parseFloat(keys[k]);
			var w = matches[keys[k]];
			if (x >= lastx + lastw - fudge) {
				count += w;
				lastx = x;
				lastw = w;
			}
		}
		// display matched percent
		matchedtxt.classList.remove("hide");
		var pct = 100 * count / maxwidth;
		if (pct != 100) pct = pct.toFixed(1)
		matchedtxt.firstChild.nodeValue = "Matched: " + pct + "%";
	}
]]>
</script>
<rect x="0" y="0" width="100%" height="100%" fill="rgb(240,240,220)"/>
<text id="title" x="600" y="24">Flame Graph</text>
<text id="details" x="10" y="949"> </text>
<text id="unzoom" x="10" y="24" class="hide">Reset Zoom</text>
<text id="search" x="1090" y="24">Search</text>
<text id="matched" x="1090" y="949"> </text>
<g id="frames">
<g>
<title>all (21 samples, 100.00%)</title><rect x="10.0" y="915.0" width="1180.0" height="15" fill="#fa7b7b" rx="2" ry="2"/>
<text x="13.0" y="926.0">all</text>
</g>
<g>
<title>com/linecorp/decaton/processor/runtime/ProcessorSubscription.run (4 samples, 19.05%)</title><rect x="10.0" y="899.0" width="224.8" height="15" fill="#5bec5b" rx="2" ry="2"/>
<text x="13.0" y="910.0">com/linecorp/decaton/processor..</text>
</g>
<g>
<title>com/linecorp/decaton/processor/runtime/ProcessorSubscription.pollOnce (4 samples, 19.05%)</title><rect x="10.0" y="883.0" width="224.8" height="15" fill="#67f867" rx="2" ry="2"/>
<text x="13.0" y="894.0">com/linecorp/decaton/processor..</text>
</g>
<g>
<title>org/apache/kafka/clients/consumer/KafkaConsumer.poll (4 samples, 19.05%)</title><rect x="10.0" y="867.0" width="224.8" height="15" fill="#67f867" rx="2" ry="2"/>
<text x="13.0" y="878.0">org/apache/kafka/clients/consu..</text>
</g>
<g>
<title>org/apache/kafka/clients/consumer/KafkaConsumer.poll (4 samples, 19.05%)</title><rect x="10.0" y="851.0" width="224.8" height="15" fill="#6bfc6b" rx="2" ry="2"/>
<text x="13.0" y="862.0">org/apache/kafka/clients/consu..</text>
</g>
<g>
<title>org/apache/kafka/clients/consumer/KafkaConsumer.pollForFetches (2 samples, 9.52%)</title><rect x="10.0" y="835.0" width="112.4" height="15" fill="#55e655" rx="2" ry="2"/>
<text x="13.0" y="846.0">org/apache/kaf..</text>
</g>
<g>
<title>org/apache/kafka/clients/consumer/internals/ConsumerNetworkClient.poll (1 samples, 4.76%)</title><rect x="10.0" y="819.0" width="56.2" height="15" fill="#5aeb5a" rx="2" ry="2"/>
<text x="13.0" y="830.0">org/ap..</text>
</g>
<g>
<title>org/apache/kafka/clients/consumer/internals/ConsumerNetworkClient.poll (1 samples, 4.76%)</title><rect x="10.0" y="803.0" width="56.2" height="15" fill="#67f867" rx="2" ry="2"/>
<text x="13.0" y="814.0">org/ap..</text>
</g>
<g>
<title>org/apache/kafka/clients/NetworkClient.poll (1 samples, 4.76%)</title><rect x="10.0" y="787.0" width="56.2" height="15" fill="#58e958" rx="2" ry="2"/>
<text x="13.0" y="798.0">org/ap..</text>
</g>
<g>
<title>org/apache/kafka/clients/NetworkClient.handleConnections (1 samples, 4.76%)</title><rect x="10.0" y="771.0" width="56.2" height="15" fill="#60f160" rx="2" ry="2"/>
<text x="13.0" y="782.0">org/ap..</text>
</g>
<g>
<title>org/apache/kafka/clients/consumer/internals/Fetcher.fetchedRecords (1 samples, 4.76%)</title><rect x="66.2" y="819.0" width="56.2" height="15" fill="#5eef5e" rx="2" ry="2"/>
<text x="69.2" y="830.0">org/ap..</text>
</g>
<g>
<title>org/apache/kafka/clients/consumer/internals/Fetcher.initializeCompletedFetch (1 samples, 4.76%)</title><rect x="66.2" y="803.0" width="56.2" height="15" fill="#62f362" rx="2" ry="2"/>
<text x="69.2" y="814.0">org/ap..</text>
</g>
<g>
<title>org/apache/kafka/clients/consumer/KafkaConsumer.updateAssignmentMetadataIfNeeded (1 samples, 4.76%)</title><rect x="122.4" y="835.0" width="56.2" height="15" fill="#5aeb5a" rx="2" ry="2"/>
<text x="125.4" y="846.0">org/ap..</text>
</g>
<g>
<title>org/apache/kafka/clients/consumer/KafkaConsumer.updateFetchPositions (1 samples, 4.76%)</title><rect x="122.4" y="819.0" width="56.2" height="15" fill="#5ff05f" rx="2" ry="2"/>
<text x="125.4" y="830.0">org/ap..</text>
</g>
<g>
<title>org/apache/kafka/clients/consumer/internals/Fetcher.validateOffsetsIfNeeded (1 samples, 4.76%)</title><rect x="122.4" y="803.0" width="56.2" height="15" fill="#6cfd6c" rx="2" ry="2"/>
<text x="125.4" y="814.0">org/ap..</text>
</g>
<g>
<title>org/apache/kafka/clients/consumer/internals/Fetcher.validateOffsetsAsync (1 samples, 4.76%)</title><rect x="122.4" y="787.0" width="56.2" height="15" fill="#6bfc6b" rx="2" ry="2"/>
<text x="125.4" y="798.0">org/ap..</text>
</g>
<g>
<title>org/apache/kafka/clients/consumer/internals/Fetcher.regroupFetchPositionsByLeader (1 samples, 4.76%)</title><rect x="122.4" y="771.0" width="56.2" height="15" fill="#63f463" rx="2" ry="2"/>
<text x="125.4" y="782.0">org/ap..</text>
</g>
<g>
<title>java/util/stream/Collectors.groupingBy (1 samples, 4.76%)</title><rect x="122.4" y="755.0" width="56.2" height="15" fill="#65f665" rx="2" ry="2"/>
<text x="125.4" y="766.0">java/u..</text>
</g>
<g>
<title>java/util/stream/Collectors.groupingBy (1 samples, 4.76%)</title><rect x="122.4" y="739.0" width="56.2" height="15" fill="#54e554" rx="2" ry="2"/>
<text x="125.4" y="750.0">java/u..</text>
</g>
<g>
<title>org/apache/kafka/clients/consumer/internals/ConsumerNetworkClient.transmitSends (1 samples, 4.76%)</title><rect x="178.6" y="835.0" width="56.2" height="15" fill="#62f362" rx="2" ry="2"/>
<text x="181.6" y="846.0">org/ap..</text>
</g>
<g>
<title>org/apache/kafka/clients/consumer/internals/ConsumerNetworkClient.trySend (1 samples, 4.76%)</title><rect x="178.6" y="819.0" width="56.2" height="15" fill="#50e150" rx="2" ry="2"/>
<text x="181.6" y="830.0">org/ap..</text>
</g>
<g>
<title>org/apache/kafka/clients/NetworkClient.send (1 samples, 4.76%)</title><rect x="178.6" y="803.0" width="56.2" height="15" fill="#57e857" rx="2" ry="2"/>
<text x="181.6" y="814.0">org/ap..</text>
</g>
<g>
<title>org/apache/kafka/clients/NetworkClient.doSend (1 samples, 4.76%)</title><rect x="178.6" y="787.0" width="56.2" height="15" fill="#54e554" rx="2" ry="2"/>
<text x="181.6" y="798.0">org/ap..</text>
</g>
<g>
<title>org/apache/kafka/clients/NetworkClient.doSend (1 samples, 4.76%)</title><rect x="178.6" y="771.0" width="56.2" height="15" fill="#68f968" rx="2" ry="2"/>
<text x="181.6" y="782.0">org/ap..</text>
</g>
<g>
<title>org/apache/kafka/common/requests/AbstractRequest.toSend (1 samples, 4.76%)</title><rect x="178.6" y="755.0" width="56.2" height="15" fill="#54e554" rx="2" ry="2"/>
<text x="181.6" y="766.0">org/ap..</text>
</g>
<g>
<title>org/apache/kafka/common/requests/AbstractRequest.serialize (1 samples, 4.76%)</title><rect x="178.6" y="739.0" width="56.2" height="15" fill="#5ced5c" rx="2" ry="2"/>
<text x="181.6" y="750.0">org/ap..</text>
</g>
<g>
<title>org/apache/kafka/common/requests/RequestUtils.serialize (1 samples, 4.76%)</title><rect x="178.6" y="723.0" width="56.2" height="15" fill="#53e453" rx="2" ry="2"/>
<text x="181.6" y="734.0">org/ap..</text>
</g>
<g>
<title>org/apache/kafka/common/protocol/types/Struct.sizeOf (1 samples, 4.76%)</title><rect x="178.6" y="707.0" width="56.2" height="15" fill="#53e453" rx="2" ry="2"/>
<text x="181.6" y="718.0">org/ap..</text>
</g>
<g>
<title>java/lang/Thread.run (1 samples, 4.76%)</title><rect x="234.8" y="899.0" width="56.2" height="15" fill="#6dfe6d" rx="2" ry="2"/>
<text x="237.8" y="910.0">java/l..</text>
</g>
<g>
<title>java/util/concurrent/ThreadPoolExecutor$Worker.run (1 samples, 4.76%)</title><rect x="234.8" y="883.0" width="56.2" height="15" fill="#56e756" rx="2" ry="2"/>
<text x="237.8" y="894.0">java/u..</text>
</g>
<g>
<title>java/util/concurrent/ThreadPoolExecutor.runWorker (1 samples, 4.76%)</title><rect x="234.8" y="867.0" width="56.2" height="15" fill="#5ff05f" rx="2" ry="2"/>
<text x="237.8" y="878.0">java/u..</text>
</g>
<g>
<title>java/util/concurrent/ThreadPoolExecutor$Worker.unlock (1 samples, 4.76%)</title><rect x="234.8" y="851.0" width="56.2" height="15" fill="#69fa69" rx="2" ry="2"/>
<text x="237.8" y="862.0">java/u..</text>
</g>
<g>
<title>start_thread (16 samples, 76.19%)</title><rect x="291.0" y="899.0" width="899.0" height="15" fill="#f37272" rx="2" ry="2"/>
<text x="294.0" y="910.0">start_thread</text>
</g>
<g>
<title>java_start(Thread*) (16 samples, 76.19%)</title><rect x="291.0" y="883.0" width="899.0" height="15" fill="#e96565" rx="2" ry="2"/>
<text x="294.0" y="894.0">java_start(Thread*)</text>
</g>
<g>
<title>JavaThread::thread_main_inner() (16 samples, 76.19%)</title><rect x="291.0" y="867.0" width="899.0" height="15" fill="#dbdb42" rx="2" ry="2"/>
<text x="294.0" y="878.0">JavaThread::thread_main_inner()</text>
</g>
<g>
<title>CompileBroker::compiler_thread_loop() (16 samples, 76.19%)</title><rect x="291.0" y="851.0" width="899.0" height="15" fill="#d7d741" rx="2" ry="2"/>
<text x="294.0" y="862.0">CompileBroker::compiler_thread_loop()</text>
</g>
<g>
<title>CompileBroker::invoke_compiler_on_method(CompileTask*) (16 samples, 76.19%)</title><rect x="291.0" y="835.0" width="899.0" height="15" fill="#d6d640" rx="2" ry="2"/>
<text x="294.0" y="846.0">CompileBroker::invoke_compiler_on_method(CompileTask*)</text>
</g>
<g>
<title>C2Compiler::compile_method(ciEnv*, ciMethod*, int) (14 samples, 66.67%)</title><rect x="291.0" y="819.0" width="786.6" height="15" fill="#e5e545" rx="2" ry="2"/>
<text x="294.0" y="830.0">C2Compiler::compile_method(ciEnv*, ciMethod*, int)</text>
</g>
<g>
<title>Compile::Compile(ciEnv*, C2Compiler*, ciMethod*, int, bool, bool, bool) (14 samples, 66.67%)</title><rect x="291.0" y="803.0" width="786.6" height="15" fill="#d0d03e" rx="2" ry="2"/>
<text x="294.0" y="814.0">Compile::Compile(ciEnv*, C2Compiler*, ciMethod*, int, bool, bool, bool)</text>
</g>
<g>
<title>Compile::Code_Gen() (7 samples, 33.33%)</title><rect x="291.0" y="787.0" width="393.3" height="15" fill="#dfdf43" rx="2" ry="2"/>
<text x="294.0" y="798.0">Compile::Code_Gen()</text>
</g>
<g>
<title>Compile::Output() (1 samples, 4.76%)</title><rect x="291.0" y="771.0" width="56.1" height="15" fill="#d7d741" rx="2" ry="2"/>
<text x="294.0" y="782.0">Compil..</text>
</g>
<g>
<title>Compile::init_buffer(unsigned int*) (1 samples, 4.76%)</title><rect x="291.0" y="755.0" width="56.1" height="15" fill="#dfdf43" rx="2" ry="2"/>
<text x="294.0" y="766.0">Compil..</text>
</g>
<g>
<title>Compile::init_scratch_buffer_blob(int) (1 samples, 4.76%)</title><rect x="291.0" y="739.0" width="56.1" height="15" fill="#d4d440" rx="2" ry="2"/>
<text x="294.0" y="750.0">Compil..</text>
</g>
<g>
<title>BufferBlob::create(char const*, int) (1 samples, 4.76%)</title><rect x="291.0" y="723.0" width="56.1" height="15" fill="#e2e244" rx="2" ry="2"/>
<text x="294.0" y="734.0">Buffer..</text>
</g>
<g>
<title>CodeCache::allocate(int, bool) (1 samples, 4.76%)</title><rect x="291.0" y="707.0" width="56.1" height="15" fill="#d0d03e" rx="2" ry="2"/>
<text x="294.0" y="718.0">CodeCa..</text>
</g>
<g>
<title>CodeHeap::allocate(unsigned long, bool) (1 samples, 4.76%)</title><rect x="291.0" y="691.0" width="56.1" height="15" fill="#d2d23f" rx="2" ry="2"/>
<text x="294.0" y="702.0">CodeHe..</text>
</g>
<g>
<title>CodeHeap::search_freelist(unsigned long, bool) (1 samples, 4.76%)</title><rect x="291.0" y="675.0" width="56.1" height="15" fill="#e0e044" rx="2" ry="2"/>
<text x="294.0" y="686.0">CodeHe..</text>
</g>
<g>
<title>PhaseChaitin::Register_Allocate() (6 samples, 28.57%)</title><rect x="347.1" y="771.0" width="337.2" height="15" fill="#e3e345" rx="2" ry="2"/>
<text x="350.1" y="782.0">PhaseChaitin::Register_Allocate()</text>
</g>
<g>
<title>PhaseChaitin::Split(unsigned int, ResourceArea*) (1 samples, 4.76%)</title><rect x="347.1" y="755.0" width="56.2" height="15" fill="#caca3c" rx="2" ry="2"/>
<text x="350.1" y="766.0">PhaseC..</text>
</g>
<g>
<title>decodeHeapOop_not_nullNode::rule() const (1 samples, 4.76%)</title><rect x="347.1" y="739.0" width="56.2" height="15" fill="#e4e445" rx="2" ry="2"/>
<text x="350.1" y="750.0">decode..</text>
</g>
<g>
<title>PhaseChaitin::build_ifg_physical(ResourceArea*) (2 samples, 9.52%)</title><rect x="403.3" y="755.0" width="112.4" height="15" fill="#d7d741" rx="2" ry="2"/>
<text x="406.3" y="766.0">PhaseChaitin::..</text>
</g>
<g>
<title>PhaseChaitin::interfere_with_live(unsigned int, IndexSet*) (2 samples, 9.52%)</title><rect x="403.3" y="739.0" width="112.4" height="15" fill="#caca3c" rx="2" ry="2"/>
<text x="406.3" y="750.0">PhaseChaitin::..</text>
</g>
<g>
<title>IndexSetIterator::advance_and_next() (1 samples, 4.76%)</title><rect x="459.5" y="723.0" width="56.2" height="15" fill="#cdcd3d" rx="2" ry="2"/>
<text x="462.5" y="734.0">IndexS..</text>
</g>
<g>
<title>PhaseChaitin::post_allocate_copy_removal() (1 samples, 4.76%)</title><rect x="515.7" y="755.0" width="56.2" height="15" fill="#dbdb42" rx="2" ry="2"/>
<text x="518.7" y="766.0">PhaseC..</text>
</g>
<g>
<title>PhaseIFG::SquareUp() (1 samples, 4.76%)</title><rect x="571.9" y="755.0" width="56.2" height="15" fill="#e2e244" rx="2" ry="2"/>
<text x="574.9" y="766.0">PhaseI..</text>
</g>
<g>
<title>IndexSetIterator::advance_and_next() (1 samples, 4.76%)</title><rect x="571.9" y="739.0" width="56.2" height="15" fill="#d2d23f" rx="2" ry="2"/>
<text x="574.9" y="750.0">IndexS..</text>
</g>
<g>
<title>PhaseLive::compute(unsigned int) (1 samples, 4.76%)</title><rect x="628.1" y="755.0" width="56.2" height="15" fill="#c9c93c" rx="2" ry="2"/>
<text x="631.1" y="766.0">PhaseL..</text>
</g>
<g>
<title>Compile::Optimize() (4 samples, 19.05%)</title><rect x="684.3" y="787.0" width="224.7" height="15" fill="#c8c83c" rx="2" ry="2"/>
<text x="687.3" y="798.0">Compile::Optimize()</text>
</g>
<g>
<title>PhaseIdealLoop::build_and_optimize(bool, bool) (4 samples, 19.05%)</title><rect x="684.3" y="771.0" width="224.7" height="15" fill="#d5d540" rx="2" ry="2"/>
<text x="687.3" y="782.0">PhaseIdealLoop::build_and_opti..</text>
</g>
<g>
<title>PhaseIdealLoop::build_loop_late(VectorSet&amp;, Node_List&amp;, Node_Stack&amp;) (2 samples, 9.52%)</title><rect x="684.3" y="755.0" width="112.4" height="15" fill="#c9c93c" rx="2" ry="2"/>
<text x="687.3" y="766.0">PhaseIdealLoop..</text>
</g>
<g>
<title>PhaseIdealLoop::split_if_with_blocks(VectorSet&amp;, Node_Stack&amp;) (2 samples, 9.52%)</title><rect x="796.7" y="755.0" width="112.3" height="15" fill="#cfcf3e" rx="2" ry="2"/>
<text x="799.7" y="766.0">PhaseIdealLoop..</text>
</g>
<g>
<title>PhaseIdealLoop::split_if_with_blocks_pre(Node*) (2 samples, 9.52%)</title><rect x="796.7" y="739.0" width="112.3" height="15" fill="#e5e545" rx="2" ry="2"/>
<text x="799.7" y="750.0">PhaseIdealLoop..</text>
</g>
<g>
<title>PhaseIdealLoop::has_local_phi_input(Node*) (1 samples, 4.76%)</title><rect x="796.7" y="723.0" width="56.2" height="15" fill="#e3e345" rx="2" ry="2"/>
<text x="799.7" y="734.0">PhaseI..</text>
</g>
<g>
<title>PhaseIdealLoop::get_ctrl(Node*) (1 samples, 4.76%)</title><rect x="796.7" y="707.0" width="56.2" height="15" fill="#e1e144" rx="2" ry="2"/>
<text x="799.7" y="718.0">PhaseI..</text>
</g>
<g>
<title>PhaseIdealLoop::split_thru_phi(Node*, Node*, int) (1 samples, 4.76%)</title><rect x="852.9" y="723.0" width="56.1" height="15" fill="#cfcf3e" rx="2" ry="2"/>
<text x="855.9" y="734.0">PhaseI..</text>
</g>
<g>
<title>LoadNode::Value(PhaseTransform*) const (1 samples, 4.76%)</title><rect x="852.9" y="707.0" width="56.1" height="15" fill="#d8d841" rx="2" ry="2"/>
<text x="855.9" y="718.0">LoadNo..</text>
</g>
<g>
<title>TypePtr::empty() const (1 samples, 4.76%)</title><rect x="852.9" y="691.0" width="56.1" height="15" fill="#d3d33f" rx="2" ry="2"/>
<text x="855.9" y="702.0">TypePt..</text>
</g>
<g>
<title>ParseGenerator::generate(JVMState*) (3 samples, 14.29%)</title><rect x="909.0" y="787.0" width="168.6" height="15" fill="#dede43" rx="2" ry="2"/>
<text x="912.0" y="798.0">ParseGenerator::genera..</text>
</g>
<g>
<title>Parse::Parse(JVMState*, ciMethod*, float) (3 samples, 14.29%)</title><rect x="909.0" y="771.0" width="168.6" height="15" fill="#d7d741" rx="2" ry="2"/>
<text x="912.0" y="782.0">Parse::Parse(JVMState*..</text>
</g>
<g>
<title>Parse::do_all_blocks() (3 samples, 14.29%)</title><rect x="909.0" y="755.0" width="168.6" height="15" fill="#dcdc42" rx="2" ry="2"/>
<text x="912.0" y="766.0">Parse::do_all_blocks()</text>
</g>
<g>
<title>Parse::do_one_block() (3 samples, 14.29%)</title><rect x="909.0" y="739.0" width="168.6" height="15" fill="#d7d741" rx="2" ry="2"/>
<text x="912.0" y="750.0">Parse::do_one_block()</text>
</g>
<g>
<title>Parse::do_one_bytecode() (3 samples, 14.29%)</title><rect x="909.0" y="723.0" width="168.6" height="15" fill="#c9c93c" rx="2" ry="2"/>
<text x="912.0" y="734.0">Parse::do_one_bytecode()</text>
</g>
<g>
<title>Parse::do_call() (2 samples, 9.52%)</title><rect x="909.0" y="707.0" width="112.4" height="15" fill="#d5d540" rx="2" ry="2"/>
<text x="912.0" y="718.0">Parse::do_call()</text>
</g>
<g>
<title>ParseGenerator::generate(JVMState*) (2 samples, 9.52%)</title><rect x="909.0" y="691.0" width="112.4" height="15" fill="#e3e345" rx="2" ry="2"/>
<text x="912.0" y="702.0">ParseGenerator..</text>
</g>
<g>
<title>Parse::Parse(JVMState*, ciMethod*, float) (2 samples, 9.52%)</title><rect x="909.0" y="675.0" width="112.4" height="15" fill="#e3e345" rx="2" ry="2"/>
<text x="912.0" y="686.0">Parse::Parse(J..</text>
</g>
<g>
<title>Parse::do_all_blocks() (2 samples, 9.52%)</title><rect x="909.0" y="659.0" width="112.4" height="15" fill="#dddd43" rx="2" ry="2"/>
<text x="912.0" y="670.0">Parse::do_all_..</text>
</g>
<g>
<title>Parse::do_one_block() (2 samples, 9.52%)</title><rect x="909.0" y="643.0" width="112.4" height="15" fill="#d0d03e" rx="2" ry="2"/>
<text x="912.0" y="654.0">Parse::do_one_..</text>
</g>
<g>
<title>Parse::do_one_bytecode() (2 samples, 9.52%)</title><rect x="909.0" y="627.0" width="112.4" height="15" fill="#dede43" rx="2" ry="2"/>
<text x="912.0" y="638.0">Parse::do_one_..</text>
</g>
<g>
<title>Parse::do_call() (2 samples, 9.52%)</title><rect x="909.0" y="611.0" width="112.4" height="15" fill="#dbdb42" rx="2" ry="2"/>
<text x="912.0" y="622.0">Parse::do_call()</text>
</g>
<g>
<title>ParseGenerator::generate(JVMState*) (2 samples, 9.52%)</title><rect x="909.0" y="595.0" width="112.4" height="15" fill="#d2d23f" rx="2" ry="2"/>
<text x="912.0" y="606.0">ParseGenerator..</text>
</g>
<g>
<title>Parse::Parse(JVMState*, ciMethod*, float) (2 samples, 9.52%)</title><rect x="909.0" y="579.0" width="112.4" height="15" fill="#dcdc42" rx="2" ry="2"/>
<text x="912.0" y="590.0">Parse::Parse(J..</text>
</g>
<g>
<title>Parse::do_all_blocks() (2 samples, 9.52%)</title><rect x="909.0" y="563.0" width="112.4" height="15" fill="#cccc3d" rx="2" ry="2"/>
<text x="912.0" y="574.0">Parse::do_all_..</text>
</g>
<g>
<title>Parse::do_one_block() (2 samples, 9.52%)</title><rect x="909.0" y="547.0" width="112.4" height="15" fill="#d5d540" rx="2" ry="2"/>
<text x="912.0" y="558.0">Parse::do_one_..</text>
</g>
<g>
<title>Parse::do_one_bytecode() (2 samples, 9.52%)</title><rect x="909.0" y="531.0" width="112.4" height="15" fill="#e2e244" rx="2" ry="2"/>
<text x="912.0" y="542.0">Parse::do_one_..</text>
</g>
<g>
<title>Parse::do_call() (2 samples, 9.52%)</title><rect x="909.0" y="515.0" width="112.4" height="15" fill="#e0e044" rx="2" ry="2"/>
<text x="912.0" y="526.0">Parse::do_call()</text>
</g>
<g>
<title>ParseGenerator::generate(JVMState*) (2 samples, 9.52%)</title><rect x="909.0" y="499.0" width="112.4" height="15" fill="#d1d13f" rx="2" ry="2"/>
<text x="912.0" y="510.0">ParseGenerator..</text>
</g>
<g>
<title>Parse::Parse(JVMState*, ciMethod*, float) (2 samples, 9.52%)</title><rect x="909.0" y="483.0" width="112.4" height="15" fill="#cece3e" rx="2" ry="2"/>
<text x="912.0" y="494.0">Parse::Parse(J..</text>
</g>
<g>
<title>Parse::do_all_blocks() (2 samples, 9.52%)</title><rect x="909.0" y="467.0" width="112.4" height="15" fill="#e2e244" rx="2" ry="2"/>
<text x="912.0" y="478.0">Parse::do_all_..</text>
</g>
<g>
<title>Parse::do_one_block() (2 samples, 9.52%)</title><rect x="909.0" y="451.0" width="112.4" height="15" fill="#d2d23f" rx="2" ry="2"/>
<text x="912.0" y="462.0">Parse::do_one_..</text>
</g>
<g>
<title>Parse::do_one_bytecode() (2 samples, 9.52%)</title><rect x="909.0" y="435.0" width="112.4" height="15" fill="#dcdc42" rx="2" ry="2"/>
<text x="912.0" y="446.0">Parse::do_one_..</text>
</g>
<g>
<title>Parse::do_call() (1 samples, 4.76%)</title><rect x="909.0" y="419.0" width="56.2" height="15" fill="#e4e445" rx="2" ry="2"/>
<text x="912.0" y="430.0">Parse:..</text>
</g>
<g>
<title>ParseGenerator::generate(JVMState*) (1 samples, 4.76%)</title><rect x="909.0" y="403.0" width="56.2" height="15" fill="#d9d941" rx="2" ry="2"/>
<text x="912.0" y="414.0">ParseG..</text>
</g>
<g>
<title>Parse::Parse(JVMState*, ciMethod*, float) (1 samples, 4.76%)</title><rect x="909.0" y="387.0" width="56.2" height="15" fill="#dbdb42" rx="2" ry="2"/>
<text x="912.0" y="398.0">Parse:..</text>
</g>
<g>
<title>Parse::do_all_blocks() (1 samples, 4.76%)</title><rect x="909.0" y="371.0" width="56.2" height="15" fill="#e1e144" rx="2" ry="2"/>
<text x="912.0" y="382.0">Parse:..</text>
</g>
<g>
<title>Parse::do_one_block() (1 samples, 4.76%)</title><rect x="909.0" y="355.0" width="56.2" height="15" fill="#d5d540" rx="2" ry="2"/>
<text x="912.0" y="366.0">Parse:..</text>
</g>
<g>
<title>Parse::do_one_bytecode() (1 samples, 4.76%)</title><rect x="909.0" y="339.0" width="56.2" height="15" fill="#e3e345" rx="2" ry="2"/>
<text x="912.0" y="350.0">Parse:..</text>
</g>
<g>
<title>Parse::do_call() (1 samples, 4.76%)</title><rect x="909.0" y="323.0" width="56.2" height="15" fill="#d3d33f" rx="2" ry="2"/>
<text x="912.0" y="334.0">Parse:..</text>
</g>
<g>
<title>ParseGenerator::generate(JVMState*) (1 samples, 4.76%)</title><rect x="909.0" y="307.0" width="56.2" height="15" fill="#e0e044" rx="2" ry="2"/>
<text x="912.0" y="318.0">ParseG..</text>
</g>
<g>
<title>Parse::Parse(JVMState*, ciMethod*, float) (1 samples, 4.76%)</title><rect x="909.0" y="291.0" width="56.2" height="15" fill="#dcdc42" rx="2" ry="2"/>
<text x="912.0" y="302.0">Parse:..</text>
</g>
<g>
<title>Parse::do_all_blocks() (1 samples, 4.76%)</title><rect x="909.0" y="275.0" width="56.2" height="15" fill="#e3e345" rx="2" ry="2"/>
<text x="912.0" y="286.0">Parse:..</text>
</g>
<g>
<title>Parse::do_one_block() (1 samples, 4.76%)</title><rect x="909.0" y="259.0" width="56.2" height="15" fill="#d6d640" rx="2" ry="2"/>
<text x="912.0" y="270.0">Parse:..</text>
</g>
<g>
<title>Parse::do_one_bytecode() (1 samples, 4.76%)</title><rect x="909.0" y="243.0" width="56.2" height="15" fill="#cece3e" rx="2" ry="2"/>
<text x="912.0" y="254.0">Parse:..</text>
</g>
<g>
<title>Parse::do_call() (1 samples, 4.76%)</title><rect x="909.0" y="227.0" width="56.2" height="15" fill="#e4e445" rx="2" ry="2"/>
<text x="912.0" y="238.0">Parse:..</text>
</g>
<g>
<title>ParseGenerator::generate(JVMState*) (1 samples, 4.76%)</title><rect x="909.0" y="211.0" width="56.2" height="15" fill="#e3e345" rx="2" ry="2"/>
<text x="912.0" y="222.0">ParseG..</text>
</g>
<g>
<title>Parse::Parse(JVMState*, ciMethod*, float) (1 samples, 4.76%)</title><rect x="909.0" y="195.0" width="56.2" height="15" fill="#cccc3d" rx="2" ry="2"/>
<text x="912.0" y="206.0">Parse:..</text>
</g>
<g>
<title>Parse::do_all_blocks() (1 samples, 4.76%)</title><rect x="909.0" y="179.0" width="56.2" height="15" fill="#e2e244" rx="2" ry="2"/>
<text x="912.0" y="190.0">Parse:..</text>
</g>
<g>
<title>Parse::do_one_block() (1 samples, 4.76%)</title><rect x="909.0" y="163.0" width="56.2" height="15" fill="#dbdb42" rx="2" ry="2"/>
<text x="912.0" y="174.0">Parse:..</text>
</g>
<g>
<title>Parse::do_one_bytecode() (1 samples, 4.76%)</title><rect x="909.0" y="147.0" width="56.2" height="15" fill="#d4d440" rx="2" ry="2"/>
<text x="912.0" y="158.0">Parse:..</text>
</g>
<g>
<title>Parse::do_call() (1 samples, 4.76%)</title><rect x="909.0" y="131.0" width="56.2" height="15" fill="#dada42" rx="2" ry="2"/>
<text x="912.0" y="142.0">Parse:..</text>
</g>
<g>
<title>ParseGenerator::generate(JVMState*) (1 samples, 4.76%)</title><rect x="909.0" y="115.0" width="56.2" height="15" fill="#d0d03e" rx="2" ry="2"/>
<text x="912.0" y="126.0">ParseG..</text>
</g>
<g>
<title>Parse::Parse(JVMState*, ciMethod*, float) (1 samples, 4.76%)</title><rect x="909.0" y="99.0" width="56.2" height="15" fill="#dfdf43" rx="2" ry="2"/>
<text x="912.0" y="110.0">Parse:..</text>
</g>
<g>
<title>Parse::do_all_blocks() (1 samples, 4.76%)</title><rect x="909.0" y="83.0" width="56.2" height="15" fill="#d1d13f" rx="2" ry="2"/>
<text x="912.0" y="94.0">Parse:..</text>
</g>
<g>
<title>Parse::merge_common(Parse::Block*, int) (1 samples, 4.76%)</title><rect x="909.0" y="67.0" width="56.2" height="15" fill="#d5d540" rx="2" ry="2"/>
<text x="912.0" y="78.0">Parse:..</text>
</g>
<g>
<title>PhaseGVN::transform_no_reclaim(Node*) (1 samples, 4.76%)</title><rect x="909.0" y="51.0" width="56.2" height="15" fill="#cece3e" rx="2" ry="2"/>
<text x="912.0" y="62.0">PhaseG..</text>
</g>
<g>
<title>PhiNode::Ideal(PhaseGVN*, bool) (1 samples, 4.76%)</title><rect x="909.0" y="35.0" width="56.2" height="15" fill="#cdcd3d" rx="2" ry="2"/>
<text x="912.0" y="46.0">PhiNod..</text>
</g>
<g>
<title>PhaseGVN::transform_no_reclaim(Node*) (1 samples, 4.76%)</title><rect x="965.2" y="419.0" width="56.2" height="15" fill="#d0d03e" rx="2" ry="2"/>
<text x="968.2" y="430.0">PhaseG..</text>
</g>
<g>
<title>AddNode::Identity(PhaseTransform*) (1 samples, 4.76%)</title><rect x="965.2" y="403.0" width="56.2" height="15" fill="#d8d841" rx="2" ry="2"/>
<text x="968.2" y="414.0">AddNod..</text>
</g>
<g>
<title>Type::meet_helper(Type const*, bool) const (1 samples, 4.76%)</title><rect x="965.2" y="387.0" width="56.2" height="15" fill="#d4d440" rx="2" ry="2"/>
<text x="968.2" y="398.0">Type::..</text>
</g>
<g>
<title>Parse::do_field_access(bool, bool) (1 samples, 4.76%)</title><rect x="1021.4" y="707.0" width="56.2" height="15" fill="#cdcd3d" rx="2" ry="2"/>
<text x="1024.4" y="718.0">Parse:..</text>
</g>
<g>
<title>Parse::do_put_xxx(Node*, ciField*, bool) (1 samples, 4.76%)</title><rect x="1021.4" y="691.0" width="56.2" height="15" fill="#e3e345" rx="2" ry="2"/>
<text x="1024.4" y="702.0">Parse:..</text>
</g>
<g>
<title>GraphKit::store_oop(Node*, Node*, Node*, TypePtr const*, Node*, TypeOopPtr const*, BasicType, bool, MemNode::MemOrd, bool) (1 samples, 4.76%)</title><rect x="1021.4" y="675.0" width="56.2" height="15" fill="#cbcb3d" rx="2" ry="2"/>
<text x="1024.4" y="686.0">GraphK..</text>
</g>
<g>
<title>GraphKit::g1_write_barrier_pre(bool, Node*, Node*, unsigned int, Node*, TypeOopPtr const*, Node*, BasicType) (1 samples, 4.76%)</title><rect x="1021.4" y="659.0" width="56.2" height="15" fill="#cbcb3d" rx="2" ry="2"/>
<text x="1024.4" y="670.0">GraphK..</text>
</g>
<g>
<title>IdealKit::make_leaf_call(TypeFunc const*, unsigned char*, char const*, Node*, Node*, Node*, Node*) (1 samples, 4.76%)</title><rect x="1021.4" y="643.0" width="56.2" height="15" fill="#d6d640" rx="2" ry="2"/>
<text x="1024.4" y="654.0">IdealK..</text>
</g>
<g>
<title>CallNode::Identity(PhaseTransform*) (1 samples, 4.76%)</title><rect x="1021.4" y="627.0" width="56.2" height="15" fill="#dede43" rx="2" ry="2"/>
<text x="1024.4" y="638.0">CallNo..</text>
</g>
<g>
<title>Compiler::compile_method(ciEnv*, ciMethod*, int) (2 samples, 9.52%)</title><rect x="1077.6" y="819.0" width="112.4" height="15" fill="#e5e545" rx="2" ry="2"/>
<text x="1080.6" y="830.0">Compiler::comp..</text>
</g>
<g>
<title>Compilation::Compilation(AbstractCompiler*, ciEnv*, ciMethod*, int, BufferBlob*) (2 samples, 9.52%)</title><rect x="1077.6" y="803.0" width="112.4" height="15" fill="#e4e445" rx="2" ry="2"/>
<text x="1080.6" y="814.0">Compilation::C..</text>
</g>
<g>
<title>Compilation::compile_method() (2 samples, 9.52%)</title><rect x="1077.6" y="787.0" width="112.4" height="15" fill="#dcdc42" rx="2" ry="2"/>
<text x="1080.6" y="798.0">Compilation::c..</text>
</g>
<g>
<title>Compilation::compile_java_method() (2 samples, 9.52%)</title><rect x="1077.6" y="771.0" width="112.4" height="15" fill="#d3d33f" rx="2" ry="2"/>
<text x="1080.6" y="782.0">Compilation::c..</text>
</g>
<g>
<title>Compilation::build_hir() (2 samples, 9.52%)</title><rect x="1077.6" y="755.0" width="112.4" height="15" fill="#dede43" rx="2" ry="2"/>
<text x="1080.6" y="766.0">Compilation::b..</text>
</g>
<g>
<title>GlobalValueNumbering::GlobalValueNumbering(IR*) (1 samples, 4.76%)</title><rect x="1077.6" y="739.0" width="56.2" height="15" fill="#d3d33f" rx="2" ry="2"/>
<text x="1080.6" y="750.0">Global..</text>
</g>
<g>
<title>ValueMap::ValueMap(ValueMap*) (1 samples, 4.76%)</title><rect x="1077.6" y="723.0" width="56.2" height="15" fill="#d0d03e" rx="2" ry="2"/>
<text x="1080.6" y="734.0">ValueM..</text>
</g>
<g>
<title>IR::IR(Compilation*, ciMethod*, int) (1 samples, 4.76%)</title><rect x="1133.8" y="739.0" width="56.2" height="15" fill="#cece3e" rx="2" ry="2"/>
<text x="1136.8" y="750.0">IR::IR..</text>
</g>
<g>
<title>IRScope::IRScope(Compilation*, IRScope*, int, ciMethod*, int, bool) (1 samples, 4.76%)</title><rect x="1133.8" y="723.0" width="56.2" height="15" fill="#d9d941" rx="2" ry="2"/>
<text x="1136.8" y="734.0">IRScop..</text>
</g>
<g>
<title>GraphBuilder::GraphBuilder(Compilation*, IRScope*) (1 samples, 4.76%)</title><rect x="1133.8" y="707.0" width="56.2" height="15" fill="#cfcf3e" rx="2" ry="2"/>
<text x="1136.8" y="718.0">GraphB..</text>
</g>
<g>
<title>GraphBuilder::iterate_all_blocks(bool) (1 samples, 4.76%)</title><rect x="1133.8" y="691.0" width="56.2" height="15" fill="#cccc3d" rx="2" ry="2"/>
<text x="1136.8" y="702.0">GraphB..</text>
</g>
<g>
<title>GraphBuilder::iterate_bytecodes_for_block(int) (1 samples, 4.76%)</title><rect x="1133.8" y="675.0" width="56.2" height="15" fill="#dddd43" rx="2" ry="2"/>
<text x="1136.8" y="686.0">GraphB..</text>
</g>
<g>
<title>GraphBuilder::invoke(Bytecodes::Code) (1 samples, 4.76%)</title><rect x="1133.8" y="659.0" width="56.2" height="15" fill="#cbcb3d" rx="2" ry="2"/>
<text x="1136.8" y="670.0">GraphB..</text>
</g>
<g>
<title>Instruction::as_Local() (1 samples, 4.76%)</title><rect x="1133.8" y="643.0" width="56.2" height="15" fill="#dfdf43" rx="2" ry="2"/>
<text x="1136.8" y="654.0">Instru..</text>
</g>
</g>
</svg>
