<?xml version="1.0" standalone="no"?>
<!DOCTYPE svg PUBLIC "-//W3C//DTD SVG 1.1//EN" "http://www.w3.org/Graphics/SVG/1.1/DTD/svg11.dtd">
<svg version="1.1" width="1200" height="374" onload="init(evt)" viewBox="0 0 1200 374" xmlns="http://www.w3.org/2000/svg" xmlns:xlink="http://www.w3.org/1999/xlink">
<style type="text/css">
	text { font-family:Verdana; font-size:12px; fill:rgb(0,0,0); }
	#search { opacity:0.1; cursor:pointer; }
	#search:hover, #search.show { opacity:1; }
	#subtitle { text-anchor:middle; font-color:rgb(160,160,160); }
	#title { text-anchor:middle; font-size:17px}
	#unzoom { cursor:pointer; }
	#frames > *:hover { stroke:black; stroke-width:0.5; cursor:pointer; }
	.hide { display:none; }
	.parent { opacity:0.5; }
</style>
<script type="text/ecmascript">
<![CDATA[
	"use strict";
	var details, searchbtn, unzoombtn, matchedtxt, svg, searching;
	function init(evt) {
		details = document.getElementById("details").firstChild;
		searchbtn = document.getElementById("search");
		unzoombtn = document.getElementById("unzoom");
		matchedtxt = document.getElementById("matched");
		svg = document.getElementsByTagName("svg")[0];
		searching = 0;
	}

	window.addEventListener("click", function(e) {
		var target = find_group(e.target);
		if (target) {
			if (target.nodeName == "a") {
				if (e.ctrlKey === false) return;
				e.preventDefault();
			}
			if (target.classList.contains("parent")) unzoom();
			zoom(target);
		}
		else if (e.target.id == "unzoom") unzoom();
		else if (e.target.id == "search") search_prompt();
	}, false)

	// mouse-over for info
	// show
	window.addEventListener("mouseover", function(e) {
		var target = find_group(e.target);
		if (target) details.nodeValue = "Function: " + g_to_text(target);
	}, false)

	// clear
	window.addEventListener("mouseout", function(e) {
		var target = find_group(e.target);
		if (target) details.nodeValue = ' ';
	}, false)

	// ctrl-F for search
	window.addEventListener("keydown",function (e) {
		if (e.keyCode === 114 || (e.ctrlKey && e.keyCode === 70)) {
			e.preventDefault();
			search_prompt();
		}
	}, false)

	// functions
	function find_child(node, selector) {
		var children = node.querySelectorAll(selector);
		if (children.length) return children[0];
		return;
	}
	function find_group(node) {
		var parent = node.parentElement;
		if (!parent) return;
		if (parent.id == "frames") return node;
		return find_group(parent);
	}
	function orig_save(e, attr, val) {
		if (e.attributes["_orig_" + attr] != undefined) return;
		if (e.attributes[attr] == undefined) return;
		if (val == undefined) val = e.attributes[attr].value;
		e.setAttribute("_orig_" + attr, val);
	}
	function orig_load(e, attr) {
		if (e.attributes["_orig_"+attr] == undefined) return;
		e.attributes[attr].value = e.attributes["_orig_" + attr].value;
		e.removeAttribute("_orig_"+attr);
	}
	function g_to_text(e) {
		var text = find_child(e, "title").firstChild.nodeValue;
		return (text)
	}
	function g_to_func(e) {
		var func = g_to_text(e);
		// if there's any manipulation we want to do to the function
		// name before it's searched, do it here before returning.
		return (func);
	}
	function update_text(e) {
		var r = find_child(e, "rect");
		var t = find_child(e, "text");
		var w = parseFloat(r.attributes.width.value) -3;
		var txt = find_child(e, "title").textContent.replace(/\([^(]*\)$/,"");
		t.attributes.x.value = parseFloat(r.attributes.x.value) + 3;

		// Smaller than this size won't fit anything
		if (w < 2 * 12 * 0.59) {
			t.textContent = "";
			return;
		}

		t.textContent = txt;
		// Fit in full text width
		if (/^ *$/.test(txt) || t.getSubStringLength(0, txt.length) < w)
			return;

		for (var x = txt.length - 2; x > 0; x--) {
			if (t.getSubStringLength(0, x + 2) <= w) {
				t.textContent = txt.substring(0, x) + "..";
				return;
			}
		}
		t.textContent = "";
	}

	// zoom
	function zoom_reset(e) {
		if (e.attributes != undefined) {
			orig_load(e, "x");
			orig_load(e, "width");
		}
		if (e.childNodes == undefined) return;
		for (var i = 0, c = e.childNodes; i < c.length; i++) {
			zoom_reset(c[i]);
		}
	}
	function zoom_child(e, x, ratio) {
		if (e.attributes != undefined) {
			if (e.attributes.x != undefined) {
				orig_save(e, "x");
				e.attributes.x.value = (parseFloat(e.attributes.x.value) - x - 10) * ratio + 10;
				if (e.tagName == "text")
					e.attributes.x.value = find_child(e.parentNode, "rect[x]").attributes.x.value + 3;
			}
			if (e.attributes.width != undefined) {
				orig_save(e, "width");
				e.attributes.width.value = parseFloat(e.attributes.width.value) * ratio;
			}
		}

		if (e.childNodes == undefined) return;
		for (var i = 0, c = e.childNodes; i < c.length; i++) {
			zoom_child(c[i], x - 10, ratio);
		}
	}
	function zoom_parent(e) {
		if (e.attributes) {
			if (e.attributes.x != undefined) {
				orig_save(e, "x");
				e.attributes.x.value = 10;
			}
			if (e.attributes.width != undefined) {
				orig_save(e, "width");
				e.attributes.width.value = parseInt(svg.width.baseVal.value) - (10 * 2);
			}
		}
		if (e.childNodes == undefined) return;
		for (var i = 0, c = e.childNodes; i < c.length; i++) {
			zoom_parent(c[i]);
		}
	}
	function zoom(node) {
		var attr = find_child(node, "rect").attributes;
		var width = parseFloat(attr.width.value);
		var xmin = parseFloat(attr.x.value);
		var xmax = parseFloat(xmin + width);
		var ymin = parseFloat(attr.y.value);
		var ratio = (svg.width.baseVal.value - 2 * 10) / width;

		// XXX: Workaround for JavaScript float issues (fix me)
		var fudge = 0.0001;

		unzoombtn.classList.remove("hide");

		var el = document.getElementById("frames").children;
		for (var i = 0; i < el.length; i++) {
			var e = el[i];
			var a = find_child(e, "rect").attributes;
			var ex = parseFloat(a.x.value);
			var ew = parseFloat(a.width.value);
			var upstack;
			// Is it an ancestor
			if (0 == 0) {
				upstack = parseFloat(a.y.value) > ymin;
			} else {
				upstack = parseFloat(a.y.value) < ymin;
			}
			if (upstack) {
				// Direct ancestor
				if (ex <= xmin && (ex+ew+fudge) >= xmax) {
					e.classList.add("parent");
					zoom_parent(e);
					update_text(e);
				}
				// not in current path
				else
					e.classList.add("hide");
			}
			// Children maybe
			else {
				// no common path
				if (ex < xmin || ex + fudge >= xmax) {
					e.classList.add("hide");
				}
				else {
					zoom_child(e, xmin, ratio);
					update_text(e);
				}
			}
		}
	}
	function unzoom() {
		unzoombtn.classList.add("hide");
		var el = document.getElementById("frames").children;
		for(var i = 0; i < el.length; i++) {
			el[i].classList.remove("parent");
			el[i].classList.remove("hide");
			zoom_reset(el[i]);
			update_text(el[i]);
		}
	}

	// search
	function reset_search() {
		var el = document.querySelectorAll("#frames rect");
		for (var i = 0; i < el.length; i++) {
			orig_load(el[i], "fill")
		}
	}
	function search_prompt() {
		if (!searching) {
			var term = prompt("Enter a search term (regexp " +
			    "allowed, eg: ^ext4_)", "");
			if (term != null) {
				search(term)
			}
		} else {
			reset_search();
			searching = 0;
			searchbtn.classList.remove("show");
			searchbtn.firstChild.nodeValue = "Search"
			matchedtxt.classList.add("hide");
			matchedtxt.firstChild.nodeValue = ""
		}
	}
	function search(term) {
		var re = new RegExp(term);
		var el = document.getElementById("frames").children;
		var matches = new Object();
		var maxwidth = 0;
		for (var i = 0; i < el.length; i++) {
			var e = el[i];
			var func = g_to_func(e);
			var rect = find_child(e, "rect");
			if (func == null || rect == null)
				continue;

			// Save max width. Only works as we have a root frame
			var w = parseFloat(rect.attributes.width.value);
			if (w > maxwidth)
				maxwidth = w;

			if (func.match(re)) {
				// highlight
				var x = parseFloat(rect.attributes.x.value);
				orig_save(rect, "fill");
				rect.attributes.fill.value = "rgb(230,0,230)";

				// remember matches
				if (matches[x] == undefined) {
					matches[x] = w;
				} else {
					if (w > matches[x]) {
						// overwrite with parent
						matches[x] = w;
					}
				}
				searching = 1;
			}
		}
		if (!searching)
			return;

		searchbtn.classList.add("show");
		searchbtn.firstChild.nodeValue = "Reset Search";

		// calculate percent matched, excluding vertical overlap
		var count = 0;
		var lastx = -1;
		var lastw = 0;
		var keys = Array();
		for (k in matches) {
			if (matches.hasOwnProperty(k))
				keys.push(k);
		}
		// sort the matched frames by their x location
		// ascending, then width descending
		keys.sort(function(a, b){
			return a - b;
		});
		// Step through frames saving only the biggest bottom-up frames
		// thanks to the sort order. This relies on the tree property
		// where children are always smaller than their parents.
		var fudge = 0.0001;	// JavaScript floating point
		for (var k in keys) {
			var x = parseFloat(keys[k]);
			var w = matches[keys[k]];
			if (x >= lastx + lastw - fudge) {
				count += w;
				lastx = x;
				lastw = w;
			}
		}
		// display matched percent
		matchedtxt.classList.remove("hide");
		var pct = 100 * count / maxwidth;
		if (pct != 100) pct = pct.toFixed(1)
		matchedtxt.firstChild.nodeValue = "Matched: " + pct + "%";
	}
]]>
</script>
<rect x="0" y="0" width="100%" height="100%" fill="rgb(240,240,220)"/>
<text id="title" x="600" y="24">Flame Graph</text>
<text id="details" x="10" y="357"> </text>
<text id="unzoom" x="10" y="24" class="hide">Reset Zoom</text>
<text id="search" x="1090" y="24">Search</text>
<text id="matched" x="1090" y="357"> </text>
<g id="frames">
<g>
<title>all (21 samples, 100.00%)</title><rect x="10.0" y="323.0" width="1180.0" height="15" fill="#fa7b7b" rx="2" ry="2"/>
<text x="13.0" y="334.0">all</text>
</g>
<g>
<title>[unknown] (1 samples, 4.76%)</title><rect x="10.0" y="307.0" width="56.2" height="15" fill="#ec6969" rx="2" ry="2"/>
<text x="13.0" y="318.0">[unkno..</text>
</g>
<g>
<title>__vsnprintf_chk (1 samples, 4.76%)</title><rect x="10.0" y="291.0" width="56.2" height="15" fill="#f87979" rx="2" ry="2"/>
<text x="13.0" y="302.0">__vsnp..</text>
</g>
<g>
<title>vfprintf (1 samples, 4.76%)</title><rect x="10.0" y="275.0" width="56.2" height="15" fill="#f87979" rx="2" ry="2"/>
<text x="13.0" y="286.0">vfprintf</text>
</g>
<g>
<title>com/linecorp/decaton/processor/runtime/ProcessorSubscription.run (3 samples, 14.29%)</title><rect x="66.2" y="307.0" width="168.6" height="15" fill="#6bfc6b" rx="2" ry="2"/>
<text x="69.2" y="318.0">com/linecorp/decaton/p..</text>
</g>
<g>
<title>com/linecorp/decaton/processor/runtime/ProcessorSubscription.pollOnce (3 samples, 14.29%)</title><rect x="66.2" y="291.0" width="168.6" height="15" fill="#55e655" rx="2" ry="2"/>
<text x="69.2" y="302.0">com/linecorp/decaton/p..</text>
</g>
<g>
<title>org/apache/kafka/clients/consumer/KafkaConsumer.poll (3 samples, 14.29%)</title><rect x="66.2" y="275.0" width="168.6" height="15" fill="#5aeb5a" rx="2" ry="2"/>
<text x="69.2" y="286.0">org/apache/kafka/clien..</text>
</g>
<g>
<title>org/apache/kafka/clients/consumer/KafkaConsumer.poll (3 samples, 14.29%)</title><rect x="66.2" y="259.0" width="168.6" height="15" fill="#67f867" rx="2" ry="2"/>
<text x="69.2" y="270.0">org/apache/kafka/clien..</text>
</g>
<g>
<title>org/apache/kafka/clients/consumer/KafkaConsumer.pollForFetches (3 samples, 14.29%)</title><rect x="66.2" y="243.0" width="168.6" height="15" fill="#58e958" rx="2" ry="2"/>
<text x="69.2" y="254.0">org/apache/kafka/clien..</text>
</g>
<g>
<title>org/apache/kafka/clients/consumer/internals/Fetcher.fetchedRecords (2 samples, 9.52%)</title><rect x="66.2" y="227.0" width="112.4" height="15" fill="#60f160" rx="2" ry="2"/>
<text x="69.2" y="238.0">org/apache/kaf..</text>
</g>
<g>
<title>org/apache/kafka/clients/consumer/internals/Fetcher.fetchRecords (1 samples, 4.76%)</title><rect x="66.2" y="211.0" width="56.2" height="15" fill="#5eef5e" rx="2" ry="2"/>
<text x="69.2" y="222.0">org/ap..</text>
</g>
<g>
<title>org/apache/kafka/clients/consumer/internals/Fetcher$CompletedFetch.access$1700 (1 samples, 4.76%)</title><rect x="66.2" y="195.0" width="56.2" height="15" fill="#62f362" rx="2" ry="2"/>
<text x="69.2" y="206.0">org/ap..</text>
</g>
<g>
<title>org/apache/kafka/clients/consumer/internals/Fetcher$CompletedFetch.fetchRecords (1 samples, 4.76%)</title><rect x="66.2" y="179.0" width="56.2" height="15" fill="#5aeb5a" rx="2" ry="2"/>
<text x="69.2" y="190.0">org/ap..</text>
</g>
<g>
<title>org/apache/kafka/clients/consumer/internals/Fetcher$CompletedFetch.nextFetchedRecord (1 samples, 4.76%)</title><rect x="66.2" y="163.0" width="56.2" height="15" fill="#5ff05f" rx="2" ry="2"/>
<text x="69.2" y="174.0">org/ap..</text>
</g>
<g>
<title>org/apache/kafka/clients/consumer/internals/Fetcher.initializeCompletedFetch (1 samples, 4.76%)</title><rect x="122.4" y="211.0" width="56.2" height="15" fill="#6cfd6c" rx="2" ry="2"/>
<text x="125.4" y="222.0">org/ap..</text>
</g>
<g>
<title>java/lang/Long.valueOf (1 samples, 4.76%)</title><rect x="122.4" y="195.0" width="56.2" height="15" fill="#6bfc6b" rx="2" ry="2"/>
<text x="125.4" y="206.0">java/l..</text>
</g>
<g>
<title>org/apache/kafka/clients/consumer/internals/Fetcher.sendFetches (1 samples, 4.76%)</title><rect x="178.6" y="227.0" width="56.2" height="15" fill="#63f463" rx="2" ry="2"/>
<text x="181.6" y="238.0">org/ap..</text>
</g>
<g>
<title>org/apache/kafka/clients/consumer/internals/Fetcher.prepareFetchRequests (1 samples, 4.76%)</title><rect x="178.6" y="211.0" width="56.2" height="15" fill="#65f665" rx="2" ry="2"/>
<text x="181.6" y="222.0">org/ap..</text>
</g>
<g>
<title>org/apache/kafka/clients/FetchSessionHandler$Builder.build (1 samples, 4.76%)</title><rect x="178.6" y="195.0" width="56.2" height="15" fill="#54e554" rx="2" ry="2"/>
<text x="181.6" y="206.0">org/ap..</text>
</g>
<g>
<title>java/util/LinkedHashMap.&lt;init&gt; (1 samples, 4.76%)</title><rect x="178.6" y="179.0" width="56.2" height="15" fill="#62f362" rx="2" ry="2"/>
<text x="181.6" y="190.0">java/u..</text>
</g>
<g>
<title>java/util/HashMap.putMapEntries (1 samples, 4.76%)</title><rect x="178.6" y="163.0" width="56.2" height="15" fill="#50e150" rx="2" ry="2"/>
<text x="181.6" y="174.0">java/u..</text>
</g>
<g>
<title>java/util/HashMap$Node.getKey (1 samples, 4.76%)</title><rect x="178.6" y="147.0" width="56.2" height="15" fill="#57e857" rx="2" ry="2"/>
<text x="181.6" y="158.0">java/u..</text>
</g>
<g>
<title>java/lang/Thread.run (1 samples, 4.76%)</title><rect x="234.8" y="307.0" width="56.2" height="15" fill="#54e554" rx="2" ry="2"/>
<text x="237.8" y="318.0">java/l..</text>
</g>
<g>
<title>java/util/concurrent/ThreadPoolExecutor$Worker.run (1 samples, 4.76%)</title><rect x="234.8" y="291.0" width="56.2" height="15" fill="#68f968" rx="2" ry="2"/>
<text x="237.8" y="302.0">java/u..</text>
</g>
<g>
<title>java/util/concurrent/ThreadPoolExecutor.runWorker (1 samples, 4.76%)</title><rect x="234.8" y="275.0" width="56.2" height="15" fill="#54e554" rx="2" ry="2"/>
<text x="237.8" y="286.0">java/u..</text>
</g>
<g>
<title>com/linecorp/decaton/processor/runtime/ProcessorUnit$$Lambda$277/2038354488.run (1 samples, 4.76%)</title><rect x="234.8" y="259.0" width="56.2" height="15" fill="#5ced5c" rx="2" ry="2"/>
<text x="237.8" y="270.0">com/li..</text>
</g>
<g>
<title>com/linecorp/decaton/processor/runtime/ProcessorUnit.lambda$putTask$0 (1 samples, 4.76%)</title><rect x="234.8" y="243.0" width="56.2" height="15" fill="#53e453" rx="2" ry="2"/>
<text x="237.8" y="254.0">com/li..</text>
</g>
<g>
<title>com/linecorp/decaton/processor/runtime/ProcessorUnit.processTask (1 samples, 4.76%)</title><rect x="234.8" y="227.0" width="56.2" height="15" fill="#53e453" rx="2" ry="2"/>
<text x="237.8" y="238.0">com/li..</text>
</g>
<g>
<title>com/linecorp/decaton/processor/runtime/ProcessPipeline.scheduleThenProcess (1 samples, 4.76%)</title><rect x="234.8" y="211.0" width="56.2" height="15" fill="#6dfe6d" rx="2" ry="2"/>
<text x="237.8" y="222.0">com/li..</text>
</g>
<g>
<title>com/linecorp/decaton/processor/runtime/ProcessPipeline.process (1 samples, 4.76%)</title><rect x="234.8" y="195.0" width="56.2" height="15" fill="#56e756" rx="2" ry="2"/>
<text x="237.8" y="206.0">com/li..</text>
</g>
<g>
<title>com/linecorp/decaton/processor/runtime/ProcessingContextImpl.push (1 samples, 4.76%)</title><rect x="234.8" y="179.0" width="56.2" height="15" fill="#5ff05f" rx="2" ry="2"/>
<text x="237.8" y="190.0">com/li..</text>
</g>
<g>
<title>com/linecorp/decaton/processor/runtime/ProcessingContextImpl.pushDownStream (1 samples, 4.76%)</title><rect x="234.8" y="163.0" width="56.2" height="15" fill="#69fa69" rx="2" ry="2"/>
<text x="237.8" y="174.0">com/li..</text>
</g>
<g>
<title>com/linecorp/decaton/benchmark/DecatonRunner$$Lambda$203/117397272.process (1 samples, 4.76%)</title><rect x="234.8" y="147.0" width="56.2" height="15" fill="#62f362" rx="2" ry="2"/>
<text x="237.8" y="158.0">com/li..</text>
</g>
<g>
<title>com/linecorp/decaton/benchmark/DecatonRunner.lambda$null$1 (1 samples, 4.76%)</title><rect x="234.8" y="131.0" width="56.2" height="15" fill="#58e958" rx="2" ry="2"/>
<text x="237.8" y="142.0">com/li..</text>
</g>
<g>
<title>com/linecorp/decaton/benchmark/Recording.process (1 samples, 4.76%)</title><rect x="234.8" y="115.0" width="56.2" height="15" fill="#63f463" rx="2" ry="2"/>
<text x="237.8" y="126.0">com/li..</text>
</g>
<g>
<title>com/linecorp/decaton/benchmark/Recording$ChildRecording.process (1 samples, 4.76%)</title><rect x="234.8" y="99.0" width="56.2" height="15" fill="#5ff05f" rx="2" ry="2"/>
<text x="237.8" y="110.0">com/li..</text>
</g>
<g>
<title>java/lang/Thread.sleep (1 samples, 4.76%)</title><rect x="234.8" y="83.0" width="56.2" height="15" fill="#5eef5e" rx="2" ry="2"/>
<text x="237.8" y="94.0">java/l..</text>
</g>
<g>
<title>JVM_Sleep (1 samples, 4.76%)</title><rect x="234.8" y="67.0" width="56.2" height="15" fill="#fe8080" rx="2" ry="2"/>
<text x="237.8" y="78.0">JVM_Sl..</text>
</g>
<g>
<title>os::sleep(Thread*, long, bool) (1 samples, 4.76%)</title><rect x="234.8" y="51.0" width="56.2" height="15" fill="#d0d03e" rx="2" ry="2"/>
<text x="237.8" y="62.0">os::sl..</text>
</g>
<g>
<title>__pthread_cond_timedwait (1 samples, 4.76%)</title><rect x="234.8" y="35.0" width="56.2" height="15" fill="#f87878" rx="2" ry="2"/>
<text x="237.8" y="46.0">__pthr..</text>
</g>
<g>
<title>start_thread (16 samples, 76.19%)</title><rect x="291.0" y="307.0" width="899.0" height="15" fill="#f06f6f" rx="2" ry="2"/>
<text x="294.0" y="318.0">start_thread</text>
</g>
<g>
<title>java_start(Thread*) (16 samples, 76.19%)</title><rect x="291.0" y="291.0" width="899.0" height="15" fill="#f87878" rx="2" ry="2"/>
<text x="294.0" y="302.0">java_start(Thread*)</text>
</g>
<g>
<title>GangWorker::loop() (6 samples, 28.57%)</title><rect x="291.0" y="275.0" width="337.1" height="15" fill="#d4d440" rx="2" ry="2"/>
<text x="294.0" y="286.0">GangWorker::loop()</text>
</g>
<g>
<title>G1ParPreserveCMReferentsTask::work(unsigned int) (1 samples, 4.76%)</title><rect x="291.0" y="259.0" width="56.1" height="15" fill="#e2e244" rx="2" ry="2"/>
<text x="294.0" y="270.0">G1ParP..</text>
</g>
<g>
<title>G1ParEvacuateFollowersClosure::do_void() (1 samples, 4.76%)</title><rect x="291.0" y="243.0" width="56.1" height="15" fill="#d0d03e" rx="2" ry="2"/>
<text x="294.0" y="254.0">G1ParE..</text>
</g>
<g>
<title>ParallelTaskTerminator::offer_termination(TerminatorTerminator*) (1 samples, 4.76%)</title><rect x="291.0" y="227.0" width="56.1" height="15" fill="#d2d23f" rx="2" ry="2"/>
<text x="294.0" y="238.0">Parall..</text>
</g>
<g>
<title>G1ParTask::work(unsigned int) [clone .part.431] (5 samples, 23.81%)</title><rect x="347.1" y="259.0" width="281.0" height="15" fill="#e0e044" rx="2" ry="2"/>
<text x="350.1" y="270.0">G1ParTask::work(unsigned int) [clone ...</text>
</g>
<g>
<title>G1ParEvacuateFollowersClosure::do_void() (5 samples, 23.81%)</title><rect x="347.1" y="243.0" width="281.0" height="15" fill="#e3e345" rx="2" ry="2"/>
<text x="350.1" y="254.0">G1ParEvacuateFollowersClosure::do_void()</text>
</g>
<g>
<title>G1ParScanThreadState::trim_queue() (1 samples, 4.76%)</title><rect x="347.1" y="227.0" width="56.2" height="15" fill="#caca3c" rx="2" ry="2"/>
<text x="350.1" y="238.0">G1ParS..</text>
</g>
<g>
<title>GenericTaskQueueSet&lt;OverflowTaskQueue&lt;StarTask, (MemoryType)5, 131072u&gt;, (MemoryType)5&gt;::steal_best_of_2(unsigned int, int*, StarTask&amp;) (4 samples, 19.05%)</title><rect x="403.3" y="227.0" width="224.8" height="15" fill="#e4e445" rx="2" ry="2"/>
<text x="406.3" y="238.0">GenericTaskQueueSet&lt;OverflowTa..</text>
</g>
<g>
<title>JavaThread::thread_main_inner() (10 samples, 47.62%)</title><rect x="628.1" y="275.0" width="561.9" height="15" fill="#d7d741" rx="2" ry="2"/>
<text x="631.1" y="286.0">JavaThread::thread_main_inner()</text>
</g>
<g>
<title>CompileBroker::compiler_thread_loop() (10 samples, 47.62%)</title><rect x="628.1" y="259.0" width="561.9" height="15" fill="#caca3c" rx="2" ry="2"/>
<text x="631.1" y="270.0">CompileBroker::compiler_thread_loop()</text>
</g>
<g>
<title>CompileBroker::invoke_compiler_on_method(CompileTask*) (10 samples, 47.62%)</title><rect x="628.1" y="243.0" width="561.9" height="15" fill="#cdcd3d" rx="2" ry="2"/>
<text x="631.1" y="254.0">CompileBroker::invoke_compiler_on_method(CompileTask*)</text>
</g>
<g>
<title>C2Compiler::compile_method(ciEnv*, ciMethod*, int) (9 samples, 42.86%)</title><rect x="628.1" y="227.0" width="505.7" height="15" fill="#dbdb42" rx="2" ry="2"/>
<text x="631.1" y="238.0">C2Compiler::compile_method(ciEnv*, ciMethod*, int)</text>
</g>
<g>
<title>Compile::Compile(ciEnv*, C2Compiler*, ciMethod*, int, bool, bool, bool) (9 samples, 42.86%)</title><rect x="628.1" y="211.0" width="505.7" height="15" fill="#e2e244" rx="2" ry="2"/>
<text x="631.1" y="222.0">Compile::Compile(ciEnv*, C2Compiler*, ciMethod*, int, bool, bool, bool)</text>
</g>
<g>
<title>Compile::Code_Gen() (7 samples, 33.33%)</title><rect x="628.1" y="195.0" width="393.3" height="15" fill="#d2d23f" rx="2" ry="2"/>
<text x="631.1" y="206.0">Compile::Code_Gen()</text>
</g>
<g>
<title>Compile::Output() (1 samples, 4.76%)</title><rect x="628.1" y="179.0" width="56.2" height="15" fill="#c9c93c" rx="2" ry="2"/>
<text x="631.1" y="190.0">Compil..</text>
</g>
<g>
<title>Compile::init_buffer(unsigned int*) (1 samples, 4.76%)</title><rect x="628.1" y="163.0" width="56.2" height="15" fill="#c8c83c" rx="2" ry="2"/>
<text x="631.1" y="174.0">Compil..</text>
</g>
<g>
<title>Compile::init_scratch_buffer_blob(int) (1 samples, 4.76%)</title><rect x="628.1" y="147.0" width="56.2" height="15" fill="#d5d540" rx="2" ry="2"/>
<text x="631.1" y="158.0">Compil..</text>
</g>
<g>
<title>BufferBlob::create(char const*, int) (1 samples, 4.76%)</title><rect x="628.1" y="131.0" width="56.2" height="15" fill="#c9c93c" rx="2" ry="2"/>
<text x="631.1" y="142.0">Buffer..</text>
</g>
<g>
<title>CodeCache::allocate(int, bool) (1 samples, 4.76%)</title><rect x="628.1" y="115.0" width="56.2" height="15" fill="#cfcf3e" rx="2" ry="2"/>
<text x="631.1" y="126.0">CodeCa..</text>
</g>
<g>
<title>CodeHeap::allocate(unsigned long, bool) (1 samples, 4.76%)</title><rect x="628.1" y="99.0" width="56.2" height="15" fill="#e5e545" rx="2" ry="2"/>
<text x="631.1" y="110.0">CodeHe..</text>
</g>
<g>
<title>CodeHeap::search_freelist(unsigned long, bool) (1 samples, 4.76%)</title><rect x="628.1" y="83.0" width="56.2" height="15" fill="#e3e345" rx="2" ry="2"/>
<text x="631.1" y="94.0">CodeHe..</text>
</g>
<g>
<title>PhaseCFG::PhaseCFG(Arena*, RootNode*, Matcher&amp;) (1 samples, 4.76%)</title><rect x="684.3" y="179.0" width="56.2" height="15" fill="#e1e144" rx="2" ry="2"/>
<text x="687.3" y="190.0">PhaseC..</text>
</g>
<g>
<title>PhaseCFG::build_cfg() (1 samples, 4.76%)</title><rect x="684.3" y="163.0" width="56.2" height="15" fill="#cfcf3e" rx="2" ry="2"/>
<text x="687.3" y="174.0">PhaseC..</text>
</g>
<g>
<title>CProjNode::is_block_proj() const (1 samples, 4.76%)</title><rect x="684.3" y="147.0" width="56.2" height="15" fill="#d8d841" rx="2" ry="2"/>
<text x="687.3" y="158.0">CProjN..</text>
</g>
<g>
<title>PhaseCFG::do_global_code_motion() (1 samples, 4.76%)</title><rect x="740.5" y="179.0" width="56.2" height="15" fill="#d3d33f" rx="2" ry="2"/>
<text x="743.5" y="190.0">PhaseC..</text>
</g>
<g>
<title>PhaseCFG::global_code_motion() (1 samples, 4.76%)</title><rect x="740.5" y="163.0" width="56.2" height="15" fill="#dede43" rx="2" ry="2"/>
<text x="743.5" y="174.0">PhaseC..</text>
</g>
<g>
<title>PhaseCFG::schedule_late(VectorSet&amp;, Node_List&amp;) (1 samples, 4.76%)</title><rect x="740.5" y="147.0" width="56.2" height="15" fill="#d7d741" rx="2" ry="2"/>
<text x="743.5" y="158.0">PhaseC..</text>
</g>
<g>
<title>Node_Backward_Iterator::next() (1 samples, 4.76%)</title><rect x="740.5" y="131.0" width="56.2" height="15" fill="#dcdc42" rx="2" ry="2"/>
<text x="743.5" y="142.0">Node_B..</text>
</g>
<g>
<title>PhaseChaitin::Register_Allocate() (4 samples, 19.05%)</title><rect x="796.7" y="179.0" width="224.7" height="15" fill="#d7d741" rx="2" ry="2"/>
<text x="799.7" y="190.0">PhaseChaitin::Register_Allocat..</text>
</g>
<g>
<title>PhaseChaitin::gather_lrg_masks(bool) [clone .constprop.214] (1 samples, 4.76%)</title><rect x="796.7" y="163.0" width="56.2" height="15" fill="#c9c93c" rx="2" ry="2"/>
<text x="799.7" y="174.0">PhaseC..</text>
</g>
<g>
<title>RegMask::is_vector(unsigned int) (1 samples, 4.76%)</title><rect x="796.7" y="147.0" width="56.2" height="15" fill="#d5d540" rx="2" ry="2"/>
<text x="799.7" y="158.0">RegMas..</text>
</g>
<g>
<title>PhaseChaitin::gather_lrg_masks(bool) [clone .constprop.215] (1 samples, 4.76%)</title><rect x="852.9" y="163.0" width="56.1" height="15" fill="#e3e345" rx="2" ry="2"/>
<text x="855.9" y="174.0">PhaseC..</text>
</g>
<g>
<title>RegMask::is_vector(unsigned int) (1 samples, 4.76%)</title><rect x="852.9" y="147.0" width="56.1" height="15" fill="#e3e345" rx="2" ry="2"/>
<text x="855.9" y="158.0">RegMas..</text>
</g>
<g>
<title>PhaseCoalesce::coalesce_driver() (1 samples, 4.76%)</title><rect x="909.0" y="163.0" width="56.2" height="15" fill="#dddd43" rx="2" ry="2"/>
<text x="912.0" y="174.0">PhaseC..</text>
</g>
<g>
<title>PhaseAggressiveCoalesce::coalesce(Block*) (1 samples, 4.76%)</title><rect x="909.0" y="147.0" width="56.2" height="15" fill="#d0d03e" rx="2" ry="2"/>
<text x="912.0" y="158.0">PhaseA..</text>
</g>
<g>
<title>PhaseLive::compute(unsigned int) (1 samples, 4.76%)</title><rect x="965.2" y="163.0" width="56.2" height="15" fill="#dede43" rx="2" ry="2"/>
<text x="968.2" y="174.0">PhaseL..</text>
</g>
<g>
<title>Compile::Optimize() (2 samples, 9.52%)</title><rect x="1021.4" y="195.0" width="112.4" height="15" fill="#dbdb42" rx="2" ry="2"/>
<text x="1024.4" y="206.0">Compile::Optim..</text>
</g>
<g>
<title>ConnectionGraph::do_analysis(Compile*, PhaseIterGVN*) (1 samples, 4.76%)</title><rect x="1021.4" y="179.0" width="56.2" height="15" fill="#d2d23f" rx="2" ry="2"/>
<text x="1024.4" y="190.0">Connec..</text>
</g>
<g>
<title>ConnectionGraph::compute_escape() (1 samples, 4.76%)</title><rect x="1021.4" y="163.0" width="56.2" height="15" fill="#dcdc42" rx="2" ry="2"/>
<text x="1024.4" y="174.0">Connec..</text>
</g>
<g>
<title>ConnectionGraph::complete_connection_graph(GrowableArray&lt;PointsToNode*&gt;&amp;, GrowableArray&lt;JavaObjectNode*&gt;&amp;, GrowableArray&lt;JavaObjectNode*&gt;&amp;, GrowableArray&lt;FieldNode*&gt;&amp;) (1 samples, 4.76%)</title><rect x="1021.4" y="147.0" width="56.2" height="15" fill="#cccc3d" rx="2" ry="2"/>
<text x="1024.4" y="158.0">Connec..</text>
</g>
<g>
<title>PhaseIdealLoop::build_and_optimize(bool, bool) (1 samples, 4.76%)</title><rect x="1077.6" y="179.0" width="56.2" height="15" fill="#d5d540" rx="2" ry="2"/>
<text x="1080.6" y="190.0">PhaseI..</text>
</g>
<g>
<title>ProjNode::pinned() const (1 samples, 4.76%)</title><rect x="1077.6" y="163.0" width="56.2" height="15" fill="#e2e244" rx="2" ry="2"/>
<text x="1080.6" y="174.0">ProjNo..</text>
</g>
<g>
<title>Compiler::compile_method(ciEnv*, ciMethod*, int) (1 samples, 4.76%)</title><rect x="1133.8" y="227.0" width="56.2" height="15" fill="#e0e044" rx="2" ry="2"/>
<text x="1136.8" y="238.0">Compil..</text>
</g>
<g>
<title>Compilation::Compilation(AbstractCompiler*, ciEnv*, ciMethod*, int, BufferBlob*) (1 samples, 4.76%)</title><rect x="1133.8" y="211.0" width="56.2" height="15" fill="#d1d13f" rx="2" ry="2"/>
<text x="1136.8" y="222.0">Compil..</text>
</g>
<g>
<title>Compilation::compile_method() (1 samples, 4.76%)</title><rect x="1133.8" y="195.0" width="56.2" height="15" fill="#cece3e" rx="2" ry="2"/>
<text x="1136.8" y="206.0">Compil..</text>
</g>
<g>
<title>Compilation::compile_java_method() (1 samples, 4.76%)</title><rect x="1133.8" y="179.0" width="56.2" height="15" fill="#e2e244" rx="2" ry="2"/>
<text x="1136.8" y="190.0">Compil..</text>
</g>
<g>
<title>Compilation::build_hir() (1 samples, 4.76%)</title><rect x="1133.8" y="163.0" width="56.2" height="15" fill="#d2d23f" rx="2" ry="2"/>
<text x="1136.8" y="174.0">Compil..</text>
</g>
<g>
<title>IR::IR(Compilation*, ciMethod*, int) (1 samples, 4.76%)</title><rect x="1133.8" y="147.0" width="56.2" height="15" fill="#dcdc42" rx="2" ry="2"/>
<text x="1136.8" y="158.0">IR::IR..</text>
</g>
<g>
<title>IRScope::IRScope(Compilation*, IRScope*, int, ciMethod*, int, bool) (1 samples, 4.76%)</title><rect x="1133.8" y="131.0" width="56.2" height="15" fill="#e4e445" rx="2" ry="2"/>
<text x="1136.8" y="142.0">IRScop..</text>
</g>
<g>
<title>GraphBuilder::GraphBuilder(Compilation*, IRScope*) (1 samples, 4.76%)</title><rect x="1133.8" y="115.0" width="56.2" height="15" fill="#d9d941" rx="2" ry="2"/>
<text x="1136.8" y="126.0">GraphB..</text>
</g>
<g>
<title>GraphBuilder::iterate_all_blocks(bool) (1 samples, 4.76%)</title><rect x="1133.8" y="99.0" width="56.2" height="15" fill="#dbdb42" rx="2" ry="2"/>
<text x="1136.8" y="110.0">GraphB..</text>
</g>
<g>
<title>GraphBuilder::iterate_bytecodes_for_block(int) (1 samples, 4.76%)</title><rect x="1133.8" y="83.0" width="56.2" height="15" fill="#e1e144" rx="2" ry="2"/>
<text x="1136.8" y="94.0">GraphB..</text>
</g>
<g>
<title>GraphBuilder::append(Instruction*) (1 samples, 4.76%)</title><rect x="1133.8" y="67.0" width="56.2" height="15" fill="#d5d540" rx="2" ry="2"/>
<text x="1136.8" y="78.0">GraphB..</text>
</g>
</g>
</svg>
