<?xml version="1.0" standalone="no"?>
<!DOCTYPE svg PUBLIC "-//W3C//DTD SVG 1.1//EN" "http://www.w3.org/Graphics/SVG/1.1/DTD/svg11.dtd">
<svg version="1.1" width="1200" height="422" onload="init(evt)" viewBox="0 0 1200 422" xmlns="http://www.w3.org/2000/svg" xmlns:xlink="http://www.w3.org/1999/xlink">
<style type="text/css">
	text { font-family:Verdana; font-size:12px; fill:rgb(0,0,0); }
	#search { opacity:0.1; cursor:pointer; }
	#search:hover, #search.show { opacity:1; }
	#subtitle { text-anchor:middle; font-color:rgb(160,160,160); }
	#title { text-anchor:middle; font-size:17px}
	#unzoom { cursor:pointer; }
	#frames > *:hover { stroke:black; stroke-width:0.5; cursor:pointer; }
	.hide { display:none; }
	.parent { opacity:0.5; }
</style>
<script type="text/ecmascript">
<![CDATA[
	"use strict";
	var details, searchbtn, unzoombtn, matchedtxt, svg, searching;
	function init(evt) {
		details = document.getElementById("details").firstChild;
		searchbtn = document.getElementById("search");
		unzoombtn = document.getElementById("unzoom");
		matchedtxt = document.getElementById("matched");
		svg = document.getElementsByTagName("svg")[0];
		searching = 0;
	}

	window.addEventListener("click", function(e) {
		var target = find_group(e.target);
		if (target) {
			if (target.nodeName == "a") {
				if (e.ctrlKey === false) return;
				e.preventDefault();
			}
			if (target.classList.contains("parent")) unzoom();
			zoom(target);
		}
		else if (e.target.id == "unzoom") unzoom();
		else if (e.target.id == "search") search_prompt();
	}, false)

	// mouse-over for info
	// show
	window.addEventListener("mouseover", function(e) {
		var target = find_group(e.target);
		if (target) details.nodeValue = "Function: " + g_to_text(target);
	}, false)

	// clear
	window.addEventListener("mouseout", function(e) {
		var target = find_group(e.target);
		if (target) details.nodeValue = ' ';
	}, false)

	// ctrl-F for search
	window.addEventListener("keydown",function (e) {
		if (e.keyCode === 114 || (e.ctrlKey && e.keyCode === 70)) {
			e.preventDefault();
			search_prompt();
		}
	}, false)

	// functions
	function find_child(node, selector) {
		var children = node.querySelectorAll(selector);
		if (children.length) return children[0];
		return;
	}
	function find_group(node) {
		var parent = node.parentElement;
		if (!parent) return;
		if (parent.id == "frames") return node;
		return find_group(parent);
	}
	function orig_save(e, attr, val) {
		if (e.attributes["_orig_" + attr] != undefined) return;
		if (e.attributes[attr] == undefined) return;
		if (val == undefined) val = e.attributes[attr].value;
		e.setAttribute("_orig_" + attr, val);
	}
	function orig_load(e, attr) {
		if (e.attributes["_orig_"+attr] == undefined) return;
		e.attributes[attr].value = e.attributes["_orig_" + attr].value;
		e.removeAttribute("_orig_"+attr);
	}
	function g_to_text(e) {
		var text = find_child(e, "title").firstChild.nodeValue;
		return (text)
	}
	function g_to_func(e) {
		var func = g_to_text(e);
		// if there's any manipulation we want to do to the function
		// name before it's searched, do it here before returning.
		return (func);
	}
	function update_text(e) {
		var r = find_child(e, "rect");
		var t = find_child(e, "text");
		var w = parseFloat(r.attributes.width.value) -3;
		var txt = find_child(e, "title").textContent.replace(/\([^(]*\)$/,"");
		t.attributes.x.value = parseFloat(r.attributes.x.value) + 3;

		// Smaller than this size won't fit anything
		if (w < 2 * 12 * 0.59) {
			t.textContent = "";
			return;
		}

		t.textContent = txt;
		// Fit in full text width
		if (/^ *$/.test(txt) || t.getSubStringLength(0, txt.length) < w)
			return;

		for (var x = txt.length - 2; x > 0; x--) {
			if (t.getSubStringLength(0, x + 2) <= w) {
				t.textContent = txt.substring(0, x) + "..";
				return;
			}
		}
		t.textContent = "";
	}

	// zoom
	function zoom_reset(e) {
		if (e.attributes != undefined) {
			orig_load(e, "x");
			orig_load(e, "width");
		}
		if (e.childNodes == undefined) return;
		for (var i = 0, c = e.childNodes; i < c.length; i++) {
			zoom_reset(c[i]);
		}
	}
	function zoom_child(e, x, ratio) {
		if (e.attributes != undefined) {
			if (e.attributes.x != undefined) {
				orig_save(e, "x");
				e.attributes.x.value = (parseFloat(e.attributes.x.value) - x - 10) * ratio + 10;
				if (e.tagName == "text")
					e.attributes.x.value = find_child(e.parentNode, "rect[x]").attributes.x.value + 3;
			}
			if (e.attributes.width != undefined) {
				orig_save(e, "width");
				e.attributes.width.value = parseFloat(e.attributes.width.value) * ratio;
			}
		}

		if (e.childNodes == undefined) return;
		for (var i = 0, c = e.childNodes; i < c.length; i++) {
			zoom_child(c[i], x - 10, ratio);
		}
	}
	function zoom_parent(e) {
		if (e.attributes) {
			if (e.attributes.x != undefined) {
				orig_save(e, "x");
				e.attributes.x.value = 10;
			}
			if (e.attributes.width != undefined) {
				orig_save(e, "width");
				e.attributes.width.value = parseInt(svg.width.baseVal.value) - (10 * 2);
			}
		}
		if (e.childNodes == undefined) return;
		for (var i = 0, c = e.childNodes; i < c.length; i++) {
			zoom_parent(c[i]);
		}
	}
	function zoom(node) {
		var attr = find_child(node, "rect").attributes;
		var width = parseFloat(attr.width.value);
		var xmin = parseFloat(attr.x.value);
		var xmax = parseFloat(xmin + width);
		var ymin = parseFloat(attr.y.value);
		var ratio = (svg.width.baseVal.value - 2 * 10) / width;

		// XXX: Workaround for JavaScript float issues (fix me)
		var fudge = 0.0001;

		unzoombtn.classList.remove("hide");

		var el = document.getElementById("frames").children;
		for (var i = 0; i < el.length; i++) {
			var e = el[i];
			var a = find_child(e, "rect").attributes;
			var ex = parseFloat(a.x.value);
			var ew = parseFloat(a.width.value);
			var upstack;
			// Is it an ancestor
			if (0 == 0) {
				upstack = parseFloat(a.y.value) > ymin;
			} else {
				upstack = parseFloat(a.y.value) < ymin;
			}
			if (upstack) {
				// Direct ancestor
				if (ex <= xmin && (ex+ew+fudge) >= xmax) {
					e.classList.add("parent");
					zoom_parent(e);
					update_text(e);
				}
				// not in current path
				else
					e.classList.add("hide");
			}
			// Children maybe
			else {
				// no common path
				if (ex < xmin || ex + fudge >= xmax) {
					e.classList.add("hide");
				}
				else {
					zoom_child(e, xmin, ratio);
					update_text(e);
				}
			}
		}
	}
	function unzoom() {
		unzoombtn.classList.add("hide");
		var el = document.getElementById("frames").children;
		for(var i = 0; i < el.length; i++) {
			el[i].classList.remove("parent");
			el[i].classList.remove("hide");
			zoom_reset(el[i]);
			update_text(el[i]);
		}
	}

	// search
	function reset_search() {
		var el = document.querySelectorAll("#frames rect");
		for (var i = 0; i < el.length; i++) {
			orig_load(el[i], "fill")
		}
	}
	function search_prompt() {
		if (!searching) {
			var term = prompt("Enter a search term (regexp " +
			    "allowed, eg: ^ext4_)", "");
			if (term != null) {
				search(term)
			}
		} else {
			reset_search();
			searching = 0;
			searchbtn.classList.remove("show");
			searchbtn.firstChild.nodeValue = "Search"
			matchedtxt.classList.add("hide");
			matchedtxt.firstChild.nodeValue = ""
		}
	}
	function search(term) {
		var re = new RegExp(term);
		var el = document.getElementById("frames").children;
		var matches = new Object();
		var maxwidth = 0;
		for (var i = 0; i < el.length; i++) {
			var e = el[i];
			var func = g_to_func(e);
			var rect = find_child(e, "rect");
			if (func == null || rect == null)
				continue;

			// Save max width. Only works as we have a root frame
			var w = parseFloat(rect.attributes.width.value);
			if (w > maxwidth)
				maxwidth = w;

			if (func.match(re)) {
				// highlight
				var x = parseFloat(rect.attributes.x.value);
				orig_save(rect, "fill");
				rect.attributes.fill.value = "rgb(230,0,230)";

				// remember matches
				if (matches[x] == undefined) {
					matches[x] = w;
				} else {
					if (w > matches[x]) {
						// overwrite with parent
						matches[x] = w;
					}
				}
				searching = 1;
			}
		}
		if (!searching)
			return;

		searchbtn.classList.add("show");
		searchbtn.firstChild.nodeValue = "Reset Search";

		// calculate percent matched, excluding vertical overlap
		var count = 0;
		var lastx = -1;
		var lastw = 0;
		var keys = Array();
		for (k in matches) {
			if (matches.hasOwnProperty(k))
				keys.push(k);
		}
		// sort the matched frames by their x location
		// ascending, then width descending
		keys.sort(function(a, b){
			return a - b;
		});
		// Step through frames saving only the biggest bottom-up frames
		// thanks to the sort order. This relies on the tree property
		// where children are always smaller than their parents.
		var fudge = 0.0001;	// JavaScript floating point
		for (var k in keys) {
			var x = parseFloat(keys[k]);
			var w = matches[keys[k]];
			if (x >= lastx + lastw - fudge) {
				count += w;
				lastx = x;
				lastw = w;
			}
		}
		// display matched percent
		matchedtxt.classList.remove("hide");
		var pct = 100 * count / maxwidth;
		if (pct != 100) pct = pct.toFixed(1)
		matchedtxt.firstChild.nodeValue = "Matched: " + pct + "%";
	}
]]>
</script>
<rect x="0" y="0" width="100%" height="100%" fill="rgb(240,240,220)"/>
<text id="title" x="600" y="24">Flame Graph</text>
<text id="details" x="10" y="405"> </text>
<text id="unzoom" x="10" y="24" class="hide">Reset Zoom</text>
<text id="search" x="1090" y="24">Search</text>
<text id="matched" x="1090" y="405"> </text>
<g id="frames">
<g>
<title>all (35 samples, 100.00%)</title><rect x="10.0" y="371.0" width="1180.0" height="15" fill="#fa7b7b" rx="2" ry="2"/>
<text x="13.0" y="382.0">all</text>
</g>
<g>
<title>com/linecorp/decaton/processor/runtime/ProcessorSubscription.run (4 samples, 11.43%)</title><rect x="10.0" y="355.0" width="134.9" height="15" fill="#5bec5b" rx="2" ry="2"/>
<text x="13.0" y="366.0">com/linecorp/deca..</text>
</g>
<g>
<title>com/linecorp/decaton/processor/runtime/ProcessorSubscription.pollOnce (4 samples, 11.43%)</title><rect x="10.0" y="339.0" width="134.9" height="15" fill="#67f867" rx="2" ry="2"/>
<text x="13.0" y="350.0">com/linecorp/deca..</text>
</g>
<g>
<title>org/apache/kafka/clients/consumer/KafkaConsumer.poll (4 samples, 11.43%)</title><rect x="10.0" y="323.0" width="134.9" height="15" fill="#67f867" rx="2" ry="2"/>
<text x="13.0" y="334.0">org/apache/kafka/..</text>
</g>
<g>
<title>org/apache/kafka/clients/consumer/KafkaConsumer.poll (4 samples, 11.43%)</title><rect x="10.0" y="307.0" width="134.9" height="15" fill="#6bfc6b" rx="2" ry="2"/>
<text x="13.0" y="318.0">org/apache/kafka/..</text>
</g>
<g>
<title>org/apache/kafka/clients/consumer/KafkaConsumer.pollForFetches (1 samples, 2.86%)</title><rect x="10.0" y="291.0" width="33.7" height="15" fill="#55e655" rx="2" ry="2"/>
<text x="13.0" y="302.0">or..</text>
</g>
<g>
<title>org/apache/kafka/clients/consumer/internals/Fetcher.fetchedRecords (1 samples, 2.86%)</title><rect x="10.0" y="275.0" width="33.7" height="15" fill="#5aeb5a" rx="2" ry="2"/>
<text x="13.0" y="286.0">or..</text>
</g>
<g>
<title>org/apache/kafka/clients/consumer/internals/Fetcher.fetchRecords (1 samples, 2.86%)</title><rect x="10.0" y="259.0" width="33.7" height="15" fill="#67f867" rx="2" ry="2"/>
<text x="13.0" y="270.0">or..</text>
</g>
<g>
<title>org/apache/kafka/clients/consumer/KafkaConsumer.updateAssignmentMetadataIfNeeded (1 samples, 2.86%)</title><rect x="43.7" y="291.0" width="33.7" height="15" fill="#58e958" rx="2" ry="2"/>
<text x="46.7" y="302.0">or..</text>
</g>
<g>
<title>org/apache/kafka/clients/consumer/KafkaConsumer.updateFetchPositions (1 samples, 2.86%)</title><rect x="43.7" y="275.0" width="33.7" height="15" fill="#60f160" rx="2" ry="2"/>
<text x="46.7" y="286.0">or..</text>
</g>
<g>
<title>org/apache/kafka/clients/consumer/internals/Fetcher.validateOffsetsIfNeeded (1 samples, 2.86%)</title><rect x="43.7" y="259.0" width="33.7" height="15" fill="#5eef5e" rx="2" ry="2"/>
<text x="46.7" y="270.0">or..</text>
</g>
<g>
<title>org/apache/kafka/clients/consumer/internals/SubscriptionState.assignedPartitions (1 samples, 2.86%)</title><rect x="43.7" y="243.0" width="33.7" height="15" fill="#62f362" rx="2" ry="2"/>
<text x="46.7" y="254.0">or..</text>
</g>
<g>
<title>java/util/HashSet.&lt;init&gt; (1 samples, 2.86%)</title><rect x="43.7" y="227.0" width="33.7" height="15" fill="#5aeb5a" rx="2" ry="2"/>
<text x="46.7" y="238.0">ja..</text>
</g>
<g>
<title>java/util/AbstractCollection.addAll (1 samples, 2.86%)</title><rect x="43.7" y="211.0" width="33.7" height="15" fill="#5ff05f" rx="2" ry="2"/>
<text x="46.7" y="222.0">ja..</text>
</g>
<g>
<title>java/util/Collections$UnmodifiableCollection$1.hasNext (1 samples, 2.86%)</title><rect x="43.7" y="195.0" width="33.7" height="15" fill="#6cfd6c" rx="2" ry="2"/>
<text x="46.7" y="206.0">ja..</text>
</g>
<g>
<title>org/apache/kafka/clients/consumer/internals/ConsumerNetworkClient.transmitSends (1 samples, 2.86%)</title><rect x="77.4" y="291.0" width="33.7" height="15" fill="#6bfc6b" rx="2" ry="2"/>
<text x="80.4" y="302.0">or..</text>
</g>
<g>
<title>org/apache/kafka/clients/NetworkClient.poll (1 samples, 2.86%)</title><rect x="77.4" y="275.0" width="33.7" height="15" fill="#63f463" rx="2" ry="2"/>
<text x="80.4" y="286.0">or..</text>
</g>
<g>
<title>org/apache/kafka/clients/NetworkClient.handleInitiateApiVersionRequests (1 samples, 2.86%)</title><rect x="77.4" y="259.0" width="33.7" height="15" fill="#65f665" rx="2" ry="2"/>
<text x="80.4" y="270.0">or..</text>
</g>
<g>
<title>java/util/HashMap.entrySet (1 samples, 2.86%)</title><rect x="77.4" y="243.0" width="33.7" height="15" fill="#54e554" rx="2" ry="2"/>
<text x="80.4" y="254.0">ja..</text>
</g>
<g>
<title>org/apache/kafka/clients/consumer/internals/Fetcher.sendFetches (1 samples, 2.86%)</title><rect x="111.1" y="291.0" width="33.8" height="15" fill="#62f362" rx="2" ry="2"/>
<text x="114.1" y="302.0">or..</text>
</g>
<g>
<title>org/apache/kafka/clients/consumer/internals/Fetcher.prepareFetchRequests (1 samples, 2.86%)</title><rect x="111.1" y="275.0" width="33.8" height="15" fill="#50e150" rx="2" ry="2"/>
<text x="114.1" y="286.0">or..</text>
</g>
<g>
<title>org/apache/kafka/clients/consumer/internals/Fetcher.fetchablePartitions (1 samples, 2.86%)</title><rect x="111.1" y="259.0" width="33.8" height="15" fill="#57e857" rx="2" ry="2"/>
<text x="114.1" y="270.0">or..</text>
</g>
<g>
<title>org/apache/kafka/clients/consumer/internals/SubscriptionState.fetchablePartitions (1 samples, 2.86%)</title><rect x="111.1" y="243.0" width="33.8" height="15" fill="#54e554" rx="2" ry="2"/>
<text x="114.1" y="254.0">or..</text>
</g>
<g>
<title>java/util/stream/ReferencePipeline.collect (1 samples, 2.86%)</title><rect x="111.1" y="227.0" width="33.8" height="15" fill="#68f968" rx="2" ry="2"/>
<text x="114.1" y="238.0">ja..</text>
</g>
<g>
<title>java/util/stream/AbstractPipeline.evaluate (1 samples, 2.86%)</title><rect x="111.1" y="211.0" width="33.8" height="15" fill="#54e554" rx="2" ry="2"/>
<text x="114.1" y="222.0">ja..</text>
</g>
<g>
<title>java/util/stream/ReduceOps$ReduceOp.evaluateSequential (1 samples, 2.86%)</title><rect x="111.1" y="195.0" width="33.8" height="15" fill="#5ced5c" rx="2" ry="2"/>
<text x="114.1" y="206.0">ja..</text>
</g>
<g>
<title>java/util/stream/AbstractPipeline.wrapAndCopyInto (1 samples, 2.86%)</title><rect x="111.1" y="179.0" width="33.8" height="15" fill="#53e453" rx="2" ry="2"/>
<text x="114.1" y="190.0">ja..</text>
</g>
<g>
<title>java/util/stream/AbstractPipeline.copyInto (1 samples, 2.86%)</title><rect x="111.1" y="163.0" width="33.8" height="15" fill="#53e453" rx="2" ry="2"/>
<text x="114.1" y="174.0">ja..</text>
</g>
<g>
<title>java/util/Spliterators$IteratorSpliterator.forEachRemaining (1 samples, 2.86%)</title><rect x="111.1" y="147.0" width="33.8" height="15" fill="#6dfe6d" rx="2" ry="2"/>
<text x="114.1" y="158.0">ja..</text>
</g>
<g>
<title>java/util/Iterator.forEachRemaining (1 samples, 2.86%)</title><rect x="111.1" y="131.0" width="33.8" height="15" fill="#56e756" rx="2" ry="2"/>
<text x="114.1" y="142.0">ja..</text>
</g>
<g>
<title>java/util/stream/ReferencePipeline$3$1.accept (1 samples, 2.86%)</title><rect x="111.1" y="115.0" width="33.8" height="15" fill="#5ff05f" rx="2" ry="2"/>
<text x="114.1" y="126.0">ja..</text>
</g>
<g>
<title>java/util/stream/ReferencePipeline$2$1.accept (1 samples, 2.86%)</title><rect x="111.1" y="99.0" width="33.8" height="15" fill="#69fa69" rx="2" ry="2"/>
<text x="114.1" y="110.0">ja..</text>
</g>
<g>
<title>java/util/stream/ReferencePipeline$2$1.accept (1 samples, 2.86%)</title><rect x="111.1" y="83.0" width="33.8" height="15" fill="#62f362" rx="2" ry="2"/>
<text x="114.1" y="94.0">ja..</text>
</g>
<g>
<title>itable stub (1 samples, 2.86%)</title><rect x="111.1" y="67.0" width="33.8" height="15" fill="#e96565" rx="2" ry="2"/>
<text x="114.1" y="78.0">it..</text>
</g>
<g>
<title>start_thread (31 samples, 88.57%)</title><rect x="144.9" y="355.0" width="1045.1" height="15" fill="#f47373" rx="2" ry="2"/>
<text x="147.9" y="366.0">start_thread</text>
</g>
<g>
<title>java_start(Thread*) (31 samples, 88.57%)</title><rect x="144.9" y="339.0" width="1045.1" height="15" fill="#f06e6e" rx="2" ry="2"/>
<text x="147.9" y="350.0">java_start(Thread*)</text>
</g>
<g>
<title>JavaThread::thread_main_inner() (31 samples, 88.57%)</title><rect x="144.9" y="323.0" width="1045.1" height="15" fill="#d6d640" rx="2" ry="2"/>
<text x="147.9" y="334.0">JavaThread::thread_main_inner()</text>
</g>
<g>
<title>CompileBroker::compiler_thread_loop() (31 samples, 88.57%)</title><rect x="144.9" y="307.0" width="1045.1" height="15" fill="#e5e545" rx="2" ry="2"/>
<text x="147.9" y="318.0">CompileBroker::compiler_thread_loop()</text>
</g>
<g>
<title>CompileBroker::invoke_compiler_on_method(CompileTask*) (31 samples, 88.57%)</title><rect x="144.9" y="291.0" width="1045.1" height="15" fill="#d0d03e" rx="2" ry="2"/>
<text x="147.9" y="302.0">CompileBroker::invoke_compiler_on_method(CompileTask*)</text>
</g>
<g>
<title>C2Compiler::compile_method(ciEnv*, ciMethod*, int) (30 samples, 85.71%)</title><rect x="144.9" y="275.0" width="1011.4" height="15" fill="#dfdf43" rx="2" ry="2"/>
<text x="147.9" y="286.0">C2Compiler::compile_method(ciEnv*, ciMethod*, int)</text>
</g>
<g>
<title>Compile::Compile(ciEnv*, C2Compiler*, ciMethod*, int, bool, bool, bool) (30 samples, 85.71%)</title><rect x="144.9" y="259.0" width="1011.4" height="15" fill="#d7d741" rx="2" ry="2"/>
<text x="147.9" y="270.0">Compile::Compile(ciEnv*, C2Compiler*, ciMethod*, int, bool, bool, bool)</text>
</g>
<g>
<title>Compile::Code_Gen() (13 samples, 37.14%)</title><rect x="144.9" y="243.0" width="438.2" height="15" fill="#dfdf43" rx="2" ry="2"/>
<text x="147.9" y="254.0">Compile::Code_Gen()</text>
</g>
<g>
<title>Compile::valid_bundle_info(Node const*) (1 samples, 2.86%)</title><rect x="144.9" y="227.0" width="33.7" height="15" fill="#d4d440" rx="2" ry="2"/>
<text x="147.9" y="238.0">Co..</text>
</g>
<g>
<title>Matcher::match() (1 samples, 2.86%)</title><rect x="178.6" y="227.0" width="33.7" height="15" fill="#e2e244" rx="2" ry="2"/>
<text x="181.6" y="238.0">Ma..</text>
</g>
<g>
<title>Matcher::xform(Node*, int) (1 samples, 2.86%)</title><rect x="178.6" y="211.0" width="33.7" height="15" fill="#d0d03e" rx="2" ry="2"/>
<text x="181.6" y="222.0">Ma..</text>
</g>
<g>
<title>Matcher::match_tree(Node const*) (1 samples, 2.86%)</title><rect x="178.6" y="195.0" width="33.7" height="15" fill="#d2d23f" rx="2" ry="2"/>
<text x="181.6" y="206.0">Ma..</text>
</g>
<g>
<title>Matcher::Label_Root(Node const*, State*, Node*, Node const*) (1 samples, 2.86%)</title><rect x="178.6" y="179.0" width="33.7" height="15" fill="#e0e044" rx="2" ry="2"/>
<text x="181.6" y="190.0">Ma..</text>
</g>
<g>
<title>AddPNode::bottom_type() const (1 samples, 2.86%)</title><rect x="178.6" y="163.0" width="33.7" height="15" fill="#e3e345" rx="2" ry="2"/>
<text x="181.6" y="174.0">Ad..</text>
</g>
<g>
<title>PhaseCFG::do_global_code_motion() (2 samples, 5.71%)</title><rect x="212.3" y="227.0" width="67.4" height="15" fill="#caca3c" rx="2" ry="2"/>
<text x="215.3" y="238.0">PhaseCF..</text>
</g>
<g>
<title>PhaseCFG::global_code_motion() (2 samples, 5.71%)</title><rect x="212.3" y="211.0" width="67.4" height="15" fill="#e4e445" rx="2" ry="2"/>
<text x="215.3" y="222.0">PhaseCF..</text>
</g>
<g>
<title>PhaseCFG::schedule_late(VectorSet&amp;, Node_List&amp;) (1 samples, 2.86%)</title><rect x="246.0" y="195.0" width="33.7" height="15" fill="#d7d741" rx="2" ry="2"/>
<text x="249.0" y="206.0">Ph..</text>
</g>
<g>
<title>PhaseChaitin::Register_Allocate() (9 samples, 25.71%)</title><rect x="279.7" y="227.0" width="303.4" height="15" fill="#caca3c" rx="2" ry="2"/>
<text x="282.7" y="238.0">PhaseChaitin::Register_Allocate()</text>
</g>
<g>
<title>PhaseChaitin::Simplify() (1 samples, 2.86%)</title><rect x="279.7" y="211.0" width="33.7" height="15" fill="#cdcd3d" rx="2" ry="2"/>
<text x="282.7" y="222.0">Ph..</text>
</g>
<g>
<title>PhaseIFG::remove_node(unsigned int) (1 samples, 2.86%)</title><rect x="279.7" y="195.0" width="33.7" height="15" fill="#dbdb42" rx="2" ry="2"/>
<text x="282.7" y="206.0">Ph..</text>
</g>
<g>
<title>PhaseChaitin::Split(unsigned int, ResourceArea*) (1 samples, 2.86%)</title><rect x="313.4" y="211.0" width="33.7" height="15" fill="#e2e244" rx="2" ry="2"/>
<text x="316.4" y="222.0">Ph..</text>
</g>
<g>
<title>PhaseChaitin::split_Rematerialize(Node*, Block*, unsigned int, unsigned int&amp;, GrowableArray&lt;unsigned int&gt;, int, unsigned int*, Node**, bool) (1 samples, 2.86%)</title><rect x="313.4" y="195.0" width="33.7" height="15" fill="#d2d23f" rx="2" ry="2"/>
<text x="316.4" y="206.0">Ph..</text>
</g>
<g>
<title>PhaseChaitin::clone_projs(Block*, unsigned int, Node*, Node*, unsigned int&amp;) (1 samples, 2.86%)</title><rect x="313.4" y="179.0" width="33.7" height="15" fill="#c9c93c" rx="2" ry="2"/>
<text x="316.4" y="190.0">Ph..</text>
</g>
<g>
<title>PhaseChaitin::build_ifg_physical(ResourceArea*) (1 samples, 2.86%)</title><rect x="347.1" y="211.0" width="33.8" height="15" fill="#c8c83c" rx="2" ry="2"/>
<text x="350.1" y="222.0">Ph..</text>
</g>
<g>
<title>PhaseChaitin::interfere_with_live(unsigned int, IndexSet*) (1 samples, 2.86%)</title><rect x="347.1" y="195.0" width="33.8" height="15" fill="#d5d540" rx="2" ry="2"/>
<text x="350.1" y="206.0">Ph..</text>
</g>
<g>
<title>PhaseChaitin::gather_lrg_masks(bool) [clone .constprop.215] (1 samples, 2.86%)</title><rect x="380.9" y="211.0" width="33.7" height="15" fill="#c9c93c" rx="2" ry="2"/>
<text x="383.9" y="222.0">Ph..</text>
</g>
<g>
<title>PhaseChaitin::post_allocate_copy_removal() (1 samples, 2.86%)</title><rect x="414.6" y="211.0" width="33.7" height="15" fill="#cfcf3e" rx="2" ry="2"/>
<text x="417.6" y="222.0">Ph..</text>
</g>
<g>
<title>PhaseChaitin::stretch_base_pointer_live_ranges(ResourceArea*) (1 samples, 2.86%)</title><rect x="448.3" y="211.0" width="33.7" height="15" fill="#e5e545" rx="2" ry="2"/>
<text x="451.3" y="222.0">Ph..</text>
</g>
<g>
<title>IndexSet::IndexSet(IndexSet*) (1 samples, 2.86%)</title><rect x="448.3" y="195.0" width="33.7" height="15" fill="#e3e345" rx="2" ry="2"/>
<text x="451.3" y="206.0">In..</text>
</g>
<g>
<title>PhaseCoalesce::coalesce_driver() (1 samples, 2.86%)</title><rect x="482.0" y="211.0" width="33.7" height="15" fill="#e1e144" rx="2" ry="2"/>
<text x="485.0" y="222.0">Ph..</text>
</g>
<g>
<title>PhaseConservativeCoalesce::coalesce(Block*) (1 samples, 2.86%)</title><rect x="482.0" y="195.0" width="33.7" height="15" fill="#cfcf3e" rx="2" ry="2"/>
<text x="485.0" y="206.0">Ph..</text>
</g>
<g>
<title>PhaseCFG::is_uncommon(Block const*) (1 samples, 2.86%)</title><rect x="482.0" y="179.0" width="33.7" height="15" fill="#d8d841" rx="2" ry="2"/>
<text x="485.0" y="190.0">Ph..</text>
</g>
<g>
<title>PhaseLive::compute(unsigned int) (2 samples, 5.71%)</title><rect x="515.7" y="211.0" width="67.4" height="15" fill="#d3d33f" rx="2" ry="2"/>
<text x="518.7" y="222.0">PhaseLi..</text>
</g>
<g>
<title>Compile::Optimize() (14 samples, 40.00%)</title><rect x="583.1" y="243.0" width="472.0" height="15" fill="#dede43" rx="2" ry="2"/>
<text x="586.1" y="254.0">Compile::Optimize()</text>
</g>
<g>
<title>PhaseCCP::analyze() (1 samples, 2.86%)</title><rect x="583.1" y="227.0" width="33.8" height="15" fill="#d7d741" rx="2" ry="2"/>
<text x="586.1" y="238.0">Ph..</text>
</g>
<g>
<title>VectorSet::operator&gt;&gt;=(unsigned int) (1 samples, 2.86%)</title><rect x="583.1" y="211.0" width="33.8" height="15" fill="#dcdc42" rx="2" ry="2"/>
<text x="586.1" y="222.0">Ve..</text>
</g>
<g>
<title>PhaseIdealLoop::build_and_optimize(bool, bool) (10 samples, 28.57%)</title><rect x="616.9" y="227.0" width="337.1" height="15" fill="#d7d741" rx="2" ry="2"/>
<text x="619.9" y="238.0">PhaseIdealLoop::build_and_optimize(bool, bool)</text>
</g>
<g>
<title>IdealLoopTree::iteration_split(PhaseIdealLoop*, Node_List&amp;) (1 samples, 2.86%)</title><rect x="616.9" y="211.0" width="33.7" height="15" fill="#c9c93c" rx="2" ry="2"/>
<text x="619.9" y="222.0">Id..</text>
</g>
<g>
<title>IdealLoopTree::iteration_split(PhaseIdealLoop*, Node_List&amp;) (1 samples, 2.86%)</title><rect x="616.9" y="195.0" width="33.7" height="15" fill="#d5d540" rx="2" ry="2"/>
<text x="619.9" y="206.0">Id..</text>
</g>
<g>
<title>IdealLoopTree::iteration_split(PhaseIdealLoop*, Node_List&amp;) (1 samples, 2.86%)</title><rect x="616.9" y="179.0" width="33.7" height="15" fill="#e3e345" rx="2" ry="2"/>
<text x="619.9" y="190.0">Id..</text>
</g>
<g>
<title>IdealLoopTree::iteration_split(PhaseIdealLoop*, Node_List&amp;) (1 samples, 2.86%)</title><rect x="616.9" y="163.0" width="33.7" height="15" fill="#e3e345" rx="2" ry="2"/>
<text x="619.9" y="174.0">Id..</text>
</g>
<g>
<title>IdealLoopTree::iteration_split(PhaseIdealLoop*, Node_List&amp;) (1 samples, 2.86%)</title><rect x="616.9" y="147.0" width="33.7" height="15" fill="#dddd43" rx="2" ry="2"/>
<text x="619.9" y="158.0">Id..</text>
</g>
<g>
<title>IdealLoopTree::iteration_split(PhaseIdealLoop*, Node_List&amp;) (1 samples, 2.86%)</title><rect x="616.9" y="131.0" width="33.7" height="15" fill="#d0d03e" rx="2" ry="2"/>
<text x="619.9" y="142.0">Id..</text>
</g>
<g>
<title>IdealLoopTree::iteration_split(PhaseIdealLoop*, Node_List&amp;) (1 samples, 2.86%)</title><rect x="616.9" y="115.0" width="33.7" height="15" fill="#dede43" rx="2" ry="2"/>
<text x="619.9" y="126.0">Id..</text>
</g>
<g>
<title>IdealLoopTree::iteration_split(PhaseIdealLoop*, Node_List&amp;) (1 samples, 2.86%)</title><rect x="616.9" y="99.0" width="33.7" height="15" fill="#dbdb42" rx="2" ry="2"/>
<text x="619.9" y="110.0">Id..</text>
</g>
<g>
<title>IdealLoopTree::adjust_loop_exit_prob(PhaseIdealLoop*) (1 samples, 2.86%)</title><rect x="616.9" y="83.0" width="33.7" height="15" fill="#d2d23f" rx="2" ry="2"/>
<text x="619.9" y="94.0">Id..</text>
</g>
<g>
<title>PhaseIdealLoop::build_loop_early(VectorSet&amp;, Node_List&amp;, Node_Stack&amp;) (1 samples, 2.86%)</title><rect x="650.6" y="211.0" width="33.7" height="15" fill="#dcdc42" rx="2" ry="2"/>
<text x="653.6" y="222.0">Ph..</text>
</g>
<g>
<title>PhaseIdealLoop::build_loop_late(VectorSet&amp;, Node_List&amp;, Node_Stack&amp;) (6 samples, 17.14%)</title><rect x="684.3" y="211.0" width="202.3" height="15" fill="#cccc3d" rx="2" ry="2"/>
<text x="687.3" y="222.0">PhaseIdealLoop::build_loop..</text>
</g>
<g>
<title>PhaseIdealLoop::build_loop_late_post(Node*) (6 samples, 17.14%)</title><rect x="684.3" y="195.0" width="202.3" height="15" fill="#d5d540" rx="2" ry="2"/>
<text x="687.3" y="206.0">PhaseIdealLoop::build_loop..</text>
</g>
<g>
<title>PhaseIdealLoop::get_late_ctrl(Node*, Node*) (5 samples, 14.29%)</title><rect x="718.0" y="179.0" width="168.6" height="15" fill="#e2e244" rx="2" ry="2"/>
<text x="721.0" y="190.0">PhaseIdealLoop::get_la..</text>
</g>
<g>
<title>PhaseIdealLoop::is_dominator(Node*, Node*) (5 samples, 14.29%)</title><rect x="718.0" y="163.0" width="168.6" height="15" fill="#e0e044" rx="2" ry="2"/>
<text x="721.0" y="174.0">PhaseIdealLoop::is_dom..</text>
</g>
<g>
<title>PhaseIdealLoop::split_if_with_blocks(VectorSet&amp;, Node_Stack&amp;) (1 samples, 2.86%)</title><rect x="886.6" y="211.0" width="33.7" height="15" fill="#d1d13f" rx="2" ry="2"/>
<text x="889.6" y="222.0">Ph..</text>
</g>
<g>
<title>PhaseIdealLoop::split_if_with_blocks_post(Node*) (1 samples, 2.86%)</title><rect x="886.6" y="195.0" width="33.7" height="15" fill="#cece3e" rx="2" ry="2"/>
<text x="889.6" y="206.0">Ph..</text>
</g>
<g>
<title>PhaseIdealLoop::get_ctrl(Node*) (1 samples, 2.86%)</title><rect x="886.6" y="179.0" width="33.7" height="15" fill="#e2e244" rx="2" ry="2"/>
<text x="889.6" y="190.0">Ph..</text>
</g>
<g>
<title>PhaseIterGVN::optimize() (1 samples, 2.86%)</title><rect x="920.3" y="211.0" width="33.7" height="15" fill="#d2d23f" rx="2" ry="2"/>
<text x="923.3" y="222.0">Ph..</text>
</g>
<g>
<title>PhaseIterGVN::transform_old(Node*) (1 samples, 2.86%)</title><rect x="920.3" y="195.0" width="33.7" height="15" fill="#dcdc42" rx="2" ry="2"/>
<text x="923.3" y="206.0">Ph..</text>
</g>
<g>
<title>IfNode::Ideal(PhaseGVN*, bool) (1 samples, 2.86%)</title><rect x="920.3" y="179.0" width="33.7" height="15" fill="#e4e445" rx="2" ry="2"/>
<text x="923.3" y="190.0">If..</text>
</g>
<g>
<title>PhaseIterGVN::optimize() (2 samples, 5.71%)</title><rect x="954.0" y="227.0" width="67.4" height="15" fill="#d9d941" rx="2" ry="2"/>
<text x="957.0" y="238.0">PhaseIt..</text>
</g>
<g>
<title>PhaseIterGVN::transform_old(Node*) (2 samples, 5.71%)</title><rect x="954.0" y="211.0" width="67.4" height="15" fill="#dbdb42" rx="2" ry="2"/>
<text x="957.0" y="222.0">PhaseIt..</text>
</g>
<g>
<title>NodeHash::hash_find_insert(Node*) (1 samples, 2.86%)</title><rect x="954.0" y="195.0" width="33.7" height="15" fill="#e1e144" rx="2" ry="2"/>
<text x="957.0" y="206.0">No..</text>
</g>
<g>
<title>StoreNode::Ideal(PhaseGVN*, bool) (1 samples, 2.86%)</title><rect x="987.7" y="195.0" width="33.7" height="15" fill="#d5d540" rx="2" ry="2"/>
<text x="990.7" y="206.0">St..</text>
</g>
<g>
<title>InitializeNode::can_capture_store(StoreNode*, PhaseTransform*, bool) (1 samples, 2.86%)</title><rect x="987.7" y="179.0" width="33.7" height="15" fill="#e3e345" rx="2" ry="2"/>
<text x="990.7" y="190.0">In..</text>
</g>
<g>
<title>InitializeNode::detect_init_independence(Node*, int&amp;) (1 samples, 2.86%)</title><rect x="987.7" y="163.0" width="33.7" height="15" fill="#d3d33f" rx="2" ry="2"/>
<text x="990.7" y="174.0">In..</text>
</g>
<g>
<title>InitializeNode::detect_init_independence(Node*, int&amp;) (1 samples, 2.86%)</title><rect x="987.7" y="147.0" width="33.7" height="15" fill="#e0e044" rx="2" ry="2"/>
<text x="990.7" y="158.0">In..</text>
</g>
<g>
<title>InitializeNode::detect_init_independence(Node*, int&amp;) (1 samples, 2.86%)</title><rect x="987.7" y="131.0" width="33.7" height="15" fill="#dcdc42" rx="2" ry="2"/>
<text x="990.7" y="142.0">In..</text>
</g>
<g>
<title>InitializeNode::detect_init_independence(Node*, int&amp;) (1 samples, 2.86%)</title><rect x="987.7" y="115.0" width="33.7" height="15" fill="#e3e345" rx="2" ry="2"/>
<text x="990.7" y="126.0">In..</text>
</g>
<g>
<title>InitializeNode::detect_init_independence(Node*, int&amp;) (1 samples, 2.86%)</title><rect x="987.7" y="99.0" width="33.7" height="15" fill="#d6d640" rx="2" ry="2"/>
<text x="990.7" y="110.0">In..</text>
</g>
<g>
<title>InitializeNode::detect_init_independence(Node*, int&amp;) (1 samples, 2.86%)</title><rect x="987.7" y="83.0" width="33.7" height="15" fill="#cece3e" rx="2" ry="2"/>
<text x="990.7" y="94.0">In..</text>
</g>
<g>
<title>InitializeNode::detect_init_independence(Node*, int&amp;) (1 samples, 2.86%)</title><rect x="987.7" y="67.0" width="33.7" height="15" fill="#e4e445" rx="2" ry="2"/>
<text x="990.7" y="78.0">In..</text>
</g>
<g>
<title>MemNode::all_controls_dominate(Node*, Node*) (1 samples, 2.86%)</title><rect x="987.7" y="51.0" width="33.7" height="15" fill="#e3e345" rx="2" ry="2"/>
<text x="990.7" y="62.0">Me..</text>
</g>
<g>
<title>Node::dominates(Node*, Node_List&amp;) (1 samples, 2.86%)</title><rect x="987.7" y="35.0" width="33.7" height="15" fill="#cccc3d" rx="2" ry="2"/>
<text x="990.7" y="46.0">No..</text>
</g>
<g>
<title>VectorSet::operator&gt;&gt;=(unsigned int) (1 samples, 2.86%)</title><rect x="1021.4" y="227.0" width="33.7" height="15" fill="#e2e244" rx="2" ry="2"/>
<text x="1024.4" y="238.0">Ve..</text>
</g>
<g>
<title>ParseGenerator::generate(JVMState*) (2 samples, 5.71%)</title><rect x="1055.1" y="243.0" width="67.5" height="15" fill="#dbdb42" rx="2" ry="2"/>
<text x="1058.1" y="254.0">ParseGe..</text>
</g>
<g>
<title>Parse::Parse(JVMState*, ciMethod*, float) (2 samples, 5.71%)</title><rect x="1055.1" y="227.0" width="67.5" height="15" fill="#d4d440" rx="2" ry="2"/>
<text x="1058.1" y="238.0">Parse::..</text>
</g>
<g>
<title>Parse::do_all_blocks() (2 samples, 5.71%)</title><rect x="1055.1" y="211.0" width="67.5" height="15" fill="#dada42" rx="2" ry="2"/>
<text x="1058.1" y="222.0">Parse::..</text>
</g>
<g>
<title>Parse::do_one_block() (2 samples, 5.71%)</title><rect x="1055.1" y="195.0" width="67.5" height="15" fill="#d0d03e" rx="2" ry="2"/>
<text x="1058.1" y="206.0">Parse::..</text>
</g>
<g>
<title>Parse::do_one_bytecode() (2 samples, 5.71%)</title><rect x="1055.1" y="179.0" width="67.5" height="15" fill="#dfdf43" rx="2" ry="2"/>
<text x="1058.1" y="190.0">Parse::..</text>
</g>
<g>
<title>Parse::do_call() (1 samples, 2.86%)</title><rect x="1055.1" y="163.0" width="33.8" height="15" fill="#d1d13f" rx="2" ry="2"/>
<text x="1058.1" y="174.0">Pa..</text>
</g>
<g>
<title>PredictedCallGenerator::generate(JVMState*) (1 samples, 2.86%)</title><rect x="1055.1" y="147.0" width="33.8" height="15" fill="#d5d540" rx="2" ry="2"/>
<text x="1058.1" y="158.0">Pr..</text>
</g>
<g>
<title>GraphKit::type_check_receiver(Node*, ciKlass*, float, Node**) (1 samples, 2.86%)</title><rect x="1055.1" y="131.0" width="33.8" height="15" fill="#cece3e" rx="2" ry="2"/>
<text x="1058.1" y="142.0">Gr..</text>
</g>
<g>
<title>TypeKlassPtr::make(TypePtr::PTR, ciKlass*, int) (1 samples, 2.86%)</title><rect x="1055.1" y="115.0" width="33.8" height="15" fill="#cdcd3d" rx="2" ry="2"/>
<text x="1058.1" y="126.0">Ty..</text>
</g>
<g>
<title>Parse::do_checkcast() (1 samples, 2.86%)</title><rect x="1088.9" y="163.0" width="33.7" height="15" fill="#d0d03e" rx="2" ry="2"/>
<text x="1091.9" y="174.0">Pa..</text>
</g>
<g>
<title>GraphKit::gen_checkcast(Node*, Node*, Node**) (1 samples, 2.86%)</title><rect x="1088.9" y="147.0" width="33.7" height="15" fill="#d8d841" rx="2" ry="2"/>
<text x="1091.9" y="158.0">Gr..</text>
</g>
<g>
<title>GraphKit::null_check_oop(Node*, Node**, bool, bool) (1 samples, 2.86%)</title><rect x="1088.9" y="131.0" width="33.7" height="15" fill="#d4d440" rx="2" ry="2"/>
<text x="1091.9" y="142.0">Gr..</text>
</g>
<g>
<title>GraphKit::uncommon_trap(int, ciKlass*, char const*, bool, bool) (1 samples, 2.86%)</title><rect x="1088.9" y="115.0" width="33.7" height="15" fill="#cdcd3d" rx="2" ry="2"/>
<text x="1091.9" y="126.0">Gr..</text>
</g>
<g>
<title>GraphKit::make_runtime_call(int, TypeFunc const*, unsigned char*, char const*, TypePtr const*, Node*, Node*, Node*, Node*, Node*, Node*, Node*, Node*) (1 samples, 2.86%)</title><rect x="1088.9" y="99.0" width="33.7" height="15" fill="#e3e345" rx="2" ry="2"/>
<text x="1091.9" y="110.0">Gr..</text>
</g>
<g>
<title>GraphKit::set_predefined_output_for_runtime_call(Node*, Node*, TypePtr const*) (1 samples, 2.86%)</title><rect x="1088.9" y="83.0" width="33.7" height="15" fill="#cbcb3d" rx="2" ry="2"/>
<text x="1091.9" y="94.0">Gr..</text>
</g>
<g>
<title>PhaseGVN::transform_no_reclaim(Node*) (1 samples, 2.86%)</title><rect x="1088.9" y="67.0" width="33.7" height="15" fill="#cbcb3d" rx="2" ry="2"/>
<text x="1091.9" y="78.0">Ph..</text>
</g>
<g>
<title>NodeHash::hash_find_insert(Node*) (1 samples, 2.86%)</title><rect x="1088.9" y="51.0" width="33.7" height="15" fill="#d6d640" rx="2" ry="2"/>
<text x="1091.9" y="62.0">No..</text>
</g>
<g>
<title>PhaseRemoveUseless::PhaseRemoveUseless(PhaseGVN*, Unique_Node_List*, Phase::PhaseNumber) (1 samples, 2.86%)</title><rect x="1122.6" y="243.0" width="33.7" height="15" fill="#dede43" rx="2" ry="2"/>
<text x="1125.6" y="254.0">Ph..</text>
</g>
<g>
<title>Compile::remove_useless_nodes(Unique_Node_List&amp;) (1 samples, 2.86%)</title><rect x="1122.6" y="227.0" width="33.7" height="15" fill="#e5e545" rx="2" ry="2"/>
<text x="1125.6" y="238.0">Co..</text>
</g>
<g>
<title>Compiler::compile_method(ciEnv*, ciMethod*, int) (1 samples, 2.86%)</title><rect x="1156.3" y="275.0" width="33.7" height="15" fill="#e4e445" rx="2" ry="2"/>
<text x="1159.3" y="286.0">Co..</text>
</g>
<g>
<title>Compilation::Compilation(AbstractCompiler*, ciEnv*, ciMethod*, int, BufferBlob*) (1 samples, 2.86%)</title><rect x="1156.3" y="259.0" width="33.7" height="15" fill="#dcdc42" rx="2" ry="2"/>
<text x="1159.3" y="270.0">Co..</text>
</g>
<g>
<title>Compilation::compile_method() (1 samples, 2.86%)</title><rect x="1156.3" y="243.0" width="33.7" height="15" fill="#d3d33f" rx="2" ry="2"/>
<text x="1159.3" y="254.0">Co..</text>
</g>
<g>
<title>ciEnv::register_method(ciMethod*, int, CodeOffsets*, int, CodeBuffer*, int, OopMapSet*, ExceptionHandlerTable*, ImplicitExceptionTable*, AbstractCompiler*, int, bool, bool, RTMState) (1 samples, 2.86%)</title><rect x="1156.3" y="227.0" width="33.7" height="15" fill="#dede43" rx="2" ry="2"/>
<text x="1159.3" y="238.0">ci..</text>
</g>
<g>
<title>nmethod::new_nmethod(methodHandle, int, int, CodeOffsets*, int, DebugInformationRecorder*, Dependencies*, CodeBuffer*, int, OopMapSet*, ExceptionHandlerTable*, ImplicitExceptionTable*, AbstractCompiler*, int) (1 samples, 2.86%)</title><rect x="1156.3" y="211.0" width="33.7" height="15" fill="#d3d33f" rx="2" ry="2"/>
<text x="1159.3" y="222.0">nm..</text>
</g>
<g>
<title>InstanceKlass::add_dependent_nmethod(nmethod*) (1 samples, 2.86%)</title><rect x="1156.3" y="195.0" width="33.7" height="15" fill="#d0d03e" rx="2" ry="2"/>
<text x="1159.3" y="206.0">In..</text>
</g>
</g>
</svg>
