<?xml version="1.0" standalone="no"?>
<!DOCTYPE svg PUBLIC "-//W3C//DTD SVG 1.1//EN" "http://www.w3.org/Graphics/SVG/1.1/DTD/svg11.dtd">
<svg version="1.1" width="1200" height="902" onload="init(evt)" viewBox="0 0 1200 902" xmlns="http://www.w3.org/2000/svg" xmlns:xlink="http://www.w3.org/1999/xlink">
<style type="text/css">
	text { font-family:Verdana; font-size:12px; fill:rgb(0,0,0); }
	#search { opacity:0.1; cursor:pointer; }
	#search:hover, #search.show { opacity:1; }
	#subtitle { text-anchor:middle; font-color:rgb(160,160,160); }
	#title { text-anchor:middle; font-size:17px}
	#unzoom { cursor:pointer; }
	#frames > *:hover { stroke:black; stroke-width:0.5; cursor:pointer; }
	.hide { display:none; }
	.parent { opacity:0.5; }
</style>
<script type="text/ecmascript">
<![CDATA[
	"use strict";
	var details, searchbtn, unzoombtn, matchedtxt, svg, searching;
	function init(evt) {
		details = document.getElementById("details").firstChild;
		searchbtn = document.getElementById("search");
		unzoombtn = document.getElementById("unzoom");
		matchedtxt = document.getElementById("matched");
		svg = document.getElementsByTagName("svg")[0];
		searching = 0;
	}

	window.addEventListener("click", function(e) {
		var target = find_group(e.target);
		if (target) {
			if (target.nodeName == "a") {
				if (e.ctrlKey === false) return;
				e.preventDefault();
			}
			if (target.classList.contains("parent")) unzoom();
			zoom(target);
		}
		else if (e.target.id == "unzoom") unzoom();
		else if (e.target.id == "search") search_prompt();
	}, false)

	// mouse-over for info
	// show
	window.addEventListener("mouseover", function(e) {
		var target = find_group(e.target);
		if (target) details.nodeValue = "Function: " + g_to_text(target);
	}, false)

	// clear
	window.addEventListener("mouseout", function(e) {
		var target = find_group(e.target);
		if (target) details.nodeValue = ' ';
	}, false)

	// ctrl-F for search
	window.addEventListener("keydown",function (e) {
		if (e.keyCode === 114 || (e.ctrlKey && e.keyCode === 70)) {
			e.preventDefault();
			search_prompt();
		}
	}, false)

	// functions
	function find_child(node, selector) {
		var children = node.querySelectorAll(selector);
		if (children.length) return children[0];
		return;
	}
	function find_group(node) {
		var parent = node.parentElement;
		if (!parent) return;
		if (parent.id == "frames") return node;
		return find_group(parent);
	}
	function orig_save(e, attr, val) {
		if (e.attributes["_orig_" + attr] != undefined) return;
		if (e.attributes[attr] == undefined) return;
		if (val == undefined) val = e.attributes[attr].value;
		e.setAttribute("_orig_" + attr, val);
	}
	function orig_load(e, attr) {
		if (e.attributes["_orig_"+attr] == undefined) return;
		e.attributes[attr].value = e.attributes["_orig_" + attr].value;
		e.removeAttribute("_orig_"+attr);
	}
	function g_to_text(e) {
		var text = find_child(e, "title").firstChild.nodeValue;
		return (text)
	}
	function g_to_func(e) {
		var func = g_to_text(e);
		// if there's any manipulation we want to do to the function
		// name before it's searched, do it here before returning.
		return (func);
	}
	function update_text(e) {
		var r = find_child(e, "rect");
		var t = find_child(e, "text");
		var w = parseFloat(r.attributes.width.value) -3;
		var txt = find_child(e, "title").textContent.replace(/\([^(]*\)$/,"");
		t.attributes.x.value = parseFloat(r.attributes.x.value) + 3;

		// Smaller than this size won't fit anything
		if (w < 2 * 12 * 0.59) {
			t.textContent = "";
			return;
		}

		t.textContent = txt;
		// Fit in full text width
		if (/^ *$/.test(txt) || t.getSubStringLength(0, txt.length) < w)
			return;

		for (var x = txt.length - 2; x > 0; x--) {
			if (t.getSubStringLength(0, x + 2) <= w) {
				t.textContent = txt.substring(0, x) + "..";
				return;
			}
		}
		t.textContent = "";
	}

	// zoom
	function zoom_reset(e) {
		if (e.attributes != undefined) {
			orig_load(e, "x");
			orig_load(e, "width");
		}
		if (e.childNodes == undefined) return;
		for (var i = 0, c = e.childNodes; i < c.length; i++) {
			zoom_reset(c[i]);
		}
	}
	function zoom_child(e, x, ratio) {
		if (e.attributes != undefined) {
			if (e.attributes.x != undefined) {
				orig_save(e, "x");
				e.attributes.x.value = (parseFloat(e.attributes.x.value) - x - 10) * ratio + 10;
				if (e.tagName == "text")
					e.attributes.x.value = find_child(e.parentNode, "rect[x]").attributes.x.value + 3;
			}
			if (e.attributes.width != undefined) {
				orig_save(e, "width");
				e.attributes.width.value = parseFloat(e.attributes.width.value) * ratio;
			}
		}

		if (e.childNodes == undefined) return;
		for (var i = 0, c = e.childNodes; i < c.length; i++) {
			zoom_child(c[i], x - 10, ratio);
		}
	}
	function zoom_parent(e) {
		if (e.attributes) {
			if (e.attributes.x != undefined) {
				orig_save(e, "x");
				e.attributes.x.value = 10;
			}
			if (e.attributes.width != undefined) {
				orig_save(e, "width");
				e.attributes.width.value = parseInt(svg.width.baseVal.value) - (10 * 2);
			}
		}
		if (e.childNodes == undefined) return;
		for (var i = 0, c = e.childNodes; i < c.length; i++) {
			zoom_parent(c[i]);
		}
	}
	function zoom(node) {
		var attr = find_child(node, "rect").attributes;
		var width = parseFloat(attr.width.value);
		var xmin = parseFloat(attr.x.value);
		var xmax = parseFloat(xmin + width);
		var ymin = parseFloat(attr.y.value);
		var ratio = (svg.width.baseVal.value - 2 * 10) / width;

		// XXX: Workaround for JavaScript float issues (fix me)
		var fudge = 0.0001;

		unzoombtn.classList.remove("hide");

		var el = document.getElementById("frames").children;
		for (var i = 0; i < el.length; i++) {
			var e = el[i];
			var a = find_child(e, "rect").attributes;
			var ex = parseFloat(a.x.value);
			var ew = parseFloat(a.width.value);
			var upstack;
			// Is it an ancestor
			if (0 == 0) {
				upstack = parseFloat(a.y.value) > ymin;
			} else {
				upstack = parseFloat(a.y.value) < ymin;
			}
			if (upstack) {
				// Direct ancestor
				if (ex <= xmin && (ex+ew+fudge) >= xmax) {
					e.classList.add("parent");
					zoom_parent(e);
					update_text(e);
				}
				// not in current path
				else
					e.classList.add("hide");
			}
			// Children maybe
			else {
				// no common path
				if (ex < xmin || ex + fudge >= xmax) {
					e.classList.add("hide");
				}
				else {
					zoom_child(e, xmin, ratio);
					update_text(e);
				}
			}
		}
	}
	function unzoom() {
		unzoombtn.classList.add("hide");
		var el = document.getElementById("frames").children;
		for(var i = 0; i < el.length; i++) {
			el[i].classList.remove("parent");
			el[i].classList.remove("hide");
			zoom_reset(el[i]);
			update_text(el[i]);
		}
	}

	// search
	function reset_search() {
		var el = document.querySelectorAll("#frames rect");
		for (var i = 0; i < el.length; i++) {
			orig_load(el[i], "fill")
		}
	}
	function search_prompt() {
		if (!searching) {
			var term = prompt("Enter a search term (regexp " +
			    "allowed, eg: ^ext4_)", "");
			if (term != null) {
				search(term)
			}
		} else {
			reset_search();
			searching = 0;
			searchbtn.classList.remove("show");
			searchbtn.firstChild.nodeValue = "Search"
			matchedtxt.classList.add("hide");
			matchedtxt.firstChild.nodeValue = ""
		}
	}
	function search(term) {
		var re = new RegExp(term);
		var el = document.getElementById("frames").children;
		var matches = new Object();
		var maxwidth = 0;
		for (var i = 0; i < el.length; i++) {
			var e = el[i];
			var func = g_to_func(e);
			var rect = find_child(e, "rect");
			if (func == null || rect == null)
				continue;

			// Save max width. Only works as we have a root frame
			var w = parseFloat(rect.attributes.width.value);
			if (w > maxwidth)
				maxwidth = w;

			if (func.match(re)) {
				// highlight
				var x = parseFloat(rect.attributes.x.value);
				orig_save(rect, "fill");
				rect.attributes.fill.value = "rgb(230,0,230)";

				// remember matches
				if (matches[x] == undefined) {
					matches[x] = w;
				} else {
					if (w > matches[x]) {
						// overwrite with parent
						matches[x] = w;
					}
				}
				searching = 1;
			}
		}
		if (!searching)
			return;

		searchbtn.classList.add("show");
		searchbtn.firstChild.nodeValue = "Reset Search";

		// calculate percent matched, excluding vertical overlap
		var count = 0;
		var lastx = -1;
		var lastw = 0;
		var keys = Array();
		for (k in matches) {
			if (matches.hasOwnProperty(k))
				keys.push(k);
		}
		// sort the matched frames by their x location
		// ascending, then width descending
		keys.sort(function(a, b){
			return a - b;
		});
		// Step through frames saving only the biggest bottom-up frames
		// thanks to the sort order. This relies on the tree property
		// where children are always smaller than their parents.
		var fudge = 0.0001;	// JavaScript floating point
		for (var k in keys) {
			var x = parseFloat(keys[k]);
			var w = matches[keys[k]];
			if (x >= lastx + lastw - fudge) {
				count += w;
				lastx = x;
				lastw = w;
			}
		}
		// display matched percent
		matchedtxt.classList.remove("hide");
		var pct = 100 * count / maxwidth;
		if (pct != 100) pct = pct.toFixed(1)
		matchedtxt.firstChild.nodeValue = "Matched: " + pct + "%";
	}
]]>
</script>
<rect x="0" y="0" width="100%" height="100%" fill="rgb(240,240,220)"/>
<text id="title" x="600" y="24">Flame Graph</text>
<text id="details" x="10" y="885"> </text>
<text id="unzoom" x="10" y="24" class="hide">Reset Zoom</text>
<text id="search" x="1090" y="24">Search</text>
<text id="matched" x="1090" y="885"> </text>
<g id="frames">
<g>
<title>all (47 samples, 100.00%)</title><rect x="10.0" y="851.0" width="1180.0" height="15" fill="#fa7b7b" rx="2" ry="2"/>
<text x="13.0" y="862.0">all</text>
</g>
<g>
<title>com/linecorp/decaton/processor/runtime/ProcessorSubscription.run (3 samples, 6.38%)</title><rect x="10.0" y="835.0" width="75.3" height="15" fill="#5bec5b" rx="2" ry="2"/>
<text x="13.0" y="846.0">com/line..</text>
</g>
<g>
<title>com/linecorp/decaton/processor/runtime/ProcessorSubscription.pollOnce (3 samples, 6.38%)</title><rect x="10.0" y="819.0" width="75.3" height="15" fill="#67f867" rx="2" ry="2"/>
<text x="13.0" y="830.0">com/line..</text>
</g>
<g>
<title>org/apache/kafka/clients/consumer/KafkaConsumer.poll (3 samples, 6.38%)</title><rect x="10.0" y="803.0" width="75.3" height="15" fill="#67f867" rx="2" ry="2"/>
<text x="13.0" y="814.0">org/apac..</text>
</g>
<g>
<title>org/apache/kafka/clients/consumer/KafkaConsumer.poll (3 samples, 6.38%)</title><rect x="10.0" y="787.0" width="75.3" height="15" fill="#6bfc6b" rx="2" ry="2"/>
<text x="13.0" y="798.0">org/apac..</text>
</g>
<g>
<title>org/apache/kafka/clients/consumer/KafkaConsumer.pollForFetches (2 samples, 4.26%)</title><rect x="10.0" y="771.0" width="50.2" height="15" fill="#55e655" rx="2" ry="2"/>
<text x="13.0" y="782.0">org/a..</text>
</g>
<g>
<title>org/apache/kafka/clients/consumer/internals/Fetcher.fetchedRecords (1 samples, 2.13%)</title><rect x="10.0" y="755.0" width="25.1" height="15" fill="#5aeb5a" rx="2" ry="2"/>
<text x="13.0" y="766.0">o..</text>
</g>
<g>
<title>org/apache/kafka/clients/consumer/internals/Fetcher.fetchRecords (1 samples, 2.13%)</title><rect x="10.0" y="739.0" width="25.1" height="15" fill="#67f867" rx="2" ry="2"/>
<text x="13.0" y="750.0">o..</text>
</g>
<g>
<title>org/apache/kafka/clients/consumer/internals/Fetcher$CompletedFetch.access$1700 (1 samples, 2.13%)</title><rect x="10.0" y="723.0" width="25.1" height="15" fill="#58e958" rx="2" ry="2"/>
<text x="13.0" y="734.0">o..</text>
</g>
<g>
<title>org/apache/kafka/clients/consumer/internals/Fetcher$CompletedFetch.fetchRecords (1 samples, 2.13%)</title><rect x="10.0" y="707.0" width="25.1" height="15" fill="#60f160" rx="2" ry="2"/>
<text x="13.0" y="718.0">o..</text>
</g>
<g>
<title>org/apache/kafka/clients/consumer/internals/Fetcher$CompletedFetch.nextFetchedRecord (1 samples, 2.13%)</title><rect x="10.0" y="691.0" width="25.1" height="15" fill="#5eef5e" rx="2" ry="2"/>
<text x="13.0" y="702.0">o..</text>
</g>
<g>
<title>org/apache/kafka/common/record/DefaultRecordBatch$RecordIterator.next (1 samples, 2.13%)</title><rect x="10.0" y="675.0" width="25.1" height="15" fill="#62f362" rx="2" ry="2"/>
<text x="13.0" y="686.0">o..</text>
</g>
<g>
<title>org/apache/kafka/clients/consumer/internals/Fetcher.sendFetches (1 samples, 2.13%)</title><rect x="35.1" y="755.0" width="25.1" height="15" fill="#5aeb5a" rx="2" ry="2"/>
<text x="38.1" y="766.0">o..</text>
</g>
<g>
<title>org/apache/kafka/clients/consumer/internals/Fetcher.prepareFetchRequests (1 samples, 2.13%)</title><rect x="35.1" y="739.0" width="25.1" height="15" fill="#5ff05f" rx="2" ry="2"/>
<text x="38.1" y="750.0">o..</text>
</g>
<g>
<title>org/apache/kafka/clients/FetchSessionHandler$Builder.build (1 samples, 2.13%)</title><rect x="35.1" y="723.0" width="25.1" height="15" fill="#6cfd6c" rx="2" ry="2"/>
<text x="38.1" y="734.0">o..</text>
</g>
<g>
<title>org/apache/kafka/common/requests/FetchRequest$PartitionData.equals (1 samples, 2.13%)</title><rect x="35.1" y="707.0" width="25.1" height="15" fill="#6bfc6b" rx="2" ry="2"/>
<text x="38.1" y="718.0">o..</text>
</g>
<g>
<title>java/util/Objects.equals (1 samples, 2.13%)</title><rect x="35.1" y="691.0" width="25.1" height="15" fill="#63f463" rx="2" ry="2"/>
<text x="38.1" y="702.0">j..</text>
</g>
<g>
<title>org/apache/kafka/clients/consumer/KafkaConsumer.updateAssignmentMetadataIfNeeded (1 samples, 2.13%)</title><rect x="60.2" y="771.0" width="25.1" height="15" fill="#65f665" rx="2" ry="2"/>
<text x="63.2" y="782.0">o..</text>
</g>
<g>
<title>org/apache/kafka/clients/consumer/KafkaConsumer.updateFetchPositions (1 samples, 2.13%)</title><rect x="60.2" y="755.0" width="25.1" height="15" fill="#54e554" rx="2" ry="2"/>
<text x="63.2" y="766.0">o..</text>
</g>
<g>
<title>org/apache/kafka/clients/consumer/internals/Fetcher.validateOffsetsIfNeeded (1 samples, 2.13%)</title><rect x="60.2" y="739.0" width="25.1" height="15" fill="#62f362" rx="2" ry="2"/>
<text x="63.2" y="750.0">o..</text>
</g>
<g>
<title>org/apache/kafka/clients/consumer/internals/SubscriptionState.assignedPartitions (1 samples, 2.13%)</title><rect x="60.2" y="723.0" width="25.1" height="15" fill="#50e150" rx="2" ry="2"/>
<text x="63.2" y="734.0">o..</text>
</g>
<g>
<title>java/util/HashSet.&lt;init&gt; (1 samples, 2.13%)</title><rect x="60.2" y="707.0" width="25.1" height="15" fill="#57e857" rx="2" ry="2"/>
<text x="63.2" y="718.0">j..</text>
</g>
<g>
<title>java/util/AbstractCollection.addAll (1 samples, 2.13%)</title><rect x="60.2" y="691.0" width="25.1" height="15" fill="#54e554" rx="2" ry="2"/>
<text x="63.2" y="702.0">j..</text>
</g>
<g>
<title>java/util/Collections$UnmodifiableCollection.iterator (1 samples, 2.13%)</title><rect x="60.2" y="675.0" width="25.1" height="15" fill="#68f968" rx="2" ry="2"/>
<text x="63.2" y="686.0">j..</text>
</g>
<g>
<title>java/util/Collections$UnmodifiableCollection$1.&lt;init&gt; (1 samples, 2.13%)</title><rect x="60.2" y="659.0" width="25.1" height="15" fill="#54e554" rx="2" ry="2"/>
<text x="63.2" y="670.0">j..</text>
</g>
<g>
<title>start_thread (44 samples, 93.62%)</title><rect x="85.3" y="835.0" width="1104.7" height="15" fill="#ed6a6a" rx="2" ry="2"/>
<text x="88.3" y="846.0">start_thread</text>
</g>
<g>
<title>java_start(Thread*) (44 samples, 93.62%)</title><rect x="85.3" y="819.0" width="1104.7" height="15" fill="#e45f5f" rx="2" ry="2"/>
<text x="88.3" y="830.0">java_start(Thread*)</text>
</g>
<g>
<title>GangWorker::loop() (5 samples, 10.64%)</title><rect x="85.3" y="803.0" width="125.6" height="15" fill="#cbcb3d" rx="2" ry="2"/>
<text x="88.3" y="814.0">GangWorker::loo..</text>
</g>
<g>
<title>G1ParTask::work(unsigned int) [clone .part.431] (5 samples, 10.64%)</title><rect x="85.3" y="787.0" width="125.6" height="15" fill="#e5e545" rx="2" ry="2"/>
<text x="88.3" y="798.0">G1ParTask::work..</text>
</g>
<g>
<title>G1ParEvacuateFollowersClosure::do_void() (5 samples, 10.64%)</title><rect x="85.3" y="771.0" width="125.6" height="15" fill="#cece3e" rx="2" ry="2"/>
<text x="88.3" y="782.0">G1ParEvacuateFo..</text>
</g>
<g>
<title>G1ParScanThreadState::trim_queue() (1 samples, 2.13%)</title><rect x="85.3" y="755.0" width="25.1" height="15" fill="#d7d741" rx="2" ry="2"/>
<text x="88.3" y="766.0">G..</text>
</g>
<g>
<title>G1ParScanThreadState::copy_to_survivor_space(InCSetState, oopDesc*, markOopDesc*) (1 samples, 2.13%)</title><rect x="85.3" y="739.0" width="25.1" height="15" fill="#e1e144" rx="2" ry="2"/>
<text x="88.3" y="750.0">G..</text>
</g>
<g>
<title>InstanceKlass::oop_oop_iterate_backwards_nv(oopDesc*, G1ParScanClosure*) (1 samples, 2.13%)</title><rect x="85.3" y="723.0" width="25.1" height="15" fill="#dada42" rx="2" ry="2"/>
<text x="88.3" y="734.0">I..</text>
</g>
<g>
<title>void G1ParScanClosure::do_oop_nv&lt;unsigned int&gt;(unsigned int*) (1 samples, 2.13%)</title><rect x="85.3" y="707.0" width="25.1" height="15" fill="#d0d03e" rx="2" ry="2"/>
<text x="88.3" y="718.0">v..</text>
</g>
<g>
<title>GenericTaskQueueSet&lt;OverflowTaskQueue&lt;StarTask, (MemoryType)5, 131072u&gt;, (MemoryType)5&gt;::steal_best_of_2(unsigned int, int*, StarTask&amp;) (4 samples, 8.51%)</title><rect x="110.4" y="755.0" width="100.5" height="15" fill="#dbdb42" rx="2" ry="2"/>
<text x="113.4" y="766.0">GenericTaskQ..</text>
</g>
<g>
<title>JavaThread::thread_main_inner() (39 samples, 82.98%)</title><rect x="210.9" y="803.0" width="979.1" height="15" fill="#d7d741" rx="2" ry="2"/>
<text x="213.9" y="814.0">JavaThread::thread_main_inner()</text>
</g>
<g>
<title>CompileBroker::compiler_thread_loop() (39 samples, 82.98%)</title><rect x="210.9" y="787.0" width="979.1" height="15" fill="#d6d640" rx="2" ry="2"/>
<text x="213.9" y="798.0">CompileBroker::compiler_thread_loop()</text>
</g>
<g>
<title>CompileBroker::invoke_compiler_on_method(CompileTask*) (39 samples, 82.98%)</title><rect x="210.9" y="771.0" width="979.1" height="15" fill="#e5e545" rx="2" ry="2"/>
<text x="213.9" y="782.0">CompileBroker::invoke_compiler_on_method(CompileTask*)</text>
</g>
<g>
<title>C2Compiler::compile_method(ciEnv*, ciMethod*, int) (37 samples, 78.72%)</title><rect x="210.9" y="755.0" width="928.9" height="15" fill="#d0d03e" rx="2" ry="2"/>
<text x="213.9" y="766.0">C2Compiler::compile_method(ciEnv*, ciMethod*, int)</text>
</g>
<g>
<title>Compile::Compile(ciEnv*, C2Compiler*, ciMethod*, int, bool, bool, bool) (36 samples, 76.60%)</title><rect x="210.9" y="739.0" width="903.8" height="15" fill="#dfdf43" rx="2" ry="2"/>
<text x="213.9" y="750.0">Compile::Compile(ciEnv*, C2Compiler*, ciMethod*, int, bool, bool, bool)</text>
</g>
<g>
<title>Compile::Code_Gen() (19 samples, 40.43%)</title><rect x="210.9" y="723.0" width="477.0" height="15" fill="#d7d741" rx="2" ry="2"/>
<text x="213.9" y="734.0">Compile::Code_Gen()</text>
</g>
<g>
<title>Compile::fill_buffer(CodeBuffer*, unsigned int*) (1 samples, 2.13%)</title><rect x="210.9" y="707.0" width="25.1" height="15" fill="#dfdf43" rx="2" ry="2"/>
<text x="213.9" y="718.0">C..</text>
</g>
<g>
<title>MachSpillCopyNode::implementation(CodeBuffer*, PhaseRegAlloc*, bool, outputStream*) const (1 samples, 2.13%)</title><rect x="210.9" y="691.0" width="25.1" height="15" fill="#d4d440" rx="2" ry="2"/>
<text x="213.9" y="702.0">M..</text>
</g>
<g>
<title>AbstractAssembler::AbstractAssembler(CodeBuffer*) (1 samples, 2.13%)</title><rect x="210.9" y="675.0" width="25.1" height="15" fill="#e2e244" rx="2" ry="2"/>
<text x="213.9" y="686.0">A..</text>
</g>
<g>
<title>Matcher::match() (2 samples, 4.26%)</title><rect x="236.0" y="707.0" width="50.2" height="15" fill="#d0d03e" rx="2" ry="2"/>
<text x="239.0" y="718.0">Match..</text>
</g>
<g>
<title>Matcher::find_shared(Node*) (1 samples, 2.13%)</title><rect x="236.0" y="691.0" width="25.1" height="15" fill="#d2d23f" rx="2" ry="2"/>
<text x="239.0" y="702.0">M..</text>
</g>
<g>
<title>Matcher::xform(Node*, int) (1 samples, 2.13%)</title><rect x="261.1" y="691.0" width="25.1" height="15" fill="#e0e044" rx="2" ry="2"/>
<text x="264.1" y="702.0">M..</text>
</g>
<g>
<title>Arena::contains(void const*) const (1 samples, 2.13%)</title><rect x="261.1" y="675.0" width="25.1" height="15" fill="#e3e345" rx="2" ry="2"/>
<text x="264.1" y="686.0">A..</text>
</g>
<g>
<title>PhaseCFG::do_global_code_motion() (2 samples, 4.26%)</title><rect x="286.2" y="707.0" width="50.2" height="15" fill="#caca3c" rx="2" ry="2"/>
<text x="289.2" y="718.0">Phase..</text>
</g>
<g>
<title>PhaseCFG::global_code_motion() (2 samples, 4.26%)</title><rect x="286.2" y="691.0" width="50.2" height="15" fill="#e4e445" rx="2" ry="2"/>
<text x="289.2" y="702.0">Phase..</text>
</g>
<g>
<title>PhaseCFG::schedule_late(VectorSet&amp;, Node_List&amp;) (1 samples, 2.13%)</title><rect x="286.2" y="675.0" width="25.1" height="15" fill="#d7d741" rx="2" ry="2"/>
<text x="289.2" y="686.0">P..</text>
</g>
<g>
<title>PhaseCFG::schedule_local(Block*, GrowableArray&lt;int&gt;&amp;, VectorSet&amp;) (1 samples, 2.13%)</title><rect x="311.3" y="675.0" width="25.1" height="15" fill="#caca3c" rx="2" ry="2"/>
<text x="314.3" y="686.0">P..</text>
</g>
<g>
<title>PhaseChaitin::Register_Allocate() (14 samples, 29.79%)</title><rect x="336.4" y="707.0" width="351.5" height="15" fill="#cdcd3d" rx="2" ry="2"/>
<text x="339.4" y="718.0">PhaseChaitin::Register_Allocate()</text>
</g>
<g>
<title>PhaseChaitin::Select() (1 samples, 2.13%)</title><rect x="336.4" y="691.0" width="25.1" height="15" fill="#dbdb42" rx="2" ry="2"/>
<text x="339.4" y="702.0">P..</text>
</g>
<g>
<title>PhaseChaitin::Simplify() (1 samples, 2.13%)</title><rect x="361.5" y="691.0" width="25.1" height="15" fill="#e2e244" rx="2" ry="2"/>
<text x="364.5" y="702.0">P..</text>
</g>
<g>
<title>IndexSetIterator::advance_and_next() (1 samples, 2.13%)</title><rect x="361.5" y="675.0" width="25.1" height="15" fill="#d2d23f" rx="2" ry="2"/>
<text x="364.5" y="686.0">I..</text>
</g>
<g>
<title>PhaseChaitin::Split(unsigned int, ResourceArea*) (1 samples, 2.13%)</title><rect x="386.6" y="691.0" width="25.1" height="15" fill="#c9c93c" rx="2" ry="2"/>
<text x="389.6" y="702.0">P..</text>
</g>
<g>
<title>PhaseChaitin::build_ifg_physical(ResourceArea*) (5 samples, 10.64%)</title><rect x="411.7" y="691.0" width="125.5" height="15" fill="#c8c83c" rx="2" ry="2"/>
<text x="414.7" y="702.0">PhaseChaitin::b..</text>
</g>
<g>
<title>IndexSet::IndexSet(IndexSet*) (1 samples, 2.13%)</title><rect x="411.7" y="675.0" width="25.1" height="15" fill="#d5d540" rx="2" ry="2"/>
<text x="414.7" y="686.0">I..</text>
</g>
<g>
<title>IndexSetIterator::advance_and_next() (1 samples, 2.13%)</title><rect x="436.8" y="675.0" width="25.1" height="15" fill="#c9c93c" rx="2" ry="2"/>
<text x="439.8" y="686.0">I..</text>
</g>
<g>
<title>PhaseChaitin::interfere_with_live(unsigned int, IndexSet*) (3 samples, 6.38%)</title><rect x="461.9" y="675.0" width="75.3" height="15" fill="#cfcf3e" rx="2" ry="2"/>
<text x="464.9" y="686.0">PhaseCha..</text>
</g>
<g>
<title>IndexSetIterator::advance_and_next() (1 samples, 2.13%)</title><rect x="512.1" y="659.0" width="25.1" height="15" fill="#e5e545" rx="2" ry="2"/>
<text x="515.1" y="670.0">I..</text>
</g>
<g>
<title>PhaseChaitin::post_allocate_copy_removal() (2 samples, 4.26%)</title><rect x="537.2" y="691.0" width="50.2" height="15" fill="#e3e345" rx="2" ry="2"/>
<text x="540.2" y="702.0">Phase..</text>
</g>
<g>
<title>PhaseChaitin::elide_copy(Node*, int, Block*, Node_List&amp;, Node_List&amp;, bool) (1 samples, 2.13%)</title><rect x="562.3" y="675.0" width="25.1" height="15" fill="#e1e144" rx="2" ry="2"/>
<text x="565.3" y="686.0">P..</text>
</g>
<g>
<title>PhaseCoalesce::coalesce_driver() (1 samples, 2.13%)</title><rect x="587.4" y="691.0" width="25.2" height="15" fill="#cfcf3e" rx="2" ry="2"/>
<text x="590.4" y="702.0">P..</text>
</g>
<g>
<title>PhaseConservativeCoalesce::coalesce(Block*) (1 samples, 2.13%)</title><rect x="587.4" y="675.0" width="25.2" height="15" fill="#d8d841" rx="2" ry="2"/>
<text x="590.4" y="686.0">P..</text>
</g>
<g>
<title>PhaseConservativeCoalesce::copy_copy(Node*, Node*, Block*, unsigned int) (1 samples, 2.13%)</title><rect x="587.4" y="659.0" width="25.2" height="15" fill="#d3d33f" rx="2" ry="2"/>
<text x="590.4" y="670.0">P..</text>
</g>
<g>
<title>PhaseConservativeCoalesce::update_ifg(unsigned int, unsigned int, IndexSet*, IndexSet*) (1 samples, 2.13%)</title><rect x="587.4" y="643.0" width="25.2" height="15" fill="#dede43" rx="2" ry="2"/>
<text x="590.4" y="654.0">P..</text>
</g>
<g>
<title>PhaseIFG::Compute_Effective_Degree() (1 samples, 2.13%)</title><rect x="612.6" y="691.0" width="25.1" height="15" fill="#d7d741" rx="2" ry="2"/>
<text x="615.6" y="702.0">P..</text>
</g>
<g>
<title>PhaseLive::compute(unsigned int) (2 samples, 4.26%)</title><rect x="637.7" y="691.0" width="50.2" height="15" fill="#dcdc42" rx="2" ry="2"/>
<text x="640.7" y="702.0">Phase..</text>
</g>
<g>
<title>PhaseLive::add_liveout(Block*, IndexSet*, VectorSet&amp;) (1 samples, 2.13%)</title><rect x="637.7" y="675.0" width="25.1" height="15" fill="#d7d741" rx="2" ry="2"/>
<text x="640.7" y="686.0">P..</text>
</g>
<g>
<title>pthread_getspecific (1 samples, 2.13%)</title><rect x="662.8" y="675.0" width="25.1" height="15" fill="#e25b5b" rx="2" ry="2"/>
<text x="665.8" y="686.0">p..</text>
</g>
<g>
<title>Compile::Optimize() (13 samples, 27.66%)</title><rect x="687.9" y="723.0" width="326.4" height="15" fill="#d5d540" rx="2" ry="2"/>
<text x="690.9" y="734.0">Compile::Optimize()</text>
</g>
<g>
<title>Compile::final_graph_reshaping() (1 samples, 2.13%)</title><rect x="687.9" y="707.0" width="25.1" height="15" fill="#e3e345" rx="2" ry="2"/>
<text x="690.9" y="718.0">C..</text>
</g>
<g>
<title>Compile::final_graph_reshaping_walk(Node_Stack&amp;, Node*, Final_Reshape_Counts&amp;) (1 samples, 2.13%)</title><rect x="687.9" y="691.0" width="25.1" height="15" fill="#e3e345" rx="2" ry="2"/>
<text x="690.9" y="702.0">C..</text>
</g>
<g>
<title>JVMState::interpreter_frame_size() const (1 samples, 2.13%)</title><rect x="687.9" y="675.0" width="25.1" height="15" fill="#dddd43" rx="2" ry="2"/>
<text x="690.9" y="686.0">J..</text>
</g>
<g>
<title>Compile::remove_speculative_types(PhaseIterGVN&amp;) (1 samples, 2.13%)</title><rect x="713.0" y="707.0" width="25.1" height="15" fill="#d0d03e" rx="2" ry="2"/>
<text x="716.0" y="718.0">C..</text>
</g>
<g>
<title>PhaseIdealLoop::build_and_optimize(bool, bool) (9 samples, 19.15%)</title><rect x="738.1" y="707.0" width="225.9" height="15" fill="#dede43" rx="2" ry="2"/>
<text x="741.1" y="718.0">PhaseIdealLoop::build_and_opti..</text>
</g>
<g>
<title>PhaseIdealLoop::build_loop_early(VectorSet&amp;, Node_List&amp;, Node_Stack&amp;) (3 samples, 6.38%)</title><rect x="738.1" y="691.0" width="75.3" height="15" fill="#dbdb42" rx="2" ry="2"/>
<text x="741.1" y="702.0">PhaseIde..</text>
</g>
<g>
<title>Node::pinned() const (1 samples, 2.13%)</title><rect x="788.3" y="675.0" width="25.1" height="15" fill="#d2d23f" rx="2" ry="2"/>
<text x="791.3" y="686.0">N..</text>
</g>
<g>
<title>PhaseIdealLoop::build_loop_late(VectorSet&amp;, Node_List&amp;, Node_Stack&amp;) (3 samples, 6.38%)</title><rect x="813.4" y="691.0" width="75.3" height="15" fill="#dcdc42" rx="2" ry="2"/>
<text x="816.4" y="702.0">PhaseIde..</text>
</g>
<g>
<title>PhaseIdealLoop::build_loop_late_post(Node*) (2 samples, 4.26%)</title><rect x="838.5" y="675.0" width="50.2" height="15" fill="#cccc3d" rx="2" ry="2"/>
<text x="841.5" y="686.0">Phase..</text>
</g>
<g>
<title>PhaseIdealLoop::get_late_ctrl(Node*, Node*) (2 samples, 4.26%)</title><rect x="838.5" y="659.0" width="50.2" height="15" fill="#d5d540" rx="2" ry="2"/>
<text x="841.5" y="670.0">Phase..</text>
</g>
<g>
<title>PhaseIdealLoop::compute_lca_of_uses(Node*, Node*, bool) (2 samples, 4.26%)</title><rect x="838.5" y="643.0" width="50.2" height="15" fill="#e2e244" rx="2" ry="2"/>
<text x="841.5" y="654.0">Phase..</text>
</g>
<g>
<title>PhaseIdealLoop::dom_lca_for_get_late_ctrl_internal(Node*, Node*, Node*) (2 samples, 4.26%)</title><rect x="838.5" y="627.0" width="50.2" height="15" fill="#e0e044" rx="2" ry="2"/>
<text x="841.5" y="638.0">Phase..</text>
</g>
<g>
<title>PhaseIdealLoop::idom_no_update(Node*) const [clone .isra.192] (1 samples, 2.13%)</title><rect x="863.6" y="611.0" width="25.1" height="15" fill="#d1d13f" rx="2" ry="2"/>
<text x="866.6" y="622.0">P..</text>
</g>
<g>
<title>PhaseIdealLoop::build_loop_tree() (1 samples, 2.13%)</title><rect x="888.7" y="691.0" width="25.1" height="15" fill="#cece3e" rx="2" ry="2"/>
<text x="891.7" y="702.0">P..</text>
</g>
<g>
<title>PhaseIdealLoop::split_if_with_blocks(VectorSet&amp;, Node_Stack&amp;) (1 samples, 2.13%)</title><rect x="913.8" y="691.0" width="25.1" height="15" fill="#e2e244" rx="2" ry="2"/>
<text x="916.8" y="702.0">P..</text>
</g>
<g>
<title>PhaseIdealLoop::split_if_with_blocks_post(Node*) (1 samples, 2.13%)</title><rect x="913.8" y="675.0" width="25.1" height="15" fill="#d2d23f" rx="2" ry="2"/>
<text x="916.8" y="686.0">P..</text>
</g>
<g>
<title>ProjNode::pinned() const (1 samples, 2.13%)</title><rect x="938.9" y="691.0" width="25.1" height="15" fill="#dcdc42" rx="2" ry="2"/>
<text x="941.9" y="702.0">P..</text>
</g>
<g>
<title>PhaseIterGVN::optimize() (2 samples, 4.26%)</title><rect x="964.0" y="707.0" width="50.3" height="15" fill="#e4e445" rx="2" ry="2"/>
<text x="967.0" y="718.0">Phase..</text>
</g>
<g>
<title>PhaseIterGVN::transform_old(Node*) (2 samples, 4.26%)</title><rect x="964.0" y="691.0" width="50.3" height="15" fill="#d9d941" rx="2" ry="2"/>
<text x="967.0" y="702.0">Phase..</text>
</g>
<g>
<title>LoadNode::Identity(PhaseTransform*) (1 samples, 2.13%)</title><rect x="964.0" y="675.0" width="25.1" height="15" fill="#dbdb42" rx="2" ry="2"/>
<text x="967.0" y="686.0">L..</text>
</g>
<g>
<title>LoadNode::is_instance_field_load_with_local_phi(Node*) (1 samples, 2.13%)</title><rect x="964.0" y="659.0" width="25.1" height="15" fill="#e1e144" rx="2" ry="2"/>
<text x="967.0" y="670.0">L..</text>
</g>
<g>
<title>TypeInstPtr::add_offset(long) const (1 samples, 2.13%)</title><rect x="964.0" y="643.0" width="25.1" height="15" fill="#d5d540" rx="2" ry="2"/>
<text x="967.0" y="654.0">T..</text>
</g>
<g>
<title>TypeInstPtr::make(TypePtr::PTR, ciKlass*, bool, ciObject*, int, int, TypeOopPtr const*, int) (1 samples, 2.13%)</title><rect x="964.0" y="627.0" width="25.1" height="15" fill="#e3e345" rx="2" ry="2"/>
<text x="967.0" y="638.0">T..</text>
</g>
<g>
<title>pthread_getspecific (1 samples, 2.13%)</title><rect x="964.0" y="611.0" width="25.1" height="15" fill="#ec6969" rx="2" ry="2"/>
<text x="967.0" y="622.0">p..</text>
</g>
<g>
<title>PhaseIterGVN::subsume_node(Node*, Node*) (1 samples, 2.13%)</title><rect x="989.1" y="675.0" width="25.2" height="15" fill="#e0e044" rx="2" ry="2"/>
<text x="992.1" y="686.0">P..</text>
</g>
<g>
<title>PhaseIterGVN::remove_globally_dead_node(Node*) (1 samples, 2.13%)</title><rect x="989.1" y="659.0" width="25.2" height="15" fill="#dcdc42" rx="2" ry="2"/>
<text x="992.1" y="670.0">P..</text>
</g>
<g>
<title>ParseGenerator::generate(JVMState*) (3 samples, 6.38%)</title><rect x="1014.3" y="723.0" width="75.3" height="15" fill="#e3e345" rx="2" ry="2"/>
<text x="1017.3" y="734.0">ParseGen..</text>
</g>
<g>
<title>Parse::Parse(JVMState*, ciMethod*, float) (3 samples, 6.38%)</title><rect x="1014.3" y="707.0" width="75.3" height="15" fill="#d6d640" rx="2" ry="2"/>
<text x="1017.3" y="718.0">Parse::P..</text>
</g>
<g>
<title>Parse::do_all_blocks() (3 samples, 6.38%)</title><rect x="1014.3" y="691.0" width="75.3" height="15" fill="#cece3e" rx="2" ry="2"/>
<text x="1017.3" y="702.0">Parse::d..</text>
</g>
<g>
<title>Parse::do_one_block() (3 samples, 6.38%)</title><rect x="1014.3" y="675.0" width="75.3" height="15" fill="#e4e445" rx="2" ry="2"/>
<text x="1017.3" y="686.0">Parse::d..</text>
</g>
<g>
<title>Parse::do_exceptions() (1 samples, 2.13%)</title><rect x="1014.3" y="659.0" width="25.1" height="15" fill="#e3e345" rx="2" ry="2"/>
<text x="1017.3" y="670.0">P..</text>
</g>
<g>
<title>Parse::catch_inline_exceptions(SafePointNode*) (1 samples, 2.13%)</title><rect x="1014.3" y="643.0" width="25.1" height="15" fill="#cccc3d" rx="2" ry="2"/>
<text x="1017.3" y="654.0">P..</text>
</g>
<g>
<title>Parse::merge_exception(int) (1 samples, 2.13%)</title><rect x="1014.3" y="627.0" width="25.1" height="15" fill="#e2e244" rx="2" ry="2"/>
<text x="1017.3" y="638.0">P..</text>
</g>
<g>
<title>Parse::do_one_bytecode() (2 samples, 4.26%)</title><rect x="1039.4" y="659.0" width="50.2" height="15" fill="#dbdb42" rx="2" ry="2"/>
<text x="1042.4" y="670.0">Parse..</text>
</g>
<g>
<title>Parse::do_call() (2 samples, 4.26%)</title><rect x="1039.4" y="643.0" width="50.2" height="15" fill="#d4d440" rx="2" ry="2"/>
<text x="1042.4" y="654.0">Parse..</text>
</g>
<g>
<title>ParseGenerator::generate(JVMState*) (2 samples, 4.26%)</title><rect x="1039.4" y="627.0" width="50.2" height="15" fill="#dada42" rx="2" ry="2"/>
<text x="1042.4" y="638.0">Parse..</text>
</g>
<g>
<title>Parse::Parse(JVMState*, ciMethod*, float) (2 samples, 4.26%)</title><rect x="1039.4" y="611.0" width="50.2" height="15" fill="#d0d03e" rx="2" ry="2"/>
<text x="1042.4" y="622.0">Parse..</text>
</g>
<g>
<title>Parse::do_all_blocks() (2 samples, 4.26%)</title><rect x="1039.4" y="595.0" width="50.2" height="15" fill="#dfdf43" rx="2" ry="2"/>
<text x="1042.4" y="606.0">Parse..</text>
</g>
<g>
<title>Parse::do_one_block() (2 samples, 4.26%)</title><rect x="1039.4" y="579.0" width="50.2" height="15" fill="#d1d13f" rx="2" ry="2"/>
<text x="1042.4" y="590.0">Parse..</text>
</g>
<g>
<title>Parse::do_one_bytecode() (2 samples, 4.26%)</title><rect x="1039.4" y="563.0" width="50.2" height="15" fill="#d5d540" rx="2" ry="2"/>
<text x="1042.4" y="574.0">Parse..</text>
</g>
<g>
<title>Parse::do_call() (2 samples, 4.26%)</title><rect x="1039.4" y="547.0" width="50.2" height="15" fill="#cece3e" rx="2" ry="2"/>
<text x="1042.4" y="558.0">Parse..</text>
</g>
<g>
<title>ParseGenerator::generate(JVMState*) (2 samples, 4.26%)</title><rect x="1039.4" y="531.0" width="50.2" height="15" fill="#cdcd3d" rx="2" ry="2"/>
<text x="1042.4" y="542.0">Parse..</text>
</g>
<g>
<title>Parse::Parse(JVMState*, ciMethod*, float) (2 samples, 4.26%)</title><rect x="1039.4" y="515.0" width="50.2" height="15" fill="#d0d03e" rx="2" ry="2"/>
<text x="1042.4" y="526.0">Parse..</text>
</g>
<g>
<title>Parse::do_all_blocks() (2 samples, 4.26%)</title><rect x="1039.4" y="499.0" width="50.2" height="15" fill="#d8d841" rx="2" ry="2"/>
<text x="1042.4" y="510.0">Parse..</text>
</g>
<g>
<title>Parse::do_one_block() (2 samples, 4.26%)</title><rect x="1039.4" y="483.0" width="50.2" height="15" fill="#d4d440" rx="2" ry="2"/>
<text x="1042.4" y="494.0">Parse..</text>
</g>
<g>
<title>Parse::do_one_bytecode() (2 samples, 4.26%)</title><rect x="1039.4" y="467.0" width="50.2" height="15" fill="#cdcd3d" rx="2" ry="2"/>
<text x="1042.4" y="478.0">Parse..</text>
</g>
<g>
<title>Parse::do_call() (2 samples, 4.26%)</title><rect x="1039.4" y="451.0" width="50.2" height="15" fill="#e3e345" rx="2" ry="2"/>
<text x="1042.4" y="462.0">Parse..</text>
</g>
<g>
<title>ParseGenerator::generate(JVMState*) (2 samples, 4.26%)</title><rect x="1039.4" y="435.0" width="50.2" height="15" fill="#cbcb3d" rx="2" ry="2"/>
<text x="1042.4" y="446.0">Parse..</text>
</g>
<g>
<title>Parse::Parse(JVMState*, ciMethod*, float) (2 samples, 4.26%)</title><rect x="1039.4" y="419.0" width="50.2" height="15" fill="#cbcb3d" rx="2" ry="2"/>
<text x="1042.4" y="430.0">Parse..</text>
</g>
<g>
<title>Parse::do_all_blocks() (2 samples, 4.26%)</title><rect x="1039.4" y="403.0" width="50.2" height="15" fill="#d6d640" rx="2" ry="2"/>
<text x="1042.4" y="414.0">Parse..</text>
</g>
<g>
<title>Parse::do_one_block() (2 samples, 4.26%)</title><rect x="1039.4" y="387.0" width="50.2" height="15" fill="#dede43" rx="2" ry="2"/>
<text x="1042.4" y="398.0">Parse..</text>
</g>
<g>
<title>Parse::do_one_bytecode() (2 samples, 4.26%)</title><rect x="1039.4" y="371.0" width="50.2" height="15" fill="#e5e545" rx="2" ry="2"/>
<text x="1042.4" y="382.0">Parse..</text>
</g>
<g>
<title>Parse::do_call() (2 samples, 4.26%)</title><rect x="1039.4" y="355.0" width="50.2" height="15" fill="#e4e445" rx="2" ry="2"/>
<text x="1042.4" y="366.0">Parse..</text>
</g>
<g>
<title>ParseGenerator::generate(JVMState*) (2 samples, 4.26%)</title><rect x="1039.4" y="339.0" width="50.2" height="15" fill="#dcdc42" rx="2" ry="2"/>
<text x="1042.4" y="350.0">Parse..</text>
</g>
<g>
<title>Parse::Parse(JVMState*, ciMethod*, float) (2 samples, 4.26%)</title><rect x="1039.4" y="323.0" width="50.2" height="15" fill="#d3d33f" rx="2" ry="2"/>
<text x="1042.4" y="334.0">Parse..</text>
</g>
<g>
<title>Parse::do_all_blocks() (2 samples, 4.26%)</title><rect x="1039.4" y="307.0" width="50.2" height="15" fill="#dede43" rx="2" ry="2"/>
<text x="1042.4" y="318.0">Parse..</text>
</g>
<g>
<title>Parse::do_one_block() (2 samples, 4.26%)</title><rect x="1039.4" y="291.0" width="50.2" height="15" fill="#d3d33f" rx="2" ry="2"/>
<text x="1042.4" y="302.0">Parse..</text>
</g>
<g>
<title>Parse::do_one_bytecode() (2 samples, 4.26%)</title><rect x="1039.4" y="275.0" width="50.2" height="15" fill="#d0d03e" rx="2" ry="2"/>
<text x="1042.4" y="286.0">Parse..</text>
</g>
<g>
<title>Parse::do_call() (1 samples, 2.13%)</title><rect x="1039.4" y="259.0" width="25.1" height="15" fill="#cece3e" rx="2" ry="2"/>
<text x="1042.4" y="270.0">P..</text>
</g>
<g>
<title>ParseGenerator::generate(JVMState*) (1 samples, 2.13%)</title><rect x="1039.4" y="243.0" width="25.1" height="15" fill="#d9d941" rx="2" ry="2"/>
<text x="1042.4" y="254.0">P..</text>
</g>
<g>
<title>Parse::Parse(JVMState*, ciMethod*, float) (1 samples, 2.13%)</title><rect x="1039.4" y="227.0" width="25.1" height="15" fill="#cfcf3e" rx="2" ry="2"/>
<text x="1042.4" y="238.0">P..</text>
</g>
<g>
<title>Parse::do_all_blocks() (1 samples, 2.13%)</title><rect x="1039.4" y="211.0" width="25.1" height="15" fill="#cccc3d" rx="2" ry="2"/>
<text x="1042.4" y="222.0">P..</text>
</g>
<g>
<title>Parse::do_one_block() (1 samples, 2.13%)</title><rect x="1039.4" y="195.0" width="25.1" height="15" fill="#dddd43" rx="2" ry="2"/>
<text x="1042.4" y="206.0">P..</text>
</g>
<g>
<title>Parse::do_one_bytecode() (1 samples, 2.13%)</title><rect x="1039.4" y="179.0" width="25.1" height="15" fill="#cbcb3d" rx="2" ry="2"/>
<text x="1042.4" y="190.0">P..</text>
</g>
<g>
<title>Parse::do_field_access(bool, bool) (1 samples, 2.13%)</title><rect x="1039.4" y="163.0" width="25.1" height="15" fill="#dfdf43" rx="2" ry="2"/>
<text x="1042.4" y="174.0">P..</text>
</g>
<g>
<title>Parse::do_get_xxx(Node*, ciField*, bool) (1 samples, 2.13%)</title><rect x="1039.4" y="147.0" width="25.1" height="15" fill="#cccc3d" rx="2" ry="2"/>
<text x="1042.4" y="158.0">P..</text>
</g>
<g>
<title>Compile::alias_type(ciField*) (1 samples, 2.13%)</title><rect x="1039.4" y="131.0" width="25.1" height="15" fill="#dede43" rx="2" ry="2"/>
<text x="1042.4" y="142.0">C..</text>
</g>
<g>
<title>TypeInstPtr::add_offset(long) const (1 samples, 2.13%)</title><rect x="1039.4" y="115.0" width="25.1" height="15" fill="#caca3c" rx="2" ry="2"/>
<text x="1042.4" y="126.0">T..</text>
</g>
<g>
<title>Type::hashcons() (1 samples, 2.13%)</title><rect x="1039.4" y="99.0" width="25.1" height="15" fill="#e4e445" rx="2" ry="2"/>
<text x="1042.4" y="110.0">T..</text>
</g>
<g>
<title>Dict::Insert(void*, void*, bool) (1 samples, 2.13%)</title><rect x="1039.4" y="83.0" width="25.1" height="15" fill="#c9c93c" rx="2" ry="2"/>
<text x="1042.4" y="94.0">D..</text>
</g>
<g>
<title>Type::cmp(Type const*, Type const*) (1 samples, 2.13%)</title><rect x="1039.4" y="67.0" width="25.1" height="15" fill="#d7d741" rx="2" ry="2"/>
<text x="1042.4" y="78.0">T..</text>
</g>
<g>
<title>TypeOopPtr::eq(Type const*) const (1 samples, 2.13%)</title><rect x="1039.4" y="51.0" width="25.1" height="15" fill="#cdcd3d" rx="2" ry="2"/>
<text x="1042.4" y="62.0">T..</text>
</g>
<g>
<title>TypeOopPtr::speculative() const (1 samples, 2.13%)</title><rect x="1039.4" y="35.0" width="25.1" height="15" fill="#cfcf3e" rx="2" ry="2"/>
<text x="1042.4" y="46.0">T..</text>
</g>
<g>
<title>Parse::do_field_access(bool, bool) (1 samples, 2.13%)</title><rect x="1064.5" y="259.0" width="25.1" height="15" fill="#dfdf43" rx="2" ry="2"/>
<text x="1067.5" y="270.0">P..</text>
</g>
<g>
<title>Parse::do_put_xxx(Node*, ciField*, bool) (1 samples, 2.13%)</title><rect x="1064.5" y="243.0" width="25.1" height="15" fill="#dddd43" rx="2" ry="2"/>
<text x="1067.5" y="254.0">P..</text>
</g>
<g>
<title>GraphKit::store_oop(Node*, Node*, Node*, TypePtr const*, Node*, TypeOopPtr const*, BasicType, bool, MemNode::MemOrd, bool) (1 samples, 2.13%)</title><rect x="1064.5" y="227.0" width="25.1" height="15" fill="#dbdb42" rx="2" ry="2"/>
<text x="1067.5" y="238.0">G..</text>
</g>
<g>
<title>GraphKit::g1_write_barrier_pre(bool, Node*, Node*, unsigned int, Node*, TypeOopPtr const*, Node*, BasicType) (1 samples, 2.13%)</title><rect x="1064.5" y="211.0" width="25.1" height="15" fill="#e5e545" rx="2" ry="2"/>
<text x="1067.5" y="222.0">G..</text>
</g>
<g>
<title>PhaseGVN::transform_no_reclaim(Node*) (1 samples, 2.13%)</title><rect x="1064.5" y="195.0" width="25.1" height="15" fill="#dbdb42" rx="2" ry="2"/>
<text x="1067.5" y="206.0">P..</text>
</g>
<g>
<title>AddPNode::Identity(PhaseTransform*) (1 samples, 2.13%)</title><rect x="1064.5" y="179.0" width="25.1" height="15" fill="#dede43" rx="2" ry="2"/>
<text x="1067.5" y="190.0">A..</text>
</g>
<g>
<title>Type::hashcons() (1 samples, 2.13%)</title><rect x="1064.5" y="163.0" width="25.1" height="15" fill="#caca3c" rx="2" ry="2"/>
<text x="1067.5" y="174.0">T..</text>
</g>
<g>
<title>Type::cmp(Type const*, Type const*) (1 samples, 2.13%)</title><rect x="1064.5" y="147.0" width="25.1" height="15" fill="#cccc3d" rx="2" ry="2"/>
<text x="1067.5" y="158.0">T..</text>
</g>
<g>
<title>PhaseRemoveUseless::PhaseRemoveUseless(PhaseGVN*, Unique_Node_List*, Phase::PhaseNumber) (1 samples, 2.13%)</title><rect x="1089.6" y="723.0" width="25.1" height="15" fill="#d7d741" rx="2" ry="2"/>
<text x="1092.6" y="734.0">P..</text>
</g>
<g>
<title>Compile::identify_useful_nodes(Unique_Node_List&amp;) (1 samples, 2.13%)</title><rect x="1089.6" y="707.0" width="25.1" height="15" fill="#caca3c" rx="2" ry="2"/>
<text x="1092.6" y="718.0">C..</text>
</g>
<g>
<title>__memset_sse2 (1 samples, 2.13%)</title><rect x="1114.7" y="739.0" width="25.1" height="15" fill="#e35c5c" rx="2" ry="2"/>
<text x="1117.7" y="750.0">_..</text>
</g>
<g>
<title>Compiler::compile_method(ciEnv*, ciMethod*, int) (2 samples, 4.26%)</title><rect x="1139.8" y="755.0" width="50.2" height="15" fill="#cece3e" rx="2" ry="2"/>
<text x="1142.8" y="766.0">Compi..</text>
</g>
<g>
<title>Compilation::Compilation(AbstractCompiler*, ciEnv*, ciMethod*, int, BufferBlob*) (2 samples, 4.26%)</title><rect x="1139.8" y="739.0" width="50.2" height="15" fill="#d5d540" rx="2" ry="2"/>
<text x="1142.8" y="750.0">Compi..</text>
</g>
<g>
<title>Compilation::compile_method() (2 samples, 4.26%)</title><rect x="1139.8" y="723.0" width="50.2" height="15" fill="#e0e044" rx="2" ry="2"/>
<text x="1142.8" y="734.0">Compi..</text>
</g>
<g>
<title>Compilation::compile_java_method() (2 samples, 4.26%)</title><rect x="1139.8" y="707.0" width="50.2" height="15" fill="#d9d941" rx="2" ry="2"/>
<text x="1142.8" y="718.0">Compi..</text>
</g>
<g>
<title>Compilation::build_hir() (1 samples, 2.13%)</title><rect x="1139.8" y="691.0" width="25.1" height="15" fill="#dede43" rx="2" ry="2"/>
<text x="1142.8" y="702.0">C..</text>
</g>
<g>
<title>IR::IR(Compilation*, ciMethod*, int) (1 samples, 2.13%)</title><rect x="1139.8" y="675.0" width="25.1" height="15" fill="#c9c93c" rx="2" ry="2"/>
<text x="1142.8" y="686.0">I..</text>
</g>
<g>
<title>IRScope::IRScope(Compilation*, IRScope*, int, ciMethod*, int, bool) (1 samples, 2.13%)</title><rect x="1139.8" y="659.0" width="25.1" height="15" fill="#cccc3d" rx="2" ry="2"/>
<text x="1142.8" y="670.0">I..</text>
</g>
<g>
<title>GraphBuilder::GraphBuilder(Compilation*, IRScope*) (1 samples, 2.13%)</title><rect x="1139.8" y="643.0" width="25.1" height="15" fill="#e5e545" rx="2" ry="2"/>
<text x="1142.8" y="654.0">G..</text>
</g>
<g>
<title>GraphBuilder::iterate_all_blocks(bool) (1 samples, 2.13%)</title><rect x="1139.8" y="627.0" width="25.1" height="15" fill="#cece3e" rx="2" ry="2"/>
<text x="1142.8" y="638.0">G..</text>
</g>
<g>
<title>GraphBuilder::iterate_bytecodes_for_block(int) (1 samples, 2.13%)</title><rect x="1139.8" y="611.0" width="25.1" height="15" fill="#e2e244" rx="2" ry="2"/>
<text x="1142.8" y="622.0">G..</text>
</g>
<g>
<title>GraphBuilder::invoke(Bytecodes::Code) (1 samples, 2.13%)</title><rect x="1139.8" y="595.0" width="25.1" height="15" fill="#cbcb3d" rx="2" ry="2"/>
<text x="1142.8" y="606.0">G..</text>
</g>
<g>
<title>GraphBuilder::try_inline(ciMethod*, bool, Bytecodes::Code, Instruction*) (1 samples, 2.13%)</title><rect x="1139.8" y="579.0" width="25.1" height="15" fill="#e5e545" rx="2" ry="2"/>
<text x="1142.8" y="590.0">G..</text>
</g>
<g>
<title>GraphBuilder::try_inline_full(ciMethod*, bool, Bytecodes::Code, Instruction*) (1 samples, 2.13%)</title><rect x="1139.8" y="563.0" width="25.1" height="15" fill="#c9c93c" rx="2" ry="2"/>
<text x="1142.8" y="574.0">G..</text>
</g>
<g>
<title>GraphBuilder::push_scope(ciMethod*, BlockBegin*) (1 samples, 2.13%)</title><rect x="1139.8" y="547.0" width="25.1" height="15" fill="#e2e244" rx="2" ry="2"/>
<text x="1142.8" y="558.0">G..</text>
</g>
<g>
<title>BlockListBuilder::BlockListBuilder(Compilation*, IRScope*, int) (1 samples, 2.13%)</title><rect x="1139.8" y="531.0" width="25.1" height="15" fill="#caca3c" rx="2" ry="2"/>
<text x="1142.8" y="542.0">B..</text>
</g>
<g>
<title>BlockListBuilder::set_entries(int) (1 samples, 2.13%)</title><rect x="1139.8" y="515.0" width="25.1" height="15" fill="#c8c83c" rx="2" ry="2"/>
<text x="1142.8" y="526.0">B..</text>
</g>
<g>
<title>BlockListBuilder::make_block_at(int, BlockBegin*) [clone .constprop.410] (1 samples, 2.13%)</title><rect x="1139.8" y="499.0" width="25.1" height="15" fill="#e3e345" rx="2" ry="2"/>
<text x="1142.8" y="510.0">B..</text>
</g>
<g>
<title>Compilation::emit_code_body() (1 samples, 2.13%)</title><rect x="1164.9" y="691.0" width="25.1" height="15" fill="#d9d941" rx="2" ry="2"/>
<text x="1167.9" y="702.0">C..</text>
</g>
<g>
<title>LIR_Assembler::emit_code(BlockList*) (1 samples, 2.13%)</title><rect x="1164.9" y="675.0" width="25.1" height="15" fill="#cdcd3d" rx="2" ry="2"/>
<text x="1167.9" y="686.0">L..</text>
</g>
<g>
<title>LIR_Assembler::process_debug_info(LIR_Op*) (1 samples, 2.13%)</title><rect x="1164.9" y="659.0" width="25.1" height="15" fill="#cccc3d" rx="2" ry="2"/>
<text x="1167.9" y="670.0">L..</text>
</g>
<g>
<title>LIR_Assembler::record_non_safepoint_debug_info() (1 samples, 2.13%)</title><rect x="1164.9" y="643.0" width="25.1" height="15" fill="#d3d33f" rx="2" ry="2"/>
<text x="1167.9" y="654.0">L..</text>
</g>
</g>
</svg>
