<?xml version="1.0" standalone="no"?>
<!DOCTYPE svg PUBLIC "-//W3C//DTD SVG 1.1//EN" "http://www.w3.org/Graphics/SVG/1.1/DTD/svg11.dtd">
<svg version="1.1" width="1200" height="870" onload="init(evt)" viewBox="0 0 1200 870" xmlns="http://www.w3.org/2000/svg" xmlns:xlink="http://www.w3.org/1999/xlink">
<style type="text/css">
	text { font-family:Verdana; font-size:12px; fill:rgb(0,0,0); }
	#search { opacity:0.1; cursor:pointer; }
	#search:hover, #search.show { opacity:1; }
	#subtitle { text-anchor:middle; font-color:rgb(160,160,160); }
	#title { text-anchor:middle; font-size:17px}
	#unzoom { cursor:pointer; }
	#frames > *:hover { stroke:black; stroke-width:0.5; cursor:pointer; }
	.hide { display:none; }
	.parent { opacity:0.5; }
</style>
<script type="text/ecmascript">
<![CDATA[
	"use strict";
	var details, searchbtn, unzoombtn, matchedtxt, svg, searching;
	function init(evt) {
		details = document.getElementById("details").firstChild;
		searchbtn = document.getElementById("search");
		unzoombtn = document.getElementById("unzoom");
		matchedtxt = document.getElementById("matched");
		svg = document.getElementsByTagName("svg")[0];
		searching = 0;
	}

	window.addEventListener("click", function(e) {
		var target = find_group(e.target);
		if (target) {
			if (target.nodeName == "a") {
				if (e.ctrlKey === false) return;
				e.preventDefault();
			}
			if (target.classList.contains("parent")) unzoom();
			zoom(target);
		}
		else if (e.target.id == "unzoom") unzoom();
		else if (e.target.id == "search") search_prompt();
	}, false)

	// mouse-over for info
	// show
	window.addEventListener("mouseover", function(e) {
		var target = find_group(e.target);
		if (target) details.nodeValue = "Function: " + g_to_text(target);
	}, false)

	// clear
	window.addEventListener("mouseout", function(e) {
		var target = find_group(e.target);
		if (target) details.nodeValue = ' ';
	}, false)

	// ctrl-F for search
	window.addEventListener("keydown",function (e) {
		if (e.keyCode === 114 || (e.ctrlKey && e.keyCode === 70)) {
			e.preventDefault();
			search_prompt();
		}
	}, false)

	// functions
	function find_child(node, selector) {
		var children = node.querySelectorAll(selector);
		if (children.length) return children[0];
		return;
	}
	function find_group(node) {
		var parent = node.parentElement;
		if (!parent) return;
		if (parent.id == "frames") return node;
		return find_group(parent);
	}
	function orig_save(e, attr, val) {
		if (e.attributes["_orig_" + attr] != undefined) return;
		if (e.attributes[attr] == undefined) return;
		if (val == undefined) val = e.attributes[attr].value;
		e.setAttribute("_orig_" + attr, val);
	}
	function orig_load(e, attr) {
		if (e.attributes["_orig_"+attr] == undefined) return;
		e.attributes[attr].value = e.attributes["_orig_" + attr].value;
		e.removeAttribute("_orig_"+attr);
	}
	function g_to_text(e) {
		var text = find_child(e, "title").firstChild.nodeValue;
		return (text)
	}
	function g_to_func(e) {
		var func = g_to_text(e);
		// if there's any manipulation we want to do to the function
		// name before it's searched, do it here before returning.
		return (func);
	}
	function update_text(e) {
		var r = find_child(e, "rect");
		var t = find_child(e, "text");
		var w = parseFloat(r.attributes.width.value) -3;
		var txt = find_child(e, "title").textContent.replace(/\([^(]*\)$/,"");
		t.attributes.x.value = parseFloat(r.attributes.x.value) + 3;

		// Smaller than this size won't fit anything
		if (w < 2 * 12 * 0.59) {
			t.textContent = "";
			return;
		}

		t.textContent = txt;
		// Fit in full text width
		if (/^ *$/.test(txt) || t.getSubStringLength(0, txt.length) < w)
			return;

		for (var x = txt.length - 2; x > 0; x--) {
			if (t.getSubStringLength(0, x + 2) <= w) {
				t.textContent = txt.substring(0, x) + "..";
				return;
			}
		}
		t.textContent = "";
	}

	// zoom
	function zoom_reset(e) {
		if (e.attributes != undefined) {
			orig_load(e, "x");
			orig_load(e, "width");
		}
		if (e.childNodes == undefined) return;
		for (var i = 0, c = e.childNodes; i < c.length; i++) {
			zoom_reset(c[i]);
		}
	}
	function zoom_child(e, x, ratio) {
		if (e.attributes != undefined) {
			if (e.attributes.x != undefined) {
				orig_save(e, "x");
				e.attributes.x.value = (parseFloat(e.attributes.x.value) - x - 10) * ratio + 10;
				if (e.tagName == "text")
					e.attributes.x.value = find_child(e.parentNode, "rect[x]").attributes.x.value + 3;
			}
			if (e.attributes.width != undefined) {
				orig_save(e, "width");
				e.attributes.width.value = parseFloat(e.attributes.width.value) * ratio;
			}
		}

		if (e.childNodes == undefined) return;
		for (var i = 0, c = e.childNodes; i < c.length; i++) {
			zoom_child(c[i], x - 10, ratio);
		}
	}
	function zoom_parent(e) {
		if (e.attributes) {
			if (e.attributes.x != undefined) {
				orig_save(e, "x");
				e.attributes.x.value = 10;
			}
			if (e.attributes.width != undefined) {
				orig_save(e, "width");
				e.attributes.width.value = parseInt(svg.width.baseVal.value) - (10 * 2);
			}
		}
		if (e.childNodes == undefined) return;
		for (var i = 0, c = e.childNodes; i < c.length; i++) {
			zoom_parent(c[i]);
		}
	}
	function zoom(node) {
		var attr = find_child(node, "rect").attributes;
		var width = parseFloat(attr.width.value);
		var xmin = parseFloat(attr.x.value);
		var xmax = parseFloat(xmin + width);
		var ymin = parseFloat(attr.y.value);
		var ratio = (svg.width.baseVal.value - 2 * 10) / width;

		// XXX: Workaround for JavaScript float issues (fix me)
		var fudge = 0.0001;

		unzoombtn.classList.remove("hide");

		var el = document.getElementById("frames").children;
		for (var i = 0; i < el.length; i++) {
			var e = el[i];
			var a = find_child(e, "rect").attributes;
			var ex = parseFloat(a.x.value);
			var ew = parseFloat(a.width.value);
			var upstack;
			// Is it an ancestor
			if (0 == 0) {
				upstack = parseFloat(a.y.value) > ymin;
			} else {
				upstack = parseFloat(a.y.value) < ymin;
			}
			if (upstack) {
				// Direct ancestor
				if (ex <= xmin && (ex+ew+fudge) >= xmax) {
					e.classList.add("parent");
					zoom_parent(e);
					update_text(e);
				}
				// not in current path
				else
					e.classList.add("hide");
			}
			// Children maybe
			else {
				// no common path
				if (ex < xmin || ex + fudge >= xmax) {
					e.classList.add("hide");
				}
				else {
					zoom_child(e, xmin, ratio);
					update_text(e);
				}
			}
		}
	}
	function unzoom() {
		unzoombtn.classList.add("hide");
		var el = document.getElementById("frames").children;
		for(var i = 0; i < el.length; i++) {
			el[i].classList.remove("parent");
			el[i].classList.remove("hide");
			zoom_reset(el[i]);
			update_text(el[i]);
		}
	}

	// search
	function reset_search() {
		var el = document.querySelectorAll("#frames rect");
		for (var i = 0; i < el.length; i++) {
			orig_load(el[i], "fill")
		}
	}
	function search_prompt() {
		if (!searching) {
			var term = prompt("Enter a search term (regexp " +
			    "allowed, eg: ^ext4_)", "");
			if (term != null) {
				search(term)
			}
		} else {
			reset_search();
			searching = 0;
			searchbtn.classList.remove("show");
			searchbtn.firstChild.nodeValue = "Search"
			matchedtxt.classList.add("hide");
			matchedtxt.firstChild.nodeValue = ""
		}
	}
	function search(term) {
		var re = new RegExp(term);
		var el = document.getElementById("frames").children;
		var matches = new Object();
		var maxwidth = 0;
		for (var i = 0; i < el.length; i++) {
			var e = el[i];
			var func = g_to_func(e);
			var rect = find_child(e, "rect");
			if (func == null || rect == null)
				continue;

			// Save max width. Only works as we have a root frame
			var w = parseFloat(rect.attributes.width.value);
			if (w > maxwidth)
				maxwidth = w;

			if (func.match(re)) {
				// highlight
				var x = parseFloat(rect.attributes.x.value);
				orig_save(rect, "fill");
				rect.attributes.fill.value = "rgb(230,0,230)";

				// remember matches
				if (matches[x] == undefined) {
					matches[x] = w;
				} else {
					if (w > matches[x]) {
						// overwrite with parent
						matches[x] = w;
					}
				}
				searching = 1;
			}
		}
		if (!searching)
			return;

		searchbtn.classList.add("show");
		searchbtn.firstChild.nodeValue = "Reset Search";

		// calculate percent matched, excluding vertical overlap
		var count = 0;
		var lastx = -1;
		var lastw = 0;
		var keys = Array();
		for (k in matches) {
			if (matches.hasOwnProperty(k))
				keys.push(k);
		}
		// sort the matched frames by their x location
		// ascending, then width descending
		keys.sort(function(a, b){
			return a - b;
		});
		// Step through frames saving only the biggest bottom-up frames
		// thanks to the sort order. This relies on the tree property
		// where children are always smaller than their parents.
		var fudge = 0.0001;	// JavaScript floating point
		for (var k in keys) {
			var x = parseFloat(keys[k]);
			var w = matches[keys[k]];
			if (x >= lastx + lastw - fudge) {
				count += w;
				lastx = x;
				lastw = w;
			}
		}
		// display matched percent
		matchedtxt.classList.remove("hide");
		var pct = 100 * count / maxwidth;
		if (pct != 100) pct = pct.toFixed(1)
		matchedtxt.firstChild.nodeValue = "Matched: " + pct + "%";
	}
]]>
</script>
<rect x="0" y="0" width="100%" height="100%" fill="rgb(240,240,220)"/>
<text id="title" x="600" y="24">Flame Graph</text>
<text id="details" x="10" y="853"> </text>
<text id="unzoom" x="10" y="24" class="hide">Reset Zoom</text>
<text id="search" x="1090" y="24">Search</text>
<text id="matched" x="1090" y="853"> </text>
<g id="frames">
<g>
<title>all (18 samples, 100.00%)</title><rect x="10.0" y="819.0" width="1180.0" height="15" fill="#fa7b7b" rx="2" ry="2"/>
<text x="13.0" y="830.0">all</text>
</g>
<g>
<title>com/linecorp/decaton/processor/runtime/ProcessorSubscription.run (2 samples, 11.11%)</title><rect x="10.0" y="803.0" width="131.1" height="15" fill="#5bec5b" rx="2" ry="2"/>
<text x="13.0" y="814.0">com/linecorp/dec..</text>
</g>
<g>
<title>com/linecorp/decaton/processor/runtime/ProcessorSubscription.pollOnce (2 samples, 11.11%)</title><rect x="10.0" y="787.0" width="131.1" height="15" fill="#67f867" rx="2" ry="2"/>
<text x="13.0" y="798.0">com/linecorp/dec..</text>
</g>
<g>
<title>java/lang/Iterable.forEach (1 samples, 5.56%)</title><rect x="10.0" y="771.0" width="65.6" height="15" fill="#67f867" rx="2" ry="2"/>
<text x="13.0" y="782.0">java/la..</text>
</g>
<g>
<title>com/linecorp/decaton/processor/runtime/ProcessorSubscription$$Lambda$246/1677023118.accept (1 samples, 5.56%)</title><rect x="10.0" y="755.0" width="65.6" height="15" fill="#6bfc6b" rx="2" ry="2"/>
<text x="13.0" y="766.0">com/lin..</text>
</g>
<g>
<title>org/apache/kafka/clients/consumer/KafkaConsumer.poll (1 samples, 5.56%)</title><rect x="75.6" y="771.0" width="65.5" height="15" fill="#55e655" rx="2" ry="2"/>
<text x="78.6" y="782.0">org/apa..</text>
</g>
<g>
<title>org/apache/kafka/clients/consumer/KafkaConsumer.poll (1 samples, 5.56%)</title><rect x="75.6" y="755.0" width="65.5" height="15" fill="#5aeb5a" rx="2" ry="2"/>
<text x="78.6" y="766.0">org/apa..</text>
</g>
<g>
<title>org/apache/kafka/clients/consumer/KafkaConsumer.pollForFetches (1 samples, 5.56%)</title><rect x="75.6" y="739.0" width="65.5" height="15" fill="#67f867" rx="2" ry="2"/>
<text x="78.6" y="750.0">org/apa..</text>
</g>
<g>
<title>org/apache/kafka/clients/consumer/internals/ConsumerNetworkClient.poll (1 samples, 5.56%)</title><rect x="75.6" y="723.0" width="65.5" height="15" fill="#58e958" rx="2" ry="2"/>
<text x="78.6" y="734.0">org/apa..</text>
</g>
<g>
<title>org/apache/kafka/clients/consumer/internals/ConsumerNetworkClient.poll (1 samples, 5.56%)</title><rect x="75.6" y="707.0" width="65.5" height="15" fill="#60f160" rx="2" ry="2"/>
<text x="78.6" y="718.0">org/apa..</text>
</g>
<g>
<title>org/apache/kafka/clients/Metadata.maybeThrowAnyException (1 samples, 5.56%)</title><rect x="75.6" y="691.0" width="65.5" height="15" fill="#5eef5e" rx="2" ry="2"/>
<text x="78.6" y="702.0">org/apa..</text>
</g>
<g>
<title>org/apache/kafka/clients/Metadata.clearErrorsAndMaybeThrowException (1 samples, 5.56%)</title><rect x="75.6" y="675.0" width="65.5" height="15" fill="#62f362" rx="2" ry="2"/>
<text x="78.6" y="686.0">org/apa..</text>
</g>
<g>
<title>start_thread (16 samples, 88.89%)</title><rect x="141.1" y="803.0" width="1048.9" height="15" fill="#eb6868" rx="2" ry="2"/>
<text x="144.1" y="814.0">start_thread</text>
</g>
<g>
<title>java_start(Thread*) (16 samples, 88.89%)</title><rect x="141.1" y="787.0" width="1048.9" height="15" fill="#f06e6e" rx="2" ry="2"/>
<text x="144.1" y="798.0">java_start(Thread*)</text>
</g>
<g>
<title>JavaThread::thread_main_inner() (16 samples, 88.89%)</title><rect x="141.1" y="771.0" width="1048.9" height="15" fill="#e4e445" rx="2" ry="2"/>
<text x="144.1" y="782.0">JavaThread::thread_main_inner()</text>
</g>
<g>
<title>CompileBroker::compiler_thread_loop() (16 samples, 88.89%)</title><rect x="141.1" y="755.0" width="1048.9" height="15" fill="#e3e345" rx="2" ry="2"/>
<text x="144.1" y="766.0">CompileBroker::compiler_thread_loop()</text>
</g>
<g>
<title>CompileBroker::invoke_compiler_on_method(CompileTask*) (15 samples, 83.33%)</title><rect x="141.1" y="739.0" width="983.3" height="15" fill="#dbdb42" rx="2" ry="2"/>
<text x="144.1" y="750.0">CompileBroker::invoke_compiler_on_method(CompileTask*)</text>
</g>
<g>
<title>C2Compiler::compile_method(ciEnv*, ciMethod*, int) (14 samples, 77.78%)</title><rect x="141.1" y="723.0" width="917.8" height="15" fill="#dddd43" rx="2" ry="2"/>
<text x="144.1" y="734.0">C2Compiler::compile_method(ciEnv*, ciMethod*, int)</text>
</g>
<g>
<title>Compile::Compile(ciEnv*, C2Compiler*, ciMethod*, int, bool, bool, bool) (14 samples, 77.78%)</title><rect x="141.1" y="707.0" width="917.8" height="15" fill="#cccc3d" rx="2" ry="2"/>
<text x="144.1" y="718.0">Compile::Compile(ciEnv*, C2Compiler*, ciMethod*, int, bool, bool, bool)</text>
</g>
<g>
<title>Compile::Code_Gen() (6 samples, 33.33%)</title><rect x="141.1" y="691.0" width="393.3" height="15" fill="#dada42" rx="2" ry="2"/>
<text x="144.1" y="702.0">Compile::Code_Gen()</text>
</g>
<g>
<title>Compile::Output() (1 samples, 5.56%)</title><rect x="141.1" y="675.0" width="65.6" height="15" fill="#c8c83c" rx="2" ry="2"/>
<text x="144.1" y="686.0">Compile..</text>
</g>
<g>
<title>Compile::BuildOopMaps() (1 samples, 5.56%)</title><rect x="141.1" y="659.0" width="65.6" height="15" fill="#cfcf3e" rx="2" ry="2"/>
<text x="144.1" y="670.0">Compile..</text>
</g>
<g>
<title>OopFlow::compute_reach(PhaseRegAlloc*, int, Dict*) (1 samples, 5.56%)</title><rect x="141.1" y="643.0" width="65.6" height="15" fill="#cccc3d" rx="2" ry="2"/>
<text x="144.1" y="654.0">OopFlow..</text>
</g>
<g>
<title>OopFlow::build_oop_map(Node*, int, PhaseRegAlloc*, int*) (1 samples, 5.56%)</title><rect x="141.1" y="627.0" width="65.6" height="15" fill="#e0e044" rx="2" ry="2"/>
<text x="144.1" y="638.0">OopFlow..</text>
</g>
<g>
<title>MachProjNode::bottom_type() const (1 samples, 5.56%)</title><rect x="141.1" y="611.0" width="65.6" height="15" fill="#cccc3d" rx="2" ry="2"/>
<text x="144.1" y="622.0">MachPro..</text>
</g>
<g>
<title>Matcher::match() (1 samples, 5.56%)</title><rect x="206.7" y="675.0" width="65.5" height="15" fill="#d4d440" rx="2" ry="2"/>
<text x="209.7" y="686.0">Matcher..</text>
</g>
<g>
<title>Matcher::xform(Node*, int) (1 samples, 5.56%)</title><rect x="206.7" y="659.0" width="65.5" height="15" fill="#cbcb3d" rx="2" ry="2"/>
<text x="209.7" y="670.0">Matcher..</text>
</g>
<g>
<title>Node::clone() const (1 samples, 5.56%)</title><rect x="206.7" y="643.0" width="65.5" height="15" fill="#cbcb3d" rx="2" ry="2"/>
<text x="209.7" y="654.0">Node::c..</text>
</g>
<g>
<title>PhaseChaitin::Register_Allocate() (4 samples, 22.22%)</title><rect x="272.2" y="675.0" width="262.2" height="15" fill="#e5e545" rx="2" ry="2"/>
<text x="275.2" y="686.0">PhaseChaitin::Register_Allocate()</text>
</g>
<g>
<title>PhaseChaitin::Split(unsigned int, ResourceArea*) (1 samples, 5.56%)</title><rect x="272.2" y="659.0" width="65.6" height="15" fill="#cece3e" rx="2" ry="2"/>
<text x="275.2" y="670.0">PhaseCh..</text>
</g>
<g>
<title>PhaseChaitin::build_ifg_physical(ResourceArea*) (1 samples, 5.56%)</title><rect x="337.8" y="659.0" width="65.5" height="15" fill="#d7d741" rx="2" ry="2"/>
<text x="340.8" y="670.0">PhaseCh..</text>
</g>
<g>
<title>PhaseChaitin::interfere_with_live(unsigned int, IndexSet*) (1 samples, 5.56%)</title><rect x="337.8" y="643.0" width="65.5" height="15" fill="#e1e144" rx="2" ry="2"/>
<text x="340.8" y="654.0">PhaseCh..</text>
</g>
<g>
<title>IndexSet::alloc_block_containing(unsigned int) (1 samples, 5.56%)</title><rect x="337.8" y="627.0" width="65.5" height="15" fill="#dada42" rx="2" ry="2"/>
<text x="340.8" y="638.0">IndexSe..</text>
</g>
<g>
<title>PhaseCoalesce::coalesce_driver() (1 samples, 5.56%)</title><rect x="403.3" y="659.0" width="65.6" height="15" fill="#d0d03e" rx="2" ry="2"/>
<text x="406.3" y="670.0">PhaseCo..</text>
</g>
<g>
<title>PhaseAggressiveCoalesce::coalesce(Block*) (1 samples, 5.56%)</title><rect x="403.3" y="643.0" width="65.6" height="15" fill="#dbdb42" rx="2" ry="2"/>
<text x="406.3" y="654.0">PhaseAg..</text>
</g>
<g>
<title>PhaseCoalesce::combine_these_two(Node*, Node*) (1 samples, 5.56%)</title><rect x="403.3" y="627.0" width="65.6" height="15" fill="#d7d741" rx="2" ry="2"/>
<text x="406.3" y="638.0">PhaseCo..</text>
</g>
<g>
<title>PhaseLive::compute(unsigned int) (1 samples, 5.56%)</title><rect x="468.9" y="659.0" width="65.5" height="15" fill="#d6d640" rx="2" ry="2"/>
<text x="471.9" y="670.0">PhaseLi..</text>
</g>
<g>
<title>Compile::Optimize() (4 samples, 22.22%)</title><rect x="534.4" y="691.0" width="262.3" height="15" fill="#e5e545" rx="2" ry="2"/>
<text x="537.4" y="702.0">Compile::Optimize()</text>
</g>
<g>
<title>PhaseCCP::analyze() (1 samples, 5.56%)</title><rect x="534.4" y="675.0" width="65.6" height="15" fill="#d0d03e" rx="2" ry="2"/>
<text x="537.4" y="686.0">PhaseCC..</text>
</g>
<g>
<title>TypeInstPtr::add_offset(long) const (1 samples, 5.56%)</title><rect x="534.4" y="659.0" width="65.6" height="15" fill="#dfdf43" rx="2" ry="2"/>
<text x="537.4" y="670.0">TypeIns..</text>
</g>
<g>
<title>Type::hashcons() (1 samples, 5.56%)</title><rect x="534.4" y="643.0" width="65.6" height="15" fill="#d7d741" rx="2" ry="2"/>
<text x="537.4" y="654.0">Type::h..</text>
</g>
<g>
<title>Dict::Insert(void*, void*, bool) (1 samples, 5.56%)</title><rect x="534.4" y="627.0" width="65.6" height="15" fill="#dfdf43" rx="2" ry="2"/>
<text x="537.4" y="638.0">Dict::I..</text>
</g>
<g>
<title>Type::cmp(Type const*, Type const*) (1 samples, 5.56%)</title><rect x="534.4" y="611.0" width="65.6" height="15" fill="#d4d440" rx="2" ry="2"/>
<text x="537.4" y="622.0">Type::c..</text>
</g>
<g>
<title>TypeOopPtr::eq(Type const*) const (1 samples, 5.56%)</title><rect x="534.4" y="595.0" width="65.6" height="15" fill="#e2e244" rx="2" ry="2"/>
<text x="537.4" y="606.0">TypeOop..</text>
</g>
<g>
<title>PhaseIdealLoop::build_and_optimize(bool, bool) (3 samples, 16.67%)</title><rect x="600.0" y="675.0" width="196.7" height="15" fill="#d0d03e" rx="2" ry="2"/>
<text x="603.0" y="686.0">PhaseIdealLoop::build_and_..</text>
</g>
<g>
<title>IdealLoopTree::counted_loop(PhaseIdealLoop*) (1 samples, 5.56%)</title><rect x="600.0" y="659.0" width="65.6" height="15" fill="#d2d23f" rx="2" ry="2"/>
<text x="603.0" y="670.0">IdealLo..</text>
</g>
<g>
<title>IdealLoopTree::counted_loop(PhaseIdealLoop*) (1 samples, 5.56%)</title><rect x="600.0" y="643.0" width="65.6" height="15" fill="#e0e044" rx="2" ry="2"/>
<text x="603.0" y="654.0">IdealLo..</text>
</g>
<g>
<title>IdealLoopTree::remove_safepoints(PhaseIdealLoop*, bool) (1 samples, 5.56%)</title><rect x="600.0" y="627.0" width="65.6" height="15" fill="#e3e345" rx="2" ry="2"/>
<text x="603.0" y="638.0">IdealLo..</text>
</g>
<g>
<title>PhaseIdealLoop::build_loop_late(VectorSet&amp;, Node_List&amp;, Node_Stack&amp;) (2 samples, 11.11%)</title><rect x="665.6" y="659.0" width="131.1" height="15" fill="#caca3c" rx="2" ry="2"/>
<text x="668.6" y="670.0">PhaseIdealLoop::..</text>
</g>
<g>
<title>PhaseIdealLoop::build_loop_late_post(Node*) (2 samples, 11.11%)</title><rect x="665.6" y="643.0" width="131.1" height="15" fill="#e4e445" rx="2" ry="2"/>
<text x="668.6" y="654.0">PhaseIdealLoop::..</text>
</g>
<g>
<title>Node::unique_ctrl_out() (1 samples, 5.56%)</title><rect x="731.1" y="627.0" width="65.6" height="15" fill="#d7d741" rx="2" ry="2"/>
<text x="734.1" y="638.0">Node::u..</text>
</g>
<g>
<title>ParseGenerator::generate(JVMState*) (2 samples, 11.11%)</title><rect x="796.7" y="691.0" width="131.1" height="15" fill="#caca3c" rx="2" ry="2"/>
<text x="799.7" y="702.0">ParseGenerator::..</text>
</g>
<g>
<title>Parse::Parse(JVMState*, ciMethod*, float) (2 samples, 11.11%)</title><rect x="796.7" y="675.0" width="131.1" height="15" fill="#cdcd3d" rx="2" ry="2"/>
<text x="799.7" y="686.0">Parse::Parse(JVM..</text>
</g>
<g>
<title>Parse::do_all_blocks() (2 samples, 11.11%)</title><rect x="796.7" y="659.0" width="131.1" height="15" fill="#dbdb42" rx="2" ry="2"/>
<text x="799.7" y="670.0">Parse::do_all_bl..</text>
</g>
<g>
<title>Parse::do_one_block() (2 samples, 11.11%)</title><rect x="796.7" y="643.0" width="131.1" height="15" fill="#e2e244" rx="2" ry="2"/>
<text x="799.7" y="654.0">Parse::do_one_bl..</text>
</g>
<g>
<title>Parse::do_one_bytecode() (2 samples, 11.11%)</title><rect x="796.7" y="627.0" width="131.1" height="15" fill="#d2d23f" rx="2" ry="2"/>
<text x="799.7" y="638.0">Parse::do_one_by..</text>
</g>
<g>
<title>Parse::do_call() (2 samples, 11.11%)</title><rect x="796.7" y="611.0" width="131.1" height="15" fill="#c9c93c" rx="2" ry="2"/>
<text x="799.7" y="622.0">Parse::do_call()</text>
</g>
<g>
<title>Compile::call_generator(ciMethod*, int, bool, JVMState*, bool, float, ciKlass*, bool, bool) (1 samples, 5.56%)</title><rect x="796.7" y="595.0" width="65.5" height="15" fill="#c8c83c" rx="2" ry="2"/>
<text x="799.7" y="606.0">Compile..</text>
</g>
<g>
<title>InlineTree::ok_to_inline(ciMethod*, JVMState*, ciCallProfile&amp;, WarmCallInfo*, bool&amp;) (1 samples, 5.56%)</title><rect x="796.7" y="579.0" width="65.5" height="15" fill="#d5d540" rx="2" ry="2"/>
<text x="799.7" y="590.0">InlineT..</text>
</g>
<g>
<title>ciMethod::get_flow_analysis() (1 samples, 5.56%)</title><rect x="796.7" y="563.0" width="65.5" height="15" fill="#c9c93c" rx="2" ry="2"/>
<text x="799.7" y="574.0">ciMetho..</text>
</g>
<g>
<title>ciTypeFlow::do_flow() (1 samples, 5.56%)</title><rect x="796.7" y="547.0" width="65.5" height="15" fill="#cfcf3e" rx="2" ry="2"/>
<text x="799.7" y="558.0">ciTypeF..</text>
</g>
<g>
<title>ciTypeFlow::flow_types() (1 samples, 5.56%)</title><rect x="796.7" y="531.0" width="65.5" height="15" fill="#e5e545" rx="2" ry="2"/>
<text x="799.7" y="542.0">ciTypeF..</text>
</g>
<g>
<title>ciTypeFlow::df_flow_types(ciTypeFlow::Block*, bool, ciTypeFlow::StateVector*, ciTypeFlow::JsrSet*) (1 samples, 5.56%)</title><rect x="796.7" y="515.0" width="65.5" height="15" fill="#e3e345" rx="2" ry="2"/>
<text x="799.7" y="526.0">ciTypeF..</text>
</g>
<g>
<title>ciTypeFlow::flow_block(ciTypeFlow::Block*, ciTypeFlow::StateVector*, ciTypeFlow::JsrSet*) (1 samples, 5.56%)</title><rect x="796.7" y="499.0" width="65.5" height="15" fill="#e1e144" rx="2" ry="2"/>
<text x="799.7" y="510.0">ciTypeF..</text>
</g>
<g>
<title>ciTypeFlow::StateVector::apply_one_bytecode(ciBytecodeStream*) (1 samples, 5.56%)</title><rect x="796.7" y="483.0" width="65.5" height="15" fill="#cfcf3e" rx="2" ry="2"/>
<text x="799.7" y="494.0">ciTypeF..</text>
</g>
<g>
<title>ciTypeFlow::StateVector::do_invoke(ciBytecodeStream*, bool) (1 samples, 5.56%)</title><rect x="796.7" y="467.0" width="65.5" height="15" fill="#d8d841" rx="2" ry="2"/>
<text x="799.7" y="478.0">ciTypeF..</text>
</g>
<g>
<title>ciBytecodeStream::get_method(bool&amp;, ciSignature**) (1 samples, 5.56%)</title><rect x="796.7" y="451.0" width="65.5" height="15" fill="#d3d33f" rx="2" ry="2"/>
<text x="799.7" y="462.0">ciBytec..</text>
</g>
<g>
<title>ciEnv::get_method_by_index(constantPoolHandle, int, Bytecodes::Code, ciInstanceKlass*) (1 samples, 5.56%)</title><rect x="796.7" y="435.0" width="65.5" height="15" fill="#dede43" rx="2" ry="2"/>
<text x="799.7" y="446.0">ciEnv::..</text>
</g>
<g>
<title>ciEnv::get_method_by_index_impl(constantPoolHandle, int, Bytecodes::Code, ciInstanceKlass*) (1 samples, 5.56%)</title><rect x="796.7" y="419.0" width="65.5" height="15" fill="#d7d741" rx="2" ry="2"/>
<text x="799.7" y="430.0">ciEnv::..</text>
</g>
<g>
<title>ciObjectFactory::get_metadata(Metadata*) (1 samples, 5.56%)</title><rect x="796.7" y="403.0" width="65.5" height="15" fill="#dcdc42" rx="2" ry="2"/>
<text x="799.7" y="414.0">ciObjec..</text>
</g>
<g>
<title>ciObjectFactory::create_new_metadata(Metadata*) (1 samples, 5.56%)</title><rect x="796.7" y="387.0" width="65.5" height="15" fill="#d7d741" rx="2" ry="2"/>
<text x="799.7" y="398.0">ciObjec..</text>
</g>
<g>
<title>ciMethod::ciMethod(methodHandle, ciInstanceKlass*) (1 samples, 5.56%)</title><rect x="796.7" y="371.0" width="65.5" height="15" fill="#c9c93c" rx="2" ry="2"/>
<text x="799.7" y="382.0">ciMetho..</text>
</g>
<g>
<title>ciObjectFactory::get_symbol(Symbol*) (1 samples, 5.56%)</title><rect x="796.7" y="355.0" width="65.5" height="15" fill="#d5d540" rx="2" ry="2"/>
<text x="799.7" y="366.0">ciObjec..</text>
</g>
<g>
<title>Atomic::inc(short volatile*) (1 samples, 5.56%)</title><rect x="796.7" y="339.0" width="65.5" height="15" fill="#e3e345" rx="2" ry="2"/>
<text x="799.7" y="350.0">Atomic:..</text>
</g>
<g>
<title>ParseGenerator::generate(JVMState*) (1 samples, 5.56%)</title><rect x="862.2" y="595.0" width="65.6" height="15" fill="#e3e345" rx="2" ry="2"/>
<text x="865.2" y="606.0">ParseGe..</text>
</g>
<g>
<title>Parse::Parse(JVMState*, ciMethod*, float) (1 samples, 5.56%)</title><rect x="862.2" y="579.0" width="65.6" height="15" fill="#dddd43" rx="2" ry="2"/>
<text x="865.2" y="590.0">Parse::..</text>
</g>
<g>
<title>Parse::do_all_blocks() (1 samples, 5.56%)</title><rect x="862.2" y="563.0" width="65.6" height="15" fill="#d0d03e" rx="2" ry="2"/>
<text x="865.2" y="574.0">Parse::..</text>
</g>
<g>
<title>Parse::do_one_block() (1 samples, 5.56%)</title><rect x="862.2" y="547.0" width="65.6" height="15" fill="#dede43" rx="2" ry="2"/>
<text x="865.2" y="558.0">Parse::..</text>
</g>
<g>
<title>Parse::do_one_bytecode() (1 samples, 5.56%)</title><rect x="862.2" y="531.0" width="65.6" height="15" fill="#dbdb42" rx="2" ry="2"/>
<text x="865.2" y="542.0">Parse::..</text>
</g>
<g>
<title>Parse::do_call() (1 samples, 5.56%)</title><rect x="862.2" y="515.0" width="65.6" height="15" fill="#d2d23f" rx="2" ry="2"/>
<text x="865.2" y="526.0">Parse::..</text>
</g>
<g>
<title>ParseGenerator::generate(JVMState*) (1 samples, 5.56%)</title><rect x="862.2" y="499.0" width="65.6" height="15" fill="#dcdc42" rx="2" ry="2"/>
<text x="865.2" y="510.0">ParseGe..</text>
</g>
<g>
<title>Parse::Parse(JVMState*, ciMethod*, float) (1 samples, 5.56%)</title><rect x="862.2" y="483.0" width="65.6" height="15" fill="#cccc3d" rx="2" ry="2"/>
<text x="865.2" y="494.0">Parse::..</text>
</g>
<g>
<title>Parse::do_all_blocks() (1 samples, 5.56%)</title><rect x="862.2" y="467.0" width="65.6" height="15" fill="#d5d540" rx="2" ry="2"/>
<text x="865.2" y="478.0">Parse::..</text>
</g>
<g>
<title>Parse::do_one_block() (1 samples, 5.56%)</title><rect x="862.2" y="451.0" width="65.6" height="15" fill="#e2e244" rx="2" ry="2"/>
<text x="865.2" y="462.0">Parse::..</text>
</g>
<g>
<title>Parse::do_one_bytecode() (1 samples, 5.56%)</title><rect x="862.2" y="435.0" width="65.6" height="15" fill="#e0e044" rx="2" ry="2"/>
<text x="865.2" y="446.0">Parse::..</text>
</g>
<g>
<title>Parse::do_call() (1 samples, 5.56%)</title><rect x="862.2" y="419.0" width="65.6" height="15" fill="#d1d13f" rx="2" ry="2"/>
<text x="865.2" y="430.0">Parse::..</text>
</g>
<g>
<title>PredictedCallGenerator::generate(JVMState*) (1 samples, 5.56%)</title><rect x="862.2" y="403.0" width="65.6" height="15" fill="#cece3e" rx="2" ry="2"/>
<text x="865.2" y="414.0">Predict..</text>
</g>
<g>
<title>ParseGenerator::generate(JVMState*) (1 samples, 5.56%)</title><rect x="862.2" y="387.0" width="65.6" height="15" fill="#e2e244" rx="2" ry="2"/>
<text x="865.2" y="398.0">ParseGe..</text>
</g>
<g>
<title>Parse::Parse(JVMState*, ciMethod*, float) (1 samples, 5.56%)</title><rect x="862.2" y="371.0" width="65.6" height="15" fill="#d2d23f" rx="2" ry="2"/>
<text x="865.2" y="382.0">Parse::..</text>
</g>
<g>
<title>Parse::do_all_blocks() (1 samples, 5.56%)</title><rect x="862.2" y="355.0" width="65.6" height="15" fill="#dcdc42" rx="2" ry="2"/>
<text x="865.2" y="366.0">Parse::..</text>
</g>
<g>
<title>Parse::do_one_block() (1 samples, 5.56%)</title><rect x="862.2" y="339.0" width="65.6" height="15" fill="#e4e445" rx="2" ry="2"/>
<text x="865.2" y="350.0">Parse::..</text>
</g>
<g>
<title>Parse::do_one_bytecode() (1 samples, 5.56%)</title><rect x="862.2" y="323.0" width="65.6" height="15" fill="#d9d941" rx="2" ry="2"/>
<text x="865.2" y="334.0">Parse::..</text>
</g>
<g>
<title>Parse::do_call() (1 samples, 5.56%)</title><rect x="862.2" y="307.0" width="65.6" height="15" fill="#dbdb42" rx="2" ry="2"/>
<text x="865.2" y="318.0">Parse::..</text>
</g>
<g>
<title>ParseGenerator::generate(JVMState*) (1 samples, 5.56%)</title><rect x="862.2" y="291.0" width="65.6" height="15" fill="#e1e144" rx="2" ry="2"/>
<text x="865.2" y="302.0">ParseGe..</text>
</g>
<g>
<title>Parse::Parse(JVMState*, ciMethod*, float) (1 samples, 5.56%)</title><rect x="862.2" y="275.0" width="65.6" height="15" fill="#d5d540" rx="2" ry="2"/>
<text x="865.2" y="286.0">Parse::..</text>
</g>
<g>
<title>Parse::do_all_blocks() (1 samples, 5.56%)</title><rect x="862.2" y="259.0" width="65.6" height="15" fill="#e3e345" rx="2" ry="2"/>
<text x="865.2" y="270.0">Parse::..</text>
</g>
<g>
<title>Parse::do_one_block() (1 samples, 5.56%)</title><rect x="862.2" y="243.0" width="65.6" height="15" fill="#d3d33f" rx="2" ry="2"/>
<text x="865.2" y="254.0">Parse::..</text>
</g>
<g>
<title>Parse::do_one_bytecode() (1 samples, 5.56%)</title><rect x="862.2" y="227.0" width="65.6" height="15" fill="#e0e044" rx="2" ry="2"/>
<text x="865.2" y="238.0">Parse::..</text>
</g>
<g>
<title>Parse::do_call() (1 samples, 5.56%)</title><rect x="862.2" y="211.0" width="65.6" height="15" fill="#dcdc42" rx="2" ry="2"/>
<text x="865.2" y="222.0">Parse::..</text>
</g>
<g>
<title>ParseGenerator::generate(JVMState*) (1 samples, 5.56%)</title><rect x="862.2" y="195.0" width="65.6" height="15" fill="#e3e345" rx="2" ry="2"/>
<text x="865.2" y="206.0">ParseGe..</text>
</g>
<g>
<title>Parse::Parse(JVMState*, ciMethod*, float) (1 samples, 5.56%)</title><rect x="862.2" y="179.0" width="65.6" height="15" fill="#d6d640" rx="2" ry="2"/>
<text x="865.2" y="190.0">Parse::..</text>
</g>
<g>
<title>Parse::do_all_blocks() (1 samples, 5.56%)</title><rect x="862.2" y="163.0" width="65.6" height="15" fill="#cece3e" rx="2" ry="2"/>
<text x="865.2" y="174.0">Parse::..</text>
</g>
<g>
<title>Parse::do_one_block() (1 samples, 5.56%)</title><rect x="862.2" y="147.0" width="65.6" height="15" fill="#e4e445" rx="2" ry="2"/>
<text x="865.2" y="158.0">Parse::..</text>
</g>
<g>
<title>Parse::do_one_bytecode() (1 samples, 5.56%)</title><rect x="862.2" y="131.0" width="65.6" height="15" fill="#e3e345" rx="2" ry="2"/>
<text x="865.2" y="142.0">Parse::..</text>
</g>
<g>
<title>Parse::do_call() (1 samples, 5.56%)</title><rect x="862.2" y="115.0" width="65.6" height="15" fill="#cccc3d" rx="2" ry="2"/>
<text x="865.2" y="126.0">Parse::..</text>
</g>
<g>
<title>ParseGenerator::generate(JVMState*) (1 samples, 5.56%)</title><rect x="862.2" y="99.0" width="65.6" height="15" fill="#e2e244" rx="2" ry="2"/>
<text x="865.2" y="110.0">ParseGe..</text>
</g>
<g>
<title>Parse::Parse(JVMState*, ciMethod*, float) (1 samples, 5.56%)</title><rect x="862.2" y="83.0" width="65.6" height="15" fill="#dbdb42" rx="2" ry="2"/>
<text x="865.2" y="94.0">Parse::..</text>
</g>
<g>
<title>Parse::build_exits() (1 samples, 5.56%)</title><rect x="862.2" y="67.0" width="65.6" height="15" fill="#d4d440" rx="2" ry="2"/>
<text x="865.2" y="78.0">Parse::..</text>
</g>
<g>
<title>GraphKit::clone_map() (1 samples, 5.56%)</title><rect x="862.2" y="51.0" width="65.6" height="15" fill="#dada42" rx="2" ry="2"/>
<text x="865.2" y="62.0">GraphKi..</text>
</g>
<g>
<title>Node::clone() const (1 samples, 5.56%)</title><rect x="862.2" y="35.0" width="65.6" height="15" fill="#d0d03e" rx="2" ry="2"/>
<text x="865.2" y="46.0">Node::c..</text>
</g>
<g>
<title>PhaseRemoveUseless::PhaseRemoveUseless(PhaseGVN*, Unique_Node_List*, Phase::PhaseNumber) (1 samples, 5.56%)</title><rect x="927.8" y="691.0" width="65.5" height="15" fill="#dfdf43" rx="2" ry="2"/>
<text x="930.8" y="702.0">PhaseRe..</text>
</g>
<g>
<title>RegionNode::Opcode() const (1 samples, 5.56%)</title><rect x="927.8" y="675.0" width="65.5" height="15" fill="#d1d13f" rx="2" ry="2"/>
<text x="930.8" y="686.0">RegionN..</text>
</g>
<g>
<title>ciEnv::register_method(ciMethod*, int, CodeOffsets*, int, CodeBuffer*, int, OopMapSet*, ExceptionHandlerTable*, ImplicitExceptionTable*, AbstractCompiler*, int, bool, bool, RTMState) (1 samples, 5.56%)</title><rect x="993.3" y="691.0" width="65.6" height="15" fill="#d5d540" rx="2" ry="2"/>
<text x="996.3" y="702.0">ciEnv::..</text>
</g>
<g>
<title>nmethod::new_nmethod(methodHandle, int, int, CodeOffsets*, int, DebugInformationRecorder*, Dependencies*, CodeBuffer*, int, OopMapSet*, ExceptionHandlerTable*, ImplicitExceptionTable*, AbstractCompiler*, int) (1 samples, 5.56%)</title><rect x="993.3" y="675.0" width="65.6" height="15" fill="#cece3e" rx="2" ry="2"/>
<text x="996.3" y="686.0">nmethod..</text>
</g>
<g>
<title>InstanceKlass::add_dependent_nmethod(nmethod*) (1 samples, 5.56%)</title><rect x="993.3" y="659.0" width="65.6" height="15" fill="#cdcd3d" rx="2" ry="2"/>
<text x="996.3" y="670.0">Instanc..</text>
</g>
<g>
<title>Compiler::compile_method(ciEnv*, ciMethod*, int) (1 samples, 5.56%)</title><rect x="1058.9" y="723.0" width="65.5" height="15" fill="#d0d03e" rx="2" ry="2"/>
<text x="1061.9" y="734.0">Compile..</text>
</g>
<g>
<title>Compilation::Compilation(AbstractCompiler*, ciEnv*, ciMethod*, int, BufferBlob*) (1 samples, 5.56%)</title><rect x="1058.9" y="707.0" width="65.5" height="15" fill="#d8d841" rx="2" ry="2"/>
<text x="1061.9" y="718.0">Compila..</text>
</g>
<g>
<title>Compilation::compile_method() (1 samples, 5.56%)</title><rect x="1058.9" y="691.0" width="65.5" height="15" fill="#d4d440" rx="2" ry="2"/>
<text x="1061.9" y="702.0">Compila..</text>
</g>
<g>
<title>Compilation::compile_java_method() (1 samples, 5.56%)</title><rect x="1058.9" y="675.0" width="65.5" height="15" fill="#cdcd3d" rx="2" ry="2"/>
<text x="1061.9" y="686.0">Compila..</text>
</g>
<g>
<title>Compilation::build_hir() (1 samples, 5.56%)</title><rect x="1058.9" y="659.0" width="65.5" height="15" fill="#e3e345" rx="2" ry="2"/>
<text x="1061.9" y="670.0">Compila..</text>
</g>
<g>
<title>IR::IR(Compilation*, ciMethod*, int) (1 samples, 5.56%)</title><rect x="1058.9" y="643.0" width="65.5" height="15" fill="#cbcb3d" rx="2" ry="2"/>
<text x="1061.9" y="654.0">IR::IR(..</text>
</g>
<g>
<title>IRScope::IRScope(Compilation*, IRScope*, int, ciMethod*, int, bool) (1 samples, 5.56%)</title><rect x="1058.9" y="627.0" width="65.5" height="15" fill="#cbcb3d" rx="2" ry="2"/>
<text x="1061.9" y="638.0">IRScope..</text>
</g>
<g>
<title>GraphBuilder::GraphBuilder(Compilation*, IRScope*) (1 samples, 5.56%)</title><rect x="1058.9" y="611.0" width="65.5" height="15" fill="#d6d640" rx="2" ry="2"/>
<text x="1061.9" y="622.0">GraphBu..</text>
</g>
<g>
<title>GraphBuilder::iterate_all_blocks(bool) (1 samples, 5.56%)</title><rect x="1058.9" y="595.0" width="65.5" height="15" fill="#dede43" rx="2" ry="2"/>
<text x="1061.9" y="606.0">GraphBu..</text>
</g>
<g>
<title>GraphBuilder::iterate_bytecodes_for_block(int) (1 samples, 5.56%)</title><rect x="1058.9" y="579.0" width="65.5" height="15" fill="#e5e545" rx="2" ry="2"/>
<text x="1061.9" y="590.0">GraphBu..</text>
</g>
<g>
<title>GraphBuilder::access_field(Bytecodes::Code) (1 samples, 5.56%)</title><rect x="1058.9" y="563.0" width="65.5" height="15" fill="#e4e445" rx="2" ry="2"/>
<text x="1061.9" y="574.0">GraphBu..</text>
</g>
<g>
<title>ciBytecodeStream::get_field(bool&amp;) (1 samples, 5.56%)</title><rect x="1058.9" y="547.0" width="65.5" height="15" fill="#dcdc42" rx="2" ry="2"/>
<text x="1061.9" y="558.0">ciBytec..</text>
</g>
<g>
<title>ciEnv::get_field_by_index(ciInstanceKlass*, int) (1 samples, 5.56%)</title><rect x="1058.9" y="531.0" width="65.5" height="15" fill="#d3d33f" rx="2" ry="2"/>
<text x="1061.9" y="542.0">ciEnv::..</text>
</g>
<g>
<title>ciEnv::get_field_by_index_impl(ciInstanceKlass*, int) (1 samples, 5.56%)</title><rect x="1058.9" y="515.0" width="65.5" height="15" fill="#dede43" rx="2" ry="2"/>
<text x="1061.9" y="526.0">ciEnv::..</text>
</g>
<g>
<title>ciField::ciField(ciInstanceKlass*, int) (1 samples, 5.56%)</title><rect x="1058.9" y="499.0" width="65.5" height="15" fill="#d3d33f" rx="2" ry="2"/>
<text x="1061.9" y="510.0">ciField..</text>
</g>
<g>
<title>ciEnv::get_klass_by_index(constantPoolHandle, int, bool&amp;, ciInstanceKlass*) (1 samples, 5.56%)</title><rect x="1058.9" y="483.0" width="65.5" height="15" fill="#d0d03e" rx="2" ry="2"/>
<text x="1061.9" y="494.0">ciEnv::..</text>
</g>
<g>
<title>ciEnv::get_klass_by_index_impl(constantPoolHandle, int, bool&amp;, ciInstanceKlass*) (1 samples, 5.56%)</title><rect x="1058.9" y="467.0" width="65.5" height="15" fill="#cece3e" rx="2" ry="2"/>
<text x="1061.9" y="478.0">ciEnv::..</text>
</g>
<g>
<title>ciEnv::get_klass_by_name_impl(ciKlass*, constantPoolHandle, ciSymbol*, bool) (1 samples, 5.56%)</title><rect x="1058.9" y="451.0" width="65.5" height="15" fill="#d9d941" rx="2" ry="2"/>
<text x="1061.9" y="462.0">ciEnv::..</text>
</g>
<g>
<title>ciEnv::get_klass_by_name_impl(ciKlass*, constantPoolHandle, ciSymbol*, bool) (1 samples, 5.56%)</title><rect x="1058.9" y="435.0" width="65.5" height="15" fill="#cfcf3e" rx="2" ry="2"/>
<text x="1061.9" y="446.0">ciEnv::..</text>
</g>
<g>
<title>SystemDictionary::find_constrained_instance_or_array_klass(Symbol*, Handle, Thread*) (1 samples, 5.56%)</title><rect x="1058.9" y="419.0" width="65.5" height="15" fill="#cccc3d" rx="2" ry="2"/>
<text x="1061.9" y="430.0">SystemD..</text>
</g>
<g>
<title>SystemDictionary::find(Symbol*, Handle, Handle, Thread*) (1 samples, 5.56%)</title><rect x="1058.9" y="403.0" width="65.5" height="15" fill="#dddd43" rx="2" ry="2"/>
<text x="1061.9" y="414.0">SystemD..</text>
</g>
<g>
<title>Dictionary::find(int, unsigned int, Symbol*, ClassLoaderData*, Handle, Thread*) (1 samples, 5.56%)</title><rect x="1058.9" y="387.0" width="65.5" height="15" fill="#cbcb3d" rx="2" ry="2"/>
<text x="1061.9" y="398.0">Diction..</text>
</g>
<g>
<title>CompileQueue::get() (1 samples, 5.56%)</title><rect x="1124.4" y="739.0" width="65.6" height="15" fill="#dfdf43" rx="2" ry="2"/>
<text x="1127.4" y="750.0">Compile..</text>
</g>
<g>
<title>Monitor::wait(bool, long, bool) (1 samples, 5.56%)</title><rect x="1124.4" y="723.0" width="65.6" height="15" fill="#cccc3d" rx="2" ry="2"/>
<text x="1127.4" y="734.0">Monitor..</text>
</g>
<g>
<title>Monitor::IWait(Thread*, long) (1 samples, 5.56%)</title><rect x="1124.4" y="707.0" width="65.6" height="15" fill="#dede43" rx="2" ry="2"/>
<text x="1127.4" y="718.0">Monitor..</text>
</g>
<g>
<title>os::PlatformEvent::park(long) (1 samples, 5.56%)</title><rect x="1124.4" y="691.0" width="65.6" height="15" fill="#caca3c" rx="2" ry="2"/>
<text x="1127.4" y="702.0">os::Pla..</text>
</g>
</g>
</svg>
