<?xml version="1.0" standalone="no"?>
<!DOCTYPE svg PUBLIC "-//W3C//DTD SVG 1.1//EN" "http://www.w3.org/Graphics/SVG/1.1/DTD/svg11.dtd">
<svg version="1.1" width="1200" height="1078" onload="init(evt)" viewBox="0 0 1200 1078" xmlns="http://www.w3.org/2000/svg" xmlns:xlink="http://www.w3.org/1999/xlink">
<style type="text/css">
	text { font-family:Verdana; font-size:12px; fill:rgb(0,0,0); }
	#search { opacity:0.1; cursor:pointer; }
	#search:hover, #search.show { opacity:1; }
	#subtitle { text-anchor:middle; font-color:rgb(160,160,160); }
	#title { text-anchor:middle; font-size:17px}
	#unzoom { cursor:pointer; }
	#frames > *:hover { stroke:black; stroke-width:0.5; cursor:pointer; }
	.hide { display:none; }
	.parent { opacity:0.5; }
</style>
<script type="text/ecmascript">
<![CDATA[
	"use strict";
	var details, searchbtn, unzoombtn, matchedtxt, svg, searching;
	function init(evt) {
		details = document.getElementById("details").firstChild;
		searchbtn = document.getElementById("search");
		unzoombtn = document.getElementById("unzoom");
		matchedtxt = document.getElementById("matched");
		svg = document.getElementsByTagName("svg")[0];
		searching = 0;
	}

	window.addEventListener("click", function(e) {
		var target = find_group(e.target);
		if (target) {
			if (target.nodeName == "a") {
				if (e.ctrlKey === false) return;
				e.preventDefault();
			}
			if (target.classList.contains("parent")) unzoom();
			zoom(target);
		}
		else if (e.target.id == "unzoom") unzoom();
		else if (e.target.id == "search") search_prompt();
	}, false)

	// mouse-over for info
	// show
	window.addEventListener("mouseover", function(e) {
		var target = find_group(e.target);
		if (target) details.nodeValue = "Function: " + g_to_text(target);
	}, false)

	// clear
	window.addEventListener("mouseout", function(e) {
		var target = find_group(e.target);
		if (target) details.nodeValue = ' ';
	}, false)

	// ctrl-F for search
	window.addEventListener("keydown",function (e) {
		if (e.keyCode === 114 || (e.ctrlKey && e.keyCode === 70)) {
			e.preventDefault();
			search_prompt();
		}
	}, false)

	// functions
	function find_child(node, selector) {
		var children = node.querySelectorAll(selector);
		if (children.length) return children[0];
		return;
	}
	function find_group(node) {
		var parent = node.parentElement;
		if (!parent) return;
		if (parent.id == "frames") return node;
		return find_group(parent);
	}
	function orig_save(e, attr, val) {
		if (e.attributes["_orig_" + attr] != undefined) return;
		if (e.attributes[attr] == undefined) return;
		if (val == undefined) val = e.attributes[attr].value;
		e.setAttribute("_orig_" + attr, val);
	}
	function orig_load(e, attr) {
		if (e.attributes["_orig_"+attr] == undefined) return;
		e.attributes[attr].value = e.attributes["_orig_" + attr].value;
		e.removeAttribute("_orig_"+attr);
	}
	function g_to_text(e) {
		var text = find_child(e, "title").firstChild.nodeValue;
		return (text)
	}
	function g_to_func(e) {
		var func = g_to_text(e);
		// if there's any manipulation we want to do to the function
		// name before it's searched, do it here before returning.
		return (func);
	}
	function update_text(e) {
		var r = find_child(e, "rect");
		var t = find_child(e, "text");
		var w = parseFloat(r.attributes.width.value) -3;
		var txt = find_child(e, "title").textContent.replace(/\([^(]*\)$/,"");
		t.attributes.x.value = parseFloat(r.attributes.x.value) + 3;

		// Smaller than this size won't fit anything
		if (w < 2 * 12 * 0.59) {
			t.textContent = "";
			return;
		}

		t.textContent = txt;
		// Fit in full text width
		if (/^ *$/.test(txt) || t.getSubStringLength(0, txt.length) < w)
			return;

		for (var x = txt.length - 2; x > 0; x--) {
			if (t.getSubStringLength(0, x + 2) <= w) {
				t.textContent = txt.substring(0, x) + "..";
				return;
			}
		}
		t.textContent = "";
	}

	// zoom
	function zoom_reset(e) {
		if (e.attributes != undefined) {
			orig_load(e, "x");
			orig_load(e, "width");
		}
		if (e.childNodes == undefined) return;
		for (var i = 0, c = e.childNodes; i < c.length; i++) {
			zoom_reset(c[i]);
		}
	}
	function zoom_child(e, x, ratio) {
		if (e.attributes != undefined) {
			if (e.attributes.x != undefined) {
				orig_save(e, "x");
				e.attributes.x.value = (parseFloat(e.attributes.x.value) - x - 10) * ratio + 10;
				if (e.tagName == "text")
					e.attributes.x.value = find_child(e.parentNode, "rect[x]").attributes.x.value + 3;
			}
			if (e.attributes.width != undefined) {
				orig_save(e, "width");
				e.attributes.width.value = parseFloat(e.attributes.width.value) * ratio;
			}
		}

		if (e.childNodes == undefined) return;
		for (var i = 0, c = e.childNodes; i < c.length; i++) {
			zoom_child(c[i], x - 10, ratio);
		}
	}
	function zoom_parent(e) {
		if (e.attributes) {
			if (e.attributes.x != undefined) {
				orig_save(e, "x");
				e.attributes.x.value = 10;
			}
			if (e.attributes.width != undefined) {
				orig_save(e, "width");
				e.attributes.width.value = parseInt(svg.width.baseVal.value) - (10 * 2);
			}
		}
		if (e.childNodes == undefined) return;
		for (var i = 0, c = e.childNodes; i < c.length; i++) {
			zoom_parent(c[i]);
		}
	}
	function zoom(node) {
		var attr = find_child(node, "rect").attributes;
		var width = parseFloat(attr.width.value);
		var xmin = parseFloat(attr.x.value);
		var xmax = parseFloat(xmin + width);
		var ymin = parseFloat(attr.y.value);
		var ratio = (svg.width.baseVal.value - 2 * 10) / width;

		// XXX: Workaround for JavaScript float issues (fix me)
		var fudge = 0.0001;

		unzoombtn.classList.remove("hide");

		var el = document.getElementById("frames").children;
		for (var i = 0; i < el.length; i++) {
			var e = el[i];
			var a = find_child(e, "rect").attributes;
			var ex = parseFloat(a.x.value);
			var ew = parseFloat(a.width.value);
			var upstack;
			// Is it an ancestor
			if (0 == 0) {
				upstack = parseFloat(a.y.value) > ymin;
			} else {
				upstack = parseFloat(a.y.value) < ymin;
			}
			if (upstack) {
				// Direct ancestor
				if (ex <= xmin && (ex+ew+fudge) >= xmax) {
					e.classList.add("parent");
					zoom_parent(e);
					update_text(e);
				}
				// not in current path
				else
					e.classList.add("hide");
			}
			// Children maybe
			else {
				// no common path
				if (ex < xmin || ex + fudge >= xmax) {
					e.classList.add("hide");
				}
				else {
					zoom_child(e, xmin, ratio);
					update_text(e);
				}
			}
		}
	}
	function unzoom() {
		unzoombtn.classList.add("hide");
		var el = document.getElementById("frames").children;
		for(var i = 0; i < el.length; i++) {
			el[i].classList.remove("parent");
			el[i].classList.remove("hide");
			zoom_reset(el[i]);
			update_text(el[i]);
		}
	}

	// search
	function reset_search() {
		var el = document.querySelectorAll("#frames rect");
		for (var i = 0; i < el.length; i++) {
			orig_load(el[i], "fill")
		}
	}
	function search_prompt() {
		if (!searching) {
			var term = prompt("Enter a search term (regexp " +
			    "allowed, eg: ^ext4_)", "");
			if (term != null) {
				search(term)
			}
		} else {
			reset_search();
			searching = 0;
			searchbtn.classList.remove("show");
			searchbtn.firstChild.nodeValue = "Search"
			matchedtxt.classList.add("hide");
			matchedtxt.firstChild.nodeValue = ""
		}
	}
	function search(term) {
		var re = new RegExp(term);
		var el = document.getElementById("frames").children;
		var matches = new Object();
		var maxwidth = 0;
		for (var i = 0; i < el.length; i++) {
			var e = el[i];
			var func = g_to_func(e);
			var rect = find_child(e, "rect");
			if (func == null || rect == null)
				continue;

			// Save max width. Only works as we have a root frame
			var w = parseFloat(rect.attributes.width.value);
			if (w > maxwidth)
				maxwidth = w;

			if (func.match(re)) {
				// highlight
				var x = parseFloat(rect.attributes.x.value);
				orig_save(rect, "fill");
				rect.attributes.fill.value = "rgb(230,0,230)";

				// remember matches
				if (matches[x] == undefined) {
					matches[x] = w;
				} else {
					if (w > matches[x]) {
						// overwrite with parent
						matches[x] = w;
					}
				}
				searching = 1;
			}
		}
		if (!searching)
			return;

		searchbtn.classList.add("show");
		searchbtn.firstChild.nodeValue = "Reset Search";

		// calculate percent matched, excluding vertical overlap
		var count = 0;
		var lastx = -1;
		var lastw = 0;
		var keys = Array();
		for (k in matches) {
			if (matches.hasOwnProperty(k))
				keys.push(k);
		}
		// sort the matched frames by their x location
		// ascending, then width descending
		keys.sort(function(a, b){
			return a - b;
		});
		// Step through frames saving only the biggest bottom-up frames
		// thanks to the sort order. This relies on the tree property
		// where children are always smaller than their parents.
		var fudge = 0.0001;	// JavaScript floating point
		for (var k in keys) {
			var x = parseFloat(keys[k]);
			var w = matches[keys[k]];
			if (x >= lastx + lastw - fudge) {
				count += w;
				lastx = x;
				lastw = w;
			}
		}
		// display matched percent
		matchedtxt.classList.remove("hide");
		var pct = 100 * count / maxwidth;
		if (pct != 100) pct = pct.toFixed(1)
		matchedtxt.firstChild.nodeValue = "Matched: " + pct + "%";
	}
]]>
</script>
<rect x="0" y="0" width="100%" height="100%" fill="rgb(240,240,220)"/>
<text id="title" x="600" y="24">Flame Graph</text>
<text id="details" x="10" y="1061"> </text>
<text id="unzoom" x="10" y="24" class="hide">Reset Zoom</text>
<text id="search" x="1090" y="24">Search</text>
<text id="matched" x="1090" y="1061"> </text>
<g id="frames">
<g>
<title>all (26 samples, 100.00%)</title><rect x="10.0" y="1027.0" width="1180.0" height="15" fill="#fa7b7b" rx="2" ry="2"/>
<text x="13.0" y="1038.0">all</text>
</g>
<g>
<title>[unknown_Java] (1 samples, 3.85%)</title><rect x="10.0" y="1011.0" width="45.4" height="15" fill="#ec6969" rx="2" ry="2"/>
<text x="13.0" y="1022.0">[unk..</text>
</g>
<g>
<title>Interpreter (1 samples, 3.85%)</title><rect x="10.0" y="995.0" width="45.4" height="15" fill="#f87979" rx="2" ry="2"/>
<text x="13.0" y="1006.0">Inte..</text>
</g>
<g>
<title>com/linecorp/decaton/processor/runtime/ProcessorSubscription.run (1 samples, 3.85%)</title><rect x="55.4" y="1011.0" width="45.4" height="15" fill="#67f867" rx="2" ry="2"/>
<text x="58.4" y="1022.0">com/..</text>
</g>
<g>
<title>com/linecorp/decaton/processor/runtime/ProcessorSubscription.pollOnce (1 samples, 3.85%)</title><rect x="55.4" y="995.0" width="45.4" height="15" fill="#6bfc6b" rx="2" ry="2"/>
<text x="58.4" y="1006.0">com/..</text>
</g>
<g>
<title>java/lang/Iterable.forEach (1 samples, 3.85%)</title><rect x="55.4" y="979.0" width="45.4" height="15" fill="#55e655" rx="2" ry="2"/>
<text x="58.4" y="990.0">java..</text>
</g>
<g>
<title>com/linecorp/decaton/processor/runtime/ProcessorSubscription$$Lambda$246/1771237048.accept (1 samples, 3.85%)</title><rect x="55.4" y="963.0" width="45.4" height="15" fill="#5aeb5a" rx="2" ry="2"/>
<text x="58.4" y="974.0">com/..</text>
</g>
<g>
<title>com/linecorp/decaton/processor/runtime/ProcessorSubscription.lambda$pollOnce$0 (1 samples, 3.85%)</title><rect x="55.4" y="947.0" width="45.4" height="15" fill="#67f867" rx="2" ry="2"/>
<text x="58.4" y="958.0">com/..</text>
</g>
<g>
<title>com/linecorp/decaton/processor/runtime/PartitionContext.addRequest (1 samples, 3.85%)</title><rect x="55.4" y="931.0" width="45.4" height="15" fill="#58e958" rx="2" ry="2"/>
<text x="58.4" y="942.0">com/..</text>
</g>
<g>
<title>com/linecorp/decaton/processor/runtime/PartitionProcessor.addTask (1 samples, 3.85%)</title><rect x="55.4" y="915.0" width="45.4" height="15" fill="#60f160" rx="2" ry="2"/>
<text x="58.4" y="926.0">com/..</text>
</g>
<g>
<title>com/linecorp/decaton/processor/runtime/ProcessorUnit.putTask (1 samples, 3.85%)</title><rect x="55.4" y="899.0" width="45.4" height="15" fill="#5eef5e" rx="2" ry="2"/>
<text x="58.4" y="910.0">com/..</text>
</g>
<g>
<title>java/util/concurrent/Executors$DelegatedExecutorService.execute (1 samples, 3.85%)</title><rect x="55.4" y="883.0" width="45.4" height="15" fill="#62f362" rx="2" ry="2"/>
<text x="58.4" y="894.0">java..</text>
</g>
<g>
<title>java/util/concurrent/ThreadPoolExecutor.execute (1 samples, 3.85%)</title><rect x="55.4" y="867.0" width="45.4" height="15" fill="#5aeb5a" rx="2" ry="2"/>
<text x="58.4" y="878.0">java..</text>
</g>
<g>
<title>java/util/concurrent/LinkedBlockingQueue.offer (1 samples, 3.85%)</title><rect x="55.4" y="851.0" width="45.4" height="15" fill="#5ff05f" rx="2" ry="2"/>
<text x="58.4" y="862.0">java..</text>
</g>
<g>
<title>java/util/concurrent/locks/AbstractQueuedSynchronizer$ConditionObject.signal (1 samples, 3.85%)</title><rect x="55.4" y="835.0" width="45.4" height="15" fill="#6cfd6c" rx="2" ry="2"/>
<text x="58.4" y="846.0">java..</text>
</g>
<g>
<title>java/util/concurrent/locks/AbstractQueuedSynchronizer$ConditionObject.doSignal (1 samples, 3.85%)</title><rect x="55.4" y="819.0" width="45.4" height="15" fill="#6bfc6b" rx="2" ry="2"/>
<text x="58.4" y="830.0">java..</text>
</g>
<g>
<title>java/util/concurrent/locks/AbstractQueuedSynchronizer.transferForSignal (1 samples, 3.85%)</title><rect x="55.4" y="803.0" width="45.4" height="15" fill="#63f463" rx="2" ry="2"/>
<text x="58.4" y="814.0">java..</text>
</g>
<g>
<title>start_thread (24 samples, 92.31%)</title><rect x="100.8" y="1011.0" width="1089.2" height="15" fill="#f67676" rx="2" ry="2"/>
<text x="103.8" y="1022.0">start_thread</text>
</g>
<g>
<title>java_start(Thread*) (24 samples, 92.31%)</title><rect x="100.8" y="995.0" width="1089.2" height="15" fill="#e55f5f" rx="2" ry="2"/>
<text x="103.8" y="1006.0">java_start(Thread*)</text>
</g>
<g>
<title>JavaThread::thread_main_inner() (24 samples, 92.31%)</title><rect x="100.8" y="979.0" width="1089.2" height="15" fill="#dada42" rx="2" ry="2"/>
<text x="103.8" y="990.0">JavaThread::thread_main_inner()</text>
</g>
<g>
<title>CompileBroker::compiler_thread_loop() (24 samples, 92.31%)</title><rect x="100.8" y="963.0" width="1089.2" height="15" fill="#c8c83c" rx="2" ry="2"/>
<text x="103.8" y="974.0">CompileBroker::compiler_thread_loop()</text>
</g>
<g>
<title>CompileBroker::invoke_compiler_on_method(CompileTask*) (23 samples, 88.46%)</title><rect x="100.8" y="947.0" width="1043.8" height="15" fill="#cfcf3e" rx="2" ry="2"/>
<text x="103.8" y="958.0">CompileBroker::invoke_compiler_on_method(CompileTask*)</text>
</g>
<g>
<title>C2Compiler::compile_method(ciEnv*, ciMethod*, int) (21 samples, 80.77%)</title><rect x="100.8" y="931.0" width="953.0" height="15" fill="#cccc3d" rx="2" ry="2"/>
<text x="103.8" y="942.0">C2Compiler::compile_method(ciEnv*, ciMethod*, int)</text>
</g>
<g>
<title>Compile::Compile(ciEnv*, C2Compiler*, ciMethod*, int, bool, bool, bool) (21 samples, 80.77%)</title><rect x="100.8" y="915.0" width="953.0" height="15" fill="#e0e044" rx="2" ry="2"/>
<text x="103.8" y="926.0">Compile::Compile(ciEnv*, C2Compiler*, ciMethod*, int, bool, bool, bool)</text>
</g>
<g>
<title>Compile::Code_Gen() (13 samples, 50.00%)</title><rect x="100.8" y="899.0" width="590.0" height="15" fill="#cccc3d" rx="2" ry="2"/>
<text x="103.8" y="910.0">Compile::Code_Gen()</text>
</g>
<g>
<title>Matcher::match() (2 samples, 7.69%)</title><rect x="100.8" y="883.0" width="90.7" height="15" fill="#d4d440" rx="2" ry="2"/>
<text x="103.8" y="894.0">Matcher::m..</text>
</g>
<g>
<title>CmpNNode::Opcode() const (1 samples, 3.85%)</title><rect x="100.8" y="867.0" width="45.4" height="15" fill="#cbcb3d" rx="2" ry="2"/>
<text x="103.8" y="878.0">CmpN..</text>
</g>
<g>
<title>Matcher::xform(Node*, int) (1 samples, 3.85%)</title><rect x="146.2" y="867.0" width="45.3" height="15" fill="#cbcb3d" rx="2" ry="2"/>
<text x="149.2" y="878.0">Matc..</text>
</g>
<g>
<title>Node::out_grow(unsigned int) (1 samples, 3.85%)</title><rect x="146.2" y="851.0" width="45.3" height="15" fill="#e5e545" rx="2" ry="2"/>
<text x="149.2" y="862.0">Node..</text>
</g>
<g>
<title>__memcpy_ssse3_back (1 samples, 3.85%)</title><rect x="146.2" y="835.0" width="45.3" height="15" fill="#e76262" rx="2" ry="2"/>
<text x="149.2" y="846.0">__me..</text>
</g>
<g>
<title>PhaseCFG::do_global_code_motion() (1 samples, 3.85%)</title><rect x="191.5" y="883.0" width="45.4" height="15" fill="#d7d741" rx="2" ry="2"/>
<text x="194.5" y="894.0">Phas..</text>
</g>
<g>
<title>PhaseCFG::global_code_motion() (1 samples, 3.85%)</title><rect x="191.5" y="867.0" width="45.4" height="15" fill="#e1e144" rx="2" ry="2"/>
<text x="194.5" y="878.0">Phas..</text>
</g>
<g>
<title>PhaseChaitin::Register_Allocate() (10 samples, 38.46%)</title><rect x="236.9" y="883.0" width="453.9" height="15" fill="#dada42" rx="2" ry="2"/>
<text x="239.9" y="894.0">PhaseChaitin::Register_Allocate()</text>
</g>
<g>
<title>Node::jvms() const (1 samples, 3.85%)</title><rect x="236.9" y="867.0" width="45.4" height="15" fill="#d0d03e" rx="2" ry="2"/>
<text x="239.9" y="878.0">Node..</text>
</g>
<g>
<title>PhaseChaitin::Select() (3 samples, 11.54%)</title><rect x="282.3" y="867.0" width="136.2" height="15" fill="#dbdb42" rx="2" ry="2"/>
<text x="285.3" y="878.0">PhaseChaitin::Sel..</text>
</g>
<g>
<title>IndexSetIterator::advance_and_next() (1 samples, 3.85%)</title><rect x="373.1" y="851.0" width="45.4" height="15" fill="#d7d741" rx="2" ry="2"/>
<text x="376.1" y="862.0">Inde..</text>
</g>
<g>
<title>PhaseChaitin::Split(unsigned int, ResourceArea*) (1 samples, 3.85%)</title><rect x="418.5" y="867.0" width="45.3" height="15" fill="#d6d640" rx="2" ry="2"/>
<text x="421.5" y="878.0">Phas..</text>
</g>
<g>
<title>PhaseChaitin::build_ifg_physical(ResourceArea*) (2 samples, 7.69%)</title><rect x="463.8" y="867.0" width="90.8" height="15" fill="#e5e545" rx="2" ry="2"/>
<text x="466.8" y="878.0">PhaseChait..</text>
</g>
<g>
<title>PhaseChaitin::interfere_with_live(unsigned int, IndexSet*) (1 samples, 3.85%)</title><rect x="463.8" y="851.0" width="45.4" height="15" fill="#d0d03e" rx="2" ry="2"/>
<text x="466.8" y="862.0">Phas..</text>
</g>
<g>
<title>lower_pressure(LRG*, unsigned int, Block*, unsigned int*, unsigned int*) [clone .isra.134] (1 samples, 3.85%)</title><rect x="509.2" y="851.0" width="45.4" height="15" fill="#f87878" rx="2" ry="2"/>
<text x="512.2" y="862.0">lowe..</text>
</g>
<g>
<title>PhaseChaitin::build_ifg_virtual() (1 samples, 3.85%)</title><rect x="554.6" y="867.0" width="45.4" height="15" fill="#d7d741" rx="2" ry="2"/>
<text x="557.6" y="878.0">Phas..</text>
</g>
<g>
<title>PhaseChaitin::interfere_with_live(unsigned int, IndexSet*) (1 samples, 3.85%)</title><rect x="554.6" y="851.0" width="45.4" height="15" fill="#dfdf43" rx="2" ry="2"/>
<text x="557.6" y="862.0">Phas..</text>
</g>
<g>
<title>IndexSetIterator::advance_and_next() (1 samples, 3.85%)</title><rect x="554.6" y="835.0" width="45.4" height="15" fill="#d4d440" rx="2" ry="2"/>
<text x="557.6" y="846.0">Inde..</text>
</g>
<g>
<title>PhaseChaitin::post_allocate_copy_removal() (1 samples, 3.85%)</title><rect x="600.0" y="867.0" width="45.4" height="15" fill="#e2e244" rx="2" ry="2"/>
<text x="603.0" y="878.0">Phas..</text>
</g>
<g>
<title>PhaseChaitin::elide_copy(Node*, int, Block*, Node_List&amp;, Node_List&amp;, bool) (1 samples, 3.85%)</title><rect x="600.0" y="851.0" width="45.4" height="15" fill="#d0d03e" rx="2" ry="2"/>
<text x="603.0" y="862.0">Phas..</text>
</g>
<g>
<title>PhaseIFG::SquareUp() (1 samples, 3.85%)</title><rect x="645.4" y="867.0" width="45.4" height="15" fill="#d2d23f" rx="2" ry="2"/>
<text x="648.4" y="878.0">Phas..</text>
</g>
<g>
<title>Compile::Optimize() (5 samples, 19.23%)</title><rect x="690.8" y="899.0" width="226.9" height="15" fill="#e0e044" rx="2" ry="2"/>
<text x="693.8" y="910.0">Compile::Optimize()</text>
</g>
<g>
<title>PhaseCCP::analyze() (1 samples, 3.85%)</title><rect x="690.8" y="883.0" width="45.4" height="15" fill="#e3e345" rx="2" ry="2"/>
<text x="693.8" y="894.0">Phas..</text>
</g>
<g>
<title>PhaseIdealLoop::build_and_optimize(bool, bool) (4 samples, 15.38%)</title><rect x="736.2" y="883.0" width="181.5" height="15" fill="#caca3c" rx="2" ry="2"/>
<text x="739.2" y="894.0">PhaseIdealLoop::build_a..</text>
</g>
<g>
<title>PhaseIdealLoop::Dominators() (1 samples, 3.85%)</title><rect x="736.2" y="867.0" width="45.3" height="15" fill="#e4e445" rx="2" ry="2"/>
<text x="739.2" y="878.0">Phas..</text>
</g>
<g>
<title>PhaseIdealLoop::build_loop_early(VectorSet&amp;, Node_List&amp;, Node_Stack&amp;) (1 samples, 3.85%)</title><rect x="781.5" y="867.0" width="45.4" height="15" fill="#d7d741" rx="2" ry="2"/>
<text x="784.5" y="878.0">Phas..</text>
</g>
<g>
<title>PhaseIdealLoop::build_loop_late(VectorSet&amp;, Node_List&amp;, Node_Stack&amp;) (1 samples, 3.85%)</title><rect x="826.9" y="867.0" width="45.4" height="15" fill="#caca3c" rx="2" ry="2"/>
<text x="829.9" y="878.0">Phas..</text>
</g>
<g>
<title>PhaseIdealLoop::build_loop_late_post(Node*) (1 samples, 3.85%)</title><rect x="826.9" y="851.0" width="45.4" height="15" fill="#cdcd3d" rx="2" ry="2"/>
<text x="829.9" y="862.0">Phas..</text>
</g>
<g>
<title>PhaseIdealLoop::get_late_ctrl(Node*, Node*) (1 samples, 3.85%)</title><rect x="826.9" y="835.0" width="45.4" height="15" fill="#dbdb42" rx="2" ry="2"/>
<text x="829.9" y="846.0">Phas..</text>
</g>
<g>
<title>PhaseIdealLoop::is_dominator(Node*, Node*) (1 samples, 3.85%)</title><rect x="826.9" y="819.0" width="45.4" height="15" fill="#e2e244" rx="2" ry="2"/>
<text x="829.9" y="830.0">Phas..</text>
</g>
<g>
<title>PhaseIdealLoop::split_if_with_blocks(VectorSet&amp;, Node_Stack&amp;) (1 samples, 3.85%)</title><rect x="872.3" y="867.0" width="45.4" height="15" fill="#d2d23f" rx="2" ry="2"/>
<text x="875.3" y="878.0">Phas..</text>
</g>
<g>
<title>PhaseIdealLoop::split_if_with_blocks_post(Node*) (1 samples, 3.85%)</title><rect x="872.3" y="851.0" width="45.4" height="15" fill="#c9c93c" rx="2" ry="2"/>
<text x="875.3" y="862.0">Phas..</text>
</g>
<g>
<title>PhaseIdealLoop::get_ctrl(Node*) (1 samples, 3.85%)</title><rect x="872.3" y="835.0" width="45.4" height="15" fill="#c8c83c" rx="2" ry="2"/>
<text x="875.3" y="846.0">Phas..</text>
</g>
<g>
<title>ParseGenerator::generate(JVMState*) (3 samples, 11.54%)</title><rect x="917.7" y="899.0" width="136.1" height="15" fill="#d5d540" rx="2" ry="2"/>
<text x="920.7" y="910.0">ParseGenerator::g..</text>
</g>
<g>
<title>Parse::Parse(JVMState*, ciMethod*, float) (3 samples, 11.54%)</title><rect x="917.7" y="883.0" width="136.1" height="15" fill="#c9c93c" rx="2" ry="2"/>
<text x="920.7" y="894.0">Parse::Parse(JVMS..</text>
</g>
<g>
<title>Parse::do_all_blocks() (3 samples, 11.54%)</title><rect x="917.7" y="867.0" width="136.1" height="15" fill="#cfcf3e" rx="2" ry="2"/>
<text x="920.7" y="878.0">Parse::do_all_blo..</text>
</g>
<g>
<title>Parse::do_one_block() (3 samples, 11.54%)</title><rect x="917.7" y="851.0" width="136.1" height="15" fill="#e5e545" rx="2" ry="2"/>
<text x="920.7" y="862.0">Parse::do_one_blo..</text>
</g>
<g>
<title>Parse::do_exceptions() (1 samples, 3.85%)</title><rect x="917.7" y="835.0" width="45.4" height="15" fill="#e3e345" rx="2" ry="2"/>
<text x="920.7" y="846.0">Pars..</text>
</g>
<g>
<title>Parse::catch_inline_exceptions(SafePointNode*) (1 samples, 3.85%)</title><rect x="917.7" y="819.0" width="45.4" height="15" fill="#e1e144" rx="2" ry="2"/>
<text x="920.7" y="830.0">Pars..</text>
</g>
<g>
<title>Parse::throw_to_exit(SafePointNode*) (1 samples, 3.85%)</title><rect x="917.7" y="803.0" width="45.4" height="15" fill="#cfcf3e" rx="2" ry="2"/>
<text x="920.7" y="814.0">Pars..</text>
</g>
<g>
<title>GraphKit::set_map_clone(SafePointNode*) (1 samples, 3.85%)</title><rect x="917.7" y="787.0" width="45.4" height="15" fill="#d8d841" rx="2" ry="2"/>
<text x="920.7" y="798.0">Grap..</text>
</g>
<g>
<title>GraphKit::clone_map() (1 samples, 3.85%)</title><rect x="917.7" y="771.0" width="45.4" height="15" fill="#d3d33f" rx="2" ry="2"/>
<text x="920.7" y="782.0">Grap..</text>
</g>
<g>
<title>Node::clone() const (1 samples, 3.85%)</title><rect x="917.7" y="755.0" width="45.4" height="15" fill="#dede43" rx="2" ry="2"/>
<text x="920.7" y="766.0">Node..</text>
</g>
<g>
<title>Parse::do_one_bytecode() (2 samples, 7.69%)</title><rect x="963.1" y="835.0" width="90.7" height="15" fill="#d7d741" rx="2" ry="2"/>
<text x="966.1" y="846.0">Parse::do_..</text>
</g>
<g>
<title>Parse::do_call() (2 samples, 7.69%)</title><rect x="963.1" y="819.0" width="90.7" height="15" fill="#dcdc42" rx="2" ry="2"/>
<text x="966.1" y="830.0">Parse::do_..</text>
</g>
<g>
<title>ParseGenerator::generate(JVMState*) (2 samples, 7.69%)</title><rect x="963.1" y="803.0" width="90.7" height="15" fill="#d7d741" rx="2" ry="2"/>
<text x="966.1" y="814.0">ParseGener..</text>
</g>
<g>
<title>Parse::Parse(JVMState*, ciMethod*, float) (2 samples, 7.69%)</title><rect x="963.1" y="787.0" width="90.7" height="15" fill="#c9c93c" rx="2" ry="2"/>
<text x="966.1" y="798.0">Parse::Par..</text>
</g>
<g>
<title>Parse::do_all_blocks() (2 samples, 7.69%)</title><rect x="963.1" y="771.0" width="90.7" height="15" fill="#d5d540" rx="2" ry="2"/>
<text x="966.1" y="782.0">Parse::do_..</text>
</g>
<g>
<title>Parse::do_one_block() (2 samples, 7.69%)</title><rect x="963.1" y="755.0" width="90.7" height="15" fill="#e3e345" rx="2" ry="2"/>
<text x="966.1" y="766.0">Parse::do_..</text>
</g>
<g>
<title>Parse::do_one_bytecode() (2 samples, 7.69%)</title><rect x="963.1" y="739.0" width="90.7" height="15" fill="#e3e345" rx="2" ry="2"/>
<text x="966.1" y="750.0">Parse::do_..</text>
</g>
<g>
<title>Parse::do_call() (2 samples, 7.69%)</title><rect x="963.1" y="723.0" width="90.7" height="15" fill="#dddd43" rx="2" ry="2"/>
<text x="966.1" y="734.0">Parse::do_..</text>
</g>
<g>
<title>ParseGenerator::generate(JVMState*) (2 samples, 7.69%)</title><rect x="963.1" y="707.0" width="90.7" height="15" fill="#d0d03e" rx="2" ry="2"/>
<text x="966.1" y="718.0">ParseGener..</text>
</g>
<g>
<title>Parse::Parse(JVMState*, ciMethod*, float) (2 samples, 7.69%)</title><rect x="963.1" y="691.0" width="90.7" height="15" fill="#dede43" rx="2" ry="2"/>
<text x="966.1" y="702.0">Parse::Par..</text>
</g>
<g>
<title>Parse::do_all_blocks() (2 samples, 7.69%)</title><rect x="963.1" y="675.0" width="90.7" height="15" fill="#dbdb42" rx="2" ry="2"/>
<text x="966.1" y="686.0">Parse::do_..</text>
</g>
<g>
<title>Parse::do_one_block() (2 samples, 7.69%)</title><rect x="963.1" y="659.0" width="90.7" height="15" fill="#d2d23f" rx="2" ry="2"/>
<text x="966.1" y="670.0">Parse::do_..</text>
</g>
<g>
<title>Parse::do_one_bytecode() (2 samples, 7.69%)</title><rect x="963.1" y="643.0" width="90.7" height="15" fill="#dcdc42" rx="2" ry="2"/>
<text x="966.1" y="654.0">Parse::do_..</text>
</g>
<g>
<title>Parse::do_call() (2 samples, 7.69%)</title><rect x="963.1" y="627.0" width="90.7" height="15" fill="#cccc3d" rx="2" ry="2"/>
<text x="966.1" y="638.0">Parse::do_..</text>
</g>
<g>
<title>Compile::call_generator(ciMethod*, int, bool, JVMState*, bool, float, ciKlass*, bool, bool) (1 samples, 3.85%)</title><rect x="963.1" y="611.0" width="45.4" height="15" fill="#d5d540" rx="2" ry="2"/>
<text x="966.1" y="622.0">Comp..</text>
</g>
<g>
<title>InlineTree::ok_to_inline(ciMethod*, JVMState*, ciCallProfile&amp;, WarmCallInfo*, bool&amp;) (1 samples, 3.85%)</title><rect x="963.1" y="595.0" width="45.4" height="15" fill="#e2e244" rx="2" ry="2"/>
<text x="966.1" y="606.0">Inli..</text>
</g>
<g>
<title>ciMethod::get_flow_analysis() (1 samples, 3.85%)</title><rect x="963.1" y="579.0" width="45.4" height="15" fill="#e0e044" rx="2" ry="2"/>
<text x="966.1" y="590.0">ciMe..</text>
</g>
<g>
<title>ciTypeFlow::do_flow() (1 samples, 3.85%)</title><rect x="963.1" y="563.0" width="45.4" height="15" fill="#d1d13f" rx="2" ry="2"/>
<text x="966.1" y="574.0">ciTy..</text>
</g>
<g>
<title>ciTypeFlow::flow_types() (1 samples, 3.85%)</title><rect x="963.1" y="547.0" width="45.4" height="15" fill="#cece3e" rx="2" ry="2"/>
<text x="966.1" y="558.0">ciTy..</text>
</g>
<g>
<title>ciTypeFlow::df_flow_types(ciTypeFlow::Block*, bool, ciTypeFlow::StateVector*, ciTypeFlow::JsrSet*) (1 samples, 3.85%)</title><rect x="963.1" y="531.0" width="45.4" height="15" fill="#e2e244" rx="2" ry="2"/>
<text x="966.1" y="542.0">ciTy..</text>
</g>
<g>
<title>ciTypeFlow::flow_block(ciTypeFlow::Block*, ciTypeFlow::StateVector*, ciTypeFlow::JsrSet*) (1 samples, 3.85%)</title><rect x="963.1" y="515.0" width="45.4" height="15" fill="#d2d23f" rx="2" ry="2"/>
<text x="966.1" y="526.0">ciTy..</text>
</g>
<g>
<title>ciTypeFlow::StateVector::apply_one_bytecode(ciBytecodeStream*) (1 samples, 3.85%)</title><rect x="963.1" y="499.0" width="45.4" height="15" fill="#dcdc42" rx="2" ry="2"/>
<text x="966.1" y="510.0">ciTy..</text>
</g>
<g>
<title>ciTypeFlow::StateVector::do_getstatic(ciBytecodeStream*) (1 samples, 3.85%)</title><rect x="963.1" y="483.0" width="45.4" height="15" fill="#e4e445" rx="2" ry="2"/>
<text x="966.1" y="494.0">ciTy..</text>
</g>
<g>
<title>ciBytecodeStream::get_field(bool&amp;) (1 samples, 3.85%)</title><rect x="963.1" y="467.0" width="45.4" height="15" fill="#d9d941" rx="2" ry="2"/>
<text x="966.1" y="478.0">ciBy..</text>
</g>
<g>
<title>ciEnv::get_field_by_index(ciInstanceKlass*, int) (1 samples, 3.85%)</title><rect x="963.1" y="451.0" width="45.4" height="15" fill="#dbdb42" rx="2" ry="2"/>
<text x="966.1" y="462.0">ciEn..</text>
</g>
<g>
<title>ciEnv::get_field_by_index_impl(ciInstanceKlass*, int) (1 samples, 3.85%)</title><rect x="963.1" y="435.0" width="45.4" height="15" fill="#e1e144" rx="2" ry="2"/>
<text x="966.1" y="446.0">ciEn..</text>
</g>
<g>
<title>ciField::ciField(ciInstanceKlass*, int) (1 samples, 3.85%)</title><rect x="963.1" y="419.0" width="45.4" height="15" fill="#d5d540" rx="2" ry="2"/>
<text x="966.1" y="430.0">ciFi..</text>
</g>
<g>
<title>ciEnv::get_klass_by_index(constantPoolHandle, int, bool&amp;, ciInstanceKlass*) (1 samples, 3.85%)</title><rect x="963.1" y="403.0" width="45.4" height="15" fill="#e3e345" rx="2" ry="2"/>
<text x="966.1" y="414.0">ciEn..</text>
</g>
<g>
<title>ciEnv::get_klass_by_index_impl(constantPoolHandle, int, bool&amp;, ciInstanceKlass*) (1 samples, 3.85%)</title><rect x="963.1" y="387.0" width="45.4" height="15" fill="#d3d33f" rx="2" ry="2"/>
<text x="966.1" y="398.0">ciEn..</text>
</g>
<g>
<title>ciEnv::get_klass_by_name_impl(ciKlass*, constantPoolHandle, ciSymbol*, bool) (1 samples, 3.85%)</title><rect x="963.1" y="371.0" width="45.4" height="15" fill="#e0e044" rx="2" ry="2"/>
<text x="966.1" y="382.0">ciEn..</text>
</g>
<g>
<title>SymbolTable::lookup(char const*, int, Thread*) (1 samples, 3.85%)</title><rect x="963.1" y="355.0" width="45.4" height="15" fill="#dcdc42" rx="2" ry="2"/>
<text x="966.1" y="366.0">Symb..</text>
</g>
<g>
<title>ParseGenerator::generate(JVMState*) (1 samples, 3.85%)</title><rect x="1008.5" y="611.0" width="45.3" height="15" fill="#e3e345" rx="2" ry="2"/>
<text x="1011.5" y="622.0">Pars..</text>
</g>
<g>
<title>Parse::Parse(JVMState*, ciMethod*, float) (1 samples, 3.85%)</title><rect x="1008.5" y="595.0" width="45.3" height="15" fill="#d6d640" rx="2" ry="2"/>
<text x="1011.5" y="606.0">Pars..</text>
</g>
<g>
<title>Parse::do_all_blocks() (1 samples, 3.85%)</title><rect x="1008.5" y="579.0" width="45.3" height="15" fill="#cece3e" rx="2" ry="2"/>
<text x="1011.5" y="590.0">Pars..</text>
</g>
<g>
<title>Parse::do_one_block() (1 samples, 3.85%)</title><rect x="1008.5" y="563.0" width="45.3" height="15" fill="#e4e445" rx="2" ry="2"/>
<text x="1011.5" y="574.0">Pars..</text>
</g>
<g>
<title>Parse::do_one_bytecode() (1 samples, 3.85%)</title><rect x="1008.5" y="547.0" width="45.3" height="15" fill="#e3e345" rx="2" ry="2"/>
<text x="1011.5" y="558.0">Pars..</text>
</g>
<g>
<title>Parse::do_call() (1 samples, 3.85%)</title><rect x="1008.5" y="531.0" width="45.3" height="15" fill="#cccc3d" rx="2" ry="2"/>
<text x="1011.5" y="542.0">Pars..</text>
</g>
<g>
<title>ParseGenerator::generate(JVMState*) (1 samples, 3.85%)</title><rect x="1008.5" y="515.0" width="45.3" height="15" fill="#e2e244" rx="2" ry="2"/>
<text x="1011.5" y="526.0">Pars..</text>
</g>
<g>
<title>Parse::Parse(JVMState*, ciMethod*, float) (1 samples, 3.85%)</title><rect x="1008.5" y="499.0" width="45.3" height="15" fill="#dbdb42" rx="2" ry="2"/>
<text x="1011.5" y="510.0">Pars..</text>
</g>
<g>
<title>Parse::do_all_blocks() (1 samples, 3.85%)</title><rect x="1008.5" y="483.0" width="45.3" height="15" fill="#d4d440" rx="2" ry="2"/>
<text x="1011.5" y="494.0">Pars..</text>
</g>
<g>
<title>Parse::do_one_block() (1 samples, 3.85%)</title><rect x="1008.5" y="467.0" width="45.3" height="15" fill="#dada42" rx="2" ry="2"/>
<text x="1011.5" y="478.0">Pars..</text>
</g>
<g>
<title>Parse::do_one_bytecode() (1 samples, 3.85%)</title><rect x="1008.5" y="451.0" width="45.3" height="15" fill="#d0d03e" rx="2" ry="2"/>
<text x="1011.5" y="462.0">Pars..</text>
</g>
<g>
<title>Parse::do_call() (1 samples, 3.85%)</title><rect x="1008.5" y="435.0" width="45.3" height="15" fill="#dfdf43" rx="2" ry="2"/>
<text x="1011.5" y="446.0">Pars..</text>
</g>
<g>
<title>ParseGenerator::generate(JVMState*) (1 samples, 3.85%)</title><rect x="1008.5" y="419.0" width="45.3" height="15" fill="#d1d13f" rx="2" ry="2"/>
<text x="1011.5" y="430.0">Pars..</text>
</g>
<g>
<title>Parse::Parse(JVMState*, ciMethod*, float) (1 samples, 3.85%)</title><rect x="1008.5" y="403.0" width="45.3" height="15" fill="#d5d540" rx="2" ry="2"/>
<text x="1011.5" y="414.0">Pars..</text>
</g>
<g>
<title>Parse::do_all_blocks() (1 samples, 3.85%)</title><rect x="1008.5" y="387.0" width="45.3" height="15" fill="#cece3e" rx="2" ry="2"/>
<text x="1011.5" y="398.0">Pars..</text>
</g>
<g>
<title>Parse::do_one_block() (1 samples, 3.85%)</title><rect x="1008.5" y="371.0" width="45.3" height="15" fill="#cdcd3d" rx="2" ry="2"/>
<text x="1011.5" y="382.0">Pars..</text>
</g>
<g>
<title>Parse::do_one_bytecode() (1 samples, 3.85%)</title><rect x="1008.5" y="355.0" width="45.3" height="15" fill="#d0d03e" rx="2" ry="2"/>
<text x="1011.5" y="366.0">Pars..</text>
</g>
<g>
<title>Parse::do_call() (1 samples, 3.85%)</title><rect x="1008.5" y="339.0" width="45.3" height="15" fill="#d8d841" rx="2" ry="2"/>
<text x="1011.5" y="350.0">Pars..</text>
</g>
<g>
<title>ParseGenerator::generate(JVMState*) (1 samples, 3.85%)</title><rect x="1008.5" y="323.0" width="45.3" height="15" fill="#d4d440" rx="2" ry="2"/>
<text x="1011.5" y="334.0">Pars..</text>
</g>
<g>
<title>Parse::Parse(JVMState*, ciMethod*, float) (1 samples, 3.85%)</title><rect x="1008.5" y="307.0" width="45.3" height="15" fill="#cdcd3d" rx="2" ry="2"/>
<text x="1011.5" y="318.0">Pars..</text>
</g>
<g>
<title>Parse::do_all_blocks() (1 samples, 3.85%)</title><rect x="1008.5" y="291.0" width="45.3" height="15" fill="#e3e345" rx="2" ry="2"/>
<text x="1011.5" y="302.0">Pars..</text>
</g>
<g>
<title>Parse::do_one_block() (1 samples, 3.85%)</title><rect x="1008.5" y="275.0" width="45.3" height="15" fill="#cbcb3d" rx="2" ry="2"/>
<text x="1011.5" y="286.0">Pars..</text>
</g>
<g>
<title>Parse::do_one_bytecode() (1 samples, 3.85%)</title><rect x="1008.5" y="259.0" width="45.3" height="15" fill="#cbcb3d" rx="2" ry="2"/>
<text x="1011.5" y="270.0">Pars..</text>
</g>
<g>
<title>Parse::do_call() (1 samples, 3.85%)</title><rect x="1008.5" y="243.0" width="45.3" height="15" fill="#d6d640" rx="2" ry="2"/>
<text x="1011.5" y="254.0">Pars..</text>
</g>
<g>
<title>Compile::call_generator(ciMethod*, int, bool, JVMState*, bool, float, ciKlass*, bool, bool) (1 samples, 3.85%)</title><rect x="1008.5" y="227.0" width="45.3" height="15" fill="#dede43" rx="2" ry="2"/>
<text x="1011.5" y="238.0">Comp..</text>
</g>
<g>
<title>InlineTree::ok_to_inline(ciMethod*, JVMState*, ciCallProfile&amp;, WarmCallInfo*, bool&amp;) (1 samples, 3.85%)</title><rect x="1008.5" y="211.0" width="45.3" height="15" fill="#e5e545" rx="2" ry="2"/>
<text x="1011.5" y="222.0">Inli..</text>
</g>
<g>
<title>ciMethod::get_flow_analysis() (1 samples, 3.85%)</title><rect x="1008.5" y="195.0" width="45.3" height="15" fill="#e4e445" rx="2" ry="2"/>
<text x="1011.5" y="206.0">ciMe..</text>
</g>
<g>
<title>ciTypeFlow::do_flow() (1 samples, 3.85%)</title><rect x="1008.5" y="179.0" width="45.3" height="15" fill="#dcdc42" rx="2" ry="2"/>
<text x="1011.5" y="190.0">ciTy..</text>
</g>
<g>
<title>ciTypeFlow::flow_types() (1 samples, 3.85%)</title><rect x="1008.5" y="163.0" width="45.3" height="15" fill="#d3d33f" rx="2" ry="2"/>
<text x="1011.5" y="174.0">ciTy..</text>
</g>
<g>
<title>ciTypeFlow::df_flow_types(ciTypeFlow::Block*, bool, ciTypeFlow::StateVector*, ciTypeFlow::JsrSet*) (1 samples, 3.85%)</title><rect x="1008.5" y="147.0" width="45.3" height="15" fill="#dede43" rx="2" ry="2"/>
<text x="1011.5" y="158.0">ciTy..</text>
</g>
<g>
<title>ciTypeFlow::flow_block(ciTypeFlow::Block*, ciTypeFlow::StateVector*, ciTypeFlow::JsrSet*) (1 samples, 3.85%)</title><rect x="1008.5" y="131.0" width="45.3" height="15" fill="#d3d33f" rx="2" ry="2"/>
<text x="1011.5" y="142.0">ciTy..</text>
</g>
<g>
<title>ciTypeFlow::StateVector::apply_one_bytecode(ciBytecodeStream*) (1 samples, 3.85%)</title><rect x="1008.5" y="115.0" width="45.3" height="15" fill="#d0d03e" rx="2" ry="2"/>
<text x="1011.5" y="126.0">ciTy..</text>
</g>
<g>
<title>ciTypeFlow::StateVector::do_getstatic(ciBytecodeStream*) (1 samples, 3.85%)</title><rect x="1008.5" y="99.0" width="45.3" height="15" fill="#cece3e" rx="2" ry="2"/>
<text x="1011.5" y="110.0">ciTy..</text>
</g>
<g>
<title>ciBytecodeStream::get_field(bool&amp;) (1 samples, 3.85%)</title><rect x="1008.5" y="83.0" width="45.3" height="15" fill="#d9d941" rx="2" ry="2"/>
<text x="1011.5" y="94.0">ciBy..</text>
</g>
<g>
<title>ciEnv::get_field_by_index(ciInstanceKlass*, int) (1 samples, 3.85%)</title><rect x="1008.5" y="67.0" width="45.3" height="15" fill="#cfcf3e" rx="2" ry="2"/>
<text x="1011.5" y="78.0">ciEn..</text>
</g>
<g>
<title>ciEnv::get_field_by_index_impl(ciInstanceKlass*, int) (1 samples, 3.85%)</title><rect x="1008.5" y="51.0" width="45.3" height="15" fill="#cccc3d" rx="2" ry="2"/>
<text x="1011.5" y="62.0">ciEn..</text>
</g>
<g>
<title>ciField::ciField(ciInstanceKlass*, int) (1 samples, 3.85%)</title><rect x="1008.5" y="35.0" width="45.3" height="15" fill="#dddd43" rx="2" ry="2"/>
<text x="1011.5" y="46.0">ciFi..</text>
</g>
<g>
<title>Compiler::compile_method(ciEnv*, ciMethod*, int) (2 samples, 7.69%)</title><rect x="1053.8" y="931.0" width="90.8" height="15" fill="#cbcb3d" rx="2" ry="2"/>
<text x="1056.8" y="942.0">Compiler::..</text>
</g>
<g>
<title>Compilation::Compilation(AbstractCompiler*, ciEnv*, ciMethod*, int, BufferBlob*) (2 samples, 7.69%)</title><rect x="1053.8" y="915.0" width="90.8" height="15" fill="#dfdf43" rx="2" ry="2"/>
<text x="1056.8" y="926.0">Compilatio..</text>
</g>
<g>
<title>Compilation::compile_method() (2 samples, 7.69%)</title><rect x="1053.8" y="899.0" width="90.8" height="15" fill="#cccc3d" rx="2" ry="2"/>
<text x="1056.8" y="910.0">Compilatio..</text>
</g>
<g>
<title>Compilation::compile_java_method() (2 samples, 7.69%)</title><rect x="1053.8" y="883.0" width="90.8" height="15" fill="#dede43" rx="2" ry="2"/>
<text x="1056.8" y="894.0">Compilatio..</text>
</g>
<g>
<title>Compilation::build_hir() (2 samples, 7.69%)</title><rect x="1053.8" y="867.0" width="90.8" height="15" fill="#caca3c" rx="2" ry="2"/>
<text x="1056.8" y="878.0">Compilatio..</text>
</g>
<g>
<title>IR::IR(Compilation*, ciMethod*, int) (1 samples, 3.85%)</title><rect x="1053.8" y="851.0" width="45.4" height="15" fill="#e4e445" rx="2" ry="2"/>
<text x="1056.8" y="862.0">IR::..</text>
</g>
<g>
<title>IRScope::IRScope(Compilation*, IRScope*, int, ciMethod*, int, bool) (1 samples, 3.85%)</title><rect x="1053.8" y="835.0" width="45.4" height="15" fill="#c9c93c" rx="2" ry="2"/>
<text x="1056.8" y="846.0">IRSc..</text>
</g>
<g>
<title>GraphBuilder::GraphBuilder(Compilation*, IRScope*) (1 samples, 3.85%)</title><rect x="1053.8" y="819.0" width="45.4" height="15" fill="#d7d741" rx="2" ry="2"/>
<text x="1056.8" y="830.0">Grap..</text>
</g>
<g>
<title>GraphBuilder::iterate_all_blocks(bool) (1 samples, 3.85%)</title><rect x="1053.8" y="803.0" width="45.4" height="15" fill="#cdcd3d" rx="2" ry="2"/>
<text x="1056.8" y="814.0">Grap..</text>
</g>
<g>
<title>GraphBuilder::iterate_bytecodes_for_block(int) (1 samples, 3.85%)</title><rect x="1053.8" y="787.0" width="45.4" height="15" fill="#cfcf3e" rx="2" ry="2"/>
<text x="1056.8" y="798.0">Grap..</text>
</g>
<g>
<title>GraphBuilder::invoke(Bytecodes::Code) (1 samples, 3.85%)</title><rect x="1053.8" y="771.0" width="45.4" height="15" fill="#dfdf43" rx="2" ry="2"/>
<text x="1056.8" y="782.0">Grap..</text>
</g>
<g>
<title>GraphBuilder::try_inline(ciMethod*, bool, Bytecodes::Code, Instruction*) (1 samples, 3.85%)</title><rect x="1053.8" y="755.0" width="45.4" height="15" fill="#dddd43" rx="2" ry="2"/>
<text x="1056.8" y="766.0">Grap..</text>
</g>
<g>
<title>GraphBuilder::try_inline_full(ciMethod*, bool, Bytecodes::Code, Instruction*) (1 samples, 3.85%)</title><rect x="1053.8" y="739.0" width="45.4" height="15" fill="#dbdb42" rx="2" ry="2"/>
<text x="1056.8" y="750.0">Grap..</text>
</g>
<g>
<title>GraphBuilder::iterate_all_blocks(bool) (1 samples, 3.85%)</title><rect x="1053.8" y="723.0" width="45.4" height="15" fill="#e5e545" rx="2" ry="2"/>
<text x="1056.8" y="734.0">Grap..</text>
</g>
<g>
<title>GraphBuilder::iterate_bytecodes_for_block(int) (1 samples, 3.85%)</title><rect x="1053.8" y="707.0" width="45.4" height="15" fill="#dbdb42" rx="2" ry="2"/>
<text x="1056.8" y="718.0">Grap..</text>
</g>
<g>
<title>GraphBuilder::access_field(Bytecodes::Code) (1 samples, 3.85%)</title><rect x="1053.8" y="691.0" width="45.4" height="15" fill="#dede43" rx="2" ry="2"/>
<text x="1056.8" y="702.0">Grap..</text>
</g>
<g>
<title>ciBytecodeStream::get_field(bool&amp;) (1 samples, 3.85%)</title><rect x="1053.8" y="675.0" width="45.4" height="15" fill="#caca3c" rx="2" ry="2"/>
<text x="1056.8" y="686.0">ciBy..</text>
</g>
<g>
<title>ciField::will_link(ciInstanceKlass*, Bytecodes::Code) (1 samples, 3.85%)</title><rect x="1053.8" y="659.0" width="45.4" height="15" fill="#cccc3d" rx="2" ry="2"/>
<text x="1056.8" y="670.0">ciFi..</text>
</g>
<g>
<title>IR::eliminate_null_checks() (1 samples, 3.85%)</title><rect x="1099.2" y="851.0" width="45.4" height="15" fill="#d7d741" rx="2" ry="2"/>
<text x="1102.2" y="862.0">IR::..</text>
</g>
<g>
<title>Optimizer::eliminate_null_checks() (1 samples, 3.85%)</title><rect x="1099.2" y="835.0" width="45.4" height="15" fill="#caca3c" rx="2" ry="2"/>
<text x="1102.2" y="846.0">Opti..</text>
</g>
<g>
<title>NullCheckEliminator::iterate_one(BlockBegin*) (1 samples, 3.85%)</title><rect x="1099.2" y="819.0" width="45.4" height="15" fill="#caca3c" rx="2" ry="2"/>
<text x="1102.2" y="830.0">Null..</text>
</g>
<g>
<title>CompileQueue::get() (1 samples, 3.85%)</title><rect x="1144.6" y="947.0" width="45.4" height="15" fill="#cece3e" rx="2" ry="2"/>
<text x="1147.6" y="958.0">Comp..</text>
</g>
<g>
<title>NMethodSweeper::possibly_sweep() (1 samples, 3.85%)</title><rect x="1144.6" y="931.0" width="45.4" height="15" fill="#d5d540" rx="2" ry="2"/>
<text x="1147.6" y="942.0">NMet..</text>
</g>
<g>
<title>NMethodSweeper::sweep_code_cache() (1 samples, 3.85%)</title><rect x="1144.6" y="915.0" width="45.4" height="15" fill="#e0e044" rx="2" ry="2"/>
<text x="1147.6" y="926.0">NMet..</text>
</g>
<g>
<title>NMethodSweeper::process_nmethod(nmethod*) (1 samples, 3.85%)</title><rect x="1144.6" y="899.0" width="45.4" height="15" fill="#d9d941" rx="2" ry="2"/>
<text x="1147.6" y="910.0">NMet..</text>
</g>
<g>
<title>nmethod::cleanup_inline_caches() (1 samples, 3.85%)</title><rect x="1144.6" y="883.0" width="45.4" height="15" fill="#dede43" rx="2" ry="2"/>
<text x="1147.6" y="894.0">nmet..</text>
</g>
<g>
<title>NativeCall::destination() const (1 samples, 3.85%)</title><rect x="1144.6" y="867.0" width="45.4" height="15" fill="#c9c93c" rx="2" ry="2"/>
<text x="1147.6" y="878.0">Nati..</text>
</g>
</g>
</svg>
