<?xml version="1.0" standalone="no"?>
<!DOCTYPE svg PUBLIC "-//W3C//DTD SVG 1.1//EN" "http://www.w3.org/Graphics/SVG/1.1/DTD/svg11.dtd">
<svg version="1.1" width="1200" height="758" onload="init(evt)" viewBox="0 0 1200 758" xmlns="http://www.w3.org/2000/svg" xmlns:xlink="http://www.w3.org/1999/xlink">
<style type="text/css">
	text { font-family:Verdana; font-size:12px; fill:rgb(0,0,0); }
	#search { opacity:0.1; cursor:pointer; }
	#search:hover, #search.show { opacity:1; }
	#subtitle { text-anchor:middle; font-color:rgb(160,160,160); }
	#title { text-anchor:middle; font-size:17px}
	#unzoom { cursor:pointer; }
	#frames > *:hover { stroke:black; stroke-width:0.5; cursor:pointer; }
	.hide { display:none; }
	.parent { opacity:0.5; }
</style>
<script type="text/ecmascript">
<![CDATA[
	"use strict";
	var details, searchbtn, unzoombtn, matchedtxt, svg, searching;
	function init(evt) {
		details = document.getElementById("details").firstChild;
		searchbtn = document.getElementById("search");
		unzoombtn = document.getElementById("unzoom");
		matchedtxt = document.getElementById("matched");
		svg = document.getElementsByTagName("svg")[0];
		searching = 0;
	}

	window.addEventListener("click", function(e) {
		var target = find_group(e.target);
		if (target) {
			if (target.nodeName == "a") {
				if (e.ctrlKey === false) return;
				e.preventDefault();
			}
			if (target.classList.contains("parent")) unzoom();
			zoom(target);
		}
		else if (e.target.id == "unzoom") unzoom();
		else if (e.target.id == "search") search_prompt();
	}, false)

	// mouse-over for info
	// show
	window.addEventListener("mouseover", function(e) {
		var target = find_group(e.target);
		if (target) details.nodeValue = "Function: " + g_to_text(target);
	}, false)

	// clear
	window.addEventListener("mouseout", function(e) {
		var target = find_group(e.target);
		if (target) details.nodeValue = ' ';
	}, false)

	// ctrl-F for search
	window.addEventListener("keydown",function (e) {
		if (e.keyCode === 114 || (e.ctrlKey && e.keyCode === 70)) {
			e.preventDefault();
			search_prompt();
		}
	}, false)

	// functions
	function find_child(node, selector) {
		var children = node.querySelectorAll(selector);
		if (children.length) return children[0];
		return;
	}
	function find_group(node) {
		var parent = node.parentElement;
		if (!parent) return;
		if (parent.id == "frames") return node;
		return find_group(parent);
	}
	function orig_save(e, attr, val) {
		if (e.attributes["_orig_" + attr] != undefined) return;
		if (e.attributes[attr] == undefined) return;
		if (val == undefined) val = e.attributes[attr].value;
		e.setAttribute("_orig_" + attr, val);
	}
	function orig_load(e, attr) {
		if (e.attributes["_orig_"+attr] == undefined) return;
		e.attributes[attr].value = e.attributes["_orig_" + attr].value;
		e.removeAttribute("_orig_"+attr);
	}
	function g_to_text(e) {
		var text = find_child(e, "title").firstChild.nodeValue;
		return (text)
	}
	function g_to_func(e) {
		var func = g_to_text(e);
		// if there's any manipulation we want to do to the function
		// name before it's searched, do it here before returning.
		return (func);
	}
	function update_text(e) {
		var r = find_child(e, "rect");
		var t = find_child(e, "text");
		var w = parseFloat(r.attributes.width.value) -3;
		var txt = find_child(e, "title").textContent.replace(/\([^(]*\)$/,"");
		t.attributes.x.value = parseFloat(r.attributes.x.value) + 3;

		// Smaller than this size won't fit anything
		if (w < 2 * 12 * 0.59) {
			t.textContent = "";
			return;
		}

		t.textContent = txt;
		// Fit in full text width
		if (/^ *$/.test(txt) || t.getSubStringLength(0, txt.length) < w)
			return;

		for (var x = txt.length - 2; x > 0; x--) {
			if (t.getSubStringLength(0, x + 2) <= w) {
				t.textContent = txt.substring(0, x) + "..";
				return;
			}
		}
		t.textContent = "";
	}

	// zoom
	function zoom_reset(e) {
		if (e.attributes != undefined) {
			orig_load(e, "x");
			orig_load(e, "width");
		}
		if (e.childNodes == undefined) return;
		for (var i = 0, c = e.childNodes; i < c.length; i++) {
			zoom_reset(c[i]);
		}
	}
	function zoom_child(e, x, ratio) {
		if (e.attributes != undefined) {
			if (e.attributes.x != undefined) {
				orig_save(e, "x");
				e.attributes.x.value = (parseFloat(e.attributes.x.value) - x - 10) * ratio + 10;
				if (e.tagName == "text")
					e.attributes.x.value = find_child(e.parentNode, "rect[x]").attributes.x.value + 3;
			}
			if (e.attributes.width != undefined) {
				orig_save(e, "width");
				e.attributes.width.value = parseFloat(e.attributes.width.value) * ratio;
			}
		}

		if (e.childNodes == undefined) return;
		for (var i = 0, c = e.childNodes; i < c.length; i++) {
			zoom_child(c[i], x - 10, ratio);
		}
	}
	function zoom_parent(e) {
		if (e.attributes) {
			if (e.attributes.x != undefined) {
				orig_save(e, "x");
				e.attributes.x.value = 10;
			}
			if (e.attributes.width != undefined) {
				orig_save(e, "width");
				e.attributes.width.value = parseInt(svg.width.baseVal.value) - (10 * 2);
			}
		}
		if (e.childNodes == undefined) return;
		for (var i = 0, c = e.childNodes; i < c.length; i++) {
			zoom_parent(c[i]);
		}
	}
	function zoom(node) {
		var attr = find_child(node, "rect").attributes;
		var width = parseFloat(attr.width.value);
		var xmin = parseFloat(attr.x.value);
		var xmax = parseFloat(xmin + width);
		var ymin = parseFloat(attr.y.value);
		var ratio = (svg.width.baseVal.value - 2 * 10) / width;

		// XXX: Workaround for JavaScript float issues (fix me)
		var fudge = 0.0001;

		unzoombtn.classList.remove("hide");

		var el = document.getElementById("frames").children;
		for (var i = 0; i < el.length; i++) {
			var e = el[i];
			var a = find_child(e, "rect").attributes;
			var ex = parseFloat(a.x.value);
			var ew = parseFloat(a.width.value);
			var upstack;
			// Is it an ancestor
			if (0 == 0) {
				upstack = parseFloat(a.y.value) > ymin;
			} else {
				upstack = parseFloat(a.y.value) < ymin;
			}
			if (upstack) {
				// Direct ancestor
				if (ex <= xmin && (ex+ew+fudge) >= xmax) {
					e.classList.add("parent");
					zoom_parent(e);
					update_text(e);
				}
				// not in current path
				else
					e.classList.add("hide");
			}
			// Children maybe
			else {
				// no common path
				if (ex < xmin || ex + fudge >= xmax) {
					e.classList.add("hide");
				}
				else {
					zoom_child(e, xmin, ratio);
					update_text(e);
				}
			}
		}
	}
	function unzoom() {
		unzoombtn.classList.add("hide");
		var el = document.getElementById("frames").children;
		for(var i = 0; i < el.length; i++) {
			el[i].classList.remove("parent");
			el[i].classList.remove("hide");
			zoom_reset(el[i]);
			update_text(el[i]);
		}
	}

	// search
	function reset_search() {
		var el = document.querySelectorAll("#frames rect");
		for (var i = 0; i < el.length; i++) {
			orig_load(el[i], "fill")
		}
	}
	function search_prompt() {
		if (!searching) {
			var term = prompt("Enter a search term (regexp " +
			    "allowed, eg: ^ext4_)", "");
			if (term != null) {
				search(term)
			}
		} else {
			reset_search();
			searching = 0;
			searchbtn.classList.remove("show");
			searchbtn.firstChild.nodeValue = "Search"
			matchedtxt.classList.add("hide");
			matchedtxt.firstChild.nodeValue = ""
		}
	}
	function search(term) {
		var re = new RegExp(term);
		var el = document.getElementById("frames").children;
		var matches = new Object();
		var maxwidth = 0;
		for (var i = 0; i < el.length; i++) {
			var e = el[i];
			var func = g_to_func(e);
			var rect = find_child(e, "rect");
			if (func == null || rect == null)
				continue;

			// Save max width. Only works as we have a root frame
			var w = parseFloat(rect.attributes.width.value);
			if (w > maxwidth)
				maxwidth = w;

			if (func.match(re)) {
				// highlight
				var x = parseFloat(rect.attributes.x.value);
				orig_save(rect, "fill");
				rect.attributes.fill.value = "rgb(230,0,230)";

				// remember matches
				if (matches[x] == undefined) {
					matches[x] = w;
				} else {
					if (w > matches[x]) {
						// overwrite with parent
						matches[x] = w;
					}
				}
				searching = 1;
			}
		}
		if (!searching)
			return;

		searchbtn.classList.add("show");
		searchbtn.firstChild.nodeValue = "Reset Search";

		// calculate percent matched, excluding vertical overlap
		var count = 0;
		var lastx = -1;
		var lastw = 0;
		var keys = Array();
		for (k in matches) {
			if (matches.hasOwnProperty(k))
				keys.push(k);
		}
		// sort the matched frames by their x location
		// ascending, then width descending
		keys.sort(function(a, b){
			return a - b;
		});
		// Step through frames saving only the biggest bottom-up frames
		// thanks to the sort order. This relies on the tree property
		// where children are always smaller than their parents.
		var fudge = 0.0001;	// JavaScript floating point
		for (var k in keys) {
			var x = parseFloat(keys[k]);
			var w = matches[keys[k]];
			if (x >= lastx + lastw - fudge) {
				count += w;
				lastx = x;
				lastw = w;
			}
		}
		// display matched percent
		matchedtxt.classList.remove("hide");
		var pct = 100 * count / maxwidth;
		if (pct != 100) pct = pct.toFixed(1)
		matchedtxt.firstChild.nodeValue = "Matched: " + pct + "%";
	}
]]>
</script>
<rect x="0" y="0" width="100%" height="100%" fill="rgb(240,240,220)"/>
<text id="title" x="600" y="24">Flame Graph</text>
<text id="details" x="10" y="741"> </text>
<text id="unzoom" x="10" y="24" class="hide">Reset Zoom</text>
<text id="search" x="1090" y="24">Search</text>
<text id="matched" x="1090" y="741"> </text>
<g id="frames">
<g>
<title>all (33 samples, 100.00%)</title><rect x="10.0" y="707.0" width="1180.0" height="15" fill="#fa7b7b" rx="2" ry="2"/>
<text x="13.0" y="718.0">all</text>
</g>
<g>
<title>[no_Java_frame] (1 samples, 3.03%)</title><rect x="10.0" y="691.0" width="35.8" height="15" fill="#ec6969" rx="2" ry="2"/>
<text x="13.0" y="702.0">[no..</text>
</g>
<g>
<title>com/linecorp/decaton/processor/runtime/ProcessorSubscription.run (4 samples, 12.12%)</title><rect x="45.8" y="691.0" width="143.0" height="15" fill="#67f867" rx="2" ry="2"/>
<text x="48.8" y="702.0">com/linecorp/decat..</text>
</g>
<g>
<title>com/linecorp/decaton/processor/runtime/ProcessorSubscription.commitCompletedOffsets (1 samples, 3.03%)</title><rect x="45.8" y="675.0" width="35.7" height="15" fill="#67f867" rx="2" ry="2"/>
<text x="48.8" y="686.0">com..</text>
</g>
<g>
<title>org/apache/kafka/clients/consumer/KafkaConsumer.commitSync (1 samples, 3.03%)</title><rect x="45.8" y="659.0" width="35.7" height="15" fill="#6bfc6b" rx="2" ry="2"/>
<text x="48.8" y="670.0">org..</text>
</g>
<g>
<title>org/apache/kafka/clients/consumer/KafkaConsumer.commitSync (1 samples, 3.03%)</title><rect x="45.8" y="643.0" width="35.7" height="15" fill="#55e655" rx="2" ry="2"/>
<text x="48.8" y="654.0">org..</text>
</g>
<g>
<title>org/apache/kafka/clients/consumer/internals/ConsumerCoordinator.commitOffsetsSync (1 samples, 3.03%)</title><rect x="45.8" y="627.0" width="35.7" height="15" fill="#5aeb5a" rx="2" ry="2"/>
<text x="48.8" y="638.0">org..</text>
</g>
<g>
<title>org/apache/kafka/clients/consumer/internals/ConsumerNetworkClient.poll (1 samples, 3.03%)</title><rect x="45.8" y="611.0" width="35.7" height="15" fill="#67f867" rx="2" ry="2"/>
<text x="48.8" y="622.0">org..</text>
</g>
<g>
<title>org/apache/kafka/clients/consumer/internals/ConsumerNetworkClient.poll (1 samples, 3.03%)</title><rect x="45.8" y="595.0" width="35.7" height="15" fill="#58e958" rx="2" ry="2"/>
<text x="48.8" y="606.0">org..</text>
</g>
<g>
<title>org/apache/kafka/clients/consumer/internals/ConsumerNetworkClient.poll (1 samples, 3.03%)</title><rect x="45.8" y="579.0" width="35.7" height="15" fill="#60f160" rx="2" ry="2"/>
<text x="48.8" y="590.0">org..</text>
</g>
<g>
<title>org/apache/kafka/clients/NetworkClient.poll (1 samples, 3.03%)</title><rect x="45.8" y="563.0" width="35.7" height="15" fill="#5eef5e" rx="2" ry="2"/>
<text x="48.8" y="574.0">org..</text>
</g>
<g>
<title>org/apache/kafka/common/network/Selector.poll (1 samples, 3.03%)</title><rect x="45.8" y="547.0" width="35.7" height="15" fill="#62f362" rx="2" ry="2"/>
<text x="48.8" y="558.0">org..</text>
</g>
<g>
<title>org/apache/kafka/common/network/Selector.pollSelectionKeys (1 samples, 3.03%)</title><rect x="45.8" y="531.0" width="35.7" height="15" fill="#5aeb5a" rx="2" ry="2"/>
<text x="48.8" y="542.0">org..</text>
</g>
<g>
<title>org/apache/kafka/common/network/Selector.attemptRead (1 samples, 3.03%)</title><rect x="45.8" y="515.0" width="35.7" height="15" fill="#5ff05f" rx="2" ry="2"/>
<text x="48.8" y="526.0">org..</text>
</g>
<g>
<title>org/apache/kafka/common/network/KafkaChannel.read (1 samples, 3.03%)</title><rect x="45.8" y="499.0" width="35.7" height="15" fill="#6cfd6c" rx="2" ry="2"/>
<text x="48.8" y="510.0">org..</text>
</g>
<g>
<title>org/apache/kafka/common/network/KafkaChannel.receive (1 samples, 3.03%)</title><rect x="45.8" y="483.0" width="35.7" height="15" fill="#6bfc6b" rx="2" ry="2"/>
<text x="48.8" y="494.0">org..</text>
</g>
<g>
<title>org/apache/kafka/common/network/NetworkReceive.readFrom (1 samples, 3.03%)</title><rect x="45.8" y="467.0" width="35.7" height="15" fill="#63f463" rx="2" ry="2"/>
<text x="48.8" y="478.0">org..</text>
</g>
<g>
<title>org/apache/kafka/common/network/PlaintextTransportLayer.read (1 samples, 3.03%)</title><rect x="45.8" y="451.0" width="35.7" height="15" fill="#65f665" rx="2" ry="2"/>
<text x="48.8" y="462.0">org..</text>
</g>
<g>
<title>sun/nio/ch/SocketChannelImpl.read (1 samples, 3.03%)</title><rect x="45.8" y="435.0" width="35.7" height="15" fill="#54e554" rx="2" ry="2"/>
<text x="48.8" y="446.0">sun..</text>
</g>
<g>
<title>sun/nio/ch/IOUtil.read (1 samples, 3.03%)</title><rect x="45.8" y="419.0" width="35.7" height="15" fill="#62f362" rx="2" ry="2"/>
<text x="48.8" y="430.0">sun..</text>
</g>
<g>
<title>sun/nio/ch/IOUtil.readIntoNativeBuffer (1 samples, 3.03%)</title><rect x="45.8" y="403.0" width="35.7" height="15" fill="#50e150" rx="2" ry="2"/>
<text x="48.8" y="414.0">sun..</text>
</g>
<g>
<title>sun/nio/ch/SocketDispatcher.read (1 samples, 3.03%)</title><rect x="45.8" y="387.0" width="35.7" height="15" fill="#57e857" rx="2" ry="2"/>
<text x="48.8" y="398.0">sun..</text>
</g>
<g>
<title>sun/nio/ch/FileDispatcherImpl.read0 (1 samples, 3.03%)</title><rect x="45.8" y="371.0" width="35.7" height="15" fill="#54e554" rx="2" ry="2"/>
<text x="48.8" y="382.0">sun..</text>
</g>
<g>
<title>__read (1 samples, 3.03%)</title><rect x="45.8" y="355.0" width="35.7" height="15" fill="#f97a7a" rx="2" ry="2"/>
<text x="48.8" y="366.0">__r..</text>
</g>
<g>
<title>com/linecorp/decaton/processor/runtime/ProcessorSubscription.pollOnce (3 samples, 9.09%)</title><rect x="81.5" y="675.0" width="107.3" height="15" fill="#54e554" rx="2" ry="2"/>
<text x="84.5" y="686.0">com/linecorp/..</text>
</g>
<g>
<title>org/apache/kafka/clients/consumer/KafkaConsumer.poll (3 samples, 9.09%)</title><rect x="81.5" y="659.0" width="107.3" height="15" fill="#5ced5c" rx="2" ry="2"/>
<text x="84.5" y="670.0">org/apache/ka..</text>
</g>
<g>
<title>org/apache/kafka/clients/consumer/KafkaConsumer.poll (3 samples, 9.09%)</title><rect x="81.5" y="643.0" width="107.3" height="15" fill="#53e453" rx="2" ry="2"/>
<text x="84.5" y="654.0">org/apache/ka..</text>
</g>
<g>
<title>org/apache/kafka/clients/consumer/KafkaConsumer.pollForFetches (3 samples, 9.09%)</title><rect x="81.5" y="627.0" width="107.3" height="15" fill="#53e453" rx="2" ry="2"/>
<text x="84.5" y="638.0">org/apache/ka..</text>
</g>
<g>
<title>org/apache/kafka/clients/consumer/internals/ConsumerNetworkClient.poll (1 samples, 3.03%)</title><rect x="81.5" y="611.0" width="35.8" height="15" fill="#6dfe6d" rx="2" ry="2"/>
<text x="84.5" y="622.0">org..</text>
</g>
<g>
<title>org/apache/kafka/clients/consumer/internals/ConsumerNetworkClient.poll (1 samples, 3.03%)</title><rect x="81.5" y="595.0" width="35.8" height="15" fill="#56e756" rx="2" ry="2"/>
<text x="84.5" y="606.0">org..</text>
</g>
<g>
<title>org/apache/kafka/clients/NetworkClient.poll (1 samples, 3.03%)</title><rect x="81.5" y="579.0" width="35.8" height="15" fill="#5ff05f" rx="2" ry="2"/>
<text x="84.5" y="590.0">org..</text>
</g>
<g>
<title>org/apache/kafka/common/network/Selector.poll (1 samples, 3.03%)</title><rect x="81.5" y="563.0" width="35.8" height="15" fill="#69fa69" rx="2" ry="2"/>
<text x="84.5" y="574.0">org..</text>
</g>
<g>
<title>org/apache/kafka/common/network/Selector.pollSelectionKeys (1 samples, 3.03%)</title><rect x="81.5" y="547.0" width="35.8" height="15" fill="#62f362" rx="2" ry="2"/>
<text x="84.5" y="558.0">org..</text>
</g>
<g>
<title>org/apache/kafka/common/network/Selector$IdleExpiryManager.update (1 samples, 3.03%)</title><rect x="81.5" y="531.0" width="35.8" height="15" fill="#58e958" rx="2" ry="2"/>
<text x="84.5" y="542.0">org..</text>
</g>
<g>
<title>java/util/HashMap.put (1 samples, 3.03%)</title><rect x="81.5" y="515.0" width="35.8" height="15" fill="#63f463" rx="2" ry="2"/>
<text x="84.5" y="526.0">jav..</text>
</g>
<g>
<title>java/util/HashMap.putVal (1 samples, 3.03%)</title><rect x="81.5" y="499.0" width="35.8" height="15" fill="#5ff05f" rx="2" ry="2"/>
<text x="84.5" y="510.0">jav..</text>
</g>
<g>
<title>java/util/LinkedHashMap.afterNodeAccess (1 samples, 3.03%)</title><rect x="81.5" y="483.0" width="35.8" height="15" fill="#5eef5e" rx="2" ry="2"/>
<text x="84.5" y="494.0">jav..</text>
</g>
<g>
<title>org/apache/kafka/clients/consumer/internals/Fetcher.fetchedRecords (2 samples, 6.06%)</title><rect x="117.3" y="611.0" width="71.5" height="15" fill="#6dfe6d" rx="2" ry="2"/>
<text x="120.3" y="622.0">org/apac..</text>
</g>
<g>
<title>org/apache/kafka/clients/consumer/internals/Fetcher.fetchRecords (2 samples, 6.06%)</title><rect x="117.3" y="595.0" width="71.5" height="15" fill="#58e958" rx="2" ry="2"/>
<text x="120.3" y="606.0">org/apac..</text>
</g>
<g>
<title>org/apache/kafka/clients/consumer/internals/Fetcher$CompletedFetch.access$1700 (2 samples, 6.06%)</title><rect x="117.3" y="579.0" width="71.5" height="15" fill="#67f867" rx="2" ry="2"/>
<text x="120.3" y="590.0">org/apac..</text>
</g>
<g>
<title>org/apache/kafka/clients/consumer/internals/Fetcher$CompletedFetch.fetchRecords (2 samples, 6.06%)</title><rect x="117.3" y="563.0" width="71.5" height="15" fill="#5ff05f" rx="2" ry="2"/>
<text x="120.3" y="574.0">org/apac..</text>
</g>
<g>
<title>org/apache/kafka/clients/consumer/internals/Fetcher$CompletedFetch.nextFetchedRecord (1 samples, 3.03%)</title><rect x="117.3" y="547.0" width="35.7" height="15" fill="#67f867" rx="2" ry="2"/>
<text x="120.3" y="558.0">org..</text>
</g>
<g>
<title>org/apache/kafka/clients/consumer/internals/Fetcher$CompletedFetch.drain (1 samples, 3.03%)</title><rect x="117.3" y="531.0" width="35.7" height="15" fill="#5ced5c" rx="2" ry="2"/>
<text x="120.3" y="542.0">org..</text>
</g>
<g>
<title>org/apache/kafka/clients/consumer/internals/Fetcher$FetchResponseMetricAggregator.record (1 samples, 3.03%)</title><rect x="117.3" y="515.0" width="35.7" height="15" fill="#6afb6a" rx="2" ry="2"/>
<text x="120.3" y="526.0">org..</text>
</g>
<g>
<title>org/apache/kafka/clients/consumer/internals/Fetcher$FetchManagerMetrics.access$4100 (1 samples, 3.03%)</title><rect x="117.3" y="499.0" width="35.7" height="15" fill="#58e958" rx="2" ry="2"/>
<text x="120.3" y="510.0">org..</text>
</g>
<g>
<title>org/apache/kafka/clients/consumer/internals/Fetcher$FetchManagerMetrics.recordTopicFetchMetrics (1 samples, 3.03%)</title><rect x="117.3" y="483.0" width="35.7" height="15" fill="#5aeb5a" rx="2" ry="2"/>
<text x="120.3" y="494.0">org..</text>
</g>
<g>
<title>org/apache/kafka/clients/consumer/internals/Fetcher.access$3500 (1 samples, 3.03%)</title><rect x="153.0" y="547.0" width="35.8" height="15" fill="#68f968" rx="2" ry="2"/>
<text x="156.0" y="558.0">org..</text>
</g>
<g>
<title>org/apache/kafka/clients/consumer/internals/Fetcher.parseRecord (1 samples, 3.03%)</title><rect x="153.0" y="531.0" width="35.8" height="15" fill="#6bfc6b" rx="2" ry="2"/>
<text x="156.0" y="542.0">org..</text>
</g>
<g>
<title>org/apache/kafka/common/header/internals/RecordHeaders.&lt;init&gt; (1 samples, 3.03%)</title><rect x="153.0" y="515.0" width="35.8" height="15" fill="#52e352" rx="2" ry="2"/>
<text x="156.0" y="526.0">org..</text>
</g>
<g>
<title>java/util/ArrayList.&lt;init&gt; (1 samples, 3.03%)</title><rect x="153.0" y="499.0" width="35.8" height="15" fill="#6cfd6c" rx="2" ry="2"/>
<text x="156.0" y="510.0">jav..</text>
</g>
<g>
<title>start_thread (28 samples, 84.85%)</title><rect x="188.8" y="691.0" width="1001.2" height="15" fill="#f06f6f" rx="2" ry="2"/>
<text x="191.8" y="702.0">start_thread</text>
</g>
<g>
<title>java_start(Thread*) (28 samples, 84.85%)</title><rect x="188.8" y="675.0" width="1001.2" height="15" fill="#e35d5d" rx="2" ry="2"/>
<text x="191.8" y="686.0">java_start(Thread*)</text>
</g>
<g>
<title>JavaThread::thread_main_inner() (28 samples, 84.85%)</title><rect x="188.8" y="659.0" width="1001.2" height="15" fill="#cdcd3d" rx="2" ry="2"/>
<text x="191.8" y="670.0">JavaThread::thread_main_inner()</text>
</g>
<g>
<title>CompileBroker::compiler_thread_loop() (28 samples, 84.85%)</title><rect x="188.8" y="643.0" width="1001.2" height="15" fill="#dbdb42" rx="2" ry="2"/>
<text x="191.8" y="654.0">CompileBroker::compiler_thread_loop()</text>
</g>
<g>
<title>CompileBroker::invoke_compiler_on_method(CompileTask*) (28 samples, 84.85%)</title><rect x="188.8" y="627.0" width="1001.2" height="15" fill="#e2e244" rx="2" ry="2"/>
<text x="191.8" y="638.0">CompileBroker::invoke_compiler_on_method(CompileTask*)</text>
</g>
<g>
<title>C2Compiler::compile_method(ciEnv*, ciMethod*, int) (27 samples, 81.82%)</title><rect x="188.8" y="611.0" width="965.4" height="15" fill="#d2d23f" rx="2" ry="2"/>
<text x="191.8" y="622.0">C2Compiler::compile_method(ciEnv*, ciMethod*, int)</text>
</g>
<g>
<title>Compile::Compile(ciEnv*, C2Compiler*, ciMethod*, int, bool, bool, bool) (27 samples, 81.82%)</title><rect x="188.8" y="595.0" width="965.4" height="15" fill="#c9c93c" rx="2" ry="2"/>
<text x="191.8" y="606.0">Compile::Compile(ciEnv*, C2Compiler*, ciMethod*, int, bool, bool, bool)</text>
</g>
<g>
<title>Compile::Code_Gen() (15 samples, 45.45%)</title><rect x="188.8" y="579.0" width="536.4" height="15" fill="#c8c83c" rx="2" ry="2"/>
<text x="191.8" y="590.0">Compile::Code_Gen()</text>
</g>
<g>
<title>Compile::Output() (2 samples, 6.06%)</title><rect x="188.8" y="563.0" width="71.5" height="15" fill="#d5d540" rx="2" ry="2"/>
<text x="191.8" y="574.0">Compile:..</text>
</g>
<g>
<title>Compile::BuildOopMaps() (2 samples, 6.06%)</title><rect x="188.8" y="547.0" width="71.5" height="15" fill="#c9c93c" rx="2" ry="2"/>
<text x="191.8" y="558.0">Compile:..</text>
</g>
<g>
<title>OopFlow::compute_reach(PhaseRegAlloc*, int, Dict*) (1 samples, 3.03%)</title><rect x="224.5" y="531.0" width="35.8" height="15" fill="#cfcf3e" rx="2" ry="2"/>
<text x="227.5" y="542.0">Oop..</text>
</g>
<g>
<title>Dict::operator[](void const*) const (1 samples, 3.03%)</title><rect x="224.5" y="515.0" width="35.8" height="15" fill="#e5e545" rx="2" ry="2"/>
<text x="227.5" y="526.0">Dic..</text>
</g>
<g>
<title>Matcher::match() (2 samples, 6.06%)</title><rect x="260.3" y="563.0" width="71.5" height="15" fill="#e3e345" rx="2" ry="2"/>
<text x="263.3" y="574.0">Matcher:..</text>
</g>
<g>
<title>Matcher::xform(Node*, int) (2 samples, 6.06%)</title><rect x="260.3" y="547.0" width="71.5" height="15" fill="#e1e144" rx="2" ry="2"/>
<text x="263.3" y="558.0">Matcher:..</text>
</g>
<g>
<title>Arena::contains(void const*) const (1 samples, 3.03%)</title><rect x="260.3" y="531.0" width="35.8" height="15" fill="#cfcf3e" rx="2" ry="2"/>
<text x="263.3" y="542.0">Are..</text>
</g>
<g>
<title>Matcher::match_tree(Node const*) (1 samples, 3.03%)</title><rect x="296.1" y="531.0" width="35.7" height="15" fill="#d8d841" rx="2" ry="2"/>
<text x="299.1" y="542.0">Mat..</text>
</g>
<g>
<title>Matcher::Label_Root(Node const*, State*, Node*, Node const*) (1 samples, 3.03%)</title><rect x="296.1" y="515.0" width="35.7" height="15" fill="#d3d33f" rx="2" ry="2"/>
<text x="299.1" y="526.0">Mat..</text>
</g>
<g>
<title>Matcher::Label_Root(Node const*, State*, Node*, Node const*) (1 samples, 3.03%)</title><rect x="296.1" y="499.0" width="35.7" height="15" fill="#dede43" rx="2" ry="2"/>
<text x="299.1" y="510.0">Mat..</text>
</g>
<g>
<title>State::_sub_Op_Binary(Node const*) (1 samples, 3.03%)</title><rect x="296.1" y="483.0" width="35.7" height="15" fill="#d7d741" rx="2" ry="2"/>
<text x="299.1" y="494.0">Sta..</text>
</g>
<g>
<title>PhaseChaitin::Register_Allocate() (11 samples, 33.33%)</title><rect x="331.8" y="563.0" width="393.4" height="15" fill="#dcdc42" rx="2" ry="2"/>
<text x="334.8" y="574.0">PhaseChaitin::Register_Allocate()</text>
</g>
<g>
<title>PhaseChaitin::Split(unsigned int, ResourceArea*) (1 samples, 3.03%)</title><rect x="331.8" y="547.0" width="35.8" height="15" fill="#d7d741" rx="2" ry="2"/>
<text x="334.8" y="558.0">Pha..</text>
</g>
<g>
<title>PhaseChaitin::build_ifg_physical(ResourceArea*) (2 samples, 6.06%)</title><rect x="367.6" y="547.0" width="71.5" height="15" fill="#c9c93c" rx="2" ry="2"/>
<text x="370.6" y="558.0">PhaseCha..</text>
</g>
<g>
<title>PhaseChaitin::gather_lrg_masks(bool) [clone .constprop.214] (1 samples, 3.03%)</title><rect x="439.1" y="547.0" width="35.7" height="15" fill="#d5d540" rx="2" ry="2"/>
<text x="442.1" y="558.0">Pha..</text>
</g>
<g>
<title>PhaseChaitin::gather_lrg_masks(bool) [clone .constprop.215] (1 samples, 3.03%)</title><rect x="474.8" y="547.0" width="35.8" height="15" fill="#e3e345" rx="2" ry="2"/>
<text x="477.8" y="558.0">Pha..</text>
</g>
<g>
<title>RegMask::Size() const (1 samples, 3.03%)</title><rect x="474.8" y="531.0" width="35.8" height="15" fill="#e3e345" rx="2" ry="2"/>
<text x="477.8" y="542.0">Reg..</text>
</g>
<g>
<title>PhaseChaitin::post_allocate_copy_removal() (1 samples, 3.03%)</title><rect x="510.6" y="547.0" width="35.8" height="15" fill="#dddd43" rx="2" ry="2"/>
<text x="513.6" y="558.0">Pha..</text>
</g>
<g>
<title>PhaseChaitin::elide_copy(Node*, int, Block*, Node_List&amp;, Node_List&amp;, bool) (1 samples, 3.03%)</title><rect x="510.6" y="531.0" width="35.8" height="15" fill="#d0d03e" rx="2" ry="2"/>
<text x="513.6" y="542.0">Pha..</text>
</g>
<g>
<title>PhaseIFG::Compute_Effective_Degree() (2 samples, 6.06%)</title><rect x="546.4" y="547.0" width="71.5" height="15" fill="#dede43" rx="2" ry="2"/>
<text x="549.4" y="558.0">PhaseIFG..</text>
</g>
<g>
<title>IndexSetIterator::IndexSetIterator(IndexSet*) (1 samples, 3.03%)</title><rect x="546.4" y="531.0" width="35.7" height="15" fill="#dbdb42" rx="2" ry="2"/>
<text x="549.4" y="542.0">Ind..</text>
</g>
<g>
<title>IndexSetIterator::advance_and_next() (1 samples, 3.03%)</title><rect x="582.1" y="531.0" width="35.8" height="15" fill="#d2d23f" rx="2" ry="2"/>
<text x="585.1" y="542.0">Ind..</text>
</g>
<g>
<title>PhaseIFG::SquareUp() (2 samples, 6.06%)</title><rect x="617.9" y="547.0" width="71.5" height="15" fill="#dcdc42" rx="2" ry="2"/>
<text x="620.9" y="558.0">PhaseIFG..</text>
</g>
<g>
<title>IndexSetIterator::advance_and_next() (2 samples, 6.06%)</title><rect x="617.9" y="531.0" width="71.5" height="15" fill="#cccc3d" rx="2" ry="2"/>
<text x="620.9" y="542.0">IndexSet..</text>
</g>
<g>
<title>PhaseLive::compute(unsigned int) (1 samples, 3.03%)</title><rect x="689.4" y="547.0" width="35.8" height="15" fill="#d5d540" rx="2" ry="2"/>
<text x="692.4" y="558.0">Pha..</text>
</g>
<g>
<title>Compile::Optimize() (5 samples, 15.15%)</title><rect x="725.2" y="579.0" width="178.7" height="15" fill="#e2e244" rx="2" ry="2"/>
<text x="728.2" y="590.0">Compile::Optimize()</text>
</g>
<g>
<title>ConnectionGraph::do_analysis(Compile*, PhaseIterGVN*) (1 samples, 3.03%)</title><rect x="725.2" y="563.0" width="35.7" height="15" fill="#e0e044" rx="2" ry="2"/>
<text x="728.2" y="574.0">Con..</text>
</g>
<g>
<title>ConnectionGraph::compute_escape() (1 samples, 3.03%)</title><rect x="725.2" y="547.0" width="35.7" height="15" fill="#d1d13f" rx="2" ry="2"/>
<text x="728.2" y="558.0">Con..</text>
</g>
<g>
<title>PhaseCCP::analyze() (1 samples, 3.03%)</title><rect x="760.9" y="563.0" width="35.8" height="15" fill="#cece3e" rx="2" ry="2"/>
<text x="763.9" y="574.0">Pha..</text>
</g>
<g>
<title>VectorSet::operator&gt;&gt;=(unsigned int) (1 samples, 3.03%)</title><rect x="760.9" y="547.0" width="35.8" height="15" fill="#e2e244" rx="2" ry="2"/>
<text x="763.9" y="558.0">Vec..</text>
</g>
<g>
<title>PhaseIdealLoop::build_and_optimize(bool, bool) (3 samples, 9.09%)</title><rect x="796.7" y="563.0" width="107.2" height="15" fill="#d2d23f" rx="2" ry="2"/>
<text x="799.7" y="574.0">PhaseIdealLoo..</text>
</g>
<g>
<title>PhaseIdealLoop::build_loop_late(VectorSet&amp;, Node_List&amp;, Node_Stack&amp;) (2 samples, 6.06%)</title><rect x="796.7" y="547.0" width="71.5" height="15" fill="#dcdc42" rx="2" ry="2"/>
<text x="799.7" y="558.0">PhaseIde..</text>
</g>
<g>
<title>PhaseIdealLoop::build_loop_late_post(Node*) (2 samples, 6.06%)</title><rect x="796.7" y="531.0" width="71.5" height="15" fill="#e4e445" rx="2" ry="2"/>
<text x="799.7" y="542.0">PhaseIde..</text>
</g>
<g>
<title>PhaseIdealLoop::get_late_ctrl(Node*, Node*) (1 samples, 3.03%)</title><rect x="796.7" y="515.0" width="35.7" height="15" fill="#d9d941" rx="2" ry="2"/>
<text x="799.7" y="526.0">Pha..</text>
</g>
<g>
<title>PhaseIdealLoop::is_dominator(Node*, Node*) (1 samples, 3.03%)</title><rect x="796.7" y="499.0" width="35.7" height="15" fill="#dbdb42" rx="2" ry="2"/>
<text x="799.7" y="510.0">Pha..</text>
</g>
<g>
<title>pthread_getspecific (1 samples, 3.03%)</title><rect x="832.4" y="515.0" width="35.8" height="15" fill="#fa7c7c" rx="2" ry="2"/>
<text x="835.4" y="526.0">pth..</text>
</g>
<g>
<title>PhaseIterGVN::optimize() (1 samples, 3.03%)</title><rect x="868.2" y="547.0" width="35.7" height="15" fill="#d5d540" rx="2" ry="2"/>
<text x="871.2" y="558.0">Pha..</text>
</g>
<g>
<title>PhaseIterGVN::transform_old(Node*) (1 samples, 3.03%)</title><rect x="868.2" y="531.0" width="35.7" height="15" fill="#e3e345" rx="2" ry="2"/>
<text x="871.2" y="542.0">Pha..</text>
</g>
<g>
<title>LoadNode::Ideal(PhaseGVN*, bool) (1 samples, 3.03%)</title><rect x="868.2" y="515.0" width="35.7" height="15" fill="#d3d33f" rx="2" ry="2"/>
<text x="871.2" y="526.0">Loa..</text>
</g>
<g>
<title>MemNode::find_previous_store(PhaseTransform*) (1 samples, 3.03%)</title><rect x="868.2" y="499.0" width="35.7" height="15" fill="#e0e044" rx="2" ry="2"/>
<text x="871.2" y="510.0">Mem..</text>
</g>
<g>
<title>TypeInstPtr::add_offset(long) const (1 samples, 3.03%)</title><rect x="868.2" y="483.0" width="35.7" height="15" fill="#dcdc42" rx="2" ry="2"/>
<text x="871.2" y="494.0">Typ..</text>
</g>
<g>
<title>TypeInstPtr::make(TypePtr::PTR, ciKlass*, bool, ciObject*, int, int, TypeOopPtr const*, int) (1 samples, 3.03%)</title><rect x="868.2" y="467.0" width="35.7" height="15" fill="#e3e345" rx="2" ry="2"/>
<text x="871.2" y="478.0">Typ..</text>
</g>
<g>
<title>ParseGenerator::generate(JVMState*) (7 samples, 21.21%)</title><rect x="903.9" y="579.0" width="250.3" height="15" fill="#d6d640" rx="2" ry="2"/>
<text x="906.9" y="590.0">ParseGenerator::generate(JVMState*)</text>
</g>
<g>
<title>Parse::Parse(JVMState*, ciMethod*, float) (7 samples, 21.21%)</title><rect x="903.9" y="563.0" width="250.3" height="15" fill="#cece3e" rx="2" ry="2"/>
<text x="906.9" y="574.0">Parse::Parse(JVMState*, ciMethod*..</text>
</g>
<g>
<title>Parse::do_all_blocks() (7 samples, 21.21%)</title><rect x="903.9" y="547.0" width="250.3" height="15" fill="#e4e445" rx="2" ry="2"/>
<text x="906.9" y="558.0">Parse::do_all_blocks()</text>
</g>
<g>
<title>Parse::do_one_block() (7 samples, 21.21%)</title><rect x="903.9" y="531.0" width="250.3" height="15" fill="#e3e345" rx="2" ry="2"/>
<text x="906.9" y="542.0">Parse::do_one_block()</text>
</g>
<g>
<title>Parse::do_exceptions() (1 samples, 3.03%)</title><rect x="903.9" y="515.0" width="35.8" height="15" fill="#cccc3d" rx="2" ry="2"/>
<text x="906.9" y="526.0">Par..</text>
</g>
<g>
<title>Parse::catch_inline_exceptions(SafePointNode*) (1 samples, 3.03%)</title><rect x="903.9" y="499.0" width="35.8" height="15" fill="#e2e244" rx="2" ry="2"/>
<text x="906.9" y="510.0">Par..</text>
</g>
<g>
<title>GraphKit::use_exception_state(SafePointNode*) (1 samples, 3.03%)</title><rect x="903.9" y="483.0" width="35.8" height="15" fill="#dbdb42" rx="2" ry="2"/>
<text x="906.9" y="494.0">Gra..</text>
</g>
<g>
<title>PhaseGVN::transform_no_reclaim(Node*) (1 samples, 3.03%)</title><rect x="903.9" y="467.0" width="35.8" height="15" fill="#d4d440" rx="2" ry="2"/>
<text x="906.9" y="478.0">Pha..</text>
</g>
<g>
<title>PhiNode::Value(PhaseTransform*) const (1 samples, 3.03%)</title><rect x="903.9" y="451.0" width="35.8" height="15" fill="#dada42" rx="2" ry="2"/>
<text x="906.9" y="462.0">Phi..</text>
</g>
<g>
<title>Parse::do_one_bytecode() (6 samples, 18.18%)</title><rect x="939.7" y="515.0" width="214.5" height="15" fill="#d0d03e" rx="2" ry="2"/>
<text x="942.7" y="526.0">Parse::do_one_bytecode()</text>
</g>
<g>
<title>Parse::do_call() (5 samples, 15.15%)</title><rect x="939.7" y="499.0" width="178.8" height="15" fill="#dfdf43" rx="2" ry="2"/>
<text x="942.7" y="510.0">Parse::do_call()</text>
</g>
<g>
<title>ParseGenerator::generate(JVMState*) (3 samples, 9.09%)</title><rect x="939.7" y="483.0" width="107.3" height="15" fill="#d1d13f" rx="2" ry="2"/>
<text x="942.7" y="494.0">ParseGenerato..</text>
</g>
<g>
<title>Parse::Parse(JVMState*, ciMethod*, float) (3 samples, 9.09%)</title><rect x="939.7" y="467.0" width="107.3" height="15" fill="#d5d540" rx="2" ry="2"/>
<text x="942.7" y="478.0">Parse::Parse(..</text>
</g>
<g>
<title>Parse::do_all_blocks() (3 samples, 9.09%)</title><rect x="939.7" y="451.0" width="107.3" height="15" fill="#cece3e" rx="2" ry="2"/>
<text x="942.7" y="462.0">Parse::do_all..</text>
</g>
<g>
<title>Parse::do_one_block() (3 samples, 9.09%)</title><rect x="939.7" y="435.0" width="107.3" height="15" fill="#cdcd3d" rx="2" ry="2"/>
<text x="942.7" y="446.0">Parse::do_one..</text>
</g>
<g>
<title>Parse::do_one_bytecode() (3 samples, 9.09%)</title><rect x="939.7" y="419.0" width="107.3" height="15" fill="#d0d03e" rx="2" ry="2"/>
<text x="942.7" y="430.0">Parse::do_one..</text>
</g>
<g>
<title>Parse::do_call() (3 samples, 9.09%)</title><rect x="939.7" y="403.0" width="107.3" height="15" fill="#d8d841" rx="2" ry="2"/>
<text x="942.7" y="414.0">Parse::do_cal..</text>
</g>
<g>
<title>ParseGenerator::generate(JVMState*) (3 samples, 9.09%)</title><rect x="939.7" y="387.0" width="107.3" height="15" fill="#d4d440" rx="2" ry="2"/>
<text x="942.7" y="398.0">ParseGenerato..</text>
</g>
<g>
<title>Parse::Parse(JVMState*, ciMethod*, float) (3 samples, 9.09%)</title><rect x="939.7" y="371.0" width="107.3" height="15" fill="#cdcd3d" rx="2" ry="2"/>
<text x="942.7" y="382.0">Parse::Parse(..</text>
</g>
<g>
<title>Parse::do_all_blocks() (3 samples, 9.09%)</title><rect x="939.7" y="355.0" width="107.3" height="15" fill="#e3e345" rx="2" ry="2"/>
<text x="942.7" y="366.0">Parse::do_all..</text>
</g>
<g>
<title>Parse::do_one_block() (3 samples, 9.09%)</title><rect x="939.7" y="339.0" width="107.3" height="15" fill="#cbcb3d" rx="2" ry="2"/>
<text x="942.7" y="350.0">Parse::do_one..</text>
</g>
<g>
<title>Parse::do_one_bytecode() (3 samples, 9.09%)</title><rect x="939.7" y="323.0" width="107.3" height="15" fill="#cbcb3d" rx="2" ry="2"/>
<text x="942.7" y="334.0">Parse::do_one..</text>
</g>
<g>
<title>Parse::do_call() (2 samples, 6.06%)</title><rect x="939.7" y="307.0" width="71.5" height="15" fill="#d6d640" rx="2" ry="2"/>
<text x="942.7" y="318.0">Parse::d..</text>
</g>
<g>
<title>GraphKit::record_profile_for_speculation(Node*, ciKlass*) (1 samples, 3.03%)</title><rect x="939.7" y="291.0" width="35.8" height="15" fill="#dede43" rx="2" ry="2"/>
<text x="942.7" y="302.0">Gra..</text>
</g>
<g>
<title>TypeOopPtr::would_improve_type(ciKlass*, int) const (1 samples, 3.03%)</title><rect x="939.7" y="275.0" width="35.8" height="15" fill="#e5e545" rx="2" ry="2"/>
<text x="942.7" y="286.0">Typ..</text>
</g>
<g>
<title>TypeOopPtr::speculative_type() const (1 samples, 3.03%)</title><rect x="939.7" y="259.0" width="35.8" height="15" fill="#e4e445" rx="2" ry="2"/>
<text x="942.7" y="270.0">Typ..</text>
</g>
<g>
<title>TypeOopPtr::xmeet(Type const*) const (1 samples, 3.03%)</title><rect x="939.7" y="243.0" width="35.8" height="15" fill="#dcdc42" rx="2" ry="2"/>
<text x="942.7" y="254.0">Typ..</text>
</g>
<g>
<title>TypeInstPtr::xmeet_helper(Type const*) const (1 samples, 3.03%)</title><rect x="939.7" y="227.0" width="35.8" height="15" fill="#d3d33f" rx="2" ry="2"/>
<text x="942.7" y="238.0">Typ..</text>
</g>
<g>
<title>ParseGenerator::generate(JVMState*) (1 samples, 3.03%)</title><rect x="975.5" y="291.0" width="35.7" height="15" fill="#dede43" rx="2" ry="2"/>
<text x="978.5" y="302.0">Par..</text>
</g>
<g>
<title>Parse::Parse(JVMState*, ciMethod*, float) (1 samples, 3.03%)</title><rect x="975.5" y="275.0" width="35.7" height="15" fill="#d3d33f" rx="2" ry="2"/>
<text x="978.5" y="286.0">Par..</text>
</g>
<g>
<title>Parse::do_exits() (1 samples, 3.03%)</title><rect x="975.5" y="259.0" width="35.7" height="15" fill="#d0d03e" rx="2" ry="2"/>
<text x="978.5" y="270.0">Par..</text>
</g>
<g>
<title>PhaseGVN::transform_no_reclaim(Node*) (1 samples, 3.03%)</title><rect x="975.5" y="243.0" width="35.7" height="15" fill="#cece3e" rx="2" ry="2"/>
<text x="978.5" y="254.0">Pha..</text>
</g>
<g>
<title>PhiNode::Value(PhaseTransform*) const (1 samples, 3.03%)</title><rect x="975.5" y="227.0" width="35.7" height="15" fill="#d9d941" rx="2" ry="2"/>
<text x="978.5" y="238.0">Phi..</text>
</g>
<g>
<title>Type::filter_helper(Type const*, bool) const (1 samples, 3.03%)</title><rect x="975.5" y="211.0" width="35.7" height="15" fill="#cfcf3e" rx="2" ry="2"/>
<text x="978.5" y="222.0">Typ..</text>
</g>
<g>
<title>Type::empty() const (1 samples, 3.03%)</title><rect x="975.5" y="195.0" width="35.7" height="15" fill="#cccc3d" rx="2" ry="2"/>
<text x="978.5" y="206.0">Typ..</text>
</g>
<g>
<title>Parse::do_ifnull(BoolTest::mask, Node*) (1 samples, 3.03%)</title><rect x="1011.2" y="307.0" width="35.8" height="15" fill="#dddd43" rx="2" ry="2"/>
<text x="1014.2" y="318.0">Par..</text>
</g>
<g>
<title>Parse::Block::successor_for_bci(int) (1 samples, 3.03%)</title><rect x="1011.2" y="291.0" width="35.8" height="15" fill="#cbcb3d" rx="2" ry="2"/>
<text x="1014.2" y="302.0">Par..</text>
</g>
<g>
<title>PredictedCallGenerator::generate(JVMState*) (1 samples, 3.03%)</title><rect x="1047.0" y="483.0" width="35.7" height="15" fill="#dfdf43" rx="2" ry="2"/>
<text x="1050.0" y="494.0">Pre..</text>
</g>
<g>
<title>ParseGenerator::generate(JVMState*) (1 samples, 3.03%)</title><rect x="1047.0" y="467.0" width="35.7" height="15" fill="#cccc3d" rx="2" ry="2"/>
<text x="1050.0" y="478.0">Par..</text>
</g>
<g>
<title>Parse::Parse(JVMState*, ciMethod*, float) (1 samples, 3.03%)</title><rect x="1047.0" y="451.0" width="35.7" height="15" fill="#dede43" rx="2" ry="2"/>
<text x="1050.0" y="462.0">Par..</text>
</g>
<g>
<title>Parse::do_all_blocks() (1 samples, 3.03%)</title><rect x="1047.0" y="435.0" width="35.7" height="15" fill="#caca3c" rx="2" ry="2"/>
<text x="1050.0" y="446.0">Par..</text>
</g>
<g>
<title>Parse::do_one_block() (1 samples, 3.03%)</title><rect x="1047.0" y="419.0" width="35.7" height="15" fill="#e4e445" rx="2" ry="2"/>
<text x="1050.0" y="430.0">Par..</text>
</g>
<g>
<title>Parse::do_one_bytecode() (1 samples, 3.03%)</title><rect x="1047.0" y="403.0" width="35.7" height="15" fill="#c9c93c" rx="2" ry="2"/>
<text x="1050.0" y="414.0">Par..</text>
</g>
<g>
<title>Parse::do_call() (1 samples, 3.03%)</title><rect x="1047.0" y="387.0" width="35.7" height="15" fill="#d7d741" rx="2" ry="2"/>
<text x="1050.0" y="398.0">Par..</text>
</g>
<g>
<title>ParseGenerator::generate(JVMState*) (1 samples, 3.03%)</title><rect x="1047.0" y="371.0" width="35.7" height="15" fill="#cdcd3d" rx="2" ry="2"/>
<text x="1050.0" y="382.0">Par..</text>
</g>
<g>
<title>Parse::Parse(JVMState*, ciMethod*, float) (1 samples, 3.03%)</title><rect x="1047.0" y="355.0" width="35.7" height="15" fill="#cfcf3e" rx="2" ry="2"/>
<text x="1050.0" y="366.0">Par..</text>
</g>
<g>
<title>Parse::do_all_blocks() (1 samples, 3.03%)</title><rect x="1047.0" y="339.0" width="35.7" height="15" fill="#dfdf43" rx="2" ry="2"/>
<text x="1050.0" y="350.0">Par..</text>
</g>
<g>
<title>Parse::do_one_block() (1 samples, 3.03%)</title><rect x="1047.0" y="323.0" width="35.7" height="15" fill="#dddd43" rx="2" ry="2"/>
<text x="1050.0" y="334.0">Par..</text>
</g>
<g>
<title>Parse::do_one_bytecode() (1 samples, 3.03%)</title><rect x="1047.0" y="307.0" width="35.7" height="15" fill="#dbdb42" rx="2" ry="2"/>
<text x="1050.0" y="318.0">Par..</text>
</g>
<g>
<title>Parse::do_call() (1 samples, 3.03%)</title><rect x="1047.0" y="291.0" width="35.7" height="15" fill="#e5e545" rx="2" ry="2"/>
<text x="1050.0" y="302.0">Par..</text>
</g>
<g>
<title>ParseGenerator::generate(JVMState*) (1 samples, 3.03%)</title><rect x="1047.0" y="275.0" width="35.7" height="15" fill="#dbdb42" rx="2" ry="2"/>
<text x="1050.0" y="286.0">Par..</text>
</g>
<g>
<title>Parse::Parse(JVMState*, ciMethod*, float) (1 samples, 3.03%)</title><rect x="1047.0" y="259.0" width="35.7" height="15" fill="#dede43" rx="2" ry="2"/>
<text x="1050.0" y="270.0">Par..</text>
</g>
<g>
<title>Parse::do_all_blocks() (1 samples, 3.03%)</title><rect x="1047.0" y="243.0" width="35.7" height="15" fill="#caca3c" rx="2" ry="2"/>
<text x="1050.0" y="254.0">Par..</text>
</g>
<g>
<title>Parse::do_one_block() (1 samples, 3.03%)</title><rect x="1047.0" y="227.0" width="35.7" height="15" fill="#cccc3d" rx="2" ry="2"/>
<text x="1050.0" y="238.0">Par..</text>
</g>
<g>
<title>Parse::do_one_bytecode() (1 samples, 3.03%)</title><rect x="1047.0" y="211.0" width="35.7" height="15" fill="#d7d741" rx="2" ry="2"/>
<text x="1050.0" y="222.0">Par..</text>
</g>
<g>
<title>Parse::do_call() (1 samples, 3.03%)</title><rect x="1047.0" y="195.0" width="35.7" height="15" fill="#caca3c" rx="2" ry="2"/>
<text x="1050.0" y="206.0">Par..</text>
</g>
<g>
<title>ParseGenerator::generate(JVMState*) (1 samples, 3.03%)</title><rect x="1047.0" y="179.0" width="35.7" height="15" fill="#caca3c" rx="2" ry="2"/>
<text x="1050.0" y="190.0">Par..</text>
</g>
<g>
<title>Parse::Parse(JVMState*, ciMethod*, float) (1 samples, 3.03%)</title><rect x="1047.0" y="163.0" width="35.7" height="15" fill="#cece3e" rx="2" ry="2"/>
<text x="1050.0" y="174.0">Par..</text>
</g>
<g>
<title>Parse::do_all_blocks() (1 samples, 3.03%)</title><rect x="1047.0" y="147.0" width="35.7" height="15" fill="#d5d540" rx="2" ry="2"/>
<text x="1050.0" y="158.0">Par..</text>
</g>
<g>
<title>Parse::do_one_block() (1 samples, 3.03%)</title><rect x="1047.0" y="131.0" width="35.7" height="15" fill="#e0e044" rx="2" ry="2"/>
<text x="1050.0" y="142.0">Par..</text>
</g>
<g>
<title>Parse::do_one_bytecode() (1 samples, 3.03%)</title><rect x="1047.0" y="115.0" width="35.7" height="15" fill="#d9d941" rx="2" ry="2"/>
<text x="1050.0" y="126.0">Par..</text>
</g>
<g>
<title>Parse::do_call() (1 samples, 3.03%)</title><rect x="1047.0" y="99.0" width="35.7" height="15" fill="#dede43" rx="2" ry="2"/>
<text x="1050.0" y="110.0">Par..</text>
</g>
<g>
<title>DirectCallGenerator::generate(JVMState*) (1 samples, 3.03%)</title><rect x="1047.0" y="83.0" width="35.7" height="15" fill="#c9c93c" rx="2" ry="2"/>
<text x="1050.0" y="94.0">Dir..</text>
</g>
<g>
<title>GraphKit::set_edges_for_java_call(CallJavaNode*, bool, bool) (1 samples, 3.03%)</title><rect x="1047.0" y="67.0" width="35.7" height="15" fill="#cccc3d" rx="2" ry="2"/>
<text x="1050.0" y="78.0">Gra..</text>
</g>
<g>
<title>PhaseGVN::transform_no_reclaim(Node*) (1 samples, 3.03%)</title><rect x="1047.0" y="51.0" width="35.7" height="15" fill="#e5e545" rx="2" ry="2"/>
<text x="1050.0" y="62.0">Pha..</text>
</g>
<g>
<title>NodeHash::hash_find_insert(Node*) (1 samples, 3.03%)</title><rect x="1047.0" y="35.0" width="35.7" height="15" fill="#cece3e" rx="2" ry="2"/>
<text x="1050.0" y="46.0">Nod..</text>
</g>
<g>
<title>VirtualCallGenerator::generate(JVMState*) (1 samples, 3.03%)</title><rect x="1082.7" y="483.0" width="35.8" height="15" fill="#e2e244" rx="2" ry="2"/>
<text x="1085.7" y="494.0">Vir..</text>
</g>
<g>
<title>GraphKit::set_all_memory_call(Node*, bool) (1 samples, 3.03%)</title><rect x="1082.7" y="467.0" width="35.8" height="15" fill="#cbcb3d" rx="2" ry="2"/>
<text x="1085.7" y="478.0">Gra..</text>
</g>
<g>
<title>PhaseGVN::transform_no_reclaim(Node*) (1 samples, 3.03%)</title><rect x="1082.7" y="451.0" width="35.8" height="15" fill="#e5e545" rx="2" ry="2"/>
<text x="1085.7" y="462.0">Pha..</text>
</g>
<g>
<title>NodeHash::hash_find_insert(Node*) (1 samples, 3.03%)</title><rect x="1082.7" y="435.0" width="35.8" height="15" fill="#c9c93c" rx="2" ry="2"/>
<text x="1085.7" y="446.0">Nod..</text>
</g>
<g>
<title>Parse::do_field_access(bool, bool) (1 samples, 3.03%)</title><rect x="1118.5" y="499.0" width="35.7" height="15" fill="#e2e244" rx="2" ry="2"/>
<text x="1121.5" y="510.0">Par..</text>
</g>
<g>
<title>GraphKit::null_check_common(Node*, BasicType, bool, Node**) (1 samples, 3.03%)</title><rect x="1118.5" y="483.0" width="35.7" height="15" fill="#caca3c" rx="2" ry="2"/>
<text x="1121.5" y="494.0">Gra..</text>
</g>
<g>
<title>GraphKit::replace_in_map(Node*, Node*) (1 samples, 3.03%)</title><rect x="1118.5" y="467.0" width="35.7" height="15" fill="#c8c83c" rx="2" ry="2"/>
<text x="1121.5" y="478.0">Gra..</text>
</g>
<g>
<title>Node::replace_edge(Node*, Node*) (1 samples, 3.03%)</title><rect x="1118.5" y="451.0" width="35.7" height="15" fill="#e3e345" rx="2" ry="2"/>
<text x="1121.5" y="462.0">Nod..</text>
</g>
<g>
<title>Compiler::compile_method(ciEnv*, ciMethod*, int) (1 samples, 3.03%)</title><rect x="1154.2" y="611.0" width="35.8" height="15" fill="#d9d941" rx="2" ry="2"/>
<text x="1157.2" y="622.0">Com..</text>
</g>
<g>
<title>Compilation::Compilation(AbstractCompiler*, ciEnv*, ciMethod*, int, BufferBlob*) (1 samples, 3.03%)</title><rect x="1154.2" y="595.0" width="35.8" height="15" fill="#cdcd3d" rx="2" ry="2"/>
<text x="1157.2" y="606.0">Com..</text>
</g>
<g>
<title>Compilation::compile_method() (1 samples, 3.03%)</title><rect x="1154.2" y="579.0" width="35.8" height="15" fill="#cccc3d" rx="2" ry="2"/>
<text x="1157.2" y="590.0">Com..</text>
</g>
<g>
<title>Compilation::compile_java_method() (1 samples, 3.03%)</title><rect x="1154.2" y="563.0" width="35.8" height="15" fill="#d3d33f" rx="2" ry="2"/>
<text x="1157.2" y="574.0">Com..</text>
</g>
<g>
<title>Compilation::emit_lir() (1 samples, 3.03%)</title><rect x="1154.2" y="547.0" width="35.8" height="15" fill="#e3e345" rx="2" ry="2"/>
<text x="1157.2" y="558.0">Com..</text>
</g>
<g>
<title>LinearScan::do_linear_scan() (1 samples, 3.03%)</title><rect x="1154.2" y="531.0" width="35.8" height="15" fill="#e0e044" rx="2" ry="2"/>
<text x="1157.2" y="542.0">Lin..</text>
</g>
<g>
<title>LinearScan::build_intervals() (1 samples, 3.03%)</title><rect x="1154.2" y="515.0" width="35.8" height="15" fill="#d2d23f" rx="2" ry="2"/>
<text x="1157.2" y="526.0">Lin..</text>
</g>
<g>
<title>LinearScan::handle_doubleword_moves(LIR_Op*) (1 samples, 3.03%)</title><rect x="1154.2" y="499.0" width="35.8" height="15" fill="#d8d841" rx="2" ry="2"/>
<text x="1157.2" y="510.0">Lin..</text>
</g>
</g>
</svg>
