<?xml version="1.0" standalone="no"?>
<!DOCTYPE svg PUBLIC "-//W3C//DTD SVG 1.1//EN" "http://www.w3.org/Graphics/SVG/1.1/DTD/svg11.dtd">
<svg version="1.1" width="1200" height="390" onload="init(evt)" viewBox="0 0 1200 390" xmlns="http://www.w3.org/2000/svg" xmlns:xlink="http://www.w3.org/1999/xlink">
<style type="text/css">
	text { font-family:Verdana; font-size:12px; fill:rgb(0,0,0); }
	#search { opacity:0.1; cursor:pointer; }
	#search:hover, #search.show { opacity:1; }
	#subtitle { text-anchor:middle; font-color:rgb(160,160,160); }
	#title { text-anchor:middle; font-size:17px}
	#unzoom { cursor:pointer; }
	#frames > *:hover { stroke:black; stroke-width:0.5; cursor:pointer; }
	.hide { display:none; }
	.parent { opacity:0.5; }
</style>
<script type="text/ecmascript">
<![CDATA[
	"use strict";
	var details, searchbtn, unzoombtn, matchedtxt, svg, searching;
	function init(evt) {
		details = document.getElementById("details").firstChild;
		searchbtn = document.getElementById("search");
		unzoombtn = document.getElementById("unzoom");
		matchedtxt = document.getElementById("matched");
		svg = document.getElementsByTagName("svg")[0];
		searching = 0;
	}

	window.addEventListener("click", function(e) {
		var target = find_group(e.target);
		if (target) {
			if (target.nodeName == "a") {
				if (e.ctrlKey === false) return;
				e.preventDefault();
			}
			if (target.classList.contains("parent")) unzoom();
			zoom(target);
		}
		else if (e.target.id == "unzoom") unzoom();
		else if (e.target.id == "search") search_prompt();
	}, false)

	// mouse-over for info
	// show
	window.addEventListener("mouseover", function(e) {
		var target = find_group(e.target);
		if (target) details.nodeValue = "Function: " + g_to_text(target);
	}, false)

	// clear
	window.addEventListener("mouseout", function(e) {
		var target = find_group(e.target);
		if (target) details.nodeValue = ' ';
	}, false)

	// ctrl-F for search
	window.addEventListener("keydown",function (e) {
		if (e.keyCode === 114 || (e.ctrlKey && e.keyCode === 70)) {
			e.preventDefault();
			search_prompt();
		}
	}, false)

	// functions
	function find_child(node, selector) {
		var children = node.querySelectorAll(selector);
		if (children.length) return children[0];
		return;
	}
	function find_group(node) {
		var parent = node.parentElement;
		if (!parent) return;
		if (parent.id == "frames") return node;
		return find_group(parent);
	}
	function orig_save(e, attr, val) {
		if (e.attributes["_orig_" + attr] != undefined) return;
		if (e.attributes[attr] == undefined) return;
		if (val == undefined) val = e.attributes[attr].value;
		e.setAttribute("_orig_" + attr, val);
	}
	function orig_load(e, attr) {
		if (e.attributes["_orig_"+attr] == undefined) return;
		e.attributes[attr].value = e.attributes["_orig_" + attr].value;
		e.removeAttribute("_orig_"+attr);
	}
	function g_to_text(e) {
		var text = find_child(e, "title").firstChild.nodeValue;
		return (text)
	}
	function g_to_func(e) {
		var func = g_to_text(e);
		// if there's any manipulation we want to do to the function
		// name before it's searched, do it here before returning.
		return (func);
	}
	function update_text(e) {
		var r = find_child(e, "rect");
		var t = find_child(e, "text");
		var w = parseFloat(r.attributes.width.value) -3;
		var txt = find_child(e, "title").textContent.replace(/\([^(]*\)$/,"");
		t.attributes.x.value = parseFloat(r.attributes.x.value) + 3;

		// Smaller than this size won't fit anything
		if (w < 2 * 12 * 0.59) {
			t.textContent = "";
			return;
		}

		t.textContent = txt;
		// Fit in full text width
		if (/^ *$/.test(txt) || t.getSubStringLength(0, txt.length) < w)
			return;

		for (var x = txt.length - 2; x > 0; x--) {
			if (t.getSubStringLength(0, x + 2) <= w) {
				t.textContent = txt.substring(0, x) + "..";
				return;
			}
		}
		t.textContent = "";
	}

	// zoom
	function zoom_reset(e) {
		if (e.attributes != undefined) {
			orig_load(e, "x");
			orig_load(e, "width");
		}
		if (e.childNodes == undefined) return;
		for (var i = 0, c = e.childNodes; i < c.length; i++) {
			zoom_reset(c[i]);
		}
	}
	function zoom_child(e, x, ratio) {
		if (e.attributes != undefined) {
			if (e.attributes.x != undefined) {
				orig_save(e, "x");
				e.attributes.x.value = (parseFloat(e.attributes.x.value) - x - 10) * ratio + 10;
				if (e.tagName == "text")
					e.attributes.x.value = find_child(e.parentNode, "rect[x]").attributes.x.value + 3;
			}
			if (e.attributes.width != undefined) {
				orig_save(e, "width");
				e.attributes.width.value = parseFloat(e.attributes.width.value) * ratio;
			}
		}

		if (e.childNodes == undefined) return;
		for (var i = 0, c = e.childNodes; i < c.length; i++) {
			zoom_child(c[i], x - 10, ratio);
		}
	}
	function zoom_parent(e) {
		if (e.attributes) {
			if (e.attributes.x != undefined) {
				orig_save(e, "x");
				e.attributes.x.value = 10;
			}
			if (e.attributes.width != undefined) {
				orig_save(e, "width");
				e.attributes.width.value = parseInt(svg.width.baseVal.value) - (10 * 2);
			}
		}
		if (e.childNodes == undefined) return;
		for (var i = 0, c = e.childNodes; i < c.length; i++) {
			zoom_parent(c[i]);
		}
	}
	function zoom(node) {
		var attr = find_child(node, "rect").attributes;
		var width = parseFloat(attr.width.value);
		var xmin = parseFloat(attr.x.value);
		var xmax = parseFloat(xmin + width);
		var ymin = parseFloat(attr.y.value);
		var ratio = (svg.width.baseVal.value - 2 * 10) / width;

		// XXX: Workaround for JavaScript float issues (fix me)
		var fudge = 0.0001;

		unzoombtn.classList.remove("hide");

		var el = document.getElementById("frames").children;
		for (var i = 0; i < el.length; i++) {
			var e = el[i];
			var a = find_child(e, "rect").attributes;
			var ex = parseFloat(a.x.value);
			var ew = parseFloat(a.width.value);
			var upstack;
			// Is it an ancestor
			if (0 == 0) {
				upstack = parseFloat(a.y.value) > ymin;
			} else {
				upstack = parseFloat(a.y.value) < ymin;
			}
			if (upstack) {
				// Direct ancestor
				if (ex <= xmin && (ex+ew+fudge) >= xmax) {
					e.classList.add("parent");
					zoom_parent(e);
					update_text(e);
				}
				// not in current path
				else
					e.classList.add("hide");
			}
			// Children maybe
			else {
				// no common path
				if (ex < xmin || ex + fudge >= xmax) {
					e.classList.add("hide");
				}
				else {
					zoom_child(e, xmin, ratio);
					update_text(e);
				}
			}
		}
	}
	function unzoom() {
		unzoombtn.classList.add("hide");
		var el = document.getElementById("frames").children;
		for(var i = 0; i < el.length; i++) {
			el[i].classList.remove("parent");
			el[i].classList.remove("hide");
			zoom_reset(el[i]);
			update_text(el[i]);
		}
	}

	// search
	function reset_search() {
		var el = document.querySelectorAll("#frames rect");
		for (var i = 0; i < el.length; i++) {
			orig_load(el[i], "fill")
		}
	}
	function search_prompt() {
		if (!searching) {
			var term = prompt("Enter a search term (regexp " +
			    "allowed, eg: ^ext4_)", "");
			if (term != null) {
				search(term)
			}
		} else {
			reset_search();
			searching = 0;
			searchbtn.classList.remove("show");
			searchbtn.firstChild.nodeValue = "Search"
			matchedtxt.classList.add("hide");
			matchedtxt.firstChild.nodeValue = ""
		}
	}
	function search(term) {
		var re = new RegExp(term);
		var el = document.getElementById("frames").children;
		var matches = new Object();
		var maxwidth = 0;
		for (var i = 0; i < el.length; i++) {
			var e = el[i];
			var func = g_to_func(e);
			var rect = find_child(e, "rect");
			if (func == null || rect == null)
				continue;

			// Save max width. Only works as we have a root frame
			var w = parseFloat(rect.attributes.width.value);
			if (w > maxwidth)
				maxwidth = w;

			if (func.match(re)) {
				// highlight
				var x = parseFloat(rect.attributes.x.value);
				orig_save(rect, "fill");
				rect.attributes.fill.value = "rgb(230,0,230)";

				// remember matches
				if (matches[x] == undefined) {
					matches[x] = w;
				} else {
					if (w > matches[x]) {
						// overwrite with parent
						matches[x] = w;
					}
				}
				searching = 1;
			}
		}
		if (!searching)
			return;

		searchbtn.classList.add("show");
		searchbtn.firstChild.nodeValue = "Reset Search";

		// calculate percent matched, excluding vertical overlap
		var count = 0;
		var lastx = -1;
		var lastw = 0;
		var keys = Array();
		for (k in matches) {
			if (matches.hasOwnProperty(k))
				keys.push(k);
		}
		// sort the matched frames by their x location
		// ascending, then width descending
		keys.sort(function(a, b){
			return a - b;
		});
		// Step through frames saving only the biggest bottom-up frames
		// thanks to the sort order. This relies on the tree property
		// where children are always smaller than their parents.
		var fudge = 0.0001;	// JavaScript floating point
		for (var k in keys) {
			var x = parseFloat(keys[k]);
			var w = matches[keys[k]];
			if (x >= lastx + lastw - fudge) {
				count += w;
				lastx = x;
				lastw = w;
			}
		}
		// display matched percent
		matchedtxt.classList.remove("hide");
		var pct = 100 * count / maxwidth;
		if (pct != 100) pct = pct.toFixed(1)
		matchedtxt.firstChild.nodeValue = "Matched: " + pct + "%";
	}
]]>
</script>
<rect x="0" y="0" width="100%" height="100%" fill="rgb(240,240,220)"/>
<text id="title" x="600" y="24">Flame Graph</text>
<text id="details" x="10" y="373"> </text>
<text id="unzoom" x="10" y="24" class="hide">Reset Zoom</text>
<text id="search" x="1090" y="24">Search</text>
<text id="matched" x="1090" y="373"> </text>
<g id="frames">
<g>
<title>all (19 samples, 100.00%)</title><rect x="10.0" y="339.0" width="1180.0" height="15" fill="#fa7b7b" rx="2" ry="2"/>
<text x="13.0" y="350.0">all</text>
</g>
<g>
<title>com/linecorp/decaton/processor/runtime/ProcessorSubscription.run (3 samples, 15.79%)</title><rect x="10.0" y="323.0" width="186.3" height="15" fill="#5bec5b" rx="2" ry="2"/>
<text x="13.0" y="334.0">com/linecorp/decaton/pro..</text>
</g>
<g>
<title>com/linecorp/decaton/processor/runtime/ProcessorSubscription.pollOnce (3 samples, 15.79%)</title><rect x="10.0" y="307.0" width="186.3" height="15" fill="#67f867" rx="2" ry="2"/>
<text x="13.0" y="318.0">com/linecorp/decaton/pro..</text>
</g>
<g>
<title>com/linecorp/decaton/processor/runtime/ProcessorSubscription.pausePartitions (1 samples, 5.26%)</title><rect x="10.0" y="291.0" width="62.1" height="15" fill="#67f867" rx="2" ry="2"/>
<text x="13.0" y="302.0">com/li..</text>
</g>
<g>
<title>com/linecorp/decaton/processor/runtime/PartitionContexts.partitionsNeedsPause (1 samples, 5.26%)</title><rect x="10.0" y="275.0" width="62.1" height="15" fill="#6bfc6b" rx="2" ry="2"/>
<text x="13.0" y="286.0">com/li..</text>
</g>
<g>
<title>java/util/Collection.stream (1 samples, 5.26%)</title><rect x="10.0" y="259.0" width="62.1" height="15" fill="#55e655" rx="2" ry="2"/>
<text x="13.0" y="270.0">java/u..</text>
</g>
<g>
<title>java/util/stream/StreamSupport.stream (1 samples, 5.26%)</title><rect x="10.0" y="243.0" width="62.1" height="15" fill="#5aeb5a" rx="2" ry="2"/>
<text x="13.0" y="254.0">java/u..</text>
</g>
<g>
<title>java/util/stream/StreamOpFlag.fromCharacteristics (1 samples, 5.26%)</title><rect x="10.0" y="227.0" width="62.1" height="15" fill="#67f867" rx="2" ry="2"/>
<text x="13.0" y="238.0">java/u..</text>
</g>
<g>
<title>itable stub (1 samples, 5.26%)</title><rect x="10.0" y="211.0" width="62.1" height="15" fill="#e96565" rx="2" ry="2"/>
<text x="13.0" y="222.0">itable..</text>
</g>
<g>
<title>java/lang/Iterable.forEach (1 samples, 5.26%)</title><rect x="72.1" y="291.0" width="62.1" height="15" fill="#60f160" rx="2" ry="2"/>
<text x="75.1" y="302.0">java/l..</text>
</g>
<g>
<title>com/linecorp/decaton/processor/runtime/ProcessorSubscription$$Lambda$246/591907282.accept (1 samples, 5.26%)</title><rect x="72.1" y="275.0" width="62.1" height="15" fill="#5eef5e" rx="2" ry="2"/>
<text x="75.1" y="286.0">com/li..</text>
</g>
<g>
<title>com/linecorp/decaton/processor/runtime/ProcessorSubscription.lambda$pollOnce$0 (1 samples, 5.26%)</title><rect x="72.1" y="259.0" width="62.1" height="15" fill="#62f362" rx="2" ry="2"/>
<text x="75.1" y="270.0">com/li..</text>
</g>
<g>
<title>com/linecorp/decaton/processor/runtime/PartitionContext.addRequest (1 samples, 5.26%)</title><rect x="72.1" y="243.0" width="62.1" height="15" fill="#5aeb5a" rx="2" ry="2"/>
<text x="75.1" y="254.0">com/li..</text>
</g>
<g>
<title>com/linecorp/decaton/processor/runtime/PartitionProcessor.addTask (1 samples, 5.26%)</title><rect x="72.1" y="227.0" width="62.1" height="15" fill="#5ff05f" rx="2" ry="2"/>
<text x="75.1" y="238.0">com/li..</text>
</g>
<g>
<title>com/linecorp/decaton/processor/runtime/ProcessorUnit.putTask (1 samples, 5.26%)</title><rect x="72.1" y="211.0" width="62.1" height="15" fill="#6cfd6c" rx="2" ry="2"/>
<text x="75.1" y="222.0">com/li..</text>
</g>
<g>
<title>java/util/concurrent/Executors$DelegatedExecutorService.execute (1 samples, 5.26%)</title><rect x="72.1" y="195.0" width="62.1" height="15" fill="#6bfc6b" rx="2" ry="2"/>
<text x="75.1" y="206.0">java/u..</text>
</g>
<g>
<title>java/util/concurrent/ThreadPoolExecutor.execute (1 samples, 5.26%)</title><rect x="72.1" y="179.0" width="62.1" height="15" fill="#63f463" rx="2" ry="2"/>
<text x="75.1" y="190.0">java/u..</text>
</g>
<g>
<title>java/util/concurrent/LinkedBlockingQueue.offer (1 samples, 5.26%)</title><rect x="72.1" y="163.0" width="62.1" height="15" fill="#65f665" rx="2" ry="2"/>
<text x="75.1" y="174.0">java/u..</text>
</g>
<g>
<title>java/util/concurrent/locks/AbstractQueuedSynchronizer$ConditionObject.signal (1 samples, 5.26%)</title><rect x="72.1" y="147.0" width="62.1" height="15" fill="#54e554" rx="2" ry="2"/>
<text x="75.1" y="158.0">java/u..</text>
</g>
<g>
<title>java/util/concurrent/locks/AbstractQueuedSynchronizer$ConditionObject.doSignal (1 samples, 5.26%)</title><rect x="72.1" y="131.0" width="62.1" height="15" fill="#62f362" rx="2" ry="2"/>
<text x="75.1" y="142.0">java/u..</text>
</g>
<g>
<title>java/util/concurrent/locks/AbstractQueuedSynchronizer.transferForSignal (1 samples, 5.26%)</title><rect x="72.1" y="115.0" width="62.1" height="15" fill="#50e150" rx="2" ry="2"/>
<text x="75.1" y="126.0">java/u..</text>
</g>
<g>
<title>org/apache/kafka/clients/consumer/KafkaConsumer.poll (1 samples, 5.26%)</title><rect x="134.2" y="291.0" width="62.1" height="15" fill="#57e857" rx="2" ry="2"/>
<text x="137.2" y="302.0">org/ap..</text>
</g>
<g>
<title>org/apache/kafka/clients/consumer/KafkaConsumer.poll (1 samples, 5.26%)</title><rect x="134.2" y="275.0" width="62.1" height="15" fill="#54e554" rx="2" ry="2"/>
<text x="137.2" y="286.0">org/ap..</text>
</g>
<g>
<title>org/apache/kafka/clients/consumer/internals/Fetcher.sendFetches (1 samples, 5.26%)</title><rect x="134.2" y="259.0" width="62.1" height="15" fill="#68f968" rx="2" ry="2"/>
<text x="137.2" y="270.0">org/ap..</text>
</g>
<g>
<title>org/apache/kafka/clients/consumer/internals/Fetcher.prepareFetchRequests (1 samples, 5.26%)</title><rect x="134.2" y="243.0" width="62.1" height="15" fill="#54e554" rx="2" ry="2"/>
<text x="137.2" y="254.0">org/ap..</text>
</g>
<g>
<title>org/apache/kafka/clients/FetchSessionHandler$Builder.build (1 samples, 5.26%)</title><rect x="134.2" y="227.0" width="62.1" height="15" fill="#5ced5c" rx="2" ry="2"/>
<text x="137.2" y="238.0">org/ap..</text>
</g>
<g>
<title>java/util/LinkedHashMap.&lt;init&gt; (1 samples, 5.26%)</title><rect x="134.2" y="211.0" width="62.1" height="15" fill="#53e453" rx="2" ry="2"/>
<text x="137.2" y="222.0">java/u..</text>
</g>
<g>
<title>java/util/HashMap.putMapEntries (1 samples, 5.26%)</title><rect x="134.2" y="195.0" width="62.1" height="15" fill="#53e453" rx="2" ry="2"/>
<text x="137.2" y="206.0">java/u..</text>
</g>
<g>
<title>itable stub (1 samples, 5.26%)</title><rect x="134.2" y="179.0" width="62.1" height="15" fill="#fe8181" rx="2" ry="2"/>
<text x="137.2" y="190.0">itable..</text>
</g>
<g>
<title>java/lang/Thread.run (1 samples, 5.26%)</title><rect x="196.3" y="323.0" width="62.1" height="15" fill="#56e756" rx="2" ry="2"/>
<text x="199.3" y="334.0">java/l..</text>
</g>
<g>
<title>java/util/concurrent/ThreadPoolExecutor$Worker.run (1 samples, 5.26%)</title><rect x="196.3" y="307.0" width="62.1" height="15" fill="#5ff05f" rx="2" ry="2"/>
<text x="199.3" y="318.0">java/u..</text>
</g>
<g>
<title>java/util/concurrent/ThreadPoolExecutor.runWorker (1 samples, 5.26%)</title><rect x="196.3" y="291.0" width="62.1" height="15" fill="#69fa69" rx="2" ry="2"/>
<text x="199.3" y="302.0">java/u..</text>
</g>
<g>
<title>com/linecorp/decaton/processor/runtime/ProcessorUnit$$Lambda$260/529376218.run (1 samples, 5.26%)</title><rect x="196.3" y="275.0" width="62.1" height="15" fill="#62f362" rx="2" ry="2"/>
<text x="199.3" y="286.0">com/li..</text>
</g>
<g>
<title>com/linecorp/decaton/processor/runtime/ProcessorUnit.lambda$putTask$0 (1 samples, 5.26%)</title><rect x="196.3" y="259.0" width="62.1" height="15" fill="#58e958" rx="2" ry="2"/>
<text x="199.3" y="270.0">com/li..</text>
</g>
<g>
<title>com/linecorp/decaton/processor/runtime/ProcessorUnit.processTask (1 samples, 5.26%)</title><rect x="196.3" y="243.0" width="62.1" height="15" fill="#63f463" rx="2" ry="2"/>
<text x="199.3" y="254.0">com/li..</text>
</g>
<g>
<title>com/linecorp/decaton/processor/runtime/ProcessPipeline.scheduleThenProcess (1 samples, 5.26%)</title><rect x="196.3" y="227.0" width="62.1" height="15" fill="#5ff05f" rx="2" ry="2"/>
<text x="199.3" y="238.0">com/li..</text>
</g>
<g>
<title>java/util/concurrent/CompletableFuture.whenComplete (1 samples, 5.26%)</title><rect x="196.3" y="211.0" width="62.1" height="15" fill="#5eef5e" rx="2" ry="2"/>
<text x="199.3" y="222.0">java/u..</text>
</g>
<g>
<title>java/util/concurrent/CompletableFuture.uniWhenCompleteStage (1 samples, 5.26%)</title><rect x="196.3" y="195.0" width="62.1" height="15" fill="#6dfe6d" rx="2" ry="2"/>
<text x="199.3" y="206.0">java/u..</text>
</g>
<g>
<title>java/util/concurrent/CompletableFuture.uniWhenComplete (1 samples, 5.26%)</title><rect x="196.3" y="179.0" width="62.1" height="15" fill="#58e958" rx="2" ry="2"/>
<text x="199.3" y="190.0">java/u..</text>
</g>
<g>
<title>com/linecorp/decaton/processor/runtime/ProcessPipeline$$Lambda$272/979438606.accept (1 samples, 5.26%)</title><rect x="196.3" y="163.0" width="62.1" height="15" fill="#67f867" rx="2" ry="2"/>
<text x="199.3" y="174.0">com/li..</text>
</g>
<g>
<title>com/linecorp/decaton/processor/runtime/ProcessPipeline.lambda$scheduleThenProcess$0 (1 samples, 5.26%)</title><rect x="196.3" y="147.0" width="62.1" height="15" fill="#5ff05f" rx="2" ry="2"/>
<text x="199.3" y="158.0">com/li..</text>
</g>
<g>
<title>com/linecorp/decaton/processor/runtime/OutOfOrderCommitControl$$Lambda$258/986545481.complete (1 samples, 5.26%)</title><rect x="196.3" y="131.0" width="62.1" height="15" fill="#67f867" rx="2" ry="2"/>
<text x="199.3" y="142.0">com/li..</text>
</g>
<g>
<title>com/linecorp/decaton/processor/runtime/OutOfOrderCommitControl.lambda$reportFetchedOffset$0 (1 samples, 5.26%)</title><rect x="196.3" y="115.0" width="62.1" height="15" fill="#5ced5c" rx="2" ry="2"/>
<text x="199.3" y="126.0">com/li..</text>
</g>
<g>
<title>com/linecorp/decaton/processor/runtime/OutOfOrderCommitControl.complete (1 samples, 5.26%)</title><rect x="196.3" y="99.0" width="62.1" height="15" fill="#6afb6a" rx="2" ry="2"/>
<text x="199.3" y="110.0">com/li..</text>
</g>
<g>
<title>ch/qos/logback/classic/Logger.isDebugEnabled (1 samples, 5.26%)</title><rect x="196.3" y="83.0" width="62.1" height="15" fill="#58e958" rx="2" ry="2"/>
<text x="199.3" y="94.0">ch/qos..</text>
</g>
<g>
<title>ch/qos/logback/classic/Logger.isDebugEnabled (1 samples, 5.26%)</title><rect x="196.3" y="67.0" width="62.1" height="15" fill="#5aeb5a" rx="2" ry="2"/>
<text x="199.3" y="78.0">ch/qos..</text>
</g>
<g>
<title>ch/qos/logback/classic/Logger.callTurboFilters (1 samples, 5.26%)</title><rect x="196.3" y="51.0" width="62.1" height="15" fill="#68f968" rx="2" ry="2"/>
<text x="199.3" y="62.0">ch/qos..</text>
</g>
<g>
<title>ch/qos/logback/classic/LoggerContext.getTurboFilterChainDecision_0_3OrMore (1 samples, 5.26%)</title><rect x="196.3" y="35.0" width="62.1" height="15" fill="#6bfc6b" rx="2" ry="2"/>
<text x="199.3" y="46.0">ch/qos..</text>
</g>
<g>
<title>start_thread (15 samples, 78.95%)</title><rect x="258.4" y="323.0" width="931.6" height="15" fill="#e35c5c" rx="2" ry="2"/>
<text x="261.4" y="334.0">start_thread</text>
</g>
<g>
<title>java_start(Thread*) (15 samples, 78.95%)</title><rect x="258.4" y="307.0" width="931.6" height="15" fill="#fd7f7f" rx="2" ry="2"/>
<text x="261.4" y="318.0">java_start(Thread*)</text>
</g>
<g>
<title>JavaThread::thread_main_inner() (15 samples, 78.95%)</title><rect x="258.4" y="291.0" width="931.6" height="15" fill="#d7d741" rx="2" ry="2"/>
<text x="261.4" y="302.0">JavaThread::thread_main_inner()</text>
</g>
<g>
<title>CompileBroker::compiler_thread_loop() (15 samples, 78.95%)</title><rect x="258.4" y="275.0" width="931.6" height="15" fill="#caca3c" rx="2" ry="2"/>
<text x="261.4" y="286.0">CompileBroker::compiler_thread_loop()</text>
</g>
<g>
<title>CompileBroker::invoke_compiler_on_method(CompileTask*) (15 samples, 78.95%)</title><rect x="258.4" y="259.0" width="931.6" height="15" fill="#cdcd3d" rx="2" ry="2"/>
<text x="261.4" y="270.0">CompileBroker::invoke_compiler_on_method(CompileTask*)</text>
</g>
<g>
<title>C2Compiler::compile_method(ciEnv*, ciMethod*, int) (13 samples, 68.42%)</title><rect x="258.4" y="243.0" width="807.4" height="15" fill="#dbdb42" rx="2" ry="2"/>
<text x="261.4" y="254.0">C2Compiler::compile_method(ciEnv*, ciMethod*, int)</text>
</g>
<g>
<title>Compile::Compile(ciEnv*, C2Compiler*, ciMethod*, int, bool, bool, bool) (13 samples, 68.42%)</title><rect x="258.4" y="227.0" width="807.4" height="15" fill="#e2e244" rx="2" ry="2"/>
<text x="261.4" y="238.0">Compile::Compile(ciEnv*, C2Compiler*, ciMethod*, int, bool, bool, bool)</text>
</g>
<g>
<title>Compile::Code_Gen() (8 samples, 42.11%)</title><rect x="258.4" y="211.0" width="496.9" height="15" fill="#d2d23f" rx="2" ry="2"/>
<text x="261.4" y="222.0">Compile::Code_Gen()</text>
</g>
<g>
<title>Compile::fill_buffer(CodeBuffer*, unsigned int*) (1 samples, 5.26%)</title><rect x="258.4" y="195.0" width="62.1" height="15" fill="#c9c93c" rx="2" ry="2"/>
<text x="261.4" y="206.0">Compil..</text>
</g>
<g>
<title>Compile::Process_OopMap_Node(MachNode*, int) (1 samples, 5.26%)</title><rect x="258.4" y="179.0" width="62.1" height="15" fill="#c8c83c" rx="2" ry="2"/>
<text x="261.4" y="190.0">Compil..</text>
</g>
<g>
<title>DebugInformationRecorder::describe_scope(int, ciMethod*, int, bool, bool, bool, DebugToken*, DebugToken*, DebugToken*) (1 samples, 5.26%)</title><rect x="258.4" y="163.0" width="62.1" height="15" fill="#d5d540" rx="2" ry="2"/>
<text x="261.4" y="174.0">DebugI..</text>
</g>
<g>
<title>DebugInformationRecorder::find_sharable_decode_offset(int) [clone .part.152] (1 samples, 5.26%)</title><rect x="258.4" y="147.0" width="62.1" height="15" fill="#c9c93c" rx="2" ry="2"/>
<text x="261.4" y="158.0">DebugI..</text>
</g>
<g>
<title>PhaseCFG::do_global_code_motion() (2 samples, 10.53%)</title><rect x="320.5" y="195.0" width="124.2" height="15" fill="#cfcf3e" rx="2" ry="2"/>
<text x="323.5" y="206.0">PhaseCFG::do_gl..</text>
</g>
<g>
<title>PhaseCFG::global_code_motion() (2 samples, 10.53%)</title><rect x="320.5" y="179.0" width="124.2" height="15" fill="#e5e545" rx="2" ry="2"/>
<text x="323.5" y="190.0">PhaseCFG::globa..</text>
</g>
<g>
<title>PhaseCFG::schedule_late(VectorSet&amp;, Node_List&amp;) (2 samples, 10.53%)</title><rect x="320.5" y="163.0" width="124.2" height="15" fill="#e3e345" rx="2" ry="2"/>
<text x="323.5" y="174.0">PhaseCFG::sched..</text>
</g>
<g>
<title>Node_Backward_Iterator::next() (1 samples, 5.26%)</title><rect x="382.6" y="147.0" width="62.1" height="15" fill="#e1e144" rx="2" ry="2"/>
<text x="385.6" y="158.0">Node_B..</text>
</g>
<g>
<title>PhaseChaitin::Register_Allocate() (5 samples, 26.32%)</title><rect x="444.7" y="195.0" width="310.6" height="15" fill="#cfcf3e" rx="2" ry="2"/>
<text x="447.7" y="206.0">PhaseChaitin::Register_Allocate()</text>
</g>
<g>
<title>PhaseChaitin::Simplify() (1 samples, 5.26%)</title><rect x="444.7" y="179.0" width="62.1" height="15" fill="#d8d841" rx="2" ry="2"/>
<text x="447.7" y="190.0">PhaseC..</text>
</g>
<g>
<title>PhaseChaitin::cache_lrg_info() (1 samples, 5.26%)</title><rect x="506.8" y="179.0" width="62.1" height="15" fill="#d3d33f" rx="2" ry="2"/>
<text x="509.8" y="190.0">PhaseC..</text>
</g>
<g>
<title>PhaseChaitin::gather_lrg_masks(bool) [clone .constprop.215] (1 samples, 5.26%)</title><rect x="568.9" y="179.0" width="62.2" height="15" fill="#dede43" rx="2" ry="2"/>
<text x="571.9" y="190.0">PhaseC..</text>
</g>
<g>
<title>PhaseChaitin::post_allocate_copy_removal() (2 samples, 10.53%)</title><rect x="631.1" y="179.0" width="124.2" height="15" fill="#d7d741" rx="2" ry="2"/>
<text x="634.1" y="190.0">PhaseChaitin::p..</text>
</g>
<g>
<title>PhaseChaitin::elide_copy(Node*, int, Block*, Node_List&amp;, Node_List&amp;, bool) (1 samples, 5.26%)</title><rect x="631.1" y="163.0" width="62.1" height="15" fill="#dcdc42" rx="2" ry="2"/>
<text x="634.1" y="174.0">PhaseC..</text>
</g>
<g>
<title>find_lowest_bit(unsigned int) (1 samples, 5.26%)</title><rect x="693.2" y="163.0" width="62.1" height="15" fill="#f06f6f" rx="2" ry="2"/>
<text x="696.2" y="174.0">find_l..</text>
</g>
<g>
<title>Compile::Optimize() (4 samples, 21.05%)</title><rect x="755.3" y="211.0" width="248.4" height="15" fill="#c9c93c" rx="2" ry="2"/>
<text x="758.3" y="222.0">Compile::Optimize()</text>
</g>
<g>
<title>PhaseIdealLoop::build_and_optimize(bool, bool) (2 samples, 10.53%)</title><rect x="755.3" y="195.0" width="124.2" height="15" fill="#d5d540" rx="2" ry="2"/>
<text x="758.3" y="206.0">PhaseIdealLoop:..</text>
</g>
<g>
<title>PhaseIdealLoop::build_loop_late(VectorSet&amp;, Node_List&amp;, Node_Stack&amp;) (2 samples, 10.53%)</title><rect x="755.3" y="179.0" width="124.2" height="15" fill="#e3e345" rx="2" ry="2"/>
<text x="758.3" y="190.0">PhaseIdealLoop:..</text>
</g>
<g>
<title>PhaseIdealLoop::build_loop_late_post(Node*) (2 samples, 10.53%)</title><rect x="755.3" y="163.0" width="124.2" height="15" fill="#e3e345" rx="2" ry="2"/>
<text x="758.3" y="174.0">PhaseIdealLoop:..</text>
</g>
<g>
<title>PhaseIdealLoop::get_late_ctrl(Node*, Node*) (1 samples, 5.26%)</title><rect x="817.4" y="147.0" width="62.1" height="15" fill="#dddd43" rx="2" ry="2"/>
<text x="820.4" y="158.0">PhaseI..</text>
</g>
<g>
<title>PhaseIdealLoop::compute_lca_of_uses(Node*, Node*, bool) (1 samples, 5.26%)</title><rect x="817.4" y="131.0" width="62.1" height="15" fill="#d0d03e" rx="2" ry="2"/>
<text x="820.4" y="142.0">PhaseI..</text>
</g>
<g>
<title>PhaseIterGVN::optimize() (2 samples, 10.53%)</title><rect x="879.5" y="195.0" width="124.2" height="15" fill="#dede43" rx="2" ry="2"/>
<text x="882.5" y="206.0">PhaseIterGVN::o..</text>
</g>
<g>
<title>PhaseIterGVN::remove_globally_dead_node(Node*) (1 samples, 5.26%)</title><rect x="879.5" y="179.0" width="62.1" height="15" fill="#dbdb42" rx="2" ry="2"/>
<text x="882.5" y="190.0">PhaseI..</text>
</g>
<g>
<title>Node::replace_edge(Node*, Node*) (1 samples, 5.26%)</title><rect x="879.5" y="163.0" width="62.1" height="15" fill="#d2d23f" rx="2" ry="2"/>
<text x="882.5" y="174.0">Node::..</text>
</g>
<g>
<title>PhaseIterGVN::transform_old(Node*) (1 samples, 5.26%)</title><rect x="941.6" y="179.0" width="62.1" height="15" fill="#dcdc42" rx="2" ry="2"/>
<text x="944.6" y="190.0">PhaseI..</text>
</g>
<g>
<title>LoadNode::Ideal(PhaseGVN*, bool) (1 samples, 5.26%)</title><rect x="941.6" y="163.0" width="62.1" height="15" fill="#cccc3d" rx="2" ry="2"/>
<text x="944.6" y="174.0">LoadNo..</text>
</g>
<g>
<title>MemNode::find_previous_store(PhaseTransform*) (1 samples, 5.26%)</title><rect x="941.6" y="147.0" width="62.1" height="15" fill="#d5d540" rx="2" ry="2"/>
<text x="944.6" y="158.0">MemNod..</text>
</g>
<g>
<title>TypeInstPtr::add_offset(long) const (1 samples, 5.26%)</title><rect x="941.6" y="131.0" width="62.1" height="15" fill="#e2e244" rx="2" ry="2"/>
<text x="944.6" y="142.0">TypeIn..</text>
</g>
<g>
<title>TypeInstPtr::make(TypePtr::PTR, ciKlass*, bool, ciObject*, int, int, TypeOopPtr const*, int) (1 samples, 5.26%)</title><rect x="941.6" y="115.0" width="62.1" height="15" fill="#e0e044" rx="2" ry="2"/>
<text x="944.6" y="126.0">TypeIn..</text>
</g>
<g>
<title>ciEnv::register_method(ciMethod*, int, CodeOffsets*, int, CodeBuffer*, int, OopMapSet*, ExceptionHandlerTable*, ImplicitExceptionTable*, AbstractCompiler*, int, bool, bool, RTMState) (1 samples, 5.26%)</title><rect x="1003.7" y="211.0" width="62.1" height="15" fill="#d1d13f" rx="2" ry="2"/>
<text x="1006.7" y="222.0">ciEnv:..</text>
</g>
<g>
<title>Dependencies::encode_content_bytes() (1 samples, 5.26%)</title><rect x="1003.7" y="195.0" width="62.1" height="15" fill="#cece3e" rx="2" ry="2"/>
<text x="1006.7" y="206.0">Depend..</text>
</g>
<g>
<title>Dependencies::sort_all_deps() (1 samples, 5.26%)</title><rect x="1003.7" y="179.0" width="62.1" height="15" fill="#e2e244" rx="2" ry="2"/>
<text x="1006.7" y="190.0">Depend..</text>
</g>
<g>
<title>Compiler::compile_method(ciEnv*, ciMethod*, int) (2 samples, 10.53%)</title><rect x="1065.8" y="243.0" width="124.2" height="15" fill="#d2d23f" rx="2" ry="2"/>
<text x="1068.8" y="254.0">Compiler::compi..</text>
</g>
<g>
<title>Compilation::Compilation(AbstractCompiler*, ciEnv*, ciMethod*, int, BufferBlob*) (2 samples, 10.53%)</title><rect x="1065.8" y="227.0" width="124.2" height="15" fill="#dcdc42" rx="2" ry="2"/>
<text x="1068.8" y="238.0">Compilation::Co..</text>
</g>
<g>
<title>Compilation::compile_method() (2 samples, 10.53%)</title><rect x="1065.8" y="211.0" width="124.2" height="15" fill="#e4e445" rx="2" ry="2"/>
<text x="1068.8" y="222.0">Compilation::co..</text>
</g>
<g>
<title>Compilation::compile_java_method() (1 samples, 5.26%)</title><rect x="1065.8" y="195.0" width="62.1" height="15" fill="#d9d941" rx="2" ry="2"/>
<text x="1068.8" y="206.0">Compil..</text>
</g>
<g>
<title>Compilation::build_hir() (1 samples, 5.26%)</title><rect x="1065.8" y="179.0" width="62.1" height="15" fill="#dbdb42" rx="2" ry="2"/>
<text x="1068.8" y="190.0">Compil..</text>
</g>
<g>
<title>IR::eliminate_null_checks() (1 samples, 5.26%)</title><rect x="1065.8" y="163.0" width="62.1" height="15" fill="#e1e144" rx="2" ry="2"/>
<text x="1068.8" y="174.0">IR::el..</text>
</g>
<g>
<title>Optimizer::eliminate_null_checks() (1 samples, 5.26%)</title><rect x="1065.8" y="147.0" width="62.1" height="15" fill="#d5d540" rx="2" ry="2"/>
<text x="1068.8" y="158.0">Optimi..</text>
</g>
<g>
<title>Constant::visit(InstructionVisitor*) (1 samples, 5.26%)</title><rect x="1065.8" y="131.0" width="62.1" height="15" fill="#e3e345" rx="2" ry="2"/>
<text x="1068.8" y="142.0">Consta..</text>
</g>
<g>
<title>ciEnv::register_method(ciMethod*, int, CodeOffsets*, int, CodeBuffer*, int, OopMapSet*, ExceptionHandlerTable*, ImplicitExceptionTable*, AbstractCompiler*, int, bool, bool, RTMState) (1 samples, 5.26%)</title><rect x="1127.9" y="195.0" width="62.1" height="15" fill="#d3d33f" rx="2" ry="2"/>
<text x="1130.9" y="206.0">ciEnv:..</text>
</g>
<g>
<title>nmethod::new_nmethod(methodHandle, int, int, CodeOffsets*, int, DebugInformationRecorder*, Dependencies*, CodeBuffer*, int, OopMapSet*, ExceptionHandlerTable*, ImplicitExceptionTable*, AbstractCompiler*, int) (1 samples, 5.26%)</title><rect x="1127.9" y="179.0" width="62.1" height="15" fill="#e0e044" rx="2" ry="2"/>
<text x="1130.9" y="190.0">nmetho..</text>
</g>
<g>
<title>CodeCache::allocate(int, bool) (1 samples, 5.26%)</title><rect x="1127.9" y="163.0" width="62.1" height="15" fill="#dcdc42" rx="2" ry="2"/>
<text x="1130.9" y="174.0">CodeCa..</text>
</g>
<g>
<title>CodeHeap::allocate(unsigned long, bool) (1 samples, 5.26%)</title><rect x="1127.9" y="147.0" width="62.1" height="15" fill="#e3e345" rx="2" ry="2"/>
<text x="1130.9" y="158.0">CodeHe..</text>
</g>
<g>
<title>CodeHeap::search_freelist(unsigned long, bool) (1 samples, 5.26%)</title><rect x="1127.9" y="131.0" width="62.1" height="15" fill="#d6d640" rx="2" ry="2"/>
<text x="1130.9" y="142.0">CodeHe..</text>
</g>
</g>
</svg>
