<?xml version="1.0" standalone="no"?>
<!DOCTYPE svg PUBLIC "-//W3C//DTD SVG 1.1//EN" "http://www.w3.org/Graphics/SVG/1.1/DTD/svg11.dtd">
<svg version="1.1" width="1200" height="646" onload="init(evt)" viewBox="0 0 1200 646" xmlns="http://www.w3.org/2000/svg" xmlns:xlink="http://www.w3.org/1999/xlink">
<style type="text/css">
	text { font-family:Verdana; font-size:12px; fill:rgb(0,0,0); }
	#search { opacity:0.1; cursor:pointer; }
	#search:hover, #search.show { opacity:1; }
	#subtitle { text-anchor:middle; font-color:rgb(160,160,160); }
	#title { text-anchor:middle; font-size:17px}
	#unzoom { cursor:pointer; }
	#frames > *:hover { stroke:black; stroke-width:0.5; cursor:pointer; }
	.hide { display:none; }
	.parent { opacity:0.5; }
</style>
<script type="text/ecmascript">
<![CDATA[
	"use strict";
	var details, searchbtn, unzoombtn, matchedtxt, svg, searching;
	function init(evt) {
		details = document.getElementById("details").firstChild;
		searchbtn = document.getElementById("search");
		unzoombtn = document.getElementById("unzoom");
		matchedtxt = document.getElementById("matched");
		svg = document.getElementsByTagName("svg")[0];
		searching = 0;
	}

	window.addEventListener("click", function(e) {
		var target = find_group(e.target);
		if (target) {
			if (target.nodeName == "a") {
				if (e.ctrlKey === false) return;
				e.preventDefault();
			}
			if (target.classList.contains("parent")) unzoom();
			zoom(target);
		}
		else if (e.target.id == "unzoom") unzoom();
		else if (e.target.id == "search") search_prompt();
	}, false)

	// mouse-over for info
	// show
	window.addEventListener("mouseover", function(e) {
		var target = find_group(e.target);
		if (target) details.nodeValue = "Function: " + g_to_text(target);
	}, false)

	// clear
	window.addEventListener("mouseout", function(e) {
		var target = find_group(e.target);
		if (target) details.nodeValue = ' ';
	}, false)

	// ctrl-F for search
	window.addEventListener("keydown",function (e) {
		if (e.keyCode === 114 || (e.ctrlKey && e.keyCode === 70)) {
			e.preventDefault();
			search_prompt();
		}
	}, false)

	// functions
	function find_child(node, selector) {
		var children = node.querySelectorAll(selector);
		if (children.length) return children[0];
		return;
	}
	function find_group(node) {
		var parent = node.parentElement;
		if (!parent) return;
		if (parent.id == "frames") return node;
		return find_group(parent);
	}
	function orig_save(e, attr, val) {
		if (e.attributes["_orig_" + attr] != undefined) return;
		if (e.attributes[attr] == undefined) return;
		if (val == undefined) val = e.attributes[attr].value;
		e.setAttribute("_orig_" + attr, val);
	}
	function orig_load(e, attr) {
		if (e.attributes["_orig_"+attr] == undefined) return;
		e.attributes[attr].value = e.attributes["_orig_" + attr].value;
		e.removeAttribute("_orig_"+attr);
	}
	function g_to_text(e) {
		var text = find_child(e, "title").firstChild.nodeValue;
		return (text)
	}
	function g_to_func(e) {
		var func = g_to_text(e);
		// if there's any manipulation we want to do to the function
		// name before it's searched, do it here before returning.
		return (func);
	}
	function update_text(e) {
		var r = find_child(e, "rect");
		var t = find_child(e, "text");
		var w = parseFloat(r.attributes.width.value) -3;
		var txt = find_child(e, "title").textContent.replace(/\([^(]*\)$/,"");
		t.attributes.x.value = parseFloat(r.attributes.x.value) + 3;

		// Smaller than this size won't fit anything
		if (w < 2 * 12 * 0.59) {
			t.textContent = "";
			return;
		}

		t.textContent = txt;
		// Fit in full text width
		if (/^ *$/.test(txt) || t.getSubStringLength(0, txt.length) < w)
			return;

		for (var x = txt.length - 2; x > 0; x--) {
			if (t.getSubStringLength(0, x + 2) <= w) {
				t.textContent = txt.substring(0, x) + "..";
				return;
			}
		}
		t.textContent = "";
	}

	// zoom
	function zoom_reset(e) {
		if (e.attributes != undefined) {
			orig_load(e, "x");
			orig_load(e, "width");
		}
		if (e.childNodes == undefined) return;
		for (var i = 0, c = e.childNodes; i < c.length; i++) {
			zoom_reset(c[i]);
		}
	}
	function zoom_child(e, x, ratio) {
		if (e.attributes != undefined) {
			if (e.attributes.x != undefined) {
				orig_save(e, "x");
				e.attributes.x.value = (parseFloat(e.attributes.x.value) - x - 10) * ratio + 10;
				if (e.tagName == "text")
					e.attributes.x.value = find_child(e.parentNode, "rect[x]").attributes.x.value + 3;
			}
			if (e.attributes.width != undefined) {
				orig_save(e, "width");
				e.attributes.width.value = parseFloat(e.attributes.width.value) * ratio;
			}
		}

		if (e.childNodes == undefined) return;
		for (var i = 0, c = e.childNodes; i < c.length; i++) {
			zoom_child(c[i], x - 10, ratio);
		}
	}
	function zoom_parent(e) {
		if (e.attributes) {
			if (e.attributes.x != undefined) {
				orig_save(e, "x");
				e.attributes.x.value = 10;
			}
			if (e.attributes.width != undefined) {
				orig_save(e, "width");
				e.attributes.width.value = parseInt(svg.width.baseVal.value) - (10 * 2);
			}
		}
		if (e.childNodes == undefined) return;
		for (var i = 0, c = e.childNodes; i < c.length; i++) {
			zoom_parent(c[i]);
		}
	}
	function zoom(node) {
		var attr = find_child(node, "rect").attributes;
		var width = parseFloat(attr.width.value);
		var xmin = parseFloat(attr.x.value);
		var xmax = parseFloat(xmin + width);
		var ymin = parseFloat(attr.y.value);
		var ratio = (svg.width.baseVal.value - 2 * 10) / width;

		// XXX: Workaround for JavaScript float issues (fix me)
		var fudge = 0.0001;

		unzoombtn.classList.remove("hide");

		var el = document.getElementById("frames").children;
		for (var i = 0; i < el.length; i++) {
			var e = el[i];
			var a = find_child(e, "rect").attributes;
			var ex = parseFloat(a.x.value);
			var ew = parseFloat(a.width.value);
			var upstack;
			// Is it an ancestor
			if (0 == 0) {
				upstack = parseFloat(a.y.value) > ymin;
			} else {
				upstack = parseFloat(a.y.value) < ymin;
			}
			if (upstack) {
				// Direct ancestor
				if (ex <= xmin && (ex+ew+fudge) >= xmax) {
					e.classList.add("parent");
					zoom_parent(e);
					update_text(e);
				}
				// not in current path
				else
					e.classList.add("hide");
			}
			// Children maybe
			else {
				// no common path
				if (ex < xmin || ex + fudge >= xmax) {
					e.classList.add("hide");
				}
				else {
					zoom_child(e, xmin, ratio);
					update_text(e);
				}
			}
		}
	}
	function unzoom() {
		unzoombtn.classList.add("hide");
		var el = document.getElementById("frames").children;
		for(var i = 0; i < el.length; i++) {
			el[i].classList.remove("parent");
			el[i].classList.remove("hide");
			zoom_reset(el[i]);
			update_text(el[i]);
		}
	}

	// search
	function reset_search() {
		var el = document.querySelectorAll("#frames rect");
		for (var i = 0; i < el.length; i++) {
			orig_load(el[i], "fill")
		}
	}
	function search_prompt() {
		if (!searching) {
			var term = prompt("Enter a search term (regexp " +
			    "allowed, eg: ^ext4_)", "");
			if (term != null) {
				search(term)
			}
		} else {
			reset_search();
			searching = 0;
			searchbtn.classList.remove("show");
			searchbtn.firstChild.nodeValue = "Search"
			matchedtxt.classList.add("hide");
			matchedtxt.firstChild.nodeValue = ""
		}
	}
	function search(term) {
		var re = new RegExp(term);
		var el = document.getElementById("frames").children;
		var matches = new Object();
		var maxwidth = 0;
		for (var i = 0; i < el.length; i++) {
			var e = el[i];
			var func = g_to_func(e);
			var rect = find_child(e, "rect");
			if (func == null || rect == null)
				continue;

			// Save max width. Only works as we have a root frame
			var w = parseFloat(rect.attributes.width.value);
			if (w > maxwidth)
				maxwidth = w;

			if (func.match(re)) {
				// highlight
				var x = parseFloat(rect.attributes.x.value);
				orig_save(rect, "fill");
				rect.attributes.fill.value = "rgb(230,0,230)";

				// remember matches
				if (matches[x] == undefined) {
					matches[x] = w;
				} else {
					if (w > matches[x]) {
						// overwrite with parent
						matches[x] = w;
					}
				}
				searching = 1;
			}
		}
		if (!searching)
			return;

		searchbtn.classList.add("show");
		searchbtn.firstChild.nodeValue = "Reset Search";

		// calculate percent matched, excluding vertical overlap
		var count = 0;
		var lastx = -1;
		var lastw = 0;
		var keys = Array();
		for (k in matches) {
			if (matches.hasOwnProperty(k))
				keys.push(k);
		}
		// sort the matched frames by their x location
		// ascending, then width descending
		keys.sort(function(a, b){
			return a - b;
		});
		// Step through frames saving only the biggest bottom-up frames
		// thanks to the sort order. This relies on the tree property
		// where children are always smaller than their parents.
		var fudge = 0.0001;	// JavaScript floating point
		for (var k in keys) {
			var x = parseFloat(keys[k]);
			var w = matches[keys[k]];
			if (x >= lastx + lastw - fudge) {
				count += w;
				lastx = x;
				lastw = w;
			}
		}
		// display matched percent
		matchedtxt.classList.remove("hide");
		var pct = 100 * count / maxwidth;
		if (pct != 100) pct = pct.toFixed(1)
		matchedtxt.firstChild.nodeValue = "Matched: " + pct + "%";
	}
]]>
</script>
<rect x="0" y="0" width="100%" height="100%" fill="rgb(240,240,220)"/>
<text id="title" x="600" y="24">Flame Graph</text>
<text id="details" x="10" y="629"> </text>
<text id="unzoom" x="10" y="24" class="hide">Reset Zoom</text>
<text id="search" x="1090" y="24">Search</text>
<text id="matched" x="1090" y="629"> </text>
<g id="frames">
<g>
<title>all (16 samples, 100.00%)</title><rect x="10.0" y="595.0" width="1180.0" height="15" fill="#fa7b7b" rx="2" ry="2"/>
<text x="13.0" y="606.0">all</text>
</g>
<g>
<title>com/linecorp/decaton/processor/runtime/ProcessorSubscription.run (4 samples, 25.00%)</title><rect x="10.0" y="579.0" width="295.0" height="15" fill="#5bec5b" rx="2" ry="2"/>
<text x="13.0" y="590.0">com/linecorp/decaton/processor/runtime/P..</text>
</g>
<g>
<title>com/linecorp/decaton/processor/runtime/ProcessorSubscription.pollOnce (4 samples, 25.00%)</title><rect x="10.0" y="563.0" width="295.0" height="15" fill="#67f867" rx="2" ry="2"/>
<text x="13.0" y="574.0">com/linecorp/decaton/processor/runtime/P..</text>
</g>
<g>
<title>org/apache/kafka/clients/consumer/KafkaConsumer.poll (4 samples, 25.00%)</title><rect x="10.0" y="547.0" width="295.0" height="15" fill="#67f867" rx="2" ry="2"/>
<text x="13.0" y="558.0">org/apache/kafka/clients/consumer/KafkaC..</text>
</g>
<g>
<title>org/apache/kafka/clients/consumer/KafkaConsumer.poll (4 samples, 25.00%)</title><rect x="10.0" y="531.0" width="295.0" height="15" fill="#6bfc6b" rx="2" ry="2"/>
<text x="13.0" y="542.0">org/apache/kafka/clients/consumer/KafkaC..</text>
</g>
<g>
<title>org/apache/kafka/clients/consumer/KafkaConsumer.pollForFetches (1 samples, 6.25%)</title><rect x="10.0" y="515.0" width="73.8" height="15" fill="#55e655" rx="2" ry="2"/>
<text x="13.0" y="526.0">org/apac..</text>
</g>
<g>
<title>org/apache/kafka/clients/consumer/internals/Fetcher.sendFetches (1 samples, 6.25%)</title><rect x="10.0" y="499.0" width="73.8" height="15" fill="#5aeb5a" rx="2" ry="2"/>
<text x="13.0" y="510.0">org/apac..</text>
</g>
<g>
<title>org/apache/kafka/clients/consumer/internals/Fetcher.prepareFetchRequests (1 samples, 6.25%)</title><rect x="10.0" y="483.0" width="73.8" height="15" fill="#67f867" rx="2" ry="2"/>
<text x="13.0" y="494.0">org/apac..</text>
</g>
<g>
<title>org/apache/kafka/clients/consumer/internals/Fetcher.fetchablePartitions (1 samples, 6.25%)</title><rect x="10.0" y="467.0" width="73.8" height="15" fill="#58e958" rx="2" ry="2"/>
<text x="13.0" y="478.0">org/apac..</text>
</g>
<g>
<title>org/apache/kafka/clients/consumer/internals/SubscriptionState.fetchablePartitions (1 samples, 6.25%)</title><rect x="10.0" y="451.0" width="73.8" height="15" fill="#60f160" rx="2" ry="2"/>
<text x="13.0" y="462.0">org/apac..</text>
</g>
<g>
<title>java/lang/invoke/LambdaForm$MH/453523494.linkToTargetMethod (1 samples, 6.25%)</title><rect x="10.0" y="435.0" width="73.8" height="15" fill="#5eef5e" rx="2" ry="2"/>
<text x="13.0" y="446.0">java/lan..</text>
</g>
<g>
<title>org/apache/kafka/clients/consumer/KafkaConsumer.updateAssignmentMetadataIfNeeded (1 samples, 6.25%)</title><rect x="83.8" y="515.0" width="73.7" height="15" fill="#62f362" rx="2" ry="2"/>
<text x="86.8" y="526.0">org/apac..</text>
</g>
<g>
<title>org/apache/kafka/clients/consumer/KafkaConsumer.updateFetchPositions (1 samples, 6.25%)</title><rect x="83.8" y="499.0" width="73.7" height="15" fill="#5aeb5a" rx="2" ry="2"/>
<text x="86.8" y="510.0">org/apac..</text>
</g>
<g>
<title>org/apache/kafka/clients/consumer/internals/Fetcher.validateOffsetsIfNeeded (1 samples, 6.25%)</title><rect x="83.8" y="483.0" width="73.7" height="15" fill="#5ff05f" rx="2" ry="2"/>
<text x="86.8" y="494.0">org/apac..</text>
</g>
<g>
<title>org/apache/kafka/clients/consumer/internals/SubscriptionState.partitionsNeedingValidation (1 samples, 6.25%)</title><rect x="83.8" y="467.0" width="73.7" height="15" fill="#6cfd6c" rx="2" ry="2"/>
<text x="86.8" y="478.0">org/apac..</text>
</g>
<g>
<title>org/apache/kafka/clients/consumer/internals/SubscriptionState.collectPartitions (1 samples, 6.25%)</title><rect x="83.8" y="451.0" width="73.7" height="15" fill="#6bfc6b" rx="2" ry="2"/>
<text x="86.8" y="462.0">org/apac..</text>
</g>
<g>
<title>org/apache/kafka/common/internals/PartitionStates.stream (1 samples, 6.25%)</title><rect x="83.8" y="435.0" width="73.7" height="15" fill="#63f463" rx="2" ry="2"/>
<text x="86.8" y="446.0">org/apac..</text>
</g>
<g>
<title>java/util/Collection.stream (1 samples, 6.25%)</title><rect x="83.8" y="419.0" width="73.7" height="15" fill="#65f665" rx="2" ry="2"/>
<text x="86.8" y="430.0">java/uti..</text>
</g>
<g>
<title>java/util/stream/StreamSupport.stream (1 samples, 6.25%)</title><rect x="83.8" y="403.0" width="73.7" height="15" fill="#54e554" rx="2" ry="2"/>
<text x="86.8" y="414.0">java/uti..</text>
</g>
<g>
<title>java/util/stream/StreamOpFlag.fromCharacteristics (1 samples, 6.25%)</title><rect x="83.8" y="387.0" width="73.7" height="15" fill="#62f362" rx="2" ry="2"/>
<text x="86.8" y="398.0">java/uti..</text>
</g>
<g>
<title>java/util/LinkedHashMap$LinkedEntrySet.spliterator (1 samples, 6.25%)</title><rect x="83.8" y="371.0" width="73.7" height="15" fill="#50e150" rx="2" ry="2"/>
<text x="86.8" y="382.0">java/uti..</text>
</g>
<g>
<title>org/apache/kafka/clients/consumer/internals/ConsumerNetworkClient.transmitSends (2 samples, 12.50%)</title><rect x="157.5" y="515.0" width="147.5" height="15" fill="#57e857" rx="2" ry="2"/>
<text x="160.5" y="526.0">org/apache/kafka/cl..</text>
</g>
<g>
<title>org/apache/kafka/clients/NetworkClient.poll (1 samples, 6.25%)</title><rect x="157.5" y="499.0" width="73.8" height="15" fill="#54e554" rx="2" ry="2"/>
<text x="160.5" y="510.0">org/apac..</text>
</g>
<g>
<title>org/apache/kafka/common/network/Selector.poll (1 samples, 6.25%)</title><rect x="157.5" y="483.0" width="73.8" height="15" fill="#68f968" rx="2" ry="2"/>
<text x="160.5" y="494.0">org/apac..</text>
</g>
<g>
<title>org/apache/kafka/common/network/Selector.pollSelectionKeys (1 samples, 6.25%)</title><rect x="157.5" y="467.0" width="73.8" height="15" fill="#54e554" rx="2" ry="2"/>
<text x="160.5" y="478.0">org/apac..</text>
</g>
<g>
<title>org/apache/kafka/common/network/Selector$SelectorMetrics.recordBytesSent (1 samples, 6.25%)</title><rect x="157.5" y="451.0" width="73.8" height="15" fill="#5ced5c" rx="2" ry="2"/>
<text x="160.5" y="462.0">org/apac..</text>
</g>
<g>
<title>org/apache/kafka/common/metrics/Sensor.record (1 samples, 6.25%)</title><rect x="157.5" y="435.0" width="73.8" height="15" fill="#53e453" rx="2" ry="2"/>
<text x="160.5" y="446.0">org/apac..</text>
</g>
<g>
<title>org/apache/kafka/common/metrics/Sensor.record (1 samples, 6.25%)</title><rect x="157.5" y="419.0" width="73.8" height="15" fill="#53e453" rx="2" ry="2"/>
<text x="160.5" y="430.0">org/apac..</text>
</g>
<g>
<title>org/apache/kafka/common/metrics/Sensor.record (1 samples, 6.25%)</title><rect x="157.5" y="403.0" width="73.8" height="15" fill="#6dfe6d" rx="2" ry="2"/>
<text x="160.5" y="414.0">org/apac..</text>
</g>
<g>
<title>org/apache/kafka/common/metrics/Sensor.checkQuotas (1 samples, 6.25%)</title><rect x="157.5" y="387.0" width="73.8" height="15" fill="#56e756" rx="2" ry="2"/>
<text x="160.5" y="398.0">org/apac..</text>
</g>
<g>
<title>org/apache/kafka/clients/consumer/internals/ConsumerNetworkClient.trySend (1 samples, 6.25%)</title><rect x="231.2" y="499.0" width="73.7" height="15" fill="#5ff05f" rx="2" ry="2"/>
<text x="234.2" y="510.0">org/apac..</text>
</g>
<g>
<title>org/apache/kafka/clients/NetworkClient.send (1 samples, 6.25%)</title><rect x="231.2" y="483.0" width="73.7" height="15" fill="#69fa69" rx="2" ry="2"/>
<text x="234.2" y="494.0">org/apac..</text>
</g>
<g>
<title>org/apache/kafka/clients/NetworkClient.doSend (1 samples, 6.25%)</title><rect x="231.2" y="467.0" width="73.7" height="15" fill="#62f362" rx="2" ry="2"/>
<text x="234.2" y="478.0">org/apac..</text>
</g>
<g>
<title>org/apache/kafka/clients/NetworkClient.doSend (1 samples, 6.25%)</title><rect x="231.2" y="451.0" width="73.7" height="15" fill="#58e958" rx="2" ry="2"/>
<text x="234.2" y="462.0">org/apac..</text>
</g>
<g>
<title>org/apache/kafka/common/requests/AbstractRequest.toSend (1 samples, 6.25%)</title><rect x="231.2" y="435.0" width="73.7" height="15" fill="#63f463" rx="2" ry="2"/>
<text x="234.2" y="446.0">org/apac..</text>
</g>
<g>
<title>org/apache/kafka/common/requests/AbstractRequest.serialize (1 samples, 6.25%)</title><rect x="231.2" y="419.0" width="73.7" height="15" fill="#5ff05f" rx="2" ry="2"/>
<text x="234.2" y="430.0">org/apac..</text>
</g>
<g>
<title>org/apache/kafka/common/requests/FetchRequest.toStruct (1 samples, 6.25%)</title><rect x="231.2" y="403.0" width="73.7" height="15" fill="#5eef5e" rx="2" ry="2"/>
<text x="234.2" y="414.0">org/apac..</text>
</g>
<g>
<title>org/apache/kafka/common/requests/FetchRequest$TopicAndPartitionData.batchByTopic (1 samples, 6.25%)</title><rect x="231.2" y="387.0" width="73.7" height="15" fill="#6dfe6d" rx="2" ry="2"/>
<text x="234.2" y="398.0">org/apac..</text>
</g>
<g>
<title>I2C/C2I adapters (1 samples, 6.25%)</title><rect x="231.2" y="371.0" width="73.7" height="15" fill="#58e958" rx="2" ry="2"/>
<text x="234.2" y="382.0">I2C/C2I ..</text>
</g>
<g>
<title>java/lang/Thread.run (1 samples, 6.25%)</title><rect x="305.0" y="579.0" width="73.8" height="15" fill="#67f867" rx="2" ry="2"/>
<text x="308.0" y="590.0">java/lan..</text>
</g>
<g>
<title>java/util/concurrent/ThreadPoolExecutor$Worker.run (1 samples, 6.25%)</title><rect x="305.0" y="563.0" width="73.8" height="15" fill="#5ff05f" rx="2" ry="2"/>
<text x="308.0" y="574.0">java/uti..</text>
</g>
<g>
<title>java/util/concurrent/ThreadPoolExecutor.runWorker (1 samples, 6.25%)</title><rect x="305.0" y="547.0" width="73.8" height="15" fill="#67f867" rx="2" ry="2"/>
<text x="308.0" y="558.0">java/uti..</text>
</g>
<g>
<title>com/linecorp/decaton/processor/runtime/ProcessorUnit$$Lambda$277/427750945.run (1 samples, 6.25%)</title><rect x="305.0" y="531.0" width="73.8" height="15" fill="#5ced5c" rx="2" ry="2"/>
<text x="308.0" y="542.0">com/line..</text>
</g>
<g>
<title>com/linecorp/decaton/processor/runtime/ProcessorUnit.lambda$putTask$0 (1 samples, 6.25%)</title><rect x="305.0" y="515.0" width="73.8" height="15" fill="#6afb6a" rx="2" ry="2"/>
<text x="308.0" y="526.0">com/line..</text>
</g>
<g>
<title>com/linecorp/decaton/processor/runtime/ProcessorUnit.processTask (1 samples, 6.25%)</title><rect x="305.0" y="499.0" width="73.8" height="15" fill="#58e958" rx="2" ry="2"/>
<text x="308.0" y="510.0">com/line..</text>
</g>
<g>
<title>com/linecorp/decaton/processor/runtime/ProcessPipeline.scheduleThenProcess (1 samples, 6.25%)</title><rect x="305.0" y="483.0" width="73.8" height="15" fill="#5aeb5a" rx="2" ry="2"/>
<text x="308.0" y="494.0">com/line..</text>
</g>
<g>
<title>com/linecorp/decaton/processor/runtime/ProcessPipeline.process (1 samples, 6.25%)</title><rect x="305.0" y="467.0" width="73.8" height="15" fill="#68f968" rx="2" ry="2"/>
<text x="308.0" y="478.0">com/line..</text>
</g>
<g>
<title>com/linecorp/decaton/processor/runtime/ProcessingContextImpl.push (1 samples, 6.25%)</title><rect x="305.0" y="451.0" width="73.8" height="15" fill="#6bfc6b" rx="2" ry="2"/>
<text x="308.0" y="462.0">com/line..</text>
</g>
<g>
<title>com/linecorp/decaton/processor/runtime/ProcessingContextImpl.pushDownStream (1 samples, 6.25%)</title><rect x="305.0" y="435.0" width="73.8" height="15" fill="#52e352" rx="2" ry="2"/>
<text x="308.0" y="446.0">com/line..</text>
</g>
<g>
<title>com/linecorp/decaton/benchmark/DecatonRunner$$Lambda$203/564617543.process (1 samples, 6.25%)</title><rect x="305.0" y="419.0" width="73.8" height="15" fill="#6cfd6c" rx="2" ry="2"/>
<text x="308.0" y="430.0">com/line..</text>
</g>
<g>
<title>start_thread (11 samples, 68.75%)</title><rect x="378.8" y="579.0" width="811.2" height="15" fill="#f06f6f" rx="2" ry="2"/>
<text x="381.8" y="590.0">start_thread</text>
</g>
<g>
<title>java_start(Thread*) (11 samples, 68.75%)</title><rect x="378.8" y="563.0" width="811.2" height="15" fill="#e35d5d" rx="2" ry="2"/>
<text x="381.8" y="574.0">java_start(Thread*)</text>
</g>
<g>
<title>JavaThread::thread_main_inner() (11 samples, 68.75%)</title><rect x="378.8" y="547.0" width="811.2" height="15" fill="#cdcd3d" rx="2" ry="2"/>
<text x="381.8" y="558.0">JavaThread::thread_main_inner()</text>
</g>
<g>
<title>CompileBroker::compiler_thread_loop() (11 samples, 68.75%)</title><rect x="378.8" y="531.0" width="811.2" height="15" fill="#dbdb42" rx="2" ry="2"/>
<text x="381.8" y="542.0">CompileBroker::compiler_thread_loop()</text>
</g>
<g>
<title>CompileBroker::invoke_compiler_on_method(CompileTask*) (11 samples, 68.75%)</title><rect x="378.8" y="515.0" width="811.2" height="15" fill="#e2e244" rx="2" ry="2"/>
<text x="381.8" y="526.0">CompileBroker::invoke_compiler_on_method(CompileTask*)</text>
</g>
<g>
<title>C2Compiler::compile_method(ciEnv*, ciMethod*, int) (10 samples, 62.50%)</title><rect x="378.8" y="499.0" width="737.5" height="15" fill="#d2d23f" rx="2" ry="2"/>
<text x="381.8" y="510.0">C2Compiler::compile_method(ciEnv*, ciMethod*, int)</text>
</g>
<g>
<title>Compile::Compile(ciEnv*, C2Compiler*, ciMethod*, int, bool, bool, bool) (10 samples, 62.50%)</title><rect x="378.8" y="483.0" width="737.5" height="15" fill="#c9c93c" rx="2" ry="2"/>
<text x="381.8" y="494.0">Compile::Compile(ciEnv*, C2Compiler*, ciMethod*, int, bool, bool, bool)</text>
</g>
<g>
<title>CallGenerator::for_inline(ciMethod*, float) (1 samples, 6.25%)</title><rect x="378.8" y="467.0" width="73.7" height="15" fill="#c8c83c" rx="2" ry="2"/>
<text x="381.8" y="478.0">CallGene..</text>
</g>
<g>
<title>InlineTree::check_can_parse(ciMethod*) (1 samples, 6.25%)</title><rect x="378.8" y="451.0" width="73.7" height="15" fill="#d5d540" rx="2" ry="2"/>
<text x="381.8" y="462.0">InlineTr..</text>
</g>
<g>
<title>ciMethod::get_flow_analysis() (1 samples, 6.25%)</title><rect x="378.8" y="435.0" width="73.7" height="15" fill="#c9c93c" rx="2" ry="2"/>
<text x="381.8" y="446.0">ciMethod..</text>
</g>
<g>
<title>ciTypeFlow::do_flow() (1 samples, 6.25%)</title><rect x="378.8" y="419.0" width="73.7" height="15" fill="#cfcf3e" rx="2" ry="2"/>
<text x="381.8" y="430.0">ciTypeFl..</text>
</g>
<g>
<title>ciTypeFlow::flow_types() (1 samples, 6.25%)</title><rect x="378.8" y="403.0" width="73.7" height="15" fill="#e5e545" rx="2" ry="2"/>
<text x="381.8" y="414.0">ciTypeFl..</text>
</g>
<g>
<title>ciTypeFlow::df_flow_types(ciTypeFlow::Block*, bool, ciTypeFlow::StateVector*, ciTypeFlow::JsrSet*) (1 samples, 6.25%)</title><rect x="378.8" y="387.0" width="73.7" height="15" fill="#e3e345" rx="2" ry="2"/>
<text x="381.8" y="398.0">ciTypeFl..</text>
</g>
<g>
<title>ciTypeFlow::flow_block(ciTypeFlow::Block*, ciTypeFlow::StateVector*, ciTypeFlow::JsrSet*) (1 samples, 6.25%)</title><rect x="378.8" y="371.0" width="73.7" height="15" fill="#e1e144" rx="2" ry="2"/>
<text x="381.8" y="382.0">ciTypeFl..</text>
</g>
<g>
<title>ciTypeFlow::StateVector::apply_one_bytecode(ciBytecodeStream*) (1 samples, 6.25%)</title><rect x="378.8" y="355.0" width="73.7" height="15" fill="#cfcf3e" rx="2" ry="2"/>
<text x="381.8" y="366.0">ciTypeFl..</text>
</g>
<g>
<title>ciTypeFlow::StateVector::do_getstatic(ciBytecodeStream*) (1 samples, 6.25%)</title><rect x="378.8" y="339.0" width="73.7" height="15" fill="#d8d841" rx="2" ry="2"/>
<text x="381.8" y="350.0">ciTypeFl..</text>
</g>
<g>
<title>ciBytecodeStream::get_field(bool&amp;) (1 samples, 6.25%)</title><rect x="378.8" y="323.0" width="73.7" height="15" fill="#d3d33f" rx="2" ry="2"/>
<text x="381.8" y="334.0">ciByteco..</text>
</g>
<g>
<title>ciEnv::get_field_by_index(ciInstanceKlass*, int) (1 samples, 6.25%)</title><rect x="378.8" y="307.0" width="73.7" height="15" fill="#dede43" rx="2" ry="2"/>
<text x="381.8" y="318.0">ciEnv::g..</text>
</g>
<g>
<title>ciEnv::get_field_by_index_impl(ciInstanceKlass*, int) (1 samples, 6.25%)</title><rect x="378.8" y="291.0" width="73.7" height="15" fill="#d7d741" rx="2" ry="2"/>
<text x="381.8" y="302.0">ciEnv::g..</text>
</g>
<g>
<title>ciField::ciField(ciInstanceKlass*, int) (1 samples, 6.25%)</title><rect x="378.8" y="275.0" width="73.7" height="15" fill="#dcdc42" rx="2" ry="2"/>
<text x="381.8" y="286.0">ciField:..</text>
</g>
<g>
<title>InstanceKlass::find_field(Symbol*, Symbol*, fieldDescriptor*) const (1 samples, 6.25%)</title><rect x="378.8" y="259.0" width="73.7" height="15" fill="#d7d741" rx="2" ry="2"/>
<text x="381.8" y="270.0">Instance..</text>
</g>
<g>
<title>InstanceKlass::find_interface_field(Symbol*, Symbol*, fieldDescriptor*) const (1 samples, 6.25%)</title><rect x="378.8" y="243.0" width="73.7" height="15" fill="#c9c93c" rx="2" ry="2"/>
<text x="381.8" y="254.0">Instance..</text>
</g>
<g>
<title>InstanceKlass::find_local_field(Symbol*, Symbol*, fieldDescriptor*) const (1 samples, 6.25%)</title><rect x="378.8" y="227.0" width="73.7" height="15" fill="#d5d540" rx="2" ry="2"/>
<text x="381.8" y="238.0">Instance..</text>
</g>
<g>
<title>constantPoolHandle::remove() (1 samples, 6.25%)</title><rect x="378.8" y="211.0" width="73.7" height="15" fill="#e3e345" rx="2" ry="2"/>
<text x="381.8" y="222.0">constant..</text>
</g>
<g>
<title>Compile::Code_Gen() (5 samples, 31.25%)</title><rect x="452.5" y="467.0" width="368.8" height="15" fill="#e3e345" rx="2" ry="2"/>
<text x="455.5" y="478.0">Compile::Code_Gen()</text>
</g>
<g>
<title>PhaseChaitin::Register_Allocate() (5 samples, 31.25%)</title><rect x="452.5" y="451.0" width="368.8" height="15" fill="#dddd43" rx="2" ry="2"/>
<text x="455.5" y="462.0">PhaseChaitin::Register_Allocate()</text>
</g>
<g>
<title>IndexSet::free_block(unsigned int) (1 samples, 6.25%)</title><rect x="452.5" y="435.0" width="73.8" height="15" fill="#d0d03e" rx="2" ry="2"/>
<text x="455.5" y="446.0">IndexSet..</text>
</g>
<g>
<title>PhaseChaitin::Select() (1 samples, 6.25%)</title><rect x="526.2" y="435.0" width="73.7" height="15" fill="#dede43" rx="2" ry="2"/>
<text x="529.2" y="446.0">PhaseCha..</text>
</g>
<g>
<title>PhaseIFG::re_insert(unsigned int) (1 samples, 6.25%)</title><rect x="526.2" y="419.0" width="73.7" height="15" fill="#dbdb42" rx="2" ry="2"/>
<text x="529.2" y="430.0">PhaseIFG..</text>
</g>
<g>
<title>IndexSetIterator::advance_and_next() (1 samples, 6.25%)</title><rect x="526.2" y="403.0" width="73.7" height="15" fill="#d2d23f" rx="2" ry="2"/>
<text x="529.2" y="414.0">IndexSet..</text>
</g>
<g>
<title>PhaseChaitin::Split(unsigned int, ResourceArea*) (1 samples, 6.25%)</title><rect x="600.0" y="435.0" width="73.8" height="15" fill="#dcdc42" rx="2" ry="2"/>
<text x="603.0" y="446.0">PhaseCha..</text>
</g>
<g>
<title>PhaseChaitin::build_ifg_physical(ResourceArea*) (1 samples, 6.25%)</title><rect x="673.8" y="435.0" width="73.7" height="15" fill="#cccc3d" rx="2" ry="2"/>
<text x="676.8" y="446.0">PhaseCha..</text>
</g>
<g>
<title>PhaseChaitin::post_allocate_copy_removal() (1 samples, 6.25%)</title><rect x="747.5" y="435.0" width="73.8" height="15" fill="#d5d540" rx="2" ry="2"/>
<text x="750.5" y="446.0">PhaseCha..</text>
</g>
<g>
<title>Compile::Optimize() (3 samples, 18.75%)</title><rect x="821.2" y="467.0" width="221.2" height="15" fill="#e2e244" rx="2" ry="2"/>
<text x="824.2" y="478.0">Compile::Optimize()</text>
</g>
<g>
<title>PhaseIdealLoop::build_and_optimize(bool, bool) (2 samples, 12.50%)</title><rect x="821.2" y="451.0" width="147.5" height="15" fill="#e0e044" rx="2" ry="2"/>
<text x="824.2" y="462.0">PhaseIdealLoop::bui..</text>
</g>
<g>
<title>PhaseIdealLoop::build_loop_early(VectorSet&amp;, Node_List&amp;, Node_Stack&amp;) (1 samples, 6.25%)</title><rect x="821.2" y="435.0" width="73.7" height="15" fill="#d1d13f" rx="2" ry="2"/>
<text x="824.2" y="446.0">PhaseIde..</text>
</g>
<g>
<title>PhaseIdealLoop::split_if_with_blocks(VectorSet&amp;, Node_Stack&amp;) (1 samples, 6.25%)</title><rect x="895.0" y="435.0" width="73.8" height="15" fill="#cece3e" rx="2" ry="2"/>
<text x="898.0" y="446.0">PhaseIde..</text>
</g>
<g>
<title>PhaseIdealLoop::split_if_with_blocks_pre(Node*) (1 samples, 6.25%)</title><rect x="895.0" y="419.0" width="73.8" height="15" fill="#e2e244" rx="2" ry="2"/>
<text x="898.0" y="430.0">PhaseIde..</text>
</g>
<g>
<title>PhaseIdealLoop::split_thru_phi(Node*, Node*, int) (1 samples, 6.25%)</title><rect x="895.0" y="403.0" width="73.8" height="15" fill="#d2d23f" rx="2" ry="2"/>
<text x="898.0" y="414.0">PhaseIde..</text>
</g>
<g>
<title>PhaseIterGVN::remove_globally_dead_node(Node*) (1 samples, 6.25%)</title><rect x="895.0" y="387.0" width="73.8" height="15" fill="#dcdc42" rx="2" ry="2"/>
<text x="898.0" y="398.0">PhaseIte..</text>
</g>
<g>
<title>PhiNode::hash() const (1 samples, 6.25%)</title><rect x="895.0" y="371.0" width="73.8" height="15" fill="#e4e445" rx="2" ry="2"/>
<text x="898.0" y="382.0">PhiNode:..</text>
</g>
<g>
<title>PhaseIterGVN::optimize() (1 samples, 6.25%)</title><rect x="968.8" y="451.0" width="73.7" height="15" fill="#d9d941" rx="2" ry="2"/>
<text x="971.8" y="462.0">PhaseIte..</text>
</g>
<g>
<title>PhaseIterGVN::transform_old(Node*) (1 samples, 6.25%)</title><rect x="968.8" y="435.0" width="73.7" height="15" fill="#dbdb42" rx="2" ry="2"/>
<text x="971.8" y="446.0">PhaseIte..</text>
</g>
<g>
<title>RegionNode::Ideal(PhaseGVN*, bool) (1 samples, 6.25%)</title><rect x="968.8" y="419.0" width="73.7" height="15" fill="#e1e144" rx="2" ry="2"/>
<text x="971.8" y="430.0">RegionNo..</text>
</g>
<g>
<title>RegionNode::is_unreachable_region(PhaseGVN*) const (1 samples, 6.25%)</title><rect x="968.8" y="403.0" width="73.7" height="15" fill="#d5d540" rx="2" ry="2"/>
<text x="971.8" y="414.0">RegionNo..</text>
</g>
<g>
<title>ParseGenerator::generate(JVMState*) (1 samples, 6.25%)</title><rect x="1042.5" y="467.0" width="73.8" height="15" fill="#e3e345" rx="2" ry="2"/>
<text x="1045.5" y="478.0">ParseGen..</text>
</g>
<g>
<title>Parse::Parse(JVMState*, ciMethod*, float) (1 samples, 6.25%)</title><rect x="1042.5" y="451.0" width="73.8" height="15" fill="#d3d33f" rx="2" ry="2"/>
<text x="1045.5" y="462.0">Parse::P..</text>
</g>
<g>
<title>Parse::do_all_blocks() (1 samples, 6.25%)</title><rect x="1042.5" y="435.0" width="73.8" height="15" fill="#e0e044" rx="2" ry="2"/>
<text x="1045.5" y="446.0">Parse::d..</text>
</g>
<g>
<title>Parse::do_one_block() (1 samples, 6.25%)</title><rect x="1042.5" y="419.0" width="73.8" height="15" fill="#dcdc42" rx="2" ry="2"/>
<text x="1045.5" y="430.0">Parse::d..</text>
</g>
<g>
<title>Parse::do_one_bytecode() (1 samples, 6.25%)</title><rect x="1042.5" y="403.0" width="73.8" height="15" fill="#e3e345" rx="2" ry="2"/>
<text x="1045.5" y="414.0">Parse::d..</text>
</g>
<g>
<title>Parse::do_call() (1 samples, 6.25%)</title><rect x="1042.5" y="387.0" width="73.8" height="15" fill="#d6d640" rx="2" ry="2"/>
<text x="1045.5" y="398.0">Parse::d..</text>
</g>
<g>
<title>PredictedCallGenerator::generate(JVMState*) (1 samples, 6.25%)</title><rect x="1042.5" y="371.0" width="73.8" height="15" fill="#cece3e" rx="2" ry="2"/>
<text x="1045.5" y="382.0">Predicte..</text>
</g>
<g>
<title>ParseGenerator::generate(JVMState*) (1 samples, 6.25%)</title><rect x="1042.5" y="355.0" width="73.8" height="15" fill="#e4e445" rx="2" ry="2"/>
<text x="1045.5" y="366.0">ParseGen..</text>
</g>
<g>
<title>Parse::Parse(JVMState*, ciMethod*, float) (1 samples, 6.25%)</title><rect x="1042.5" y="339.0" width="73.8" height="15" fill="#e3e345" rx="2" ry="2"/>
<text x="1045.5" y="350.0">Parse::P..</text>
</g>
<g>
<title>Parse::do_all_blocks() (1 samples, 6.25%)</title><rect x="1042.5" y="323.0" width="73.8" height="15" fill="#cccc3d" rx="2" ry="2"/>
<text x="1045.5" y="334.0">Parse::d..</text>
</g>
<g>
<title>Parse::do_one_block() (1 samples, 6.25%)</title><rect x="1042.5" y="307.0" width="73.8" height="15" fill="#e2e244" rx="2" ry="2"/>
<text x="1045.5" y="318.0">Parse::d..</text>
</g>
<g>
<title>Parse::do_one_bytecode() (1 samples, 6.25%)</title><rect x="1042.5" y="291.0" width="73.8" height="15" fill="#dbdb42" rx="2" ry="2"/>
<text x="1045.5" y="302.0">Parse::d..</text>
</g>
<g>
<title>Parse::do_call() (1 samples, 6.25%)</title><rect x="1042.5" y="275.0" width="73.8" height="15" fill="#d4d440" rx="2" ry="2"/>
<text x="1045.5" y="286.0">Parse::d..</text>
</g>
<g>
<title>ParseGenerator::generate(JVMState*) (1 samples, 6.25%)</title><rect x="1042.5" y="259.0" width="73.8" height="15" fill="#dada42" rx="2" ry="2"/>
<text x="1045.5" y="270.0">ParseGen..</text>
</g>
<g>
<title>Parse::Parse(JVMState*, ciMethod*, float) (1 samples, 6.25%)</title><rect x="1042.5" y="243.0" width="73.8" height="15" fill="#d0d03e" rx="2" ry="2"/>
<text x="1045.5" y="254.0">Parse::P..</text>
</g>
<g>
<title>Parse::do_all_blocks() (1 samples, 6.25%)</title><rect x="1042.5" y="227.0" width="73.8" height="15" fill="#dfdf43" rx="2" ry="2"/>
<text x="1045.5" y="238.0">Parse::d..</text>
</g>
<g>
<title>Parse::do_one_block() (1 samples, 6.25%)</title><rect x="1042.5" y="211.0" width="73.8" height="15" fill="#d1d13f" rx="2" ry="2"/>
<text x="1045.5" y="222.0">Parse::d..</text>
</g>
<g>
<title>Parse::do_one_bytecode() (1 samples, 6.25%)</title><rect x="1042.5" y="195.0" width="73.8" height="15" fill="#d5d540" rx="2" ry="2"/>
<text x="1045.5" y="206.0">Parse::d..</text>
</g>
<g>
<title>Parse::do_call() (1 samples, 6.25%)</title><rect x="1042.5" y="179.0" width="73.8" height="15" fill="#cece3e" rx="2" ry="2"/>
<text x="1045.5" y="190.0">Parse::d..</text>
</g>
<g>
<title>Compile::call_generator(ciMethod*, int, bool, JVMState*, bool, float, ciKlass*, bool, bool) (1 samples, 6.25%)</title><rect x="1042.5" y="163.0" width="73.8" height="15" fill="#cdcd3d" rx="2" ry="2"/>
<text x="1045.5" y="174.0">Compile:..</text>
</g>
<g>
<title>InlineTree::ok_to_inline(ciMethod*, JVMState*, ciCallProfile&amp;, WarmCallInfo*, bool&amp;) (1 samples, 6.25%)</title><rect x="1042.5" y="147.0" width="73.8" height="15" fill="#d0d03e" rx="2" ry="2"/>
<text x="1045.5" y="158.0">InlineTr..</text>
</g>
<g>
<title>ciMethod::get_flow_analysis() (1 samples, 6.25%)</title><rect x="1042.5" y="131.0" width="73.8" height="15" fill="#d8d841" rx="2" ry="2"/>
<text x="1045.5" y="142.0">ciMethod..</text>
</g>
<g>
<title>ciTypeFlow::do_flow() (1 samples, 6.25%)</title><rect x="1042.5" y="115.0" width="73.8" height="15" fill="#d4d440" rx="2" ry="2"/>
<text x="1045.5" y="126.0">ciTypeFl..</text>
</g>
<g>
<title>ciTypeFlow::flow_types() (1 samples, 6.25%)</title><rect x="1042.5" y="99.0" width="73.8" height="15" fill="#cdcd3d" rx="2" ry="2"/>
<text x="1045.5" y="110.0">ciTypeFl..</text>
</g>
<g>
<title>ciTypeFlow::clone_loop_heads(ciTypeFlow::Loop*, ciTypeFlow::StateVector*, ciTypeFlow::JsrSet*) (1 samples, 6.25%)</title><rect x="1042.5" y="83.0" width="73.8" height="15" fill="#e3e345" rx="2" ry="2"/>
<text x="1045.5" y="94.0">ciTypeFl..</text>
</g>
<g>
<title>ciTypeFlow::clone_loop_head(ciTypeFlow::Loop*, ciTypeFlow::StateVector*, ciTypeFlow::JsrSet*) (1 samples, 6.25%)</title><rect x="1042.5" y="67.0" width="73.8" height="15" fill="#cbcb3d" rx="2" ry="2"/>
<text x="1045.5" y="78.0">ciTypeFl..</text>
</g>
<g>
<title>ciTypeFlow::flow_block(ciTypeFlow::Block*, ciTypeFlow::StateVector*, ciTypeFlow::JsrSet*) (1 samples, 6.25%)</title><rect x="1042.5" y="51.0" width="73.8" height="15" fill="#cbcb3d" rx="2" ry="2"/>
<text x="1045.5" y="62.0">ciTypeFl..</text>
</g>
<g>
<title>ciTypeFlow::StateVector::apply_one_bytecode(ciBytecodeStream*) (1 samples, 6.25%)</title><rect x="1042.5" y="35.0" width="73.8" height="15" fill="#d6d640" rx="2" ry="2"/>
<text x="1045.5" y="46.0">ciTypeFl..</text>
</g>
<g>
<title>Compiler::compile_method(ciEnv*, ciMethod*, int) (1 samples, 6.25%)</title><rect x="1116.2" y="499.0" width="73.7" height="15" fill="#dede43" rx="2" ry="2"/>
<text x="1119.2" y="510.0">Compiler..</text>
</g>
<g>
<title>Compilation::Compilation(AbstractCompiler*, ciEnv*, ciMethod*, int, BufferBlob*) (1 samples, 6.25%)</title><rect x="1116.2" y="483.0" width="73.7" height="15" fill="#e5e545" rx="2" ry="2"/>
<text x="1119.2" y="494.0">Compilat..</text>
</g>
<g>
<title>Compilation::compile_method() (1 samples, 6.25%)</title><rect x="1116.2" y="467.0" width="73.7" height="15" fill="#e4e445" rx="2" ry="2"/>
<text x="1119.2" y="478.0">Compilat..</text>
</g>
<g>
<title>Compilation::compile_java_method() (1 samples, 6.25%)</title><rect x="1116.2" y="451.0" width="73.7" height="15" fill="#dcdc42" rx="2" ry="2"/>
<text x="1119.2" y="462.0">Compilat..</text>
</g>
<g>
<title>Compilation::build_hir() (1 samples, 6.25%)</title><rect x="1116.2" y="435.0" width="73.7" height="15" fill="#d3d33f" rx="2" ry="2"/>
<text x="1119.2" y="446.0">Compilat..</text>
</g>
<g>
<title>IR::IR(Compilation*, ciMethod*, int) (1 samples, 6.25%)</title><rect x="1116.2" y="419.0" width="73.7" height="15" fill="#dede43" rx="2" ry="2"/>
<text x="1119.2" y="430.0">IR::IR(C..</text>
</g>
<g>
<title>IRScope::IRScope(Compilation*, IRScope*, int, ciMethod*, int, bool) (1 samples, 6.25%)</title><rect x="1116.2" y="403.0" width="73.7" height="15" fill="#d3d33f" rx="2" ry="2"/>
<text x="1119.2" y="414.0">IRScope:..</text>
</g>
<g>
<title>GraphBuilder::GraphBuilder(Compilation*, IRScope*) (1 samples, 6.25%)</title><rect x="1116.2" y="387.0" width="73.7" height="15" fill="#d0d03e" rx="2" ry="2"/>
<text x="1119.2" y="398.0">GraphBui..</text>
</g>
<g>
<title>GraphBuilder::iterate_all_blocks(bool) (1 samples, 6.25%)</title><rect x="1116.2" y="371.0" width="73.7" height="15" fill="#cece3e" rx="2" ry="2"/>
<text x="1119.2" y="382.0">GraphBui..</text>
</g>
<g>
<title>GraphBuilder::iterate_bytecodes_for_block(int) (1 samples, 6.25%)</title><rect x="1116.2" y="355.0" width="73.7" height="15" fill="#d9d941" rx="2" ry="2"/>
<text x="1119.2" y="366.0">GraphBui..</text>
</g>
<g>
<title>GraphBuilder::invoke(Bytecodes::Code) (1 samples, 6.25%)</title><rect x="1116.2" y="339.0" width="73.7" height="15" fill="#cfcf3e" rx="2" ry="2"/>
<text x="1119.2" y="350.0">GraphBui..</text>
</g>
<g>
<title>GraphBuilder::try_inline(ciMethod*, bool, Bytecodes::Code, Instruction*) (1 samples, 6.25%)</title><rect x="1116.2" y="323.0" width="73.7" height="15" fill="#cccc3d" rx="2" ry="2"/>
<text x="1119.2" y="334.0">GraphBui..</text>
</g>
<g>
<title>GraphBuilder::try_inline_full(ciMethod*, bool, Bytecodes::Code, Instruction*) (1 samples, 6.25%)</title><rect x="1116.2" y="307.0" width="73.7" height="15" fill="#dddd43" rx="2" ry="2"/>
<text x="1119.2" y="318.0">GraphBui..</text>
</g>
<g>
<title>GraphBuilder::push_scope(ciMethod*, BlockBegin*) (1 samples, 6.25%)</title><rect x="1116.2" y="291.0" width="73.7" height="15" fill="#cbcb3d" rx="2" ry="2"/>
<text x="1119.2" y="302.0">GraphBui..</text>
</g>
<g>
<title>IRScope::IRScope(Compilation*, IRScope*, int, ciMethod*, int, bool) (1 samples, 6.25%)</title><rect x="1116.2" y="275.0" width="73.7" height="15" fill="#dfdf43" rx="2" ry="2"/>
<text x="1119.2" y="286.0">IRScope:..</text>
</g>
</g>
</svg>
