<?xml version="1.0" standalone="no"?>
<!DOCTYPE svg PUBLIC "-//W3C//DTD SVG 1.1//EN" "http://www.w3.org/Graphics/SVG/1.1/DTD/svg11.dtd">
<svg version="1.1" width="1200" height="822" onload="init(evt)" viewBox="0 0 1200 822" xmlns="http://www.w3.org/2000/svg" xmlns:xlink="http://www.w3.org/1999/xlink">
<style type="text/css">
	text { font-family:Verdana; font-size:12px; fill:rgb(0,0,0); }
	#search { opacity:0.1; cursor:pointer; }
	#search:hover, #search.show { opacity:1; }
	#subtitle { text-anchor:middle; font-color:rgb(160,160,160); }
	#title { text-anchor:middle; font-size:17px}
	#unzoom { cursor:pointer; }
	#frames > *:hover { stroke:black; stroke-width:0.5; cursor:pointer; }
	.hide { display:none; }
	.parent { opacity:0.5; }
</style>
<script type="text/ecmascript">
<![CDATA[
	"use strict";
	var details, searchbtn, unzoombtn, matchedtxt, svg, searching;
	function init(evt) {
		details = document.getElementById("details").firstChild;
		searchbtn = document.getElementById("search");
		unzoombtn = document.getElementById("unzoom");
		matchedtxt = document.getElementById("matched");
		svg = document.getElementsByTagName("svg")[0];
		searching = 0;
	}

	window.addEventListener("click", function(e) {
		var target = find_group(e.target);
		if (target) {
			if (target.nodeName == "a") {
				if (e.ctrlKey === false) return;
				e.preventDefault();
			}
			if (target.classList.contains("parent")) unzoom();
			zoom(target);
		}
		else if (e.target.id == "unzoom") unzoom();
		else if (e.target.id == "search") search_prompt();
	}, false)

	// mouse-over for info
	// show
	window.addEventListener("mouseover", function(e) {
		var target = find_group(e.target);
		if (target) details.nodeValue = "Function: " + g_to_text(target);
	}, false)

	// clear
	window.addEventListener("mouseout", function(e) {
		var target = find_group(e.target);
		if (target) details.nodeValue = ' ';
	}, false)

	// ctrl-F for search
	window.addEventListener("keydown",function (e) {
		if (e.keyCode === 114 || (e.ctrlKey && e.keyCode === 70)) {
			e.preventDefault();
			search_prompt();
		}
	}, false)

	// functions
	function find_child(node, selector) {
		var children = node.querySelectorAll(selector);
		if (children.length) return children[0];
		return;
	}
	function find_group(node) {
		var parent = node.parentElement;
		if (!parent) return;
		if (parent.id == "frames") return node;
		return find_group(parent);
	}
	function orig_save(e, attr, val) {
		if (e.attributes["_orig_" + attr] != undefined) return;
		if (e.attributes[attr] == undefined) return;
		if (val == undefined) val = e.attributes[attr].value;
		e.setAttribute("_orig_" + attr, val);
	}
	function orig_load(e, attr) {
		if (e.attributes["_orig_"+attr] == undefined) return;
		e.attributes[attr].value = e.attributes["_orig_" + attr].value;
		e.removeAttribute("_orig_"+attr);
	}
	function g_to_text(e) {
		var text = find_child(e, "title").firstChild.nodeValue;
		return (text)
	}
	function g_to_func(e) {
		var func = g_to_text(e);
		// if there's any manipulation we want to do to the function
		// name before it's searched, do it here before returning.
		return (func);
	}
	function update_text(e) {
		var r = find_child(e, "rect");
		var t = find_child(e, "text");
		var w = parseFloat(r.attributes.width.value) -3;
		var txt = find_child(e, "title").textContent.replace(/\([^(]*\)$/,"");
		t.attributes.x.value = parseFloat(r.attributes.x.value) + 3;

		// Smaller than this size won't fit anything
		if (w < 2 * 12 * 0.59) {
			t.textContent = "";
			return;
		}

		t.textContent = txt;
		// Fit in full text width
		if (/^ *$/.test(txt) || t.getSubStringLength(0, txt.length) < w)
			return;

		for (var x = txt.length - 2; x > 0; x--) {
			if (t.getSubStringLength(0, x + 2) <= w) {
				t.textContent = txt.substring(0, x) + "..";
				return;
			}
		}
		t.textContent = "";
	}

	// zoom
	function zoom_reset(e) {
		if (e.attributes != undefined) {
			orig_load(e, "x");
			orig_load(e, "width");
		}
		if (e.childNodes == undefined) return;
		for (var i = 0, c = e.childNodes; i < c.length; i++) {
			zoom_reset(c[i]);
		}
	}
	function zoom_child(e, x, ratio) {
		if (e.attributes != undefined) {
			if (e.attributes.x != undefined) {
				orig_save(e, "x");
				e.attributes.x.value = (parseFloat(e.attributes.x.value) - x - 10) * ratio + 10;
				if (e.tagName == "text")
					e.attributes.x.value = find_child(e.parentNode, "rect[x]").attributes.x.value + 3;
			}
			if (e.attributes.width != undefined) {
				orig_save(e, "width");
				e.attributes.width.value = parseFloat(e.attributes.width.value) * ratio;
			}
		}

		if (e.childNodes == undefined) return;
		for (var i = 0, c = e.childNodes; i < c.length; i++) {
			zoom_child(c[i], x - 10, ratio);
		}
	}
	function zoom_parent(e) {
		if (e.attributes) {
			if (e.attributes.x != undefined) {
				orig_save(e, "x");
				e.attributes.x.value = 10;
			}
			if (e.attributes.width != undefined) {
				orig_save(e, "width");
				e.attributes.width.value = parseInt(svg.width.baseVal.value) - (10 * 2);
			}
		}
		if (e.childNodes == undefined) return;
		for (var i = 0, c = e.childNodes; i < c.length; i++) {
			zoom_parent(c[i]);
		}
	}
	function zoom(node) {
		var attr = find_child(node, "rect").attributes;
		var width = parseFloat(attr.width.value);
		var xmin = parseFloat(attr.x.value);
		var xmax = parseFloat(xmin + width);
		var ymin = parseFloat(attr.y.value);
		var ratio = (svg.width.baseVal.value - 2 * 10) / width;

		// XXX: Workaround for JavaScript float issues (fix me)
		var fudge = 0.0001;

		unzoombtn.classList.remove("hide");

		var el = document.getElementById("frames").children;
		for (var i = 0; i < el.length; i++) {
			var e = el[i];
			var a = find_child(e, "rect").attributes;
			var ex = parseFloat(a.x.value);
			var ew = parseFloat(a.width.value);
			var upstack;
			// Is it an ancestor
			if (0 == 0) {
				upstack = parseFloat(a.y.value) > ymin;
			} else {
				upstack = parseFloat(a.y.value) < ymin;
			}
			if (upstack) {
				// Direct ancestor
				if (ex <= xmin && (ex+ew+fudge) >= xmax) {
					e.classList.add("parent");
					zoom_parent(e);
					update_text(e);
				}
				// not in current path
				else
					e.classList.add("hide");
			}
			// Children maybe
			else {
				// no common path
				if (ex < xmin || ex + fudge >= xmax) {
					e.classList.add("hide");
				}
				else {
					zoom_child(e, xmin, ratio);
					update_text(e);
				}
			}
		}
	}
	function unzoom() {
		unzoombtn.classList.add("hide");
		var el = document.getElementById("frames").children;
		for(var i = 0; i < el.length; i++) {
			el[i].classList.remove("parent");
			el[i].classList.remove("hide");
			zoom_reset(el[i]);
			update_text(el[i]);
		}
	}

	// search
	function reset_search() {
		var el = document.querySelectorAll("#frames rect");
		for (var i = 0; i < el.length; i++) {
			orig_load(el[i], "fill")
		}
	}
	function search_prompt() {
		if (!searching) {
			var term = prompt("Enter a search term (regexp " +
			    "allowed, eg: ^ext4_)", "");
			if (term != null) {
				search(term)
			}
		} else {
			reset_search();
			searching = 0;
			searchbtn.classList.remove("show");
			searchbtn.firstChild.nodeValue = "Search"
			matchedtxt.classList.add("hide");
			matchedtxt.firstChild.nodeValue = ""
		}
	}
	function search(term) {
		var re = new RegExp(term);
		var el = document.getElementById("frames").children;
		var matches = new Object();
		var maxwidth = 0;
		for (var i = 0; i < el.length; i++) {
			var e = el[i];
			var func = g_to_func(e);
			var rect = find_child(e, "rect");
			if (func == null || rect == null)
				continue;

			// Save max width. Only works as we have a root frame
			var w = parseFloat(rect.attributes.width.value);
			if (w > maxwidth)
				maxwidth = w;

			if (func.match(re)) {
				// highlight
				var x = parseFloat(rect.attributes.x.value);
				orig_save(rect, "fill");
				rect.attributes.fill.value = "rgb(230,0,230)";

				// remember matches
				if (matches[x] == undefined) {
					matches[x] = w;
				} else {
					if (w > matches[x]) {
						// overwrite with parent
						matches[x] = w;
					}
				}
				searching = 1;
			}
		}
		if (!searching)
			return;

		searchbtn.classList.add("show");
		searchbtn.firstChild.nodeValue = "Reset Search";

		// calculate percent matched, excluding vertical overlap
		var count = 0;
		var lastx = -1;
		var lastw = 0;
		var keys = Array();
		for (k in matches) {
			if (matches.hasOwnProperty(k))
				keys.push(k);
		}
		// sort the matched frames by their x location
		// ascending, then width descending
		keys.sort(function(a, b){
			return a - b;
		});
		// Step through frames saving only the biggest bottom-up frames
		// thanks to the sort order. This relies on the tree property
		// where children are always smaller than their parents.
		var fudge = 0.0001;	// JavaScript floating point
		for (var k in keys) {
			var x = parseFloat(keys[k]);
			var w = matches[keys[k]];
			if (x >= lastx + lastw - fudge) {
				count += w;
				lastx = x;
				lastw = w;
			}
		}
		// display matched percent
		matchedtxt.classList.remove("hide");
		var pct = 100 * count / maxwidth;
		if (pct != 100) pct = pct.toFixed(1)
		matchedtxt.firstChild.nodeValue = "Matched: " + pct + "%";
	}
]]>
</script>
<rect x="0" y="0" width="100%" height="100%" fill="rgb(240,240,220)"/>
<text id="title" x="600" y="24">Flame Graph</text>
<text id="details" x="10" y="805"> </text>
<text id="unzoom" x="10" y="24" class="hide">Reset Zoom</text>
<text id="search" x="1090" y="24">Search</text>
<text id="matched" x="1090" y="805"> </text>
<g id="frames">
<g>
<title>all (25 samples, 100.00%)</title><rect x="10.0" y="771.0" width="1180.0" height="15" fill="#fa7b7b" rx="2" ry="2"/>
<text x="13.0" y="782.0">all</text>
</g>
<g>
<title>[unknown] (1 samples, 4.00%)</title><rect x="10.0" y="755.0" width="47.2" height="15" fill="#ec6969" rx="2" ry="2"/>
<text x="13.0" y="766.0">[unk..</text>
</g>
<g>
<title>/usr/lib/jvm/java-1.8.0-openjdk-1.8.0.222.b10-1.el7_7.x86_64/jre/lib/amd64/server/libjvm.so (1 samples, 4.00%)</title><rect x="10.0" y="739.0" width="47.2" height="15" fill="#f87979" rx="2" ry="2"/>
<text x="13.0" y="750.0">/usr..</text>
</g>
<g>
<title>__vsnprintf_chk (1 samples, 4.00%)</title><rect x="10.0" y="723.0" width="47.2" height="15" fill="#f87979" rx="2" ry="2"/>
<text x="13.0" y="734.0">__vs..</text>
</g>
<g>
<title>__GI__IO_default_xsputn (1 samples, 4.00%)</title><rect x="10.0" y="707.0" width="47.2" height="15" fill="#fc7e7e" rx="2" ry="2"/>
<text x="13.0" y="718.0">__GI..</text>
</g>
<g>
<title>com/linecorp/decaton/processor/runtime/ProcessorSubscription.run (3 samples, 12.00%)</title><rect x="57.2" y="755.0" width="141.6" height="15" fill="#55e655" rx="2" ry="2"/>
<text x="60.2" y="766.0">com/linecorp/decat..</text>
</g>
<g>
<title>com/linecorp/decaton/processor/runtime/ProcessorSubscription.pollOnce (3 samples, 12.00%)</title><rect x="57.2" y="739.0" width="141.6" height="15" fill="#5aeb5a" rx="2" ry="2"/>
<text x="60.2" y="750.0">com/linecorp/decat..</text>
</g>
<g>
<title>org/apache/kafka/clients/consumer/KafkaConsumer.poll (3 samples, 12.00%)</title><rect x="57.2" y="723.0" width="141.6" height="15" fill="#67f867" rx="2" ry="2"/>
<text x="60.2" y="734.0">org/apache/kafka/c..</text>
</g>
<g>
<title>org/apache/kafka/clients/consumer/KafkaConsumer.poll (3 samples, 12.00%)</title><rect x="57.2" y="707.0" width="141.6" height="15" fill="#58e958" rx="2" ry="2"/>
<text x="60.2" y="718.0">org/apache/kafka/c..</text>
</g>
<g>
<title>org/apache/kafka/clients/consumer/KafkaConsumer.updateAssignmentMetadataIfNeeded (1 samples, 4.00%)</title><rect x="57.2" y="691.0" width="47.2" height="15" fill="#60f160" rx="2" ry="2"/>
<text x="60.2" y="702.0">org/..</text>
</g>
<g>
<title>org/apache/kafka/clients/consumer/KafkaConsumer.updateFetchPositions (1 samples, 4.00%)</title><rect x="57.2" y="675.0" width="47.2" height="15" fill="#5eef5e" rx="2" ry="2"/>
<text x="60.2" y="686.0">org/..</text>
</g>
<g>
<title>org/apache/kafka/clients/consumer/internals/Fetcher.validateOffsetsIfNeeded (1 samples, 4.00%)</title><rect x="57.2" y="659.0" width="47.2" height="15" fill="#62f362" rx="2" ry="2"/>
<text x="60.2" y="670.0">org/..</text>
</g>
<g>
<title>org/apache/kafka/clients/consumer/internals/Fetcher.validateOffsetsAsync (1 samples, 4.00%)</title><rect x="57.2" y="643.0" width="47.2" height="15" fill="#5aeb5a" rx="2" ry="2"/>
<text x="60.2" y="654.0">org/..</text>
</g>
<g>
<title>org/apache/kafka/clients/consumer/internals/Fetcher.regroupFetchPositionsByLeader (1 samples, 4.00%)</title><rect x="57.2" y="627.0" width="47.2" height="15" fill="#5ff05f" rx="2" ry="2"/>
<text x="60.2" y="638.0">org/..</text>
</g>
<g>
<title>org/apache/kafka/clients/consumer/internals/ConsumerNetworkClient.transmitSends (2 samples, 8.00%)</title><rect x="104.4" y="691.0" width="94.4" height="15" fill="#6cfd6c" rx="2" ry="2"/>
<text x="107.4" y="702.0">org/apache/..</text>
</g>
<g>
<title>org/apache/kafka/clients/NetworkClient.poll (2 samples, 8.00%)</title><rect x="104.4" y="675.0" width="94.4" height="15" fill="#6bfc6b" rx="2" ry="2"/>
<text x="107.4" y="686.0">org/apache/..</text>
</g>
<g>
<title>org/apache/kafka/clients/NetworkClient.handleCompletedReceives (1 samples, 4.00%)</title><rect x="104.4" y="659.0" width="47.2" height="15" fill="#63f463" rx="2" ry="2"/>
<text x="107.4" y="670.0">org/..</text>
</g>
<g>
<title>org/apache/kafka/clients/NetworkClient.parseStructMaybeUpdateThrottleTimeMetrics (1 samples, 4.00%)</title><rect x="104.4" y="643.0" width="47.2" height="15" fill="#65f665" rx="2" ry="2"/>
<text x="107.4" y="654.0">org/..</text>
</g>
<g>
<title>org/apache/kafka/common/protocol/ApiKeys.parseResponse (1 samples, 4.00%)</title><rect x="104.4" y="627.0" width="47.2" height="15" fill="#54e554" rx="2" ry="2"/>
<text x="107.4" y="638.0">org/..</text>
</g>
<g>
<title>org/apache/kafka/common/protocol/types/Schema.read (1 samples, 4.00%)</title><rect x="104.4" y="611.0" width="47.2" height="15" fill="#62f362" rx="2" ry="2"/>
<text x="107.4" y="622.0">org/..</text>
</g>
<g>
<title>org/apache/kafka/common/protocol/types/ArrayOf.read (1 samples, 4.00%)</title><rect x="104.4" y="595.0" width="47.2" height="15" fill="#50e150" rx="2" ry="2"/>
<text x="107.4" y="606.0">org/..</text>
</g>
<g>
<title>org/apache/kafka/common/protocol/types/Schema.read (1 samples, 4.00%)</title><rect x="104.4" y="579.0" width="47.2" height="15" fill="#57e857" rx="2" ry="2"/>
<text x="107.4" y="590.0">org/..</text>
</g>
<g>
<title>org/apache/kafka/common/protocol/types/Schema.read (1 samples, 4.00%)</title><rect x="104.4" y="563.0" width="47.2" height="15" fill="#54e554" rx="2" ry="2"/>
<text x="107.4" y="574.0">org/..</text>
</g>
<g>
<title>org/apache/kafka/common/protocol/types/Type$8.read (1 samples, 4.00%)</title><rect x="104.4" y="547.0" width="47.2" height="15" fill="#68f968" rx="2" ry="2"/>
<text x="107.4" y="558.0">org/..</text>
</g>
<g>
<title>org/apache/kafka/common/protocol/types/Type$8.read (1 samples, 4.00%)</title><rect x="104.4" y="531.0" width="47.2" height="15" fill="#54e554" rx="2" ry="2"/>
<text x="107.4" y="542.0">org/..</text>
</g>
<g>
<title>org/apache/kafka/common/utils/Utils.utf8 (1 samples, 4.00%)</title><rect x="104.4" y="515.0" width="47.2" height="15" fill="#5ced5c" rx="2" ry="2"/>
<text x="107.4" y="526.0">org/..</text>
</g>
<g>
<title>org/apache/kafka/common/utils/Utils.utf8 (1 samples, 4.00%)</title><rect x="104.4" y="499.0" width="47.2" height="15" fill="#53e453" rx="2" ry="2"/>
<text x="107.4" y="510.0">org/..</text>
</g>
<g>
<title>java/lang/String.&lt;init&gt; (1 samples, 4.00%)</title><rect x="104.4" y="483.0" width="47.2" height="15" fill="#53e453" rx="2" ry="2"/>
<text x="107.4" y="494.0">java..</text>
</g>
<g>
<title>java/lang/StringCoding.decode (1 samples, 4.00%)</title><rect x="104.4" y="467.0" width="47.2" height="15" fill="#6dfe6d" rx="2" ry="2"/>
<text x="107.4" y="478.0">java..</text>
</g>
<g>
<title>java/lang/System.getSecurityManager (1 samples, 4.00%)</title><rect x="104.4" y="451.0" width="47.2" height="15" fill="#56e756" rx="2" ry="2"/>
<text x="107.4" y="462.0">java..</text>
</g>
<g>
<title>org/apache/kafka/common/network/Selector.poll (1 samples, 4.00%)</title><rect x="151.6" y="659.0" width="47.2" height="15" fill="#5ff05f" rx="2" ry="2"/>
<text x="154.6" y="670.0">org/..</text>
</g>
<g>
<title>org/apache/kafka/common/network/Selector.pollSelectionKeys (1 samples, 4.00%)</title><rect x="151.6" y="643.0" width="47.2" height="15" fill="#69fa69" rx="2" ry="2"/>
<text x="154.6" y="654.0">org/..</text>
</g>
<g>
<title>org/apache/kafka/common/network/Selector.attemptRead (1 samples, 4.00%)</title><rect x="151.6" y="627.0" width="47.2" height="15" fill="#62f362" rx="2" ry="2"/>
<text x="154.6" y="638.0">org/..</text>
</g>
<g>
<title>org/apache/kafka/common/network/KafkaChannel.read (1 samples, 4.00%)</title><rect x="151.6" y="611.0" width="47.2" height="15" fill="#58e958" rx="2" ry="2"/>
<text x="154.6" y="622.0">org/..</text>
</g>
<g>
<title>org/apache/kafka/common/network/KafkaChannel.receive (1 samples, 4.00%)</title><rect x="151.6" y="595.0" width="47.2" height="15" fill="#63f463" rx="2" ry="2"/>
<text x="154.6" y="606.0">org/..</text>
</g>
<g>
<title>org/apache/kafka/common/network/NetworkReceive.readFrom (1 samples, 4.00%)</title><rect x="151.6" y="579.0" width="47.2" height="15" fill="#5ff05f" rx="2" ry="2"/>
<text x="154.6" y="590.0">org/..</text>
</g>
<g>
<title>java/lang/Thread.run (1 samples, 4.00%)</title><rect x="198.8" y="755.0" width="47.2" height="15" fill="#5eef5e" rx="2" ry="2"/>
<text x="201.8" y="766.0">java..</text>
</g>
<g>
<title>java/util/concurrent/ThreadPoolExecutor$Worker.run (1 samples, 4.00%)</title><rect x="198.8" y="739.0" width="47.2" height="15" fill="#6dfe6d" rx="2" ry="2"/>
<text x="201.8" y="750.0">java..</text>
</g>
<g>
<title>java/util/concurrent/ThreadPoolExecutor.runWorker (1 samples, 4.00%)</title><rect x="198.8" y="723.0" width="47.2" height="15" fill="#58e958" rx="2" ry="2"/>
<text x="201.8" y="734.0">java..</text>
</g>
<g>
<title>com/linecorp/decaton/processor/runtime/ProcessorUnit$$Lambda$261/1991810671.run (1 samples, 4.00%)</title><rect x="198.8" y="707.0" width="47.2" height="15" fill="#67f867" rx="2" ry="2"/>
<text x="201.8" y="718.0">com/..</text>
</g>
<g>
<title>com/linecorp/decaton/processor/runtime/ProcessorUnit.lambda$putTask$0 (1 samples, 4.00%)</title><rect x="198.8" y="691.0" width="47.2" height="15" fill="#5ff05f" rx="2" ry="2"/>
<text x="201.8" y="702.0">com/..</text>
</g>
<g>
<title>com/linecorp/decaton/processor/runtime/ProcessorUnit.processTask (1 samples, 4.00%)</title><rect x="198.8" y="675.0" width="47.2" height="15" fill="#67f867" rx="2" ry="2"/>
<text x="201.8" y="686.0">com/..</text>
</g>
<g>
<title>com/linecorp/decaton/processor/runtime/ProcessPipeline.scheduleThenProcess (1 samples, 4.00%)</title><rect x="198.8" y="659.0" width="47.2" height="15" fill="#5ced5c" rx="2" ry="2"/>
<text x="201.8" y="670.0">com/..</text>
</g>
<g>
<title>java/util/concurrent/CompletableFuture.whenComplete (1 samples, 4.00%)</title><rect x="198.8" y="643.0" width="47.2" height="15" fill="#6afb6a" rx="2" ry="2"/>
<text x="201.8" y="654.0">java..</text>
</g>
<g>
<title>java/util/concurrent/CompletableFuture.uniWhenCompleteStage (1 samples, 4.00%)</title><rect x="198.8" y="627.0" width="47.2" height="15" fill="#58e958" rx="2" ry="2"/>
<text x="201.8" y="638.0">java..</text>
</g>
<g>
<title>java/util/concurrent/CompletableFuture.uniWhenComplete (1 samples, 4.00%)</title><rect x="198.8" y="611.0" width="47.2" height="15" fill="#5aeb5a" rx="2" ry="2"/>
<text x="201.8" y="622.0">java..</text>
</g>
<g>
<title>com/linecorp/decaton/processor/runtime/ProcessPipeline$$Lambda$266/297369734.accept (1 samples, 4.00%)</title><rect x="198.8" y="595.0" width="47.2" height="15" fill="#68f968" rx="2" ry="2"/>
<text x="201.8" y="606.0">com/..</text>
</g>
<g>
<title>com/linecorp/decaton/processor/runtime/ProcessPipeline.lambda$scheduleThenProcess$0 (1 samples, 4.00%)</title><rect x="198.8" y="579.0" width="47.2" height="15" fill="#6bfc6b" rx="2" ry="2"/>
<text x="201.8" y="590.0">com/..</text>
</g>
<g>
<title>com/linecorp/decaton/processor/runtime/OutOfOrderCommitControl$$Lambda$259/307384540.complete (1 samples, 4.00%)</title><rect x="198.8" y="563.0" width="47.2" height="15" fill="#52e352" rx="2" ry="2"/>
<text x="201.8" y="574.0">com/..</text>
</g>
<g>
<title>com/linecorp/decaton/processor/runtime/OutOfOrderCommitControl.lambda$reportFetchedOffset$0 (1 samples, 4.00%)</title><rect x="198.8" y="547.0" width="47.2" height="15" fill="#6cfd6c" rx="2" ry="2"/>
<text x="201.8" y="558.0">com/..</text>
</g>
<g>
<title>com/linecorp/decaton/processor/runtime/OutOfOrderCommitControl.complete (1 samples, 4.00%)</title><rect x="198.8" y="531.0" width="47.2" height="15" fill="#5ff05f" rx="2" ry="2"/>
<text x="201.8" y="542.0">com/..</text>
</g>
<g>
<title>ch/qos/logback/classic/Logger.isDebugEnabled (1 samples, 4.00%)</title><rect x="198.8" y="515.0" width="47.2" height="15" fill="#52e352" rx="2" ry="2"/>
<text x="201.8" y="526.0">ch/q..</text>
</g>
<g>
<title>ch/qos/logback/classic/Logger.isDebugEnabled (1 samples, 4.00%)</title><rect x="198.8" y="499.0" width="47.2" height="15" fill="#55e655" rx="2" ry="2"/>
<text x="201.8" y="510.0">ch/q..</text>
</g>
<g>
<title>ch/qos/logback/classic/Logger.callTurboFilters (1 samples, 4.00%)</title><rect x="198.8" y="483.0" width="47.2" height="15" fill="#63f463" rx="2" ry="2"/>
<text x="201.8" y="494.0">ch/q..</text>
</g>
<g>
<title>ch/qos/logback/classic/LoggerContext.getTurboFilterChainDecision_0_3OrMore (1 samples, 4.00%)</title><rect x="198.8" y="467.0" width="47.2" height="15" fill="#6afb6a" rx="2" ry="2"/>
<text x="201.8" y="478.0">ch/q..</text>
</g>
<g>
<title>start_thread (20 samples, 80.00%)</title><rect x="246.0" y="755.0" width="944.0" height="15" fill="#eb6767" rx="2" ry="2"/>
<text x="249.0" y="766.0">start_thread</text>
</g>
<g>
<title>java_start(Thread*) (20 samples, 80.00%)</title><rect x="246.0" y="739.0" width="944.0" height="15" fill="#e25c5c" rx="2" ry="2"/>
<text x="249.0" y="750.0">java_start(Thread*)</text>
</g>
<g>
<title>GangWorker::loop() (2 samples, 8.00%)</title><rect x="246.0" y="723.0" width="94.4" height="15" fill="#c8c83c" rx="2" ry="2"/>
<text x="249.0" y="734.0">GangWorker:..</text>
</g>
<g>
<title>G1ParTask::work(unsigned int) [clone .part.431] (2 samples, 8.00%)</title><rect x="246.0" y="707.0" width="94.4" height="15" fill="#d5d540" rx="2" ry="2"/>
<text x="249.0" y="718.0">G1ParTask::..</text>
</g>
<g>
<title>G1ParEvacuateFollowersClosure::do_void() (2 samples, 8.00%)</title><rect x="246.0" y="691.0" width="94.4" height="15" fill="#c9c93c" rx="2" ry="2"/>
<text x="249.0" y="702.0">G1ParEvacua..</text>
</g>
<g>
<title>G1ParScanThreadState::trim_queue() (1 samples, 4.00%)</title><rect x="246.0" y="675.0" width="47.2" height="15" fill="#cfcf3e" rx="2" ry="2"/>
<text x="249.0" y="686.0">G1Pa..</text>
</g>
<g>
<title>GenericTaskQueueSet&lt;OverflowTaskQueue&lt;StarTask, (MemoryType)5, 131072u&gt;, (MemoryType)5&gt;::steal_best_of_2(unsigned int, int*, StarTask&amp;) (1 samples, 4.00%)</title><rect x="293.2" y="675.0" width="47.2" height="15" fill="#e5e545" rx="2" ry="2"/>
<text x="296.2" y="686.0">Gene..</text>
</g>
<g>
<title>JavaThread::thread_main_inner() (18 samples, 72.00%)</title><rect x="340.4" y="723.0" width="849.6" height="15" fill="#e3e345" rx="2" ry="2"/>
<text x="343.4" y="734.0">JavaThread::thread_main_inner()</text>
</g>
<g>
<title>CompileBroker::compiler_thread_loop() (18 samples, 72.00%)</title><rect x="340.4" y="707.0" width="849.6" height="15" fill="#e1e144" rx="2" ry="2"/>
<text x="343.4" y="718.0">CompileBroker::compiler_thread_loop()</text>
</g>
<g>
<title>CompileBroker::invoke_compiler_on_method(CompileTask*) (18 samples, 72.00%)</title><rect x="340.4" y="691.0" width="849.6" height="15" fill="#cfcf3e" rx="2" ry="2"/>
<text x="343.4" y="702.0">CompileBroker::invoke_compiler_on_method(CompileTask*)</text>
</g>
<g>
<title>C2Compiler::compile_method(ciEnv*, ciMethod*, int) (16 samples, 64.00%)</title><rect x="340.4" y="675.0" width="755.2" height="15" fill="#d8d841" rx="2" ry="2"/>
<text x="343.4" y="686.0">C2Compiler::compile_method(ciEnv*, ciMethod*, int)</text>
</g>
<g>
<title>Compile::Compile(ciEnv*, C2Compiler*, ciMethod*, int, bool, bool, bool) (16 samples, 64.00%)</title><rect x="340.4" y="659.0" width="755.2" height="15" fill="#d3d33f" rx="2" ry="2"/>
<text x="343.4" y="670.0">Compile::Compile(ciEnv*, C2Compiler*, ciMethod*, int, bool, bool, bool)</text>
</g>
<g>
<title>Compile::Code_Gen() (9 samples, 36.00%)</title><rect x="340.4" y="643.0" width="424.8" height="15" fill="#dede43" rx="2" ry="2"/>
<text x="343.4" y="654.0">Compile::Code_Gen()</text>
</g>
<g>
<title>Compile::fill_buffer(CodeBuffer*, unsigned int*) (1 samples, 4.00%)</title><rect x="340.4" y="627.0" width="47.2" height="15" fill="#d7d741" rx="2" ry="2"/>
<text x="343.4" y="638.0">Comp..</text>
</g>
<g>
<title>Compile::Process_OopMap_Node(MachNode*, int) (1 samples, 4.00%)</title><rect x="340.4" y="611.0" width="47.2" height="15" fill="#dcdc42" rx="2" ry="2"/>
<text x="343.4" y="622.0">Comp..</text>
</g>
<g>
<title>DebugInformationRecorder::create_scope_values(GrowableArray&lt;ScopeValue*&gt;*) (1 samples, 4.00%)</title><rect x="340.4" y="595.0" width="47.2" height="15" fill="#d7d741" rx="2" ry="2"/>
<text x="343.4" y="606.0">Debu..</text>
</g>
<g>
<title>PhaseCFG::do_global_code_motion() (1 samples, 4.00%)</title><rect x="387.6" y="627.0" width="47.2" height="15" fill="#c9c93c" rx="2" ry="2"/>
<text x="390.6" y="638.0">Phas..</text>
</g>
<g>
<title>PhaseCFG::global_code_motion() (1 samples, 4.00%)</title><rect x="387.6" y="611.0" width="47.2" height="15" fill="#d5d540" rx="2" ry="2"/>
<text x="390.6" y="622.0">Phas..</text>
</g>
<g>
<title>PhaseCFG::schedule_late(VectorSet&amp;, Node_List&amp;) (1 samples, 4.00%)</title><rect x="387.6" y="595.0" width="47.2" height="15" fill="#e3e345" rx="2" ry="2"/>
<text x="390.6" y="606.0">Phas..</text>
</g>
<g>
<title>Node_Backward_Iterator::next() (1 samples, 4.00%)</title><rect x="387.6" y="579.0" width="47.2" height="15" fill="#e3e345" rx="2" ry="2"/>
<text x="390.6" y="590.0">Node..</text>
</g>
<g>
<title>PhaseCFG::remove_empty_blocks() (1 samples, 4.00%)</title><rect x="434.8" y="627.0" width="47.2" height="15" fill="#dddd43" rx="2" ry="2"/>
<text x="437.8" y="638.0">Phas..</text>
</g>
<g>
<title>PhaseChaitin::Register_Allocate() (6 samples, 24.00%)</title><rect x="482.0" y="627.0" width="283.2" height="15" fill="#d0d03e" rx="2" ry="2"/>
<text x="485.0" y="638.0">PhaseChaitin::Register_Allocate()</text>
</g>
<g>
<title>PhaseChaitin::Select() (2 samples, 8.00%)</title><rect x="482.0" y="611.0" width="94.4" height="15" fill="#dede43" rx="2" ry="2"/>
<text x="485.0" y="622.0">PhaseChaiti..</text>
</g>
<g>
<title>PhaseChaitin::bias_color(LRG&amp;, int) (1 samples, 4.00%)</title><rect x="482.0" y="595.0" width="47.2" height="15" fill="#dbdb42" rx="2" ry="2"/>
<text x="485.0" y="606.0">Phas..</text>
</g>
<g>
<title>PhaseIFG::re_insert(unsigned int) (1 samples, 4.00%)</title><rect x="529.2" y="595.0" width="47.2" height="15" fill="#d2d23f" rx="2" ry="2"/>
<text x="532.2" y="606.0">Phas..</text>
</g>
<g>
<title>IndexSetIterator::advance_and_next() (1 samples, 4.00%)</title><rect x="529.2" y="579.0" width="47.2" height="15" fill="#dcdc42" rx="2" ry="2"/>
<text x="532.2" y="590.0">Inde..</text>
</g>
<g>
<title>PhaseChaitin::Split(unsigned int, ResourceArea*) (1 samples, 4.00%)</title><rect x="576.4" y="611.0" width="47.2" height="15" fill="#cccc3d" rx="2" ry="2"/>
<text x="579.4" y="622.0">Phas..</text>
</g>
<g>
<title>PhaseChaitin::split_USE(Node*, Block*, Node*, unsigned int, unsigned int, bool, bool, GrowableArray&lt;unsigned int&gt;, int) (1 samples, 4.00%)</title><rect x="576.4" y="595.0" width="47.2" height="15" fill="#d5d540" rx="2" ry="2"/>
<text x="579.4" y="606.0">Phas..</text>
</g>
<g>
<title>PhaseChaitin::get_spillcopy_wide(Node*, Node*, unsigned int) (1 samples, 4.00%)</title><rect x="576.4" y="579.0" width="47.2" height="15" fill="#e2e244" rx="2" ry="2"/>
<text x="579.4" y="590.0">Phas..</text>
</g>
<g>
<title>RegMask::is_aligned_pairs() const (1 samples, 4.00%)</title><rect x="576.4" y="563.0" width="47.2" height="15" fill="#e0e044" rx="2" ry="2"/>
<text x="579.4" y="574.0">RegM..</text>
</g>
<g>
<title>PhaseChaitin::stretch_base_pointer_live_ranges(ResourceArea*) (1 samples, 4.00%)</title><rect x="623.6" y="611.0" width="47.2" height="15" fill="#d1d13f" rx="2" ry="2"/>
<text x="626.6" y="622.0">Phas..</text>
</g>
<g>
<title>PhaseIFG::Compute_Effective_Degree() (1 samples, 4.00%)</title><rect x="670.8" y="611.0" width="47.2" height="15" fill="#cece3e" rx="2" ry="2"/>
<text x="673.8" y="622.0">Phas..</text>
</g>
<g>
<title>IndexSetIterator::advance_and_next() (1 samples, 4.00%)</title><rect x="670.8" y="595.0" width="47.2" height="15" fill="#e2e244" rx="2" ry="2"/>
<text x="673.8" y="606.0">Inde..</text>
</g>
<g>
<title>PhaseLive::compute(unsigned int) (1 samples, 4.00%)</title><rect x="718.0" y="611.0" width="47.2" height="15" fill="#d2d23f" rx="2" ry="2"/>
<text x="721.0" y="622.0">Phas..</text>
</g>
<g>
<title>Compile::Optimize() (5 samples, 20.00%)</title><rect x="765.2" y="643.0" width="236.0" height="15" fill="#dcdc42" rx="2" ry="2"/>
<text x="768.2" y="654.0">Compile::Optimize()</text>
</g>
<g>
<title>PhaseIdealLoop::build_and_optimize(bool, bool) (2 samples, 8.00%)</title><rect x="765.2" y="627.0" width="94.4" height="15" fill="#e4e445" rx="2" ry="2"/>
<text x="768.2" y="638.0">PhaseIdealL..</text>
</g>
<g>
<title>PhaseIdealLoop::build_loop_late(VectorSet&amp;, Node_List&amp;, Node_Stack&amp;) (1 samples, 4.00%)</title><rect x="765.2" y="611.0" width="47.2" height="15" fill="#d9d941" rx="2" ry="2"/>
<text x="768.2" y="622.0">Phas..</text>
</g>
<g>
<title>PhaseIdealLoop::split_if_with_blocks(VectorSet&amp;, Node_Stack&amp;) (1 samples, 4.00%)</title><rect x="812.4" y="611.0" width="47.2" height="15" fill="#dbdb42" rx="2" ry="2"/>
<text x="815.4" y="622.0">Phas..</text>
</g>
<g>
<title>PhaseIdealLoop::split_if_with_blocks_post(Node*) (1 samples, 4.00%)</title><rect x="812.4" y="595.0" width="47.2" height="15" fill="#e1e144" rx="2" ry="2"/>
<text x="815.4" y="606.0">Phas..</text>
</g>
<g>
<title>PhaseMacroExpand::expand_macro_nodes() (1 samples, 4.00%)</title><rect x="859.6" y="627.0" width="47.2" height="15" fill="#d5d540" rx="2" ry="2"/>
<text x="862.6" y="638.0">Phas..</text>
</g>
<g>
<title>PhaseMacroExpand::expand_allocate_common(AllocateNode*, Node*, TypeFunc const*, unsigned char*) (1 samples, 4.00%)</title><rect x="859.6" y="611.0" width="47.2" height="15" fill="#e3e345" rx="2" ry="2"/>
<text x="862.6" y="622.0">Phas..</text>
</g>
<g>
<title>PhaseIterGVN::subsume_node(Node*, Node*) (1 samples, 4.00%)</title><rect x="859.6" y="595.0" width="47.2" height="15" fill="#d3d33f" rx="2" ry="2"/>
<text x="862.6" y="606.0">Phas..</text>
</g>
<g>
<title>PhaseIterGVN::remove_globally_dead_node(Node*) (1 samples, 4.00%)</title><rect x="859.6" y="579.0" width="47.2" height="15" fill="#e0e044" rx="2" ry="2"/>
<text x="862.6" y="590.0">Phas..</text>
</g>
<g>
<title>Unique_Node_List::remove(Node*) (1 samples, 4.00%)</title><rect x="859.6" y="563.0" width="47.2" height="15" fill="#dcdc42" rx="2" ry="2"/>
<text x="862.6" y="574.0">Uniq..</text>
</g>
<g>
<title>PhaseRenumberLive::PhaseRenumberLive(PhaseGVN*, Unique_Node_List*, Unique_Node_List*, Phase::PhaseNumber) (1 samples, 4.00%)</title><rect x="906.8" y="627.0" width="47.2" height="15" fill="#e3e345" rx="2" ry="2"/>
<text x="909.8" y="638.0">Phas..</text>
</g>
<g>
<title>PhaseRemoveUseless::PhaseRemoveUseless(PhaseGVN*, Unique_Node_List*, Phase::PhaseNumber) (1 samples, 4.00%)</title><rect x="906.8" y="611.0" width="47.2" height="15" fill="#d6d640" rx="2" ry="2"/>
<text x="909.8" y="622.0">Phas..</text>
</g>
<g>
<title>Compile::remove_useless_nodes(Unique_Node_List&amp;) (1 samples, 4.00%)</title><rect x="906.8" y="595.0" width="47.2" height="15" fill="#cece3e" rx="2" ry="2"/>
<text x="909.8" y="606.0">Comp..</text>
</g>
<g>
<title>Ticks::stamp() (1 samples, 4.00%)</title><rect x="954.0" y="627.0" width="47.2" height="15" fill="#e4e445" rx="2" ry="2"/>
<text x="957.0" y="638.0">Tick..</text>
</g>
<g>
<title>__clock_gettime (1 samples, 4.00%)</title><rect x="954.0" y="611.0" width="47.2" height="15" fill="#fc7e7e" rx="2" ry="2"/>
<text x="957.0" y="622.0">__cl..</text>
</g>
<g>
<title>[vdso] (1 samples, 4.00%)</title><rect x="954.0" y="595.0" width="47.2" height="15" fill="#e55f5f" rx="2" ry="2"/>
<text x="957.0" y="606.0">[vdso]</text>
</g>
<g>
<title>ParseGenerator::generate(JVMState*) (2 samples, 8.00%)</title><rect x="1001.2" y="643.0" width="94.4" height="15" fill="#e2e244" rx="2" ry="2"/>
<text x="1004.2" y="654.0">ParseGenera..</text>
</g>
<g>
<title>Parse::Parse(JVMState*, ciMethod*, float) (2 samples, 8.00%)</title><rect x="1001.2" y="627.0" width="94.4" height="15" fill="#dbdb42" rx="2" ry="2"/>
<text x="1004.2" y="638.0">Parse::Pars..</text>
</g>
<g>
<title>Parse::do_all_blocks() (2 samples, 8.00%)</title><rect x="1001.2" y="611.0" width="94.4" height="15" fill="#d4d440" rx="2" ry="2"/>
<text x="1004.2" y="622.0">Parse::do_a..</text>
</g>
<g>
<title>Parse::do_one_block() (2 samples, 8.00%)</title><rect x="1001.2" y="595.0" width="94.4" height="15" fill="#dada42" rx="2" ry="2"/>
<text x="1004.2" y="606.0">Parse::do_o..</text>
</g>
<g>
<title>Parse::do_one_bytecode() (2 samples, 8.00%)</title><rect x="1001.2" y="579.0" width="94.4" height="15" fill="#d0d03e" rx="2" ry="2"/>
<text x="1004.2" y="590.0">Parse::do_o..</text>
</g>
<g>
<title>Parse::do_call() (2 samples, 8.00%)</title><rect x="1001.2" y="563.0" width="94.4" height="15" fill="#dfdf43" rx="2" ry="2"/>
<text x="1004.2" y="574.0">Parse::do_c..</text>
</g>
<g>
<title>ParseGenerator::generate(JVMState*) (2 samples, 8.00%)</title><rect x="1001.2" y="547.0" width="94.4" height="15" fill="#d1d13f" rx="2" ry="2"/>
<text x="1004.2" y="558.0">ParseGenera..</text>
</g>
<g>
<title>Parse::Parse(JVMState*, ciMethod*, float) (2 samples, 8.00%)</title><rect x="1001.2" y="531.0" width="94.4" height="15" fill="#d5d540" rx="2" ry="2"/>
<text x="1004.2" y="542.0">Parse::Pars..</text>
</g>
<g>
<title>Parse::do_all_blocks() (2 samples, 8.00%)</title><rect x="1001.2" y="515.0" width="94.4" height="15" fill="#cece3e" rx="2" ry="2"/>
<text x="1004.2" y="526.0">Parse::do_a..</text>
</g>
<g>
<title>Parse::do_one_block() (2 samples, 8.00%)</title><rect x="1001.2" y="499.0" width="94.4" height="15" fill="#cdcd3d" rx="2" ry="2"/>
<text x="1004.2" y="510.0">Parse::do_o..</text>
</g>
<g>
<title>Parse::do_one_bytecode() (2 samples, 8.00%)</title><rect x="1001.2" y="483.0" width="94.4" height="15" fill="#d0d03e" rx="2" ry="2"/>
<text x="1004.2" y="494.0">Parse::do_o..</text>
</g>
<g>
<title>Parse::do_call() (2 samples, 8.00%)</title><rect x="1001.2" y="467.0" width="94.4" height="15" fill="#d8d841" rx="2" ry="2"/>
<text x="1004.2" y="478.0">Parse::do_c..</text>
</g>
<g>
<title>ParseGenerator::generate(JVMState*) (2 samples, 8.00%)</title><rect x="1001.2" y="451.0" width="94.4" height="15" fill="#d4d440" rx="2" ry="2"/>
<text x="1004.2" y="462.0">ParseGenera..</text>
</g>
<g>
<title>Parse::Parse(JVMState*, ciMethod*, float) (2 samples, 8.00%)</title><rect x="1001.2" y="435.0" width="94.4" height="15" fill="#cdcd3d" rx="2" ry="2"/>
<text x="1004.2" y="446.0">Parse::Pars..</text>
</g>
<g>
<title>Parse::do_all_blocks() (2 samples, 8.00%)</title><rect x="1001.2" y="419.0" width="94.4" height="15" fill="#e3e345" rx="2" ry="2"/>
<text x="1004.2" y="430.0">Parse::do_a..</text>
</g>
<g>
<title>Parse::do_one_block() (2 samples, 8.00%)</title><rect x="1001.2" y="403.0" width="94.4" height="15" fill="#cbcb3d" rx="2" ry="2"/>
<text x="1004.2" y="414.0">Parse::do_o..</text>
</g>
<g>
<title>Parse::do_one_bytecode() (2 samples, 8.00%)</title><rect x="1001.2" y="387.0" width="94.4" height="15" fill="#cbcb3d" rx="2" ry="2"/>
<text x="1004.2" y="398.0">Parse::do_o..</text>
</g>
<g>
<title>Parse::do_call() (2 samples, 8.00%)</title><rect x="1001.2" y="371.0" width="94.4" height="15" fill="#d6d640" rx="2" ry="2"/>
<text x="1004.2" y="382.0">Parse::do_c..</text>
</g>
<g>
<title>ParseGenerator::generate(JVMState*) (2 samples, 8.00%)</title><rect x="1001.2" y="355.0" width="94.4" height="15" fill="#dede43" rx="2" ry="2"/>
<text x="1004.2" y="366.0">ParseGenera..</text>
</g>
<g>
<title>Parse::Parse(JVMState*, ciMethod*, float) (2 samples, 8.00%)</title><rect x="1001.2" y="339.0" width="94.4" height="15" fill="#e5e545" rx="2" ry="2"/>
<text x="1004.2" y="350.0">Parse::Pars..</text>
</g>
<g>
<title>Parse::do_all_blocks() (2 samples, 8.00%)</title><rect x="1001.2" y="323.0" width="94.4" height="15" fill="#e4e445" rx="2" ry="2"/>
<text x="1004.2" y="334.0">Parse::do_a..</text>
</g>
<g>
<title>Parse::do_one_block() (2 samples, 8.00%)</title><rect x="1001.2" y="307.0" width="94.4" height="15" fill="#dcdc42" rx="2" ry="2"/>
<text x="1004.2" y="318.0">Parse::do_o..</text>
</g>
<g>
<title>Parse::do_one_bytecode() (2 samples, 8.00%)</title><rect x="1001.2" y="291.0" width="94.4" height="15" fill="#d3d33f" rx="2" ry="2"/>
<text x="1004.2" y="302.0">Parse::do_o..</text>
</g>
<g>
<title>Parse::do_call() (2 samples, 8.00%)</title><rect x="1001.2" y="275.0" width="94.4" height="15" fill="#dede43" rx="2" ry="2"/>
<text x="1004.2" y="286.0">Parse::do_c..</text>
</g>
<g>
<title>GraphKit::record_profiled_receiver_for_speculation(Node*) (1 samples, 4.00%)</title><rect x="1001.2" y="259.0" width="47.2" height="15" fill="#d3d33f" rx="2" ry="2"/>
<text x="1004.2" y="270.0">Grap..</text>
</g>
<g>
<title>ciMethod::call_profile_at_bci(int) (1 samples, 4.00%)</title><rect x="1001.2" y="243.0" width="47.2" height="15" fill="#d0d03e" rx="2" ry="2"/>
<text x="1004.2" y="254.0">ciMe..</text>
</g>
<g>
<title>ParseGenerator::generate(JVMState*) (1 samples, 4.00%)</title><rect x="1048.4" y="259.0" width="47.2" height="15" fill="#cece3e" rx="2" ry="2"/>
<text x="1051.4" y="270.0">Pars..</text>
</g>
<g>
<title>Parse::Parse(JVMState*, ciMethod*, float) (1 samples, 4.00%)</title><rect x="1048.4" y="243.0" width="47.2" height="15" fill="#d9d941" rx="2" ry="2"/>
<text x="1051.4" y="254.0">Pars..</text>
</g>
<g>
<title>Parse::do_all_blocks() (1 samples, 4.00%)</title><rect x="1048.4" y="227.0" width="47.2" height="15" fill="#cfcf3e" rx="2" ry="2"/>
<text x="1051.4" y="238.0">Pars..</text>
</g>
<g>
<title>Parse::do_one_block() (1 samples, 4.00%)</title><rect x="1048.4" y="211.0" width="47.2" height="15" fill="#cccc3d" rx="2" ry="2"/>
<text x="1051.4" y="222.0">Pars..</text>
</g>
<g>
<title>Parse::do_one_bytecode() (1 samples, 4.00%)</title><rect x="1048.4" y="195.0" width="47.2" height="15" fill="#dddd43" rx="2" ry="2"/>
<text x="1051.4" y="206.0">Pars..</text>
</g>
<g>
<title>Parse::do_call() (1 samples, 4.00%)</title><rect x="1048.4" y="179.0" width="47.2" height="15" fill="#cbcb3d" rx="2" ry="2"/>
<text x="1051.4" y="190.0">Pars..</text>
</g>
<g>
<title>ParseGenerator::generate(JVMState*) (1 samples, 4.00%)</title><rect x="1048.4" y="163.0" width="47.2" height="15" fill="#dfdf43" rx="2" ry="2"/>
<text x="1051.4" y="174.0">Pars..</text>
</g>
<g>
<title>Parse::Parse(JVMState*, ciMethod*, float) (1 samples, 4.00%)</title><rect x="1048.4" y="147.0" width="47.2" height="15" fill="#cccc3d" rx="2" ry="2"/>
<text x="1051.4" y="158.0">Pars..</text>
</g>
<g>
<title>Parse::do_all_blocks() (1 samples, 4.00%)</title><rect x="1048.4" y="131.0" width="47.2" height="15" fill="#dede43" rx="2" ry="2"/>
<text x="1051.4" y="142.0">Pars..</text>
</g>
<g>
<title>Parse::do_one_block() (1 samples, 4.00%)</title><rect x="1048.4" y="115.0" width="47.2" height="15" fill="#caca3c" rx="2" ry="2"/>
<text x="1051.4" y="126.0">Pars..</text>
</g>
<g>
<title>Parse::do_one_bytecode() (1 samples, 4.00%)</title><rect x="1048.4" y="99.0" width="47.2" height="15" fill="#e4e445" rx="2" ry="2"/>
<text x="1051.4" y="110.0">Pars..</text>
</g>
<g>
<title>Parse::do_field_access(bool, bool) (1 samples, 4.00%)</title><rect x="1048.4" y="83.0" width="47.2" height="15" fill="#c9c93c" rx="2" ry="2"/>
<text x="1051.4" y="94.0">Pars..</text>
</g>
<g>
<title>Parse::do_get_xxx(Node*, ciField*, bool) (1 samples, 4.00%)</title><rect x="1048.4" y="67.0" width="47.2" height="15" fill="#d7d741" rx="2" ry="2"/>
<text x="1051.4" y="78.0">Pars..</text>
</g>
<g>
<title>PhaseGVN::transform_no_reclaim(Node*) (1 samples, 4.00%)</title><rect x="1048.4" y="51.0" width="47.2" height="15" fill="#cdcd3d" rx="2" ry="2"/>
<text x="1051.4" y="62.0">Phas..</text>
</g>
<g>
<title>AddPNode::Value(PhaseTransform*) const (1 samples, 4.00%)</title><rect x="1048.4" y="35.0" width="47.2" height="15" fill="#cfcf3e" rx="2" ry="2"/>
<text x="1051.4" y="46.0">AddP..</text>
</g>
<g>
<title>Compiler::compile_method(ciEnv*, ciMethod*, int) (2 samples, 8.00%)</title><rect x="1095.6" y="675.0" width="94.4" height="15" fill="#dfdf43" rx="2" ry="2"/>
<text x="1098.6" y="686.0">Compiler::c..</text>
</g>
<g>
<title>Compilation::Compilation(AbstractCompiler*, ciEnv*, ciMethod*, int, BufferBlob*) (2 samples, 8.00%)</title><rect x="1095.6" y="659.0" width="94.4" height="15" fill="#dddd43" rx="2" ry="2"/>
<text x="1098.6" y="670.0">Compilation..</text>
</g>
<g>
<title>Compilation::compile_method() (2 samples, 8.00%)</title><rect x="1095.6" y="643.0" width="94.4" height="15" fill="#dbdb42" rx="2" ry="2"/>
<text x="1098.6" y="654.0">Compilation..</text>
</g>
<g>
<title>Compilation::compile_java_method() (2 samples, 8.00%)</title><rect x="1095.6" y="627.0" width="94.4" height="15" fill="#e5e545" rx="2" ry="2"/>
<text x="1098.6" y="638.0">Compilation..</text>
</g>
<g>
<title>Compilation::build_hir() (2 samples, 8.00%)</title><rect x="1095.6" y="611.0" width="94.4" height="15" fill="#dbdb42" rx="2" ry="2"/>
<text x="1098.6" y="622.0">Compilation..</text>
</g>
<g>
<title>IR::IR(Compilation*, ciMethod*, int) (2 samples, 8.00%)</title><rect x="1095.6" y="595.0" width="94.4" height="15" fill="#dede43" rx="2" ry="2"/>
<text x="1098.6" y="606.0">IR::IR(Comp..</text>
</g>
<g>
<title>IRScope::IRScope(Compilation*, IRScope*, int, ciMethod*, int, bool) (2 samples, 8.00%)</title><rect x="1095.6" y="579.0" width="94.4" height="15" fill="#caca3c" rx="2" ry="2"/>
<text x="1098.6" y="590.0">IRScope::IR..</text>
</g>
<g>
<title>GraphBuilder::GraphBuilder(Compilation*, IRScope*) (2 samples, 8.00%)</title><rect x="1095.6" y="563.0" width="94.4" height="15" fill="#cccc3d" rx="2" ry="2"/>
<text x="1098.6" y="574.0">GraphBuilde..</text>
</g>
<g>
<title>GraphBuilder::iterate_all_blocks(bool) (2 samples, 8.00%)</title><rect x="1095.6" y="547.0" width="94.4" height="15" fill="#d7d741" rx="2" ry="2"/>
<text x="1098.6" y="558.0">GraphBuilde..</text>
</g>
<g>
<title>GraphBuilder::iterate_bytecodes_for_block(int) (2 samples, 8.00%)</title><rect x="1095.6" y="531.0" width="94.4" height="15" fill="#caca3c" rx="2" ry="2"/>
<text x="1098.6" y="542.0">GraphBuilde..</text>
</g>
<g>
<title>GraphBuilder::access_field(Bytecodes::Code) (1 samples, 4.00%)</title><rect x="1095.6" y="515.0" width="47.2" height="15" fill="#caca3c" rx="2" ry="2"/>
<text x="1098.6" y="526.0">Grap..</text>
</g>
<g>
<title>Constant::visit(InstructionVisitor*) (1 samples, 4.00%)</title><rect x="1095.6" y="499.0" width="47.2" height="15" fill="#cece3e" rx="2" ry="2"/>
<text x="1098.6" y="510.0">Cons..</text>
</g>
<g>
<title>GraphBuilder::try_inline(ciMethod*, bool, Bytecodes::Code, Instruction*) (1 samples, 4.00%)</title><rect x="1142.8" y="515.0" width="47.2" height="15" fill="#d5d540" rx="2" ry="2"/>
<text x="1145.8" y="526.0">Grap..</text>
</g>
</g>
</svg>
