<?xml version="1.0" standalone="no"?>
<!DOCTYPE svg PUBLIC "-//W3C//DTD SVG 1.1//EN" "http://www.w3.org/Graphics/SVG/1.1/DTD/svg11.dtd">
<svg version="1.1" width="1200" height="1062" onload="init(evt)" viewBox="0 0 1200 1062" xmlns="http://www.w3.org/2000/svg" xmlns:xlink="http://www.w3.org/1999/xlink">
<style type="text/css">
	text { font-family:Verdana; font-size:12px; fill:rgb(0,0,0); }
	#search { opacity:0.1; cursor:pointer; }
	#search:hover, #search.show { opacity:1; }
	#subtitle { text-anchor:middle; font-color:rgb(160,160,160); }
	#title { text-anchor:middle; font-size:17px}
	#unzoom { cursor:pointer; }
	#frames > *:hover { stroke:black; stroke-width:0.5; cursor:pointer; }
	.hide { display:none; }
	.parent { opacity:0.5; }
</style>
<script type="text/ecmascript">
<![CDATA[
	"use strict";
	var details, searchbtn, unzoombtn, matchedtxt, svg, searching;
	function init(evt) {
		details = document.getElementById("details").firstChild;
		searchbtn = document.getElementById("search");
		unzoombtn = document.getElementById("unzoom");
		matchedtxt = document.getElementById("matched");
		svg = document.getElementsByTagName("svg")[0];
		searching = 0;
	}

	window.addEventListener("click", function(e) {
		var target = find_group(e.target);
		if (target) {
			if (target.nodeName == "a") {
				if (e.ctrlKey === false) return;
				e.preventDefault();
			}
			if (target.classList.contains("parent")) unzoom();
			zoom(target);
		}
		else if (e.target.id == "unzoom") unzoom();
		else if (e.target.id == "search") search_prompt();
	}, false)

	// mouse-over for info
	// show
	window.addEventListener("mouseover", function(e) {
		var target = find_group(e.target);
		if (target) details.nodeValue = "Function: " + g_to_text(target);
	}, false)

	// clear
	window.addEventListener("mouseout", function(e) {
		var target = find_group(e.target);
		if (target) details.nodeValue = ' ';
	}, false)

	// ctrl-F for search
	window.addEventListener("keydown",function (e) {
		if (e.keyCode === 114 || (e.ctrlKey && e.keyCode === 70)) {
			e.preventDefault();
			search_prompt();
		}
	}, false)

	// functions
	function find_child(node, selector) {
		var children = node.querySelectorAll(selector);
		if (children.length) return children[0];
		return;
	}
	function find_group(node) {
		var parent = node.parentElement;
		if (!parent) return;
		if (parent.id == "frames") return node;
		return find_group(parent);
	}
	function orig_save(e, attr, val) {
		if (e.attributes["_orig_" + attr] != undefined) return;
		if (e.attributes[attr] == undefined) return;
		if (val == undefined) val = e.attributes[attr].value;
		e.setAttribute("_orig_" + attr, val);
	}
	function orig_load(e, attr) {
		if (e.attributes["_orig_"+attr] == undefined) return;
		e.attributes[attr].value = e.attributes["_orig_" + attr].value;
		e.removeAttribute("_orig_"+attr);
	}
	function g_to_text(e) {
		var text = find_child(e, "title").firstChild.nodeValue;
		return (text)
	}
	function g_to_func(e) {
		var func = g_to_text(e);
		// if there's any manipulation we want to do to the function
		// name before it's searched, do it here before returning.
		return (func);
	}
	function update_text(e) {
		var r = find_child(e, "rect");
		var t = find_child(e, "text");
		var w = parseFloat(r.attributes.width.value) -3;
		var txt = find_child(e, "title").textContent.replace(/\([^(]*\)$/,"");
		t.attributes.x.value = parseFloat(r.attributes.x.value) + 3;

		// Smaller than this size won't fit anything
		if (w < 2 * 12 * 0.59) {
			t.textContent = "";
			return;
		}

		t.textContent = txt;
		// Fit in full text width
		if (/^ *$/.test(txt) || t.getSubStringLength(0, txt.length) < w)
			return;

		for (var x = txt.length - 2; x > 0; x--) {
			if (t.getSubStringLength(0, x + 2) <= w) {
				t.textContent = txt.substring(0, x) + "..";
				return;
			}
		}
		t.textContent = "";
	}

	// zoom
	function zoom_reset(e) {
		if (e.attributes != undefined) {
			orig_load(e, "x");
			orig_load(e, "width");
		}
		if (e.childNodes == undefined) return;
		for (var i = 0, c = e.childNodes; i < c.length; i++) {
			zoom_reset(c[i]);
		}
	}
	function zoom_child(e, x, ratio) {
		if (e.attributes != undefined) {
			if (e.attributes.x != undefined) {
				orig_save(e, "x");
				e.attributes.x.value = (parseFloat(e.attributes.x.value) - x - 10) * ratio + 10;
				if (e.tagName == "text")
					e.attributes.x.value = find_child(e.parentNode, "rect[x]").attributes.x.value + 3;
			}
			if (e.attributes.width != undefined) {
				orig_save(e, "width");
				e.attributes.width.value = parseFloat(e.attributes.width.value) * ratio;
			}
		}

		if (e.childNodes == undefined) return;
		for (var i = 0, c = e.childNodes; i < c.length; i++) {
			zoom_child(c[i], x - 10, ratio);
		}
	}
	function zoom_parent(e) {
		if (e.attributes) {
			if (e.attributes.x != undefined) {
				orig_save(e, "x");
				e.attributes.x.value = 10;
			}
			if (e.attributes.width != undefined) {
				orig_save(e, "width");
				e.attributes.width.value = parseInt(svg.width.baseVal.value) - (10 * 2);
			}
		}
		if (e.childNodes == undefined) return;
		for (var i = 0, c = e.childNodes; i < c.length; i++) {
			zoom_parent(c[i]);
		}
	}
	function zoom(node) {
		var attr = find_child(node, "rect").attributes;
		var width = parseFloat(attr.width.value);
		var xmin = parseFloat(attr.x.value);
		var xmax = parseFloat(xmin + width);
		var ymin = parseFloat(attr.y.value);
		var ratio = (svg.width.baseVal.value - 2 * 10) / width;

		// XXX: Workaround for JavaScript float issues (fix me)
		var fudge = 0.0001;

		unzoombtn.classList.remove("hide");

		var el = document.getElementById("frames").children;
		for (var i = 0; i < el.length; i++) {
			var e = el[i];
			var a = find_child(e, "rect").attributes;
			var ex = parseFloat(a.x.value);
			var ew = parseFloat(a.width.value);
			var upstack;
			// Is it an ancestor
			if (0 == 0) {
				upstack = parseFloat(a.y.value) > ymin;
			} else {
				upstack = parseFloat(a.y.value) < ymin;
			}
			if (upstack) {
				// Direct ancestor
				if (ex <= xmin && (ex+ew+fudge) >= xmax) {
					e.classList.add("parent");
					zoom_parent(e);
					update_text(e);
				}
				// not in current path
				else
					e.classList.add("hide");
			}
			// Children maybe
			else {
				// no common path
				if (ex < xmin || ex + fudge >= xmax) {
					e.classList.add("hide");
				}
				else {
					zoom_child(e, xmin, ratio);
					update_text(e);
				}
			}
		}
	}
	function unzoom() {
		unzoombtn.classList.add("hide");
		var el = document.getElementById("frames").children;
		for(var i = 0; i < el.length; i++) {
			el[i].classList.remove("parent");
			el[i].classList.remove("hide");
			zoom_reset(el[i]);
			update_text(el[i]);
		}
	}

	// search
	function reset_search() {
		var el = document.querySelectorAll("#frames rect");
		for (var i = 0; i < el.length; i++) {
			orig_load(el[i], "fill")
		}
	}
	function search_prompt() {
		if (!searching) {
			var term = prompt("Enter a search term (regexp " +
			    "allowed, eg: ^ext4_)", "");
			if (term != null) {
				search(term)
			}
		} else {
			reset_search();
			searching = 0;
			searchbtn.classList.remove("show");
			searchbtn.firstChild.nodeValue = "Search"
			matchedtxt.classList.add("hide");
			matchedtxt.firstChild.nodeValue = ""
		}
	}
	function search(term) {
		var re = new RegExp(term);
		var el = document.getElementById("frames").children;
		var matches = new Object();
		var maxwidth = 0;
		for (var i = 0; i < el.length; i++) {
			var e = el[i];
			var func = g_to_func(e);
			var rect = find_child(e, "rect");
			if (func == null || rect == null)
				continue;

			// Save max width. Only works as we have a root frame
			var w = parseFloat(rect.attributes.width.value);
			if (w > maxwidth)
				maxwidth = w;

			if (func.match(re)) {
				// highlight
				var x = parseFloat(rect.attributes.x.value);
				orig_save(rect, "fill");
				rect.attributes.fill.value = "rgb(230,0,230)";

				// remember matches
				if (matches[x] == undefined) {
					matches[x] = w;
				} else {
					if (w > matches[x]) {
						// overwrite with parent
						matches[x] = w;
					}
				}
				searching = 1;
			}
		}
		if (!searching)
			return;

		searchbtn.classList.add("show");
		searchbtn.firstChild.nodeValue = "Reset Search";

		// calculate percent matched, excluding vertical overlap
		var count = 0;
		var lastx = -1;
		var lastw = 0;
		var keys = Array();
		for (k in matches) {
			if (matches.hasOwnProperty(k))
				keys.push(k);
		}
		// sort the matched frames by their x location
		// ascending, then width descending
		keys.sort(function(a, b){
			return a - b;
		});
		// Step through frames saving only the biggest bottom-up frames
		// thanks to the sort order. This relies on the tree property
		// where children are always smaller than their parents.
		var fudge = 0.0001;	// JavaScript floating point
		for (var k in keys) {
			var x = parseFloat(keys[k]);
			var w = matches[keys[k]];
			if (x >= lastx + lastw - fudge) {
				count += w;
				lastx = x;
				lastw = w;
			}
		}
		// display matched percent
		matchedtxt.classList.remove("hide");
		var pct = 100 * count / maxwidth;
		if (pct != 100) pct = pct.toFixed(1)
		matchedtxt.firstChild.nodeValue = "Matched: " + pct + "%";
	}
]]>
</script>
<rect x="0" y="0" width="100%" height="100%" fill="rgb(240,240,220)"/>
<text id="title" x="600" y="24">Flame Graph</text>
<text id="details" x="10" y="1045"> </text>
<text id="unzoom" x="10" y="24" class="hide">Reset Zoom</text>
<text id="search" x="1090" y="24">Search</text>
<text id="matched" x="1090" y="1045"> </text>
<g id="frames">
<g>
<title>all (20 samples, 100.00%)</title><rect x="10.0" y="1011.0" width="1180.0" height="15" fill="#fa7b7b" rx="2" ry="2"/>
<text x="13.0" y="1022.0">all</text>
</g>
<g>
<title>com/linecorp/decaton/processor/runtime/ProcessorSubscription.run (1 samples, 5.00%)</title><rect x="10.0" y="995.0" width="59.0" height="15" fill="#5bec5b" rx="2" ry="2"/>
<text x="13.0" y="1006.0">com/li..</text>
</g>
<g>
<title>com/linecorp/decaton/processor/runtime/ProcessorSubscription.pollOnce (1 samples, 5.00%)</title><rect x="10.0" y="979.0" width="59.0" height="15" fill="#67f867" rx="2" ry="2"/>
<text x="13.0" y="990.0">com/li..</text>
</g>
<g>
<title>org/apache/kafka/clients/consumer/KafkaConsumer.poll (1 samples, 5.00%)</title><rect x="10.0" y="963.0" width="59.0" height="15" fill="#67f867" rx="2" ry="2"/>
<text x="13.0" y="974.0">org/ap..</text>
</g>
<g>
<title>org/apache/kafka/clients/consumer/KafkaConsumer.poll (1 samples, 5.00%)</title><rect x="10.0" y="947.0" width="59.0" height="15" fill="#6bfc6b" rx="2" ry="2"/>
<text x="13.0" y="958.0">org/ap..</text>
</g>
<g>
<title>org/apache/kafka/clients/consumer/KafkaConsumer.pollForFetches (1 samples, 5.00%)</title><rect x="10.0" y="931.0" width="59.0" height="15" fill="#55e655" rx="2" ry="2"/>
<text x="13.0" y="942.0">org/ap..</text>
</g>
<g>
<title>org/apache/kafka/clients/consumer/internals/Fetcher.fetchedRecords (1 samples, 5.00%)</title><rect x="10.0" y="915.0" width="59.0" height="15" fill="#5aeb5a" rx="2" ry="2"/>
<text x="13.0" y="926.0">org/ap..</text>
</g>
<g>
<title>org/apache/kafka/clients/consumer/internals/Fetcher.fetchRecords (1 samples, 5.00%)</title><rect x="10.0" y="899.0" width="59.0" height="15" fill="#67f867" rx="2" ry="2"/>
<text x="13.0" y="910.0">org/ap..</text>
</g>
<g>
<title>org/apache/kafka/clients/consumer/internals/Fetcher$CompletedFetch.access$1700 (1 samples, 5.00%)</title><rect x="10.0" y="883.0" width="59.0" height="15" fill="#58e958" rx="2" ry="2"/>
<text x="13.0" y="894.0">org/ap..</text>
</g>
<g>
<title>org/apache/kafka/clients/consumer/internals/Fetcher$CompletedFetch.fetchRecords (1 samples, 5.00%)</title><rect x="10.0" y="867.0" width="59.0" height="15" fill="#60f160" rx="2" ry="2"/>
<text x="13.0" y="878.0">org/ap..</text>
</g>
<g>
<title>org/apache/kafka/clients/consumer/internals/Fetcher$CompletedFetch.nextFetchedRecord (1 samples, 5.00%)</title><rect x="10.0" y="851.0" width="59.0" height="15" fill="#5eef5e" rx="2" ry="2"/>
<text x="13.0" y="862.0">org/ap..</text>
</g>
<g>
<title>org/apache/kafka/common/record/DefaultRecordBatch$RecordIterator.next (1 samples, 5.00%)</title><rect x="10.0" y="835.0" width="59.0" height="15" fill="#62f362" rx="2" ry="2"/>
<text x="13.0" y="846.0">org/ap..</text>
</g>
<g>
<title>org/apache/kafka/common/record/DefaultRecordBatch$RecordIterator.next (1 samples, 5.00%)</title><rect x="10.0" y="819.0" width="59.0" height="15" fill="#5aeb5a" rx="2" ry="2"/>
<text x="13.0" y="830.0">org/ap..</text>
</g>
<g>
<title>java/lang/Thread.run (1 samples, 5.00%)</title><rect x="69.0" y="995.0" width="59.0" height="15" fill="#5ff05f" rx="2" ry="2"/>
<text x="72.0" y="1006.0">java/l..</text>
</g>
<g>
<title>java/util/concurrent/ThreadPoolExecutor$Worker.run (1 samples, 5.00%)</title><rect x="69.0" y="979.0" width="59.0" height="15" fill="#6cfd6c" rx="2" ry="2"/>
<text x="72.0" y="990.0">java/u..</text>
</g>
<g>
<title>java/util/concurrent/ThreadPoolExecutor.runWorker (1 samples, 5.00%)</title><rect x="69.0" y="963.0" width="59.0" height="15" fill="#6bfc6b" rx="2" ry="2"/>
<text x="72.0" y="974.0">java/u..</text>
</g>
<g>
<title>com/linecorp/decaton/processor/runtime/ProcessorUnit$$Lambda$277/2038354488.run (1 samples, 5.00%)</title><rect x="69.0" y="947.0" width="59.0" height="15" fill="#63f463" rx="2" ry="2"/>
<text x="72.0" y="958.0">com/li..</text>
</g>
<g>
<title>com/linecorp/decaton/processor/runtime/ProcessorUnit.lambda$putTask$0 (1 samples, 5.00%)</title><rect x="69.0" y="931.0" width="59.0" height="15" fill="#65f665" rx="2" ry="2"/>
<text x="72.0" y="942.0">com/li..</text>
</g>
<g>
<title>com/linecorp/decaton/processor/runtime/ProcessorUnit.processTask (1 samples, 5.00%)</title><rect x="69.0" y="915.0" width="59.0" height="15" fill="#54e554" rx="2" ry="2"/>
<text x="72.0" y="926.0">com/li..</text>
</g>
<g>
<title>com/linecorp/decaton/processor/runtime/ProcessPipeline.scheduleThenProcess (1 samples, 5.00%)</title><rect x="69.0" y="899.0" width="59.0" height="15" fill="#62f362" rx="2" ry="2"/>
<text x="72.0" y="910.0">com/li..</text>
</g>
<g>
<title>com/linecorp/decaton/processor/runtime/ProcessPipeline.process (1 samples, 5.00%)</title><rect x="69.0" y="883.0" width="59.0" height="15" fill="#50e150" rx="2" ry="2"/>
<text x="72.0" y="894.0">com/li..</text>
</g>
<g>
<title>com/linecorp/decaton/processor/runtime/ProcessingContextImpl.push (1 samples, 5.00%)</title><rect x="69.0" y="867.0" width="59.0" height="15" fill="#57e857" rx="2" ry="2"/>
<text x="72.0" y="878.0">com/li..</text>
</g>
<g>
<title>com/linecorp/decaton/processor/runtime/ProcessingContextImpl.pushDownStream (1 samples, 5.00%)</title><rect x="69.0" y="851.0" width="59.0" height="15" fill="#54e554" rx="2" ry="2"/>
<text x="72.0" y="862.0">com/li..</text>
</g>
<g>
<title>com/linecorp/decaton/benchmark/DecatonRunner$$Lambda$203/117397272.process (1 samples, 5.00%)</title><rect x="69.0" y="835.0" width="59.0" height="15" fill="#68f968" rx="2" ry="2"/>
<text x="72.0" y="846.0">com/li..</text>
</g>
<g>
<title>com/linecorp/decaton/benchmark/DecatonRunner.lambda$null$1 (1 samples, 5.00%)</title><rect x="69.0" y="819.0" width="59.0" height="15" fill="#54e554" rx="2" ry="2"/>
<text x="72.0" y="830.0">com/li..</text>
</g>
<g>
<title>com/linecorp/decaton/benchmark/Recording.process (1 samples, 5.00%)</title><rect x="69.0" y="803.0" width="59.0" height="15" fill="#5ced5c" rx="2" ry="2"/>
<text x="72.0" y="814.0">com/li..</text>
</g>
<g>
<title>com/linecorp/decaton/benchmark/Recording$ChildRecording.process (1 samples, 5.00%)</title><rect x="69.0" y="787.0" width="59.0" height="15" fill="#53e453" rx="2" ry="2"/>
<text x="72.0" y="798.0">com/li..</text>
</g>
<g>
<title>java/lang/Thread.sleep (1 samples, 5.00%)</title><rect x="69.0" y="771.0" width="59.0" height="15" fill="#53e453" rx="2" ry="2"/>
<text x="72.0" y="782.0">java/l..</text>
</g>
<g>
<title>ThreadStateTransition::transition_from_native(JavaThread*, JavaThreadState) [clone .constprop.272] (1 samples, 5.00%)</title><rect x="69.0" y="755.0" width="59.0" height="15" fill="#e5e545" rx="2" ry="2"/>
<text x="72.0" y="766.0">Thread..</text>
</g>
<g>
<title>start_thread (18 samples, 90.00%)</title><rect x="128.0" y="995.0" width="1062.0" height="15" fill="#e76262" rx="2" ry="2"/>
<text x="131.0" y="1006.0">start_thread</text>
</g>
<g>
<title>java_start(Thread*) (18 samples, 90.00%)</title><rect x="128.0" y="979.0" width="1062.0" height="15" fill="#f06e6e" rx="2" ry="2"/>
<text x="131.0" y="990.0">java_start(Thread*)</text>
</g>
<g>
<title>JavaThread::thread_main_inner() (18 samples, 90.00%)</title><rect x="128.0" y="963.0" width="1062.0" height="15" fill="#e1e144" rx="2" ry="2"/>
<text x="131.0" y="974.0">JavaThread::thread_main_inner()</text>
</g>
<g>
<title>CompileBroker::compiler_thread_loop() (18 samples, 90.00%)</title><rect x="128.0" y="947.0" width="1062.0" height="15" fill="#dada42" rx="2" ry="2"/>
<text x="131.0" y="958.0">CompileBroker::compiler_thread_loop()</text>
</g>
<g>
<title>CompileBroker::invoke_compiler_on_method(CompileTask*) (18 samples, 90.00%)</title><rect x="128.0" y="931.0" width="1062.0" height="15" fill="#d0d03e" rx="2" ry="2"/>
<text x="131.0" y="942.0">CompileBroker::invoke_compiler_on_method(CompileTask*)</text>
</g>
<g>
<title>C2Compiler::compile_method(ciEnv*, ciMethod*, int) (18 samples, 90.00%)</title><rect x="128.0" y="915.0" width="1062.0" height="15" fill="#dbdb42" rx="2" ry="2"/>
<text x="131.0" y="926.0">C2Compiler::compile_method(ciEnv*, ciMethod*, int)</text>
</g>
<g>
<title>Compile::Compile(ciEnv*, C2Compiler*, ciMethod*, int, bool, bool, bool) (18 samples, 90.00%)</title><rect x="128.0" y="899.0" width="1062.0" height="15" fill="#d7d741" rx="2" ry="2"/>
<text x="131.0" y="910.0">Compile::Compile(ciEnv*, C2Compiler*, ciMethod*, int, bool, bool, bool)</text>
</g>
<g>
<title>Compile::Code_Gen() (12 samples, 60.00%)</title><rect x="128.0" y="883.0" width="708.0" height="15" fill="#d6d640" rx="2" ry="2"/>
<text x="131.0" y="894.0">Compile::Code_Gen()</text>
</g>
<g>
<title>Matcher::match() (1 samples, 5.00%)</title><rect x="128.0" y="867.0" width="59.0" height="15" fill="#e5e545" rx="2" ry="2"/>
<text x="131.0" y="878.0">Matche..</text>
</g>
<g>
<title>Matcher::xform(Node*, int) (1 samples, 5.00%)</title><rect x="128.0" y="851.0" width="59.0" height="15" fill="#d0d03e" rx="2" ry="2"/>
<text x="131.0" y="862.0">Matche..</text>
</g>
<g>
<title>Matcher::match_tree(Node const*) (1 samples, 5.00%)</title><rect x="128.0" y="835.0" width="59.0" height="15" fill="#dfdf43" rx="2" ry="2"/>
<text x="131.0" y="846.0">Matche..</text>
</g>
<g>
<title>Matcher::ReduceInst(State*, int, Node*&amp;) (1 samples, 5.00%)</title><rect x="128.0" y="819.0" width="59.0" height="15" fill="#d7d741" rx="2" ry="2"/>
<text x="131.0" y="830.0">Matche..</text>
</g>
<g>
<title>Matcher::ReduceInst_Interior(State*, int, Node*&amp;, MachNode*, unsigned int) (1 samples, 5.00%)</title><rect x="128.0" y="803.0" width="59.0" height="15" fill="#dfdf43" rx="2" ry="2"/>
<text x="131.0" y="814.0">Matche..</text>
</g>
<g>
<title>Matcher::ReduceInst(State*, int, Node*&amp;) (1 samples, 5.00%)</title><rect x="128.0" y="787.0" width="59.0" height="15" fill="#d4d440" rx="2" ry="2"/>
<text x="131.0" y="798.0">Matche..</text>
</g>
<g>
<title>Matcher::ReduceInst_Interior(State*, int, Node*&amp;, MachNode*, unsigned int) (1 samples, 5.00%)</title><rect x="128.0" y="771.0" width="59.0" height="15" fill="#e2e244" rx="2" ry="2"/>
<text x="131.0" y="782.0">Matche..</text>
</g>
<g>
<title>State::MachOperGenerator(int, Compile*) (1 samples, 5.00%)</title><rect x="128.0" y="755.0" width="59.0" height="15" fill="#d0d03e" rx="2" ry="2"/>
<text x="131.0" y="766.0">State:..</text>
</g>
<g>
<title>PhaseCFG::do_global_code_motion() (1 samples, 5.00%)</title><rect x="187.0" y="867.0" width="59.0" height="15" fill="#d2d23f" rx="2" ry="2"/>
<text x="190.0" y="878.0">PhaseC..</text>
</g>
<g>
<title>PhaseCFG::global_code_motion() (1 samples, 5.00%)</title><rect x="187.0" y="851.0" width="59.0" height="15" fill="#e0e044" rx="2" ry="2"/>
<text x="190.0" y="862.0">PhaseC..</text>
</g>
<g>
<title>PhaseCFG::schedule_early(VectorSet&amp;, Node_List&amp;) (1 samples, 5.00%)</title><rect x="187.0" y="835.0" width="59.0" height="15" fill="#e3e345" rx="2" ry="2"/>
<text x="190.0" y="846.0">PhaseC..</text>
</g>
<g>
<title>PhaseChaitin::Register_Allocate() (10 samples, 50.00%)</title><rect x="246.0" y="867.0" width="590.0" height="15" fill="#caca3c" rx="2" ry="2"/>
<text x="249.0" y="878.0">PhaseChaitin::Register_Allocate()</text>
</g>
<g>
<title>PhaseChaitin::Select() (1 samples, 5.00%)</title><rect x="246.0" y="851.0" width="59.0" height="15" fill="#e4e445" rx="2" ry="2"/>
<text x="249.0" y="862.0">PhaseC..</text>
</g>
<g>
<title>RegMask::clear_to_sets(int) (1 samples, 5.00%)</title><rect x="246.0" y="835.0" width="59.0" height="15" fill="#d7d741" rx="2" ry="2"/>
<text x="249.0" y="846.0">RegMas..</text>
</g>
<g>
<title>PhaseChaitin::Simplify() (1 samples, 5.00%)</title><rect x="305.0" y="851.0" width="59.0" height="15" fill="#caca3c" rx="2" ry="2"/>
<text x="308.0" y="862.0">PhaseC..</text>
</g>
<g>
<title>PhaseIFG::remove_node(unsigned int) (1 samples, 5.00%)</title><rect x="305.0" y="835.0" width="59.0" height="15" fill="#cdcd3d" rx="2" ry="2"/>
<text x="308.0" y="846.0">PhaseI..</text>
</g>
<g>
<title>IndexSetIterator::advance_and_next() (1 samples, 5.00%)</title><rect x="305.0" y="819.0" width="59.0" height="15" fill="#dbdb42" rx="2" ry="2"/>
<text x="308.0" y="830.0">IndexS..</text>
</g>
<g>
<title>PhaseChaitin::Split(unsigned int, ResourceArea*) (1 samples, 5.00%)</title><rect x="364.0" y="851.0" width="59.0" height="15" fill="#e2e244" rx="2" ry="2"/>
<text x="367.0" y="862.0">PhaseC..</text>
</g>
<g>
<title>PhaseChaitin::build_ifg_physical(ResourceArea*) (3 samples, 15.00%)</title><rect x="423.0" y="851.0" width="177.0" height="15" fill="#d2d23f" rx="2" ry="2"/>
<text x="426.0" y="862.0">PhaseChaitin::build_ifg..</text>
</g>
<g>
<title>IndexSetIterator::advance_and_next() (1 samples, 5.00%)</title><rect x="482.0" y="835.0" width="59.0" height="15" fill="#c9c93c" rx="2" ry="2"/>
<text x="485.0" y="846.0">IndexS..</text>
</g>
<g>
<title>PhaseChaitin::interfere_with_live(unsigned int, IndexSet*) (1 samples, 5.00%)</title><rect x="541.0" y="835.0" width="59.0" height="15" fill="#c8c83c" rx="2" ry="2"/>
<text x="544.0" y="846.0">PhaseC..</text>
</g>
<g>
<title>PhaseChaitin::gather_lrg_masks(bool) [clone .constprop.215] (1 samples, 5.00%)</title><rect x="600.0" y="851.0" width="59.0" height="15" fill="#d5d540" rx="2" ry="2"/>
<text x="603.0" y="862.0">PhaseC..</text>
</g>
<g>
<title>RegMask::Size() const (1 samples, 5.00%)</title><rect x="600.0" y="835.0" width="59.0" height="15" fill="#c9c93c" rx="2" ry="2"/>
<text x="603.0" y="846.0">RegMas..</text>
</g>
<g>
<title>PhaseChaitin::post_allocate_copy_removal() (1 samples, 5.00%)</title><rect x="659.0" y="851.0" width="59.0" height="15" fill="#cfcf3e" rx="2" ry="2"/>
<text x="662.0" y="862.0">PhaseC..</text>
</g>
<g>
<title>PhaseChaitin::elide_copy(Node*, int, Block*, Node_List&amp;, Node_List&amp;, bool) (1 samples, 5.00%)</title><rect x="659.0" y="835.0" width="59.0" height="15" fill="#e5e545" rx="2" ry="2"/>
<text x="662.0" y="846.0">PhaseC..</text>
</g>
<g>
<title>PhaseChaitin::stretch_base_pointer_live_ranges(ResourceArea*) (1 samples, 5.00%)</title><rect x="718.0" y="851.0" width="59.0" height="15" fill="#e3e345" rx="2" ry="2"/>
<text x="721.0" y="862.0">PhaseC..</text>
</g>
<g>
<title>PhaseLive::compute(unsigned int) (1 samples, 5.00%)</title><rect x="777.0" y="851.0" width="59.0" height="15" fill="#e1e144" rx="2" ry="2"/>
<text x="780.0" y="862.0">PhaseL..</text>
</g>
<g>
<title>Compile::Optimize() (3 samples, 15.00%)</title><rect x="836.0" y="883.0" width="177.0" height="15" fill="#cfcf3e" rx="2" ry="2"/>
<text x="839.0" y="894.0">Compile::Optimize()</text>
</g>
<g>
<title>PhaseCCP::analyze() (1 samples, 5.00%)</title><rect x="836.0" y="867.0" width="59.0" height="15" fill="#d8d841" rx="2" ry="2"/>
<text x="839.0" y="878.0">PhaseC..</text>
</g>
<g>
<title>PhaseIdealLoop::build_and_optimize(bool, bool) (2 samples, 10.00%)</title><rect x="895.0" y="867.0" width="118.0" height="15" fill="#d3d33f" rx="2" ry="2"/>
<text x="898.0" y="878.0">PhaseIdealLoop..</text>
</g>
<g>
<title>ProjNode::is_CFG() const (1 samples, 5.00%)</title><rect x="895.0" y="851.0" width="59.0" height="15" fill="#dede43" rx="2" ry="2"/>
<text x="898.0" y="862.0">ProjNo..</text>
</g>
<g>
<title>RegionNode::is_CFG() const (1 samples, 5.00%)</title><rect x="954.0" y="851.0" width="59.0" height="15" fill="#d7d741" rx="2" ry="2"/>
<text x="957.0" y="862.0">Region..</text>
</g>
<g>
<title>ParseGenerator::generate(JVMState*) (3 samples, 15.00%)</title><rect x="1013.0" y="883.0" width="177.0" height="15" fill="#dcdc42" rx="2" ry="2"/>
<text x="1016.0" y="894.0">ParseGenerator::generat..</text>
</g>
<g>
<title>Parse::Parse(JVMState*, ciMethod*, float) (3 samples, 15.00%)</title><rect x="1013.0" y="867.0" width="177.0" height="15" fill="#d7d741" rx="2" ry="2"/>
<text x="1016.0" y="878.0">Parse::Parse(JVMState*,..</text>
</g>
<g>
<title>Parse::do_all_blocks() (2 samples, 10.00%)</title><rect x="1013.0" y="851.0" width="118.0" height="15" fill="#c9c93c" rx="2" ry="2"/>
<text x="1016.0" y="862.0">Parse::do_all_..</text>
</g>
<g>
<title>Parse::do_one_block() (2 samples, 10.00%)</title><rect x="1013.0" y="835.0" width="118.0" height="15" fill="#d5d540" rx="2" ry="2"/>
<text x="1016.0" y="846.0">Parse::do_one_..</text>
</g>
<g>
<title>Parse::do_one_bytecode() (2 samples, 10.00%)</title><rect x="1013.0" y="819.0" width="118.0" height="15" fill="#e3e345" rx="2" ry="2"/>
<text x="1016.0" y="830.0">Parse::do_one_..</text>
</g>
<g>
<title>Parse::do_call() (2 samples, 10.00%)</title><rect x="1013.0" y="803.0" width="118.0" height="15" fill="#e3e345" rx="2" ry="2"/>
<text x="1016.0" y="814.0">Parse::do_call()</text>
</g>
<g>
<title>ParseGenerator::generate(JVMState*) (2 samples, 10.00%)</title><rect x="1013.0" y="787.0" width="118.0" height="15" fill="#dddd43" rx="2" ry="2"/>
<text x="1016.0" y="798.0">ParseGenerator..</text>
</g>
<g>
<title>Parse::Parse(JVMState*, ciMethod*, float) (2 samples, 10.00%)</title><rect x="1013.0" y="771.0" width="118.0" height="15" fill="#d0d03e" rx="2" ry="2"/>
<text x="1016.0" y="782.0">Parse::Parse(J..</text>
</g>
<g>
<title>Parse::do_all_blocks() (2 samples, 10.00%)</title><rect x="1013.0" y="755.0" width="118.0" height="15" fill="#dede43" rx="2" ry="2"/>
<text x="1016.0" y="766.0">Parse::do_all_..</text>
</g>
<g>
<title>Parse::do_one_block() (2 samples, 10.00%)</title><rect x="1013.0" y="739.0" width="118.0" height="15" fill="#dbdb42" rx="2" ry="2"/>
<text x="1016.0" y="750.0">Parse::do_one_..</text>
</g>
<g>
<title>Parse::do_one_bytecode() (2 samples, 10.00%)</title><rect x="1013.0" y="723.0" width="118.0" height="15" fill="#d2d23f" rx="2" ry="2"/>
<text x="1016.0" y="734.0">Parse::do_one_..</text>
</g>
<g>
<title>Parse::do_call() (2 samples, 10.00%)</title><rect x="1013.0" y="707.0" width="118.0" height="15" fill="#dcdc42" rx="2" ry="2"/>
<text x="1016.0" y="718.0">Parse::do_call()</text>
</g>
<g>
<title>ParseGenerator::generate(JVMState*) (2 samples, 10.00%)</title><rect x="1013.0" y="691.0" width="118.0" height="15" fill="#cccc3d" rx="2" ry="2"/>
<text x="1016.0" y="702.0">ParseGenerator..</text>
</g>
<g>
<title>Parse::Parse(JVMState*, ciMethod*, float) (2 samples, 10.00%)</title><rect x="1013.0" y="675.0" width="118.0" height="15" fill="#d5d540" rx="2" ry="2"/>
<text x="1016.0" y="686.0">Parse::Parse(J..</text>
</g>
<g>
<title>Parse::do_all_blocks() (2 samples, 10.00%)</title><rect x="1013.0" y="659.0" width="118.0" height="15" fill="#e2e244" rx="2" ry="2"/>
<text x="1016.0" y="670.0">Parse::do_all_..</text>
</g>
<g>
<title>Parse::do_one_block() (2 samples, 10.00%)</title><rect x="1013.0" y="643.0" width="118.0" height="15" fill="#e0e044" rx="2" ry="2"/>
<text x="1016.0" y="654.0">Parse::do_one_..</text>
</g>
<g>
<title>Parse::do_one_bytecode() (2 samples, 10.00%)</title><rect x="1013.0" y="627.0" width="118.0" height="15" fill="#d1d13f" rx="2" ry="2"/>
<text x="1016.0" y="638.0">Parse::do_one_..</text>
</g>
<g>
<title>Parse::do_call() (2 samples, 10.00%)</title><rect x="1013.0" y="611.0" width="118.0" height="15" fill="#cece3e" rx="2" ry="2"/>
<text x="1016.0" y="622.0">Parse::do_call()</text>
</g>
<g>
<title>ParseGenerator::generate(JVMState*) (2 samples, 10.00%)</title><rect x="1013.0" y="595.0" width="118.0" height="15" fill="#e2e244" rx="2" ry="2"/>
<text x="1016.0" y="606.0">ParseGenerator..</text>
</g>
<g>
<title>Parse::Parse(JVMState*, ciMethod*, float) (2 samples, 10.00%)</title><rect x="1013.0" y="579.0" width="118.0" height="15" fill="#d2d23f" rx="2" ry="2"/>
<text x="1016.0" y="590.0">Parse::Parse(J..</text>
</g>
<g>
<title>Parse::do_all_blocks() (2 samples, 10.00%)</title><rect x="1013.0" y="563.0" width="118.0" height="15" fill="#dcdc42" rx="2" ry="2"/>
<text x="1016.0" y="574.0">Parse::do_all_..</text>
</g>
<g>
<title>Parse::do_one_block() (2 samples, 10.00%)</title><rect x="1013.0" y="547.0" width="118.0" height="15" fill="#e4e445" rx="2" ry="2"/>
<text x="1016.0" y="558.0">Parse::do_one_..</text>
</g>
<g>
<title>Parse::do_one_bytecode() (2 samples, 10.00%)</title><rect x="1013.0" y="531.0" width="118.0" height="15" fill="#d9d941" rx="2" ry="2"/>
<text x="1016.0" y="542.0">Parse::do_one_..</text>
</g>
<g>
<title>Parse::do_call() (2 samples, 10.00%)</title><rect x="1013.0" y="515.0" width="118.0" height="15" fill="#dbdb42" rx="2" ry="2"/>
<text x="1016.0" y="526.0">Parse::do_call()</text>
</g>
<g>
<title>ParseGenerator::generate(JVMState*) (1 samples, 5.00%)</title><rect x="1013.0" y="499.0" width="59.0" height="15" fill="#e1e144" rx="2" ry="2"/>
<text x="1016.0" y="510.0">ParseG..</text>
</g>
<g>
<title>Parse::Parse(JVMState*, ciMethod*, float) (1 samples, 5.00%)</title><rect x="1013.0" y="483.0" width="59.0" height="15" fill="#d5d540" rx="2" ry="2"/>
<text x="1016.0" y="494.0">Parse:..</text>
</g>
<g>
<title>Parse::do_all_blocks() (1 samples, 5.00%)</title><rect x="1013.0" y="467.0" width="59.0" height="15" fill="#e3e345" rx="2" ry="2"/>
<text x="1016.0" y="478.0">Parse:..</text>
</g>
<g>
<title>Parse::do_one_block() (1 samples, 5.00%)</title><rect x="1013.0" y="451.0" width="59.0" height="15" fill="#d3d33f" rx="2" ry="2"/>
<text x="1016.0" y="462.0">Parse:..</text>
</g>
<g>
<title>Parse::do_one_bytecode() (1 samples, 5.00%)</title><rect x="1013.0" y="435.0" width="59.0" height="15" fill="#e0e044" rx="2" ry="2"/>
<text x="1016.0" y="446.0">Parse:..</text>
</g>
<g>
<title>Parse::do_call() (1 samples, 5.00%)</title><rect x="1013.0" y="419.0" width="59.0" height="15" fill="#dcdc42" rx="2" ry="2"/>
<text x="1016.0" y="430.0">Parse:..</text>
</g>
<g>
<title>ParseGenerator::generate(JVMState*) (1 samples, 5.00%)</title><rect x="1013.0" y="403.0" width="59.0" height="15" fill="#e3e345" rx="2" ry="2"/>
<text x="1016.0" y="414.0">ParseG..</text>
</g>
<g>
<title>Parse::Parse(JVMState*, ciMethod*, float) (1 samples, 5.00%)</title><rect x="1013.0" y="387.0" width="59.0" height="15" fill="#d6d640" rx="2" ry="2"/>
<text x="1016.0" y="398.0">Parse:..</text>
</g>
<g>
<title>Parse::do_all_blocks() (1 samples, 5.00%)</title><rect x="1013.0" y="371.0" width="59.0" height="15" fill="#cece3e" rx="2" ry="2"/>
<text x="1016.0" y="382.0">Parse:..</text>
</g>
<g>
<title>Parse::do_one_block() (1 samples, 5.00%)</title><rect x="1013.0" y="355.0" width="59.0" height="15" fill="#e4e445" rx="2" ry="2"/>
<text x="1016.0" y="366.0">Parse:..</text>
</g>
<g>
<title>Parse::do_one_bytecode() (1 samples, 5.00%)</title><rect x="1013.0" y="339.0" width="59.0" height="15" fill="#e3e345" rx="2" ry="2"/>
<text x="1016.0" y="350.0">Parse:..</text>
</g>
<g>
<title>Parse::do_call() (1 samples, 5.00%)</title><rect x="1013.0" y="323.0" width="59.0" height="15" fill="#cccc3d" rx="2" ry="2"/>
<text x="1016.0" y="334.0">Parse:..</text>
</g>
<g>
<title>ParseGenerator::generate(JVMState*) (1 samples, 5.00%)</title><rect x="1013.0" y="307.0" width="59.0" height="15" fill="#e2e244" rx="2" ry="2"/>
<text x="1016.0" y="318.0">ParseG..</text>
</g>
<g>
<title>Parse::Parse(JVMState*, ciMethod*, float) (1 samples, 5.00%)</title><rect x="1013.0" y="291.0" width="59.0" height="15" fill="#dbdb42" rx="2" ry="2"/>
<text x="1016.0" y="302.0">Parse:..</text>
</g>
<g>
<title>Parse::do_all_blocks() (1 samples, 5.00%)</title><rect x="1013.0" y="275.0" width="59.0" height="15" fill="#d4d440" rx="2" ry="2"/>
<text x="1016.0" y="286.0">Parse:..</text>
</g>
<g>
<title>Parse::do_one_block() (1 samples, 5.00%)</title><rect x="1013.0" y="259.0" width="59.0" height="15" fill="#dada42" rx="2" ry="2"/>
<text x="1016.0" y="270.0">Parse:..</text>
</g>
<g>
<title>Parse::do_one_bytecode() (1 samples, 5.00%)</title><rect x="1013.0" y="243.0" width="59.0" height="15" fill="#d0d03e" rx="2" ry="2"/>
<text x="1016.0" y="254.0">Parse:..</text>
</g>
<g>
<title>Parse::do_call() (1 samples, 5.00%)</title><rect x="1013.0" y="227.0" width="59.0" height="15" fill="#dfdf43" rx="2" ry="2"/>
<text x="1016.0" y="238.0">Parse:..</text>
</g>
<g>
<title>ParseGenerator::generate(JVMState*) (1 samples, 5.00%)</title><rect x="1013.0" y="211.0" width="59.0" height="15" fill="#d1d13f" rx="2" ry="2"/>
<text x="1016.0" y="222.0">ParseG..</text>
</g>
<g>
<title>Parse::Parse(JVMState*, ciMethod*, float) (1 samples, 5.00%)</title><rect x="1013.0" y="195.0" width="59.0" height="15" fill="#d5d540" rx="2" ry="2"/>
<text x="1016.0" y="206.0">Parse:..</text>
</g>
<g>
<title>Parse::do_all_blocks() (1 samples, 5.00%)</title><rect x="1013.0" y="179.0" width="59.0" height="15" fill="#cece3e" rx="2" ry="2"/>
<text x="1016.0" y="190.0">Parse:..</text>
</g>
<g>
<title>Parse::do_one_block() (1 samples, 5.00%)</title><rect x="1013.0" y="163.0" width="59.0" height="15" fill="#cdcd3d" rx="2" ry="2"/>
<text x="1016.0" y="174.0">Parse:..</text>
</g>
<g>
<title>Parse::do_one_bytecode() (1 samples, 5.00%)</title><rect x="1013.0" y="147.0" width="59.0" height="15" fill="#d0d03e" rx="2" ry="2"/>
<text x="1016.0" y="158.0">Parse:..</text>
</g>
<g>
<title>GraphKit::null_check_common(Node*, BasicType, bool, Node**) (1 samples, 5.00%)</title><rect x="1013.0" y="131.0" width="59.0" height="15" fill="#d8d841" rx="2" ry="2"/>
<text x="1016.0" y="142.0">GraphK..</text>
</g>
<g>
<title>GraphKit::cast_not_null(Node*, bool) (1 samples, 5.00%)</title><rect x="1013.0" y="115.0" width="59.0" height="15" fill="#d4d440" rx="2" ry="2"/>
<text x="1016.0" y="126.0">GraphK..</text>
</g>
<g>
<title>PhaseGVN::transform_no_reclaim(Node*) (1 samples, 5.00%)</title><rect x="1013.0" y="99.0" width="59.0" height="15" fill="#cdcd3d" rx="2" ry="2"/>
<text x="1016.0" y="110.0">PhaseG..</text>
</g>
<g>
<title>ConstraintCastNode::Identity(PhaseTransform*) (1 samples, 5.00%)</title><rect x="1013.0" y="83.0" width="59.0" height="15" fill="#e3e345" rx="2" ry="2"/>
<text x="1016.0" y="94.0">Constr..</text>
</g>
<g>
<title>TypeOopPtr::xmeet(Type const*) const (1 samples, 5.00%)</title><rect x="1013.0" y="67.0" width="59.0" height="15" fill="#cbcb3d" rx="2" ry="2"/>
<text x="1016.0" y="78.0">TypeOo..</text>
</g>
<g>
<title>TypeAryPtr::xmeet_helper(Type const*) const (1 samples, 5.00%)</title><rect x="1013.0" y="51.0" width="59.0" height="15" fill="#cbcb3d" rx="2" ry="2"/>
<text x="1016.0" y="62.0">TypeAr..</text>
</g>
<g>
<title>TypeAryPtr::make(TypePtr::PTR, ciObject*, TypeAry const*, ciKlass*, bool, int, int, TypeOopPtr const*, int, bool) (1 samples, 5.00%)</title><rect x="1013.0" y="35.0" width="59.0" height="15" fill="#d6d640" rx="2" ry="2"/>
<text x="1016.0" y="46.0">TypeAr..</text>
</g>
<g>
<title>PredictedCallGenerator::generate(JVMState*) (1 samples, 5.00%)</title><rect x="1072.0" y="499.0" width="59.0" height="15" fill="#dede43" rx="2" ry="2"/>
<text x="1075.0" y="510.0">Predic..</text>
</g>
<g>
<title>DirectCallGenerator::generate(JVMState*) (1 samples, 5.00%)</title><rect x="1072.0" y="483.0" width="59.0" height="15" fill="#e5e545" rx="2" ry="2"/>
<text x="1075.0" y="494.0">Direct..</text>
</g>
<g>
<title>GraphKit::set_results_for_java_call(CallJavaNode*, bool) (1 samples, 5.00%)</title><rect x="1072.0" y="467.0" width="59.0" height="15" fill="#e4e445" rx="2" ry="2"/>
<text x="1075.0" y="478.0">GraphK..</text>
</g>
<g>
<title>GraphKit::make_slow_call_ex(Node*, ciInstanceKlass*, bool, bool) (1 samples, 5.00%)</title><rect x="1072.0" y="451.0" width="59.0" height="15" fill="#dcdc42" rx="2" ry="2"/>
<text x="1075.0" y="462.0">GraphK..</text>
</g>
<g>
<title>TypeInstPtr::cast_to_ptr_type(TypePtr::PTR) const (1 samples, 5.00%)</title><rect x="1072.0" y="435.0" width="59.0" height="15" fill="#d3d33f" rx="2" ry="2"/>
<text x="1075.0" y="446.0">TypeIn..</text>
</g>
<g>
<title>Type::hashcons() (1 samples, 5.00%)</title><rect x="1072.0" y="419.0" width="59.0" height="15" fill="#dede43" rx="2" ry="2"/>
<text x="1075.0" y="430.0">Type::..</text>
</g>
<g>
<title>Dict::Insert(void*, void*, bool) (1 samples, 5.00%)</title><rect x="1072.0" y="403.0" width="59.0" height="15" fill="#d3d33f" rx="2" ry="2"/>
<text x="1075.0" y="414.0">Dict::..</text>
</g>
<g>
<title>Parse::do_exits() (1 samples, 5.00%)</title><rect x="1131.0" y="851.0" width="59.0" height="15" fill="#d0d03e" rx="2" ry="2"/>
<text x="1134.0" y="862.0">Parse:..</text>
</g>
<g>
<title>GraphKit::use_exception_state(SafePointNode*) (1 samples, 5.00%)</title><rect x="1131.0" y="835.0" width="59.0" height="15" fill="#cece3e" rx="2" ry="2"/>
<text x="1134.0" y="846.0">GraphK..</text>
</g>
</g>
</svg>
