<?xml version="1.0" standalone="no"?>
<!DOCTYPE svg PUBLIC "-//W3C//DTD SVG 1.1//EN" "http://www.w3.org/Graphics/SVG/1.1/DTD/svg11.dtd">
<svg version="1.1" width="1200" height="790" onload="init(evt)" viewBox="0 0 1200 790" xmlns="http://www.w3.org/2000/svg" xmlns:xlink="http://www.w3.org/1999/xlink">
<style type="text/css">
	text { font-family:Verdana; font-size:12px; fill:rgb(0,0,0); }
	#search { opacity:0.1; cursor:pointer; }
	#search:hover, #search.show { opacity:1; }
	#subtitle { text-anchor:middle; font-color:rgb(160,160,160); }
	#title { text-anchor:middle; font-size:17px}
	#unzoom { cursor:pointer; }
	#frames > *:hover { stroke:black; stroke-width:0.5; cursor:pointer; }
	.hide { display:none; }
	.parent { opacity:0.5; }
</style>
<script type="text/ecmascript">
<![CDATA[
	"use strict";
	var details, searchbtn, unzoombtn, matchedtxt, svg, searching;
	function init(evt) {
		details = document.getElementById("details").firstChild;
		searchbtn = document.getElementById("search");
		unzoombtn = document.getElementById("unzoom");
		matchedtxt = document.getElementById("matched");
		svg = document.getElementsByTagName("svg")[0];
		searching = 0;
	}

	window.addEventListener("click", function(e) {
		var target = find_group(e.target);
		if (target) {
			if (target.nodeName == "a") {
				if (e.ctrlKey === false) return;
				e.preventDefault();
			}
			if (target.classList.contains("parent")) unzoom();
			zoom(target);
		}
		else if (e.target.id == "unzoom") unzoom();
		else if (e.target.id == "search") search_prompt();
	}, false)

	// mouse-over for info
	// show
	window.addEventListener("mouseover", function(e) {
		var target = find_group(e.target);
		if (target) details.nodeValue = "Function: " + g_to_text(target);
	}, false)

	// clear
	window.addEventListener("mouseout", function(e) {
		var target = find_group(e.target);
		if (target) details.nodeValue = ' ';
	}, false)

	// ctrl-F for search
	window.addEventListener("keydown",function (e) {
		if (e.keyCode === 114 || (e.ctrlKey && e.keyCode === 70)) {
			e.preventDefault();
			search_prompt();
		}
	}, false)

	// functions
	function find_child(node, selector) {
		var children = node.querySelectorAll(selector);
		if (children.length) return children[0];
		return;
	}
	function find_group(node) {
		var parent = node.parentElement;
		if (!parent) return;
		if (parent.id == "frames") return node;
		return find_group(parent);
	}
	function orig_save(e, attr, val) {
		if (e.attributes["_orig_" + attr] != undefined) return;
		if (e.attributes[attr] == undefined) return;
		if (val == undefined) val = e.attributes[attr].value;
		e.setAttribute("_orig_" + attr, val);
	}
	function orig_load(e, attr) {
		if (e.attributes["_orig_"+attr] == undefined) return;
		e.attributes[attr].value = e.attributes["_orig_" + attr].value;
		e.removeAttribute("_orig_"+attr);
	}
	function g_to_text(e) {
		var text = find_child(e, "title").firstChild.nodeValue;
		return (text)
	}
	function g_to_func(e) {
		var func = g_to_text(e);
		// if there's any manipulation we want to do to the function
		// name before it's searched, do it here before returning.
		return (func);
	}
	function update_text(e) {
		var r = find_child(e, "rect");
		var t = find_child(e, "text");
		var w = parseFloat(r.attributes.width.value) -3;
		var txt = find_child(e, "title").textContent.replace(/\([^(]*\)$/,"");
		t.attributes.x.value = parseFloat(r.attributes.x.value) + 3;

		// Smaller than this size won't fit anything
		if (w < 2 * 12 * 0.59) {
			t.textContent = "";
			return;
		}

		t.textContent = txt;
		// Fit in full text width
		if (/^ *$/.test(txt) || t.getSubStringLength(0, txt.length) < w)
			return;

		for (var x = txt.length - 2; x > 0; x--) {
			if (t.getSubStringLength(0, x + 2) <= w) {
				t.textContent = txt.substring(0, x) + "..";
				return;
			}
		}
		t.textContent = "";
	}

	// zoom
	function zoom_reset(e) {
		if (e.attributes != undefined) {
			orig_load(e, "x");
			orig_load(e, "width");
		}
		if (e.childNodes == undefined) return;
		for (var i = 0, c = e.childNodes; i < c.length; i++) {
			zoom_reset(c[i]);
		}
	}
	function zoom_child(e, x, ratio) {
		if (e.attributes != undefined) {
			if (e.attributes.x != undefined) {
				orig_save(e, "x");
				e.attributes.x.value = (parseFloat(e.attributes.x.value) - x - 10) * ratio + 10;
				if (e.tagName == "text")
					e.attributes.x.value = find_child(e.parentNode, "rect[x]").attributes.x.value + 3;
			}
			if (e.attributes.width != undefined) {
				orig_save(e, "width");
				e.attributes.width.value = parseFloat(e.attributes.width.value) * ratio;
			}
		}

		if (e.childNodes == undefined) return;
		for (var i = 0, c = e.childNodes; i < c.length; i++) {
			zoom_child(c[i], x - 10, ratio);
		}
	}
	function zoom_parent(e) {
		if (e.attributes) {
			if (e.attributes.x != undefined) {
				orig_save(e, "x");
				e.attributes.x.value = 10;
			}
			if (e.attributes.width != undefined) {
				orig_save(e, "width");
				e.attributes.width.value = parseInt(svg.width.baseVal.value) - (10 * 2);
			}
		}
		if (e.childNodes == undefined) return;
		for (var i = 0, c = e.childNodes; i < c.length; i++) {
			zoom_parent(c[i]);
		}
	}
	function zoom(node) {
		var attr = find_child(node, "rect").attributes;
		var width = parseFloat(attr.width.value);
		var xmin = parseFloat(attr.x.value);
		var xmax = parseFloat(xmin + width);
		var ymin = parseFloat(attr.y.value);
		var ratio = (svg.width.baseVal.value - 2 * 10) / width;

		// XXX: Workaround for JavaScript float issues (fix me)
		var fudge = 0.0001;

		unzoombtn.classList.remove("hide");

		var el = document.getElementById("frames").children;
		for (var i = 0; i < el.length; i++) {
			var e = el[i];
			var a = find_child(e, "rect").attributes;
			var ex = parseFloat(a.x.value);
			var ew = parseFloat(a.width.value);
			var upstack;
			// Is it an ancestor
			if (0 == 0) {
				upstack = parseFloat(a.y.value) > ymin;
			} else {
				upstack = parseFloat(a.y.value) < ymin;
			}
			if (upstack) {
				// Direct ancestor
				if (ex <= xmin && (ex+ew+fudge) >= xmax) {
					e.classList.add("parent");
					zoom_parent(e);
					update_text(e);
				}
				// not in current path
				else
					e.classList.add("hide");
			}
			// Children maybe
			else {
				// no common path
				if (ex < xmin || ex + fudge >= xmax) {
					e.classList.add("hide");
				}
				else {
					zoom_child(e, xmin, ratio);
					update_text(e);
				}
			}
		}
	}
	function unzoom() {
		unzoombtn.classList.add("hide");
		var el = document.getElementById("frames").children;
		for(var i = 0; i < el.length; i++) {
			el[i].classList.remove("parent");
			el[i].classList.remove("hide");
			zoom_reset(el[i]);
			update_text(el[i]);
		}
	}

	// search
	function reset_search() {
		var el = document.querySelectorAll("#frames rect");
		for (var i = 0; i < el.length; i++) {
			orig_load(el[i], "fill")
		}
	}
	function search_prompt() {
		if (!searching) {
			var term = prompt("Enter a search term (regexp " +
			    "allowed, eg: ^ext4_)", "");
			if (term != null) {
				search(term)
			}
		} else {
			reset_search();
			searching = 0;
			searchbtn.classList.remove("show");
			searchbtn.firstChild.nodeValue = "Search"
			matchedtxt.classList.add("hide");
			matchedtxt.firstChild.nodeValue = ""
		}
	}
	function search(term) {
		var re = new RegExp(term);
		var el = document.getElementById("frames").children;
		var matches = new Object();
		var maxwidth = 0;
		for (var i = 0; i < el.length; i++) {
			var e = el[i];
			var func = g_to_func(e);
			var rect = find_child(e, "rect");
			if (func == null || rect == null)
				continue;

			// Save max width. Only works as we have a root frame
			var w = parseFloat(rect.attributes.width.value);
			if (w > maxwidth)
				maxwidth = w;

			if (func.match(re)) {
				// highlight
				var x = parseFloat(rect.attributes.x.value);
				orig_save(rect, "fill");
				rect.attributes.fill.value = "rgb(230,0,230)";

				// remember matches
				if (matches[x] == undefined) {
					matches[x] = w;
				} else {
					if (w > matches[x]) {
						// overwrite with parent
						matches[x] = w;
					}
				}
				searching = 1;
			}
		}
		if (!searching)
			return;

		searchbtn.classList.add("show");
		searchbtn.firstChild.nodeValue = "Reset Search";

		// calculate percent matched, excluding vertical overlap
		var count = 0;
		var lastx = -1;
		var lastw = 0;
		var keys = Array();
		for (k in matches) {
			if (matches.hasOwnProperty(k))
				keys.push(k);
		}
		// sort the matched frames by their x location
		// ascending, then width descending
		keys.sort(function(a, b){
			return a - b;
		});
		// Step through frames saving only the biggest bottom-up frames
		// thanks to the sort order. This relies on the tree property
		// where children are always smaller than their parents.
		var fudge = 0.0001;	// JavaScript floating point
		for (var k in keys) {
			var x = parseFloat(keys[k]);
			var w = matches[keys[k]];
			if (x >= lastx + lastw - fudge) {
				count += w;
				lastx = x;
				lastw = w;
			}
		}
		// display matched percent
		matchedtxt.classList.remove("hide");
		var pct = 100 * count / maxwidth;
		if (pct != 100) pct = pct.toFixed(1)
		matchedtxt.firstChild.nodeValue = "Matched: " + pct + "%";
	}
]]>
</script>
<rect x="0" y="0" width="100%" height="100%" fill="rgb(240,240,220)"/>
<text id="title" x="600" y="24">Flame Graph</text>
<text id="details" x="10" y="773"> </text>
<text id="unzoom" x="10" y="24" class="hide">Reset Zoom</text>
<text id="search" x="1090" y="24">Search</text>
<text id="matched" x="1090" y="773"> </text>
<g id="frames">
<g>
<title>all (18 samples, 100.00%)</title><rect x="10.0" y="739.0" width="1180.0" height="15" fill="#fa7b7b" rx="2" ry="2"/>
<text x="13.0" y="750.0">all</text>
</g>
<g>
<title>com/linecorp/decaton/processor/runtime/ProcessorSubscription.run (3 samples, 16.67%)</title><rect x="10.0" y="723.0" width="196.7" height="15" fill="#5bec5b" rx="2" ry="2"/>
<text x="13.0" y="734.0">com/linecorp/decaton/proce..</text>
</g>
<g>
<title>com/linecorp/decaton/processor/runtime/ProcessorSubscription.pollOnce (2 samples, 11.11%)</title><rect x="10.0" y="707.0" width="131.1" height="15" fill="#67f867" rx="2" ry="2"/>
<text x="13.0" y="718.0">com/linecorp/dec..</text>
</g>
<g>
<title>org/apache/kafka/clients/consumer/KafkaConsumer.poll (2 samples, 11.11%)</title><rect x="10.0" y="691.0" width="131.1" height="15" fill="#67f867" rx="2" ry="2"/>
<text x="13.0" y="702.0">org/apache/kafka..</text>
</g>
<g>
<title>org/apache/kafka/clients/consumer/KafkaConsumer.poll (2 samples, 11.11%)</title><rect x="10.0" y="675.0" width="131.1" height="15" fill="#6bfc6b" rx="2" ry="2"/>
<text x="13.0" y="686.0">org/apache/kafka..</text>
</g>
<g>
<title>org/apache/kafka/clients/consumer/KafkaConsumer.pollForFetches (2 samples, 11.11%)</title><rect x="10.0" y="659.0" width="131.1" height="15" fill="#55e655" rx="2" ry="2"/>
<text x="13.0" y="670.0">org/apache/kafka..</text>
</g>
<g>
<title>org/apache/kafka/clients/consumer/internals/ConsumerNetworkClient.poll (1 samples, 5.56%)</title><rect x="10.0" y="643.0" width="65.6" height="15" fill="#5aeb5a" rx="2" ry="2"/>
<text x="13.0" y="654.0">org/apa..</text>
</g>
<g>
<title>org/apache/kafka/clients/consumer/internals/ConsumerNetworkClient.poll (1 samples, 5.56%)</title><rect x="10.0" y="627.0" width="65.6" height="15" fill="#67f867" rx="2" ry="2"/>
<text x="13.0" y="638.0">org/apa..</text>
</g>
<g>
<title>org/apache/kafka/clients/NetworkClient.poll (1 samples, 5.56%)</title><rect x="10.0" y="611.0" width="65.6" height="15" fill="#58e958" rx="2" ry="2"/>
<text x="13.0" y="622.0">org/apa..</text>
</g>
<g>
<title>org/apache/kafka/clients/NetworkClient.handleCompletedReceives (1 samples, 5.56%)</title><rect x="10.0" y="595.0" width="65.6" height="15" fill="#60f160" rx="2" ry="2"/>
<text x="13.0" y="606.0">org/apa..</text>
</g>
<g>
<title>org/apache/kafka/clients/consumer/internals/Fetcher.fetchedRecords (1 samples, 5.56%)</title><rect x="75.6" y="643.0" width="65.5" height="15" fill="#5eef5e" rx="2" ry="2"/>
<text x="78.6" y="654.0">org/apa..</text>
</g>
<g>
<title>java/lang/System.currentTimeMillis (1 samples, 5.56%)</title><rect x="141.1" y="707.0" width="65.6" height="15" fill="#62f362" rx="2" ry="2"/>
<text x="144.1" y="718.0">java/la..</text>
</g>
<g>
<title>JVM_CurrentTimeMillis (1 samples, 5.56%)</title><rect x="141.1" y="691.0" width="65.6" height="15" fill="#eb6868" rx="2" ry="2"/>
<text x="144.1" y="702.0">JVM_Cur..</text>
</g>
<g>
<title>java/lang/Thread.run (1 samples, 5.56%)</title><rect x="206.7" y="723.0" width="65.5" height="15" fill="#5ff05f" rx="2" ry="2"/>
<text x="209.7" y="734.0">java/la..</text>
</g>
<g>
<title>java/util/concurrent/ThreadPoolExecutor$Worker.run (1 samples, 5.56%)</title><rect x="206.7" y="707.0" width="65.5" height="15" fill="#6cfd6c" rx="2" ry="2"/>
<text x="209.7" y="718.0">java/ut..</text>
</g>
<g>
<title>java/util/concurrent/ThreadPoolExecutor.runWorker (1 samples, 5.56%)</title><rect x="206.7" y="691.0" width="65.5" height="15" fill="#6bfc6b" rx="2" ry="2"/>
<text x="209.7" y="702.0">java/ut..</text>
</g>
<g>
<title>com/linecorp/decaton/processor/runtime/ProcessorUnit$$Lambda$260/249567443.run (1 samples, 5.56%)</title><rect x="206.7" y="675.0" width="65.5" height="15" fill="#63f463" rx="2" ry="2"/>
<text x="209.7" y="686.0">com/lin..</text>
</g>
<g>
<title>com/linecorp/decaton/processor/runtime/ProcessorUnit.lambda$putTask$0 (1 samples, 5.56%)</title><rect x="206.7" y="659.0" width="65.5" height="15" fill="#65f665" rx="2" ry="2"/>
<text x="209.7" y="670.0">com/lin..</text>
</g>
<g>
<title>com/linecorp/decaton/processor/runtime/ProcessorUnit.processTask (1 samples, 5.56%)</title><rect x="206.7" y="643.0" width="65.5" height="15" fill="#54e554" rx="2" ry="2"/>
<text x="209.7" y="654.0">com/lin..</text>
</g>
<g>
<title>com/linecorp/decaton/processor/runtime/ProcessPipeline.scheduleThenProcess (1 samples, 5.56%)</title><rect x="206.7" y="627.0" width="65.5" height="15" fill="#62f362" rx="2" ry="2"/>
<text x="209.7" y="638.0">com/lin..</text>
</g>
<g>
<title>com/linecorp/decaton/processor/runtime/ProcessPipeline.process (1 samples, 5.56%)</title><rect x="206.7" y="611.0" width="65.5" height="15" fill="#50e150" rx="2" ry="2"/>
<text x="209.7" y="622.0">com/lin..</text>
</g>
<g>
<title>com/linecorp/decaton/processor/runtime/ProcessingContextImpl.push (1 samples, 5.56%)</title><rect x="206.7" y="595.0" width="65.5" height="15" fill="#57e857" rx="2" ry="2"/>
<text x="209.7" y="606.0">com/lin..</text>
</g>
<g>
<title>com/linecorp/decaton/processor/runtime/ProcessingContextImpl.pushDownStream (1 samples, 5.56%)</title><rect x="206.7" y="579.0" width="65.5" height="15" fill="#54e554" rx="2" ry="2"/>
<text x="209.7" y="590.0">com/lin..</text>
</g>
<g>
<title>com/linecorp/decaton/benchmark/DecatonRunner$$Lambda$199/240690661.process (1 samples, 5.56%)</title><rect x="206.7" y="563.0" width="65.5" height="15" fill="#68f968" rx="2" ry="2"/>
<text x="209.7" y="574.0">com/lin..</text>
</g>
<g>
<title>com/linecorp/decaton/benchmark/DecatonRunner.lambda$null$1 (1 samples, 5.56%)</title><rect x="206.7" y="547.0" width="65.5" height="15" fill="#54e554" rx="2" ry="2"/>
<text x="209.7" y="558.0">com/lin..</text>
</g>
<g>
<title>com/linecorp/decaton/benchmark/Recording.process (1 samples, 5.56%)</title><rect x="206.7" y="531.0" width="65.5" height="15" fill="#5ced5c" rx="2" ry="2"/>
<text x="209.7" y="542.0">com/lin..</text>
</g>
<g>
<title>com/linecorp/decaton/benchmark/Recording$ChildRecording.process (1 samples, 5.56%)</title><rect x="206.7" y="515.0" width="65.5" height="15" fill="#53e453" rx="2" ry="2"/>
<text x="209.7" y="526.0">com/lin..</text>
</g>
<g>
<title>java/lang/Thread.sleep (1 samples, 5.56%)</title><rect x="206.7" y="499.0" width="65.5" height="15" fill="#53e453" rx="2" ry="2"/>
<text x="209.7" y="510.0">java/la..</text>
</g>
<g>
<title>JVM_Sleep (1 samples, 5.56%)</title><rect x="206.7" y="483.0" width="65.5" height="15" fill="#fe8181" rx="2" ry="2"/>
<text x="209.7" y="494.0">JVM_Sleep</text>
</g>
<g>
<title>os::sleep(Thread*, long, bool) (1 samples, 5.56%)</title><rect x="206.7" y="467.0" width="65.5" height="15" fill="#cece3e" rx="2" ry="2"/>
<text x="209.7" y="478.0">os::sle..</text>
</g>
<g>
<title>__pthread_cond_timedwait (1 samples, 5.56%)</title><rect x="206.7" y="451.0" width="65.5" height="15" fill="#f06e6e" rx="2" ry="2"/>
<text x="209.7" y="462.0">__pthre..</text>
</g>
<g>
<title>start_thread (14 samples, 77.78%)</title><rect x="272.2" y="723.0" width="917.8" height="15" fill="#fa7b7b" rx="2" ry="2"/>
<text x="275.2" y="734.0">start_thread</text>
</g>
<g>
<title>java_start(Thread*) (14 samples, 77.78%)</title><rect x="272.2" y="707.0" width="917.8" height="15" fill="#f37272" rx="2" ry="2"/>
<text x="275.2" y="718.0">java_start(Thread*)</text>
</g>
<g>
<title>JavaThread::thread_main_inner() (14 samples, 77.78%)</title><rect x="272.2" y="691.0" width="917.8" height="15" fill="#d0d03e" rx="2" ry="2"/>
<text x="275.2" y="702.0">JavaThread::thread_main_inner()</text>
</g>
<g>
<title>CompileBroker::compiler_thread_loop() (14 samples, 77.78%)</title><rect x="272.2" y="675.0" width="917.8" height="15" fill="#dbdb42" rx="2" ry="2"/>
<text x="275.2" y="686.0">CompileBroker::compiler_thread_loop()</text>
</g>
<g>
<title>CompileBroker::invoke_compiler_on_method(CompileTask*) (14 samples, 77.78%)</title><rect x="272.2" y="659.0" width="917.8" height="15" fill="#d7d741" rx="2" ry="2"/>
<text x="275.2" y="670.0">CompileBroker::invoke_compiler_on_method(CompileTask*)</text>
</g>
<g>
<title>C2Compiler::compile_method(ciEnv*, ciMethod*, int) (13 samples, 72.22%)</title><rect x="272.2" y="643.0" width="852.2" height="15" fill="#d6d640" rx="2" ry="2"/>
<text x="275.2" y="654.0">C2Compiler::compile_method(ciEnv*, ciMethod*, int)</text>
</g>
<g>
<title>Compile::Compile(ciEnv*, C2Compiler*, ciMethod*, int, bool, bool, bool) (13 samples, 72.22%)</title><rect x="272.2" y="627.0" width="852.2" height="15" fill="#e5e545" rx="2" ry="2"/>
<text x="275.2" y="638.0">Compile::Compile(ciEnv*, C2Compiler*, ciMethod*, int, bool, bool, bool)</text>
</g>
<g>
<title>Compile::Code_Gen() (6 samples, 33.33%)</title><rect x="272.2" y="611.0" width="393.4" height="15" fill="#d0d03e" rx="2" ry="2"/>
<text x="275.2" y="622.0">Compile::Code_Gen()</text>
</g>
<g>
<title>Matcher::match() (1 samples, 5.56%)</title><rect x="272.2" y="595.0" width="65.6" height="15" fill="#dfdf43" rx="2" ry="2"/>
<text x="275.2" y="606.0">Matcher..</text>
</g>
<g>
<title>Matcher::xform(Node*, int) (1 samples, 5.56%)</title><rect x="272.2" y="579.0" width="65.6" height="15" fill="#d7d741" rx="2" ry="2"/>
<text x="275.2" y="590.0">Matcher..</text>
</g>
<g>
<title>Matcher::match_tree(Node const*) (1 samples, 5.56%)</title><rect x="272.2" y="563.0" width="65.6" height="15" fill="#dfdf43" rx="2" ry="2"/>
<text x="275.2" y="574.0">Matcher..</text>
</g>
<g>
<title>PhaseChaitin::Register_Allocate() (5 samples, 27.78%)</title><rect x="337.8" y="595.0" width="327.8" height="15" fill="#d4d440" rx="2" ry="2"/>
<text x="340.8" y="606.0">PhaseChaitin::Register_Allocate()</text>
</g>
<g>
<title>PhaseChaitin::Split(unsigned int, ResourceArea*) (2 samples, 11.11%)</title><rect x="337.8" y="579.0" width="131.1" height="15" fill="#e2e244" rx="2" ry="2"/>
<text x="340.8" y="590.0">PhaseChaitin::Sp..</text>
</g>
<g>
<title>PhaseChaitin::build_ifg_physical(ResourceArea*) (2 samples, 11.11%)</title><rect x="468.9" y="579.0" width="131.1" height="15" fill="#d0d03e" rx="2" ry="2"/>
<text x="471.9" y="590.0">PhaseChaitin::bu..</text>
</g>
<g>
<title>PhaseChaitin::interfere_with_live(unsigned int, IndexSet*) (1 samples, 5.56%)</title><rect x="468.9" y="563.0" width="65.5" height="15" fill="#d2d23f" rx="2" ry="2"/>
<text x="471.9" y="574.0">PhaseCh..</text>
</g>
<g>
<title>RegMask::Size() const (1 samples, 5.56%)</title><rect x="534.4" y="563.0" width="65.6" height="15" fill="#e0e044" rx="2" ry="2"/>
<text x="537.4" y="574.0">RegMask..</text>
</g>
<g>
<title>PhaseLive::compute(unsigned int) (1 samples, 5.56%)</title><rect x="600.0" y="579.0" width="65.6" height="15" fill="#e3e345" rx="2" ry="2"/>
<text x="603.0" y="590.0">PhaseLi..</text>
</g>
<g>
<title>Compile::Optimize() (6 samples, 33.33%)</title><rect x="665.6" y="611.0" width="393.3" height="15" fill="#caca3c" rx="2" ry="2"/>
<text x="668.6" y="622.0">Compile::Optimize()</text>
</g>
<g>
<title>PhaseIdealLoop::build_and_optimize(bool, bool) (5 samples, 27.78%)</title><rect x="665.6" y="595.0" width="327.7" height="15" fill="#e4e445" rx="2" ry="2"/>
<text x="668.6" y="606.0">PhaseIdealLoop::build_and_optimize(bool, bool)</text>
</g>
<g>
<title>PhaseIdealLoop::Dominators() (1 samples, 5.56%)</title><rect x="665.6" y="579.0" width="65.5" height="15" fill="#d7d741" rx="2" ry="2"/>
<text x="668.6" y="590.0">PhaseId..</text>
</g>
<g>
<title>PhaseIdealLoop::build_loop_late(VectorSet&amp;, Node_List&amp;, Node_Stack&amp;) (2 samples, 11.11%)</title><rect x="731.1" y="579.0" width="131.1" height="15" fill="#caca3c" rx="2" ry="2"/>
<text x="734.1" y="590.0">PhaseIdealLoop::..</text>
</g>
<g>
<title>PhaseIdealLoop::split_if_with_blocks(VectorSet&amp;, Node_Stack&amp;) (1 samples, 5.56%)</title><rect x="862.2" y="579.0" width="65.6" height="15" fill="#cdcd3d" rx="2" ry="2"/>
<text x="865.2" y="590.0">PhaseId..</text>
</g>
<g>
<title>PhaseIdealLoop::get_ctrl(Node*) (1 samples, 5.56%)</title><rect x="862.2" y="563.0" width="65.6" height="15" fill="#dbdb42" rx="2" ry="2"/>
<text x="865.2" y="574.0">PhaseId..</text>
</g>
<g>
<title>__memset_sse2 (1 samples, 5.56%)</title><rect x="927.8" y="579.0" width="65.5" height="15" fill="#fb7d7d" rx="2" ry="2"/>
<text x="930.8" y="590.0">__memse..</text>
</g>
<g>
<title>PhaseIterGVN::optimize() (1 samples, 5.56%)</title><rect x="993.3" y="595.0" width="65.6" height="15" fill="#d2d23f" rx="2" ry="2"/>
<text x="996.3" y="606.0">PhaseIt..</text>
</g>
<g>
<title>PhaseIterGVN::transform_old(Node*) (1 samples, 5.56%)</title><rect x="993.3" y="579.0" width="65.6" height="15" fill="#c9c93c" rx="2" ry="2"/>
<text x="996.3" y="590.0">PhaseIt..</text>
</g>
<g>
<title>IfNode::Ideal(PhaseGVN*, bool) (1 samples, 5.56%)</title><rect x="993.3" y="563.0" width="65.6" height="15" fill="#c8c83c" rx="2" ry="2"/>
<text x="996.3" y="574.0">IfNode:..</text>
</g>
<g>
<title>RegionNode::hash() const (1 samples, 5.56%)</title><rect x="993.3" y="547.0" width="65.6" height="15" fill="#d5d540" rx="2" ry="2"/>
<text x="996.3" y="558.0">RegionN..</text>
</g>
<g>
<title>ParseGenerator::generate(JVMState*) (1 samples, 5.56%)</title><rect x="1058.9" y="611.0" width="65.5" height="15" fill="#c9c93c" rx="2" ry="2"/>
<text x="1061.9" y="622.0">ParseGe..</text>
</g>
<g>
<title>Parse::Parse(JVMState*, ciMethod*, float) (1 samples, 5.56%)</title><rect x="1058.9" y="595.0" width="65.5" height="15" fill="#cfcf3e" rx="2" ry="2"/>
<text x="1061.9" y="606.0">Parse::..</text>
</g>
<g>
<title>Parse::do_all_blocks() (1 samples, 5.56%)</title><rect x="1058.9" y="579.0" width="65.5" height="15" fill="#e5e545" rx="2" ry="2"/>
<text x="1061.9" y="590.0">Parse::..</text>
</g>
<g>
<title>Parse::do_one_block() (1 samples, 5.56%)</title><rect x="1058.9" y="563.0" width="65.5" height="15" fill="#e3e345" rx="2" ry="2"/>
<text x="1061.9" y="574.0">Parse::..</text>
</g>
<g>
<title>Parse::do_one_bytecode() (1 samples, 5.56%)</title><rect x="1058.9" y="547.0" width="65.5" height="15" fill="#e1e144" rx="2" ry="2"/>
<text x="1061.9" y="558.0">Parse::..</text>
</g>
<g>
<title>Parse::do_call() (1 samples, 5.56%)</title><rect x="1058.9" y="531.0" width="65.5" height="15" fill="#cfcf3e" rx="2" ry="2"/>
<text x="1061.9" y="542.0">Parse::..</text>
</g>
<g>
<title>ParseGenerator::generate(JVMState*) (1 samples, 5.56%)</title><rect x="1058.9" y="515.0" width="65.5" height="15" fill="#d8d841" rx="2" ry="2"/>
<text x="1061.9" y="526.0">ParseGe..</text>
</g>
<g>
<title>Parse::Parse(JVMState*, ciMethod*, float) (1 samples, 5.56%)</title><rect x="1058.9" y="499.0" width="65.5" height="15" fill="#d3d33f" rx="2" ry="2"/>
<text x="1061.9" y="510.0">Parse::..</text>
</g>
<g>
<title>Parse::do_all_blocks() (1 samples, 5.56%)</title><rect x="1058.9" y="483.0" width="65.5" height="15" fill="#dede43" rx="2" ry="2"/>
<text x="1061.9" y="494.0">Parse::..</text>
</g>
<g>
<title>Parse::do_one_block() (1 samples, 5.56%)</title><rect x="1058.9" y="467.0" width="65.5" height="15" fill="#d7d741" rx="2" ry="2"/>
<text x="1061.9" y="478.0">Parse::..</text>
</g>
<g>
<title>Parse::do_one_bytecode() (1 samples, 5.56%)</title><rect x="1058.9" y="451.0" width="65.5" height="15" fill="#dcdc42" rx="2" ry="2"/>
<text x="1061.9" y="462.0">Parse::..</text>
</g>
<g>
<title>Parse::do_call() (1 samples, 5.56%)</title><rect x="1058.9" y="435.0" width="65.5" height="15" fill="#d7d741" rx="2" ry="2"/>
<text x="1061.9" y="446.0">Parse::..</text>
</g>
<g>
<title>ParseGenerator::generate(JVMState*) (1 samples, 5.56%)</title><rect x="1058.9" y="419.0" width="65.5" height="15" fill="#c9c93c" rx="2" ry="2"/>
<text x="1061.9" y="430.0">ParseGe..</text>
</g>
<g>
<title>Parse::Parse(JVMState*, ciMethod*, float) (1 samples, 5.56%)</title><rect x="1058.9" y="403.0" width="65.5" height="15" fill="#d5d540" rx="2" ry="2"/>
<text x="1061.9" y="414.0">Parse::..</text>
</g>
<g>
<title>Parse::do_all_blocks() (1 samples, 5.56%)</title><rect x="1058.9" y="387.0" width="65.5" height="15" fill="#e3e345" rx="2" ry="2"/>
<text x="1061.9" y="398.0">Parse::..</text>
</g>
<g>
<title>Parse::do_one_block() (1 samples, 5.56%)</title><rect x="1058.9" y="371.0" width="65.5" height="15" fill="#e3e345" rx="2" ry="2"/>
<text x="1061.9" y="382.0">Parse::..</text>
</g>
<g>
<title>Parse::do_one_bytecode() (1 samples, 5.56%)</title><rect x="1058.9" y="355.0" width="65.5" height="15" fill="#dddd43" rx="2" ry="2"/>
<text x="1061.9" y="366.0">Parse::..</text>
</g>
<g>
<title>Parse::do_call() (1 samples, 5.56%)</title><rect x="1058.9" y="339.0" width="65.5" height="15" fill="#d0d03e" rx="2" ry="2"/>
<text x="1061.9" y="350.0">Parse::..</text>
</g>
<g>
<title>ParseGenerator::generate(JVMState*) (1 samples, 5.56%)</title><rect x="1058.9" y="323.0" width="65.5" height="15" fill="#dede43" rx="2" ry="2"/>
<text x="1061.9" y="334.0">ParseGe..</text>
</g>
<g>
<title>Parse::Parse(JVMState*, ciMethod*, float) (1 samples, 5.56%)</title><rect x="1058.9" y="307.0" width="65.5" height="15" fill="#dbdb42" rx="2" ry="2"/>
<text x="1061.9" y="318.0">Parse::..</text>
</g>
<g>
<title>Parse::do_all_blocks() (1 samples, 5.56%)</title><rect x="1058.9" y="291.0" width="65.5" height="15" fill="#d2d23f" rx="2" ry="2"/>
<text x="1061.9" y="302.0">Parse::..</text>
</g>
<g>
<title>Parse::do_one_block() (1 samples, 5.56%)</title><rect x="1058.9" y="275.0" width="65.5" height="15" fill="#dcdc42" rx="2" ry="2"/>
<text x="1061.9" y="286.0">Parse::..</text>
</g>
<g>
<title>Parse::do_one_bytecode() (1 samples, 5.56%)</title><rect x="1058.9" y="259.0" width="65.5" height="15" fill="#cccc3d" rx="2" ry="2"/>
<text x="1061.9" y="270.0">Parse::..</text>
</g>
<g>
<title>Parse::do_call() (1 samples, 5.56%)</title><rect x="1058.9" y="243.0" width="65.5" height="15" fill="#d5d540" rx="2" ry="2"/>
<text x="1061.9" y="254.0">Parse::..</text>
</g>
<g>
<title>ParseGenerator::generate(JVMState*) (1 samples, 5.56%)</title><rect x="1058.9" y="227.0" width="65.5" height="15" fill="#e2e244" rx="2" ry="2"/>
<text x="1061.9" y="238.0">ParseGe..</text>
</g>
<g>
<title>Parse::Parse(JVMState*, ciMethod*, float) (1 samples, 5.56%)</title><rect x="1058.9" y="211.0" width="65.5" height="15" fill="#e0e044" rx="2" ry="2"/>
<text x="1061.9" y="222.0">Parse::..</text>
</g>
<g>
<title>Parse::do_all_blocks() (1 samples, 5.56%)</title><rect x="1058.9" y="195.0" width="65.5" height="15" fill="#d1d13f" rx="2" ry="2"/>
<text x="1061.9" y="206.0">Parse::..</text>
</g>
<g>
<title>Parse::do_one_block() (1 samples, 5.56%)</title><rect x="1058.9" y="179.0" width="65.5" height="15" fill="#cece3e" rx="2" ry="2"/>
<text x="1061.9" y="190.0">Parse::..</text>
</g>
<g>
<title>Parse::do_one_bytecode() (1 samples, 5.56%)</title><rect x="1058.9" y="163.0" width="65.5" height="15" fill="#e2e244" rx="2" ry="2"/>
<text x="1061.9" y="174.0">Parse::..</text>
</g>
<g>
<title>Parse::do_call() (1 samples, 5.56%)</title><rect x="1058.9" y="147.0" width="65.5" height="15" fill="#d2d23f" rx="2" ry="2"/>
<text x="1061.9" y="158.0">Parse::..</text>
</g>
<g>
<title>Compile::call_generator(ciMethod*, int, bool, JVMState*, bool, float, ciKlass*, bool, bool) (1 samples, 5.56%)</title><rect x="1058.9" y="131.0" width="65.5" height="15" fill="#dcdc42" rx="2" ry="2"/>
<text x="1061.9" y="142.0">Compile..</text>
</g>
<g>
<title>InlineTree::ok_to_inline(ciMethod*, JVMState*, ciCallProfile&amp;, WarmCallInfo*, bool&amp;) (1 samples, 5.56%)</title><rect x="1058.9" y="115.0" width="65.5" height="15" fill="#e4e445" rx="2" ry="2"/>
<text x="1061.9" y="126.0">InlineT..</text>
</g>
<g>
<title>ciMethod::get_flow_analysis() (1 samples, 5.56%)</title><rect x="1058.9" y="99.0" width="65.5" height="15" fill="#d9d941" rx="2" ry="2"/>
<text x="1061.9" y="110.0">ciMetho..</text>
</g>
<g>
<title>ciTypeFlow::do_flow() (1 samples, 5.56%)</title><rect x="1058.9" y="83.0" width="65.5" height="15" fill="#dbdb42" rx="2" ry="2"/>
<text x="1061.9" y="94.0">ciTypeF..</text>
</g>
<g>
<title>ciTypeFlow::flow_types() (1 samples, 5.56%)</title><rect x="1058.9" y="67.0" width="65.5" height="15" fill="#e1e144" rx="2" ry="2"/>
<text x="1061.9" y="78.0">ciTypeF..</text>
</g>
<g>
<title>ciTypeFlow::df_flow_types(ciTypeFlow::Block*, bool, ciTypeFlow::StateVector*, ciTypeFlow::JsrSet*) (1 samples, 5.56%)</title><rect x="1058.9" y="51.0" width="65.5" height="15" fill="#d5d540" rx="2" ry="2"/>
<text x="1061.9" y="62.0">ciTypeF..</text>
</g>
<g>
<title>ciTypeFlow::Block::Block(ciTypeFlow*, ciBlock*, ciTypeFlow::JsrSet*) (1 samples, 5.56%)</title><rect x="1058.9" y="35.0" width="65.5" height="15" fill="#e3e345" rx="2" ry="2"/>
<text x="1061.9" y="46.0">ciTypeF..</text>
</g>
<g>
<title>Compiler::compile_method(ciEnv*, ciMethod*, int) (1 samples, 5.56%)</title><rect x="1124.4" y="643.0" width="65.6" height="15" fill="#d3d33f" rx="2" ry="2"/>
<text x="1127.4" y="654.0">Compile..</text>
</g>
<g>
<title>Compilation::Compilation(AbstractCompiler*, ciEnv*, ciMethod*, int, BufferBlob*) (1 samples, 5.56%)</title><rect x="1124.4" y="627.0" width="65.6" height="15" fill="#e0e044" rx="2" ry="2"/>
<text x="1127.4" y="638.0">Compila..</text>
</g>
<g>
<title>Compilation::compile_method() (1 samples, 5.56%)</title><rect x="1124.4" y="611.0" width="65.6" height="15" fill="#dcdc42" rx="2" ry="2"/>
<text x="1127.4" y="622.0">Compila..</text>
</g>
<g>
<title>Compilation::compile_java_method() (1 samples, 5.56%)</title><rect x="1124.4" y="595.0" width="65.6" height="15" fill="#e3e345" rx="2" ry="2"/>
<text x="1127.4" y="606.0">Compila..</text>
</g>
<g>
<title>Compilation::emit_lir() (1 samples, 5.56%)</title><rect x="1124.4" y="579.0" width="65.6" height="15" fill="#d6d640" rx="2" ry="2"/>
<text x="1127.4" y="590.0">Compila..</text>
</g>
<g>
<title>LinearScan::do_linear_scan() (1 samples, 5.56%)</title><rect x="1124.4" y="563.0" width="65.6" height="15" fill="#cece3e" rx="2" ry="2"/>
<text x="1127.4" y="574.0">LinearS..</text>
</g>
<g>
<title>LinearScan::allocate_registers() (1 samples, 5.56%)</title><rect x="1124.4" y="547.0" width="65.6" height="15" fill="#e4e445" rx="2" ry="2"/>
<text x="1127.4" y="558.0">LinearS..</text>
</g>
</g>
</svg>
